<?xml version="1.0" encoding="UTF-8"?>
<svg width="32px" height="32px" viewBox="0 0 32 32" version="1.1" xmlns="http://www.w3.org/2000/svg" xmlns:xlink="http://www.w3.org/1999/xlink">
    <title>83BE3C6A-0DCB-40CF-A8CF-96ECCC4AE820@2x</title>
    <g id="Cover" stroke="none" stroke-width="1" fill="none" fill-rule="evenodd">
        <g id="Icons-and-illustrations" transform="translate(-48.000000, -334.000000)" fill="#006330">
            <g id="Landslide" transform="translate(48.000000, 334.000000)">
                <path d="M6.97542707,3.375 L10.3504271,3.81767174 L10.2703962,6.81181625 L15.7667327,4.04262184 L16.6972383,4.15642187 L31.9432989,16.176632 L30.9608568,17.5191813 L28.1074344,15.2695228 L27.8831594,26.0604337 C29.3704639,26.2200286 30.7648334,26.6901797 32.000202,27.4047539 L32.000202,29.1892164 C30.5224874,28.1261284 28.7093638,27.5 26.75,27.5 C25.5976946,27.5 24.4780102,27.7158901 23.4328418,28.1309794 C22.8986296,28.3431421 22.2901543,28.2313693 21.8662187,27.8432015 C21.1010971,27.1426337 20.1135774,26.75 19.0625,26.75 C18.2889507,26.75 17.5495219,26.9618534 16.9038001,27.3573604 L16.8416054,27.3962076 C16.195307,27.8077906 15.3450305,27.6653415 14.8674509,27.0716318 L14.8426624,27.0399678 C14.4653702,26.5447026 13.8835514,26.25 13.25,26.25 C12.9891235,26.25 12.7375572,26.299214 12.5032946,26.3936551 L12.4495448,26.4162502 C12.3244408,26.4710215 12.1943084,26.5077252 12.0626912,26.5267535 C12.777423,26.870347 13.3919449,27.4060623 13.8382212,28.0828742 C14.0282353,28.3710451 13.9486635,28.7586906 13.6604926,28.9487048 C13.3723218,29.1387189 12.9846762,29.0591471 12.7946621,28.7709762 C12.2498783,27.9447703 11.3610784,27.4130562 10.3623365,27.3432174 C9.73011385,27.2990081 9.11375898,27.442823 8.57403302,27.7509714 C8.27427089,27.9221161 7.89252551,27.817851 7.72138083,27.5180889 C7.55023616,27.2183268 7.6545012,26.8365814 7.95426332,26.6654367 C8.70675155,26.2358149 9.56878827,26.0346747 10.4495321,26.0962623 C10.5660711,26.1044115 10.6815455,26.1170783 10.7957606,26.1341225 L10.9604458,26.2514301 C9.74808106,25.3616348 8.28775858,24.875 6.75,24.875 C5.88236419,24.875 5.03845446,25.0294505 4.24610177,25.3272169 C3.69582326,25.5340118 3.07682785,25.4000041 2.6615214,24.9874948 L2.63288045,24.9582639 C2.12780839,24.4286108 1.43371294,24.125 0.6875,24.125 C0.449881386,24.125 0.219465407,24.1558381 -2.18200403e-05,24.2137306 L-2.18200403e-05,22.6811676 C0.223668794,22.6442197 0.453339896,22.625 0.6875,22.625 C1.82624172,22.625 2.8588201,23.0795393 3.61369904,23.8170818 L3.8574311,12.0889691 L0.904231835,13.5768943 L-2.18200403e-05,11.9868916 L6.83732655,8.54167023 L6.97542707,3.375 Z M16.1910486,5.87442859 L5.38323911,11.3201728 L5.11884887,23.5290562 C5.64701957,23.4279265 6.19232897,23.375 6.75,23.375 L6.75,21.75 L6.75,21.75 L7.5,21.25 L7.5,19.875 L8,21.25 L7.375,22.3125 C7.75261245,23.0748501 7.9746115,23.4610071 8.04099714,23.4709711 C9.2471108,23.6519998 10.3714935,24.0827708 11.3598169,24.7089556 L11.5968431,13.4926818 L20.3468431,14.6403492 L20.1204571,25.3492958 C21.170339,25.5489703 22.1184088,26.0403126 22.8791819,26.7368988 C23.9669524,26.3048901 25.1442697,26.0497143 26.3755292,26.0065533 L26.6332424,14.1072405 L25.6502735,13.3322503 L25.375,14.625 L25,14.75 L25.0625,16.875 L24.375,14.75 L25,13.9375 L24.4367847,12.375514 L16.1910486,5.87442859 Z" id="ðŸŽ-Culoare"></path>
            </g>
        </g>
    </g>
</svg>