<?xml version="1.0" encoding="UTF-8"?>
<svg width="32px" height="32px" viewBox="0 0 32 32" version="1.1" xmlns="http://www.w3.org/2000/svg" xmlns:xlink="http://www.w3.org/1999/xlink">
    <title>E48FD99E-E280-4E32-A877-64404C69ADEB</title>
    <g id="Cover" stroke="none" stroke-width="1" fill="none" fill-rule="evenodd">
        <g id="Icons-and-illustrations" transform="translate(-272.000000, -334.000000)" fill="#006330">
            <g id="Pipe" transform="translate(272.000000, 334.000000)">
                <path d="M15.375,15.625 L15.375,20.5 L16.125,20.5 C17.2083333,21.702007 17.75,22.9103403 17.75,24.125 C17.75,25.9469895 16.6875,27.875 14.5,27.875 C12.3125,27.875 10.625,26.7454188 10.625,23.9181937 C10.625,22.033377 12.2083333,19.2689791 15.375,15.625 Z M8,20.375 L8,22.75 L0.75,22.75 L0.75,20.375 L8,20.375 Z M13.375,4.5 C14.2724627,4.5 15,5.22753728 15,6.125 C15,7.02246272 14.2724627,7.75 13.375,7.75 C12.8547235,7.75 12.3915545,7.50549322 12.0941322,7.12511859 L10.625,7.125 L10.625,10.125 L11.125,10.125 C11.9534271,10.125 12.625,10.7965729 12.625,11.625 L12.625,13.249875 L13.125125,13.249875 L13.3554836,12.9042747 C13.6800487,12.417427 14.2264535,12.125 14.8115716,12.125 L15.375,12.125 L15.374,14.577 L14.8560669,15.1740402 C14.2261273,15.8989308 13.6563392,16.5910432 13.146909,17.2511376 L6.375,17.25 L6.375,19.875 L2.375,19.875 L2.375,15.625 C2.375,14.3133237 3.43832372,13.25 4.75,13.25 L9.489,13.249875 L6.625,12.625 L6.625,11.625 C6.625,10.7965729 7.29657288,10.125 8.125,10.125 L8.625,10.125 L8.625,7.125 L7.15586783,7.12511859 C6.85844546,7.50549322 6.39527654,7.75 5.875,7.75 C4.97753728,7.75 4.25,7.02246272 4.25,6.125 C4.25,5.22753728 4.97753728,4.5 5.875,4.5 C6.39533377,4.5 6.85854736,4.74456058 7.15596599,5.12500695 L12.094034,5.12500695 C12.3914526,4.74456058 12.8546662,4.5 13.375,4.5 Z M19.125,10.75 L19.125,12.25 L31.625,12.25 L31.625,18.25 L19.125,18.25 L19.125,19.75 L16.125,19.75 L16.125,17 L18,15.5625 L19.1875,17.125 L21.125,16 L22,17 L21.125,15.5 L19.3125,16.4375 L18.1875,14.5625 L16.125,15.6875 L16.125,10.75 L19.125,10.75 Z" id="ðŸŽ-Culoare"></path>
            </g>
        </g>
    </g>
</svg>