<?xml version="1.0" encoding="UTF-8"?>
<svg width="32px" height="32px" viewBox="0 0 32 32" version="1.1" xmlns="http://www.w3.org/2000/svg" xmlns:xlink="http://www.w3.org/1999/xlink">
    <title>EEA136CF-443B-4328-BEC0-CBFA1DA8002C</title>
    <g id="Cover" stroke="none" stroke-width="1" fill="none" fill-rule="evenodd">
        <g id="Icons-and-illustrations" transform="translate(-104.000000, -334.000000)" fill="#006330">
            <g id="Assistance" transform="translate(104.000000, 334.000000)">
                <path d="M11.2764582,17.6212098 L11.41495,17.623 C11.48135,17.627575 11.548,17.6376 11.6140875,17.652875 L11.6140875,17.652875 L15.4799,21.5186875 C15.4952125,21.5847375 15.5052,21.65135 15.509775,21.71775 C15.5321625,22.0420375 15.4275375,22.3620375 15.19045,22.5990875 L15.19045,22.5990875 L13.9166,23.8729 C13.679475,24.110025 13.35955,24.21465 13.0352625,24.192325 C12.9036375,24.1832625 12.7711875,24.153 12.64395,24.101975 C12.6221875,24.2523875 12.5913625,24.401675 12.5524625,24.5474 C12.395175,25.1376125 12.1027375,25.68675 11.7527375,26.0368 L11.7527375,26.0368 L8.4493375,29.34015 C7.9820125,29.807475 7.344575,30.0129875 6.6942375,29.967675 C6.066925,29.92395 5.4265125,29.6458 4.9245,29.14375 L4.9245,29.14375 L3.988925,28.208175 C3.4869375,27.7061875 3.208825,27.0657375 3.1651375,26.4385375 C3.1197875,25.788025 3.3252625,25.15055 3.7925125,24.683325 L3.7925125,24.683325 L7.095875,21.3799375 C7.4458125,21.03 7.9949875,20.7376125 8.5853375,20.5802125 C8.7311125,20.5413375 8.88035,20.510475 9.030725,20.4887625 C8.979775,20.361525 8.9495125,20.2290375 8.9404125,20.097475 C8.9180875,19.7731125 9.02275,19.453125 9.2597375,19.2161125 L9.2597375,19.2161125 L10.533625,17.94225 C10.7706,17.70525 11.0906625,17.60065 11.41495,17.623 Z M9.3654625,2.0529625 C12.186225,2.8316125 14.596025,4.973075 14.556975,8.2898625 C14.5431625,9.461775 14.3889875,10.5291625 15.087375,11.22755 L28.877425,25.0176 C30.670625,26.8109 29.412575,29.922 26.84495,29.922 C26.1089,29.922 25.372,29.642075 24.812475,29.08255 L10.9182875,15.1883625 C10.161925,14.4320375 9.4731125,14.1774625 8.51695,14.1425875 C6.76875,14.0788875 4.761925,13.814725 3.6815,12.282 C2.39575,10.4579375 2.2083375,8.0754625 2.681725,5.9449 C2.9465875,4.7529375 4.3849875,4.5462875 4.871875,5.45965 L6.6234375,8.7472 C6.66625,8.8276 7.2103875,8.9152875 7.510575,8.8565125 C8.1221125,8.73675 8.810375,8.4576 9.235425,7.998675 C9.3676625,7.8559125 9.9848375,7.1284 9.8657125,6.936325 L7.865125,3.711125 C7.327075,2.8439 8.306825,1.76075 9.3654625,2.0529625 Z M13.3728375,11.3806125 C13.073,11.7765875 12.729975,12.1474625 12.3601625,12.4799625 C11.9681,12.83245 11.541875,13.1449375 11.100875,13.4017875 C11.39755,13.5975625 11.688175,13.8372625 11.9788,14.12785 L25.873025,28.022075 C26.722325,28.871375 28.2168125,28.28825 28.2168125,27.050075 C28.2168125,26.697125 28.083475,26.344675 27.8169125,26.0781125 L14.0268625,12.2880625 C13.7293,11.9904875 13.5198875,11.687925 13.3728375,11.3806125 Z M10.6145125,23.733475 C10.419275,23.5382375 10.102725,23.5382375 9.9074875,23.733475 L9.9074875,23.733475 L6.3890875,27.251875 C6.19385,27.4471125 6.19385,27.7636625 6.3890875,27.9589 C6.584325,28.1541375 6.9008875,28.1541375 7.0960875,27.9589 L7.0960875,27.9589 L10.614475,24.4405 C10.80975,24.2452625 10.80975,23.9287125 10.6145125,23.733475 Z M27.555525,26.34645 C27.9460375,26.7369625 27.9460375,27.37015 27.555525,27.76065 C27.1649875,28.1511625 26.531825,28.1511625 26.141325,27.76065 C25.7508125,27.37015 25.7508125,26.7369625 26.141325,26.34645 C26.531825,25.9559375 27.1649875,25.9559375 27.555525,26.34645 Z M9.3992,22.51815 C9.2039625,22.3229125 8.8874,22.3229125 8.6921625,22.51815 L8.6921625,22.51815 L5.1737625,26.03655 C4.9785375,26.2317875 4.9785375,26.54835 5.1737625,26.7435875 C5.369,26.938825 5.6855625,26.938825 5.8808,26.7435875 L5.8808,26.7435875 L9.3991625,23.2251875 C9.5944375,23.02995 9.5944375,22.7133875 9.3992,22.51815 Z M27.1112375,4.16925 C27.3468625,3.977625 27.6874125,4.0037 27.902025,4.218325 L27.902025,4.218325 L28.9143125,5.2306125 C29.1289,5.445225 29.155325,5.785625 28.9635375,6.0214 L28.9635375,6.0214 L26.7860625,8.6992875 C26.673675,8.837375 26.5282875,8.9182 26.3507375,8.9291125 C26.1732125,8.940025 26.0160375,8.8806375 25.89035,8.7549875 L25.89035,8.7549875 L25.66425,8.5288875 L19.9108125,14.2823375 L18.8503,13.2218625 L24.603775,7.4684125 L24.377675,7.242325 C24.2520625,7.11675 24.1926125,6.959275 24.203525,6.781825 C24.214475,6.6044125 24.2955125,6.458825 24.4333375,6.346675 L24.4333375,6.346675 Z M9.6228875,3.71 L11.1371875,6.1511875 C11.7721125,7.17485 11.009625,8.2797625 10.3310875,9.0123375 C9.4279625,9.9873875 7.7114125,10.6430375 6.3949625,10.25895 C5.936175,10.1251125 5.5275375,9.867525 5.3051125,9.450325 L4.0090125,7.0176375 C3.814525,8.5229 4.0208125,10.1648375 4.906075,11.4206875 C5.6384375,12.4596625 7.3530125,12.6041625 8.569675,12.64845 C8.6382,12.650925 8.705875,12.6544 8.7729125,12.6587625 C9.5834125,12.61025 10.5418125,12.1005875 11.3581875,11.3666625 C12.2235625,10.5885875 12.89655,9.582675 13.03555,8.627675 C13.048525,8.5385375 13.05695,8.453675 13.060675,8.3736625 C13.05695,7.4049875 12.9213125,6.4004625 12.0472875,5.3638375 C11.394075,4.589125 10.506625,4.0483125 9.6228875,3.71 Z" id="ðŸŽ-Culoare"></path>
            </g>
        </g>
    </g>
</svg>