<?xml version="1.0" encoding="UTF-8"?>
<svg width="32px" height="32px" viewBox="0 0 32 32" version="1.1" xmlns="http://www.w3.org/2000/svg" xmlns:xlink="http://www.w3.org/1999/xlink">
    <title>169851AF-F912-4CDF-B373-D080627A9F7C</title>
    <g id="Cover" stroke="none" stroke-width="1" fill="none" fill-rule="evenodd">
        <g id="Icons-and-illustrations" transform="translate(-160.000000, -334.000000)" fill="#006330">
            <g id="Goods" transform="translate(160.000000, 334.000000)">
                <path d="M23.2913719,29.51505 C23.9142469,29.685675 24.5673719,29.802425 25.2111219,29.8088 C25.4774969,29.8113 25.7443719,29.79455 26.0063719,29.753675 C25.6847469,30.30905 25.0886219,30.85805 24.4096219,31.198675 L24.4096219,31.198675 L24.4096219,31.999925 L22.6339969,31.999925 L22.6339969,31.209425 C22.9382469,30.7843 23.2143719,30.102925 23.2913719,29.51505 Z M8.70837185,29.515175 C8.78524685,30.102925 9.06137185,30.7843 9.36562185,31.209425 L9.36562185,31.999925 L7.58987185,31.999925 L7.58987185,31.198675 C6.91087185,30.85805 6.31462185,30.30905 5.99312185,29.75355 C6.25524685,29.79455 6.52212185,29.8113 6.78874685,29.8088 C7.43249685,29.802425 8.08537185,29.685675 8.70837185,29.515175 Z M6.79905935,15.383875 C7.48693435,15.57975 8.12193435,15.968375 8.57868435,16.537 C8.78855935,16.7985 8.96143435,17.099375 9.08518435,17.43925 C9.20905935,17.77925 9.28393435,18.157875 9.29805935,18.57475 C9.31230935,18.991625 9.26568435,19.4465 9.14668435,19.938625 C8.78393435,21.439125 8.53393435,21.087875 8.48018435,22.647875 C8.41393435,24.576375 8.35455935,26.293875 8.50393435,28.259 C7.93868435,28.4245 7.31018435,28.552875 6.71218435,28.55875 C6.18668435,28.564 5.68643435,28.47475 5.28518435,28.229375 C3.86680935,27.362125 3.95893435,23.500125 4.05605935,21.65 C4.72605935,21.84475 5.45418435,21.86125 6.13293435,21.701125 C6.69143435,21.56925 7.11693435,21.29225 7.41968435,20.9355 C7.67730935,20.631625 7.84005935,20.2735 7.91580935,19.9005 C8.08680935,19.059 7.82130935,18.1215 7.14968435,17.55975 C6.59605935,17.096375 5.91993435,17.022875 5.40993435,17.18325 C5.21093435,17.24575 5.03218435,17.344875 4.88868435,17.472 C4.72805935,17.614125 4.61043435,17.792375 4.55255935,17.99825 C4.45018435,18.362625 4.54093435,18.775875 4.92518435,19.169 C5.11843435,19.366375 5.43630935,19.370875 5.63505935,19.178875 C5.83380935,18.98675 5.83830935,18.671125 5.64493435,18.473625 C5.54443435,18.37075 5.50943435,18.30175 5.52018435,18.26375 C5.52355935,18.25225 5.53655935,18.23625 5.55730935,18.218 C5.59493435,18.184625 5.64830935,18.156625 5.71268435,18.136375 C5.93830935,18.0655 6.24443435,18.103875 6.50455935,18.3215 C6.88693435,18.6415 7.02905935,19.229625 6.93243435,19.70525 C6.88893435,19.9205 6.79680935,20.12475 6.65255935,20.294875 C6.48468435,20.49275 6.23743435,20.649 5.90080935,20.7285 C5.58905935,20.802 5.26268435,20.826125 4.94130935,20.80075 C4.42405935,20.75975 3.92243435,20.59025 3.51943435,20.29175 C3.12855935,20.002125 2.82843435,19.58575 2.69818435,19.041375 C2.63255935,18.766625 2.60868435,18.458 2.63630935,18.11475 C2.81668435,15.8725 4.78680935,14.810375 6.79905935,15.383875 Z M29.3635594,18.11475 C29.3911844,18.458 29.3674344,18.766625 29.3016844,19.041375 C29.1714344,19.58575 28.8714344,20.002125 28.4804344,20.29175 C28.0774344,20.59025 27.5759344,20.75975 27.0586844,20.80075 C26.7373094,20.826125 26.4108094,20.802 26.0990594,20.7285 C25.7625594,20.649 25.5151844,20.49275 25.3474344,20.294875 C25.2030594,20.12475 25.1110594,19.9205 25.0673094,19.70525 C24.9708094,19.229625 25.1130594,18.6415 25.4953094,18.3215 C25.7554344,18.103875 26.0614344,18.0655 26.2871844,18.136375 C26.3516844,18.156625 26.4049344,18.184625 26.4425594,18.218 C26.4631844,18.23625 26.4764344,18.252125 26.4796844,18.26375 C26.4903094,18.30175 26.4555594,18.37075 26.3549344,18.473625 C26.1615594,18.671125 26.1660594,18.98675 26.3648094,19.178875 C26.5635594,19.370875 26.8814344,19.366375 27.0748094,19.169 C27.4589344,18.775875 27.5498094,18.362625 27.4473094,17.99825 C27.3894344,17.792375 27.2718094,17.614125 27.1113094,17.472 C26.9676844,17.344875 26.7890594,17.24575 26.5900594,17.18325 C26.0800594,17.022875 25.4039344,17.096375 24.8501844,17.55975 C24.1786844,18.121625 23.9131844,19.058875 24.0840594,19.9005 C24.1598094,20.2735 24.3225594,20.631625 24.5803094,20.9355 C24.8830594,21.29225 25.3084344,21.56925 25.8670594,21.701125 C26.5458094,21.86125 27.2736844,21.84475 27.9438094,21.65 C28.0410594,23.500125 28.1331844,27.362125 26.7146844,28.229375 C26.3134344,28.47475 25.8131844,28.564 25.2876844,28.55875 C24.6896844,28.552875 24.0611844,28.4245 23.4959344,28.259 C23.6453094,26.294 23.5860594,24.576375 23.5195594,22.647875 C23.4659344,21.087875 23.2160594,21.439125 22.8531844,19.938625 C22.7340594,19.4465 22.6876844,18.991625 22.7018094,18.57475 C22.7160594,18.157875 22.7908094,17.77925 22.9148094,17.43925 C23.0385594,17.099375 23.2114344,16.7985 23.4211844,16.537 C23.8779344,15.968375 24.5130594,15.57975 25.2009344,15.383875 C27.2129344,14.810375 29.1831844,15.8725 29.3635594,18.11475 Z M22.5789344,24.897375 C22.5953094,25.995875 22.5790594,27.086625 22.4849344,28.27525 C21.7649344,28.494125 20.1826844,28.451875 18.4018094,28.4045 C17.5905594,28.382875 16.7413094,28.36 15.9999344,28.36 C15.2586844,28.36 14.4093094,28.382875 13.5980594,28.4045 C11.8170594,28.451875 10.2349344,28.494125 9.51493435,28.27525 C9.42068435,27.086625 9.40455935,25.995875 9.42093435,24.897625 C10.8964344,25.314625 13.4553094,25.523125 15.9989344,25.523125 C18.5433094,25.523125 21.1030594,25.314375 22.5789344,24.897375 Z M17.5771844,21.4455 C18.1296844,21.452875 18.6896844,21.549125 19.1909344,21.701625 C19.2691844,21.73075 19.3558094,21.741 19.4444344,21.7275 C20.0479344,21.635 20.7921844,21.605875 21.4565594,21.6995 C21.8584344,21.756 22.2240594,21.85525 22.4938094,22.00925 C22.5014344,22.23575 22.5090594,22.458875 22.5165594,22.679 C22.5304344,23.080875 22.5440594,23.4735 22.5553094,23.861 C21.2928094,24.30225 18.6549344,24.523125 15.9989344,24.523125 C13.3436844,24.523125 10.7070594,24.302375 9.44468435,23.861125 C9.45593435,23.473625 9.46943435,23.081 9.48330935,22.679 C9.49093435,22.458875 9.49855935,22.235875 9.50605935,22.00925 C9.77580935,21.85525 10.1415594,21.756 10.5435594,21.6995 C11.2078094,21.605875 11.9520594,21.635 12.5558094,21.7275 L12.5558094,21.72675 C12.6291844,21.738125 12.7063094,21.733375 12.7819344,21.71 C13.2900594,21.5525 13.8603094,21.453 14.4228094,21.4455 C14.9138094,21.439 15.3988094,21.501875 15.8289344,21.65725 C15.9356844,21.69575 16.0560594,21.698625 16.1710594,21.65725 C16.6013094,21.501875 17.0863094,21.439 17.5771844,21.4455 Z M15.9999344,0 C17.3913094,0 18.7770594,0.2555 19.9184344,0.7665 C20.9174344,1.21375 21.7233094,1.85325 22.1648094,2.682 C22.2458094,2.844375 22.4135594,2.957375 22.6086844,2.9595 C23.9359344,2.978875 25.3151844,3.294375 26.2834344,4.034625 C27.0350594,4.60925 27.5405594,5.45575 27.5683094,6.641875 C27.6149344,8.63375 27.3905594,11.674625 27.0448094,14.04875 L27.0085594,14.2985 C26.3229344,14.185875 25.6038094,14.229625 24.9255594,14.422875 C24.0455594,14.673625 23.2285594,15.17625 22.6345594,15.916 C21.7343094,17.037 21.3514344,18.68575 22.0558094,20.7965 C21.9058094,20.7615 21.7513094,20.733375 21.5941844,20.711125 C20.8659344,20.608625 20.0661844,20.631375 19.4038094,20.722875 C18.8420594,20.55975 18.2151844,20.457875 17.5889344,20.449375 C17.0455594,20.44225 16.5020594,20.50625 15.9999344,20.66225 C15.4980594,20.50625 14.9545594,20.44225 14.4110594,20.449375 C13.7849344,20.457875 13.1580594,20.55975 12.5963094,20.722875 C11.9339344,20.631375 11.1340594,20.608625 10.4059344,20.711125 C10.2486844,20.733375 10.0940594,20.7615 9.94405935,20.7965 C10.6485594,18.68575 10.2655594,17.037 9.36530935,15.916 C8.77130935,15.17625 7.95430935,14.673625 7.07443435,14.422875 C6.39618435,14.229625 5.67693435,14.185875 4.99143435,14.2985 L4.95505935,14.04875 C4.60930935,11.674625 4.38480935,8.63375 4.43155935,6.641875 C4.45930935,5.45575 4.96480935,4.60925 5.71655935,4.034625 C6.61564864,3.34725 7.86912058,3.02611352 9.10617137,2.96823119 L9.39118435,2.959375 C9.56968435,2.957375 9.74143435,2.86 9.82980935,2.692 C10.2699344,1.8585 11.0784344,1.215625 12.0815594,0.7665 C13.2228094,0.2555 14.6085594,0 15.9999344,0 Z M10.6707928,6.20255322 L10.5944344,6.20625 C10.3884344,6.237 10.2464344,6.427625 10.2773094,6.6325 C10.5541844,8.41625 10.8461844,10.094625 11.1730594,11.773 C11.4983094,13.442375 11.8578094,15.1075 12.2710594,16.8735 C12.3175594,17.074875 12.5195594,17.20075 12.7225594,17.15475 C12.9253094,17.108625 13.0520594,16.907875 13.0056844,16.7065 C12.5954344,14.95375 12.2379344,13.297375 11.9135594,11.6325 C11.5910594,9.976625 11.3008094,8.307375 11.0236844,6.521125 C10.9928094,6.316375 10.8005594,6.1755 10.5944344,6.20625 Z M16.0000594,5.406875 C15.7915594,5.406875 15.6224344,5.574875 15.6224344,5.781875 L15.6224344,5.781875 L15.6224344,16.79 C15.6224344,16.997 15.7915594,17.165 16.0000594,17.165 C16.2086844,17.165 16.3778094,16.997 16.3778094,16.79 L16.3778094,16.79 L16.3778094,5.781875 C16.3778094,5.574875 16.2086844,5.406875 16.0000594,5.406875 Z M21.4069344,6.20625 C21.2009344,6.174625 21.0080594,6.315 20.9763094,6.51975 C20.6983094,8.310625 20.4080594,9.98025 20.0861844,11.632375 C19.7618094,13.2975 19.4043094,14.953875 18.9939344,16.7065 C18.9475594,16.907875 19.0744344,17.108625 19.2771844,17.15475 C19.4800594,17.20075 19.6820594,17.074875 19.7285594,16.8735 C20.1419344,15.107625 20.5015594,13.442375 20.8266844,11.773 C21.1544344,10.09075 21.4465594,8.41275 21.7226844,6.634 C21.7543094,6.42925 21.6131844,6.23775 21.4069344,6.20625 Z" id="ðŸŽ-Culoare"></path>
            </g>
        </g>
    </g>
</svg>