<?xml version="1.0" encoding="UTF-8"?>
<svg width="155px" height="158px" viewBox="0 0 155 158" version="1.1" xmlns="http://www.w3.org/2000/svg" xmlns:xlink="http://www.w3.org/1999/xlink">
    <title>BF292D5D-F7E1-4B0F-8C5A-595F81FE4089</title>
    <defs>
        <path d="M48,75 L65,75 C65,79.6666667 62.1666667,82 56.5,82 C50.8333333,82 48,79.6666667 48,75 Z" id="path-1"></path>
    </defs>
    <g id="Cover" stroke="none" stroke-width="1" fill="none" fill-rule="evenodd">
        <g id="Icons-and-illustrations" transform="translate(-763.000000, -1967.000000)">
            <g id="Call-Center" transform="translate(763.000000, 1967.000000)">
                <path d="M24.3569094,8.29619986e-16 L130.643091,9.84048292e-16 C139.112519,-5.71760396e-16 142.183738,0.881843306 145.280034,2.53776069 C148.37633,4.19367807 150.806322,6.62366952 152.462239,9.71996582 C154.118157,12.8162621 155,15.8874814 155,24.3569094 L155,133.643091 C155,142.112519 154.118157,145.183738 152.462239,148.280034 C150.806322,151.37633 148.37633,153.806322 145.280034,155.462239 C142.183738,157.118157 139.112519,158 130.643091,158 L24.3569094,158 C15.8874814,158 12.8162621,157.118157 9.71996582,155.462239 C6.62366952,153.806322 4.19367807,151.37633 2.53776069,148.280034 C0.881843306,145.183738 3.81173598e-16,142.112519 -6.56032195e-16,133.643091 L6.56032195e-16,24.3569094 C-3.81173598e-16,15.8874814 0.881843306,12.8162621 2.53776069,9.71996582 C4.19367807,6.62366952 6.62366952,4.19367807 9.71996582,2.53776069 C12.8162621,0.881843306 15.8874814,-4.82033103e-16 24.3569094,8.29619986e-16 Z" id="Rectangle" fill="#F2F9F5"></path>
                <g id="Group" transform="translate(21.000000, 9.000000)">
                    <path d="M19,37 L94,37 L94,113 C94,116.313708 91.3137085,119 88,119 L25,119 C21.6862915,119 19,116.313708 19,113 L19,37 L19,37 Z" id="Rectangle" fill="#2E485D"></path>
                    <path d="M30.1994045,94.7849963 L56.5,90 L56.5,90 L82.8005955,94.7849963 C94.8915323,96.9847597 104.418069,106.336315 106.841578,118.384399 L113,149 L113,149 L0,149 L6.15842182,118.384399 C8.58193065,106.336315 18.1084677,96.9847597 30.1994045,94.7849963 Z" id="Rectangle" fill="#74CFB3"></path>
                    <path d="M65,91.617 L81,94.658 L81,96.3549796 C81,105.993337 76.6563643,115.108788 69.1927371,121.179442 L68.8039113,121.490713 L56.5,131.184704 L44.1960887,121.490713 C36.4947075,115.422958 32,106.159515 32,96.3549796 L32,96.3549796 L32,94.658 L48,91.617 L48,96.3549796 C48,100.99565 50.0139041,105.393877 53.4953908,108.423712 L53.7973853,108.680034 L54.0980444,108.922846 L56.5,110.815 L58.9019556,108.922846 C62.6513123,105.968808 64.8806079,101.499916 64.9953427,96.7414145 L64.9953427,96.7414145 L65,96.3549796 L65,91.617 Z" id="Combined-Shape" fill="#6EC5AB"></path>
                    <path d="M40,69 L73,69 L73,93.8461538 C73,99.944888 65.6126984,107 56.5,107 C47.3873016,107 40,99.944888 40,93.8461538 L40,69 Z" id="Rectangle" fill="#FFD8C2"></path>
                    <path d="M40,77 L73,77 L73,96.3549796 C73,103.708381 69.6289694,110.655964 63.8529334,115.20678 L56.5,121 L56.5,121 L49.1470666,115.20678 C43.3710306,110.655964 40,103.708381 40,96.3549796 L40,77 L40,77 Z" id="Rectangle" fill="#FFD8C2"></path>
                    <path d="M40,74 L73,74 L73,88.5913471 C73,101.098216 40,102.140455 40,92.7603034 L40,74 Z" id="Rectangle" fill="#F0BDA1"></path>
                    <path d="M51.412054,7.09547974 L57,5 L57,5 L61.9879381,6.93081475 C77.6169751,12.9807646 87.8175032,28.1323023 87.5428002,44.8891883 L87.2375072,63.5120617 C87.0891744,72.5603624 82.4177332,80.9326508 74.7955843,85.810826 L66.6324927,91.0352047 C63.6075803,92.9711486 60.091375,94 56.5,94 C52.908625,94 49.3924197,92.9711486 46.3675073,91.0352047 L38.2044157,85.810826 C30.5822668,80.9326508 25.9108256,72.5603624 25.7624928,63.5120617 L25.4623655,45.2042964 C25.1851239,28.2925556 35.57497,13.0343862 51.412054,7.09547974 Z" id="Rectangle" fill="#FFD8C2"></path>
                    <path d="M56.5,1 C77.2106781,1 94,17.7893219 94,38.5 L94,44 L94,44 C85.6519697,43.0197486 78.6678798,37.2075394 76.1876316,29.1764204 L74.4577465,23.575 L74.4577465,23.575 C67.5225516,35.0017794 55.3647563,42.2377524 42.0137409,42.8847468 L19,44 L19,44 L19,38.5 C19,17.7893219 35.7893219,1 56.5,1 Z" id="Rectangle" fill="#2E485D"></path>
                    <path d="M53,67 L60,67 C60,68.6568542 58.6568542,70 57,70 L56,70 C54.3431458,70 53,68.6568542 53,67 L53,67 L53,67 Z" id="Rectangle" fill="#F0BDA1"></path>
                    <circle id="Oval" fill="#2E485D" cx="71.260274" cy="52.6849315" r="4.19178082"></circle>
                    <circle id="Oval" fill="#2E485D" cx="41.9178082" cy="52.6849315" r="4.19178082"></circle>
                    <path d="M26,46.1110819 L26,64.9722391 C26,65.5235386 25.5538212,65.9708447 25.0025234,65.9722359 L20,65.9848594 C16.6946429,65.9932003 14.0083599,63.3204405 14.0000191,60.0150833 C14.0000064,60.0100492 14,60.005015 14,59.9999809 L14,51.0003056 C14,47.7197089 16.6594491,45.0602598 19.9400459,45.0602598 C19.9600309,45.0602598 19.9800159,45.0603607 20,45.0605624 L25.0100932,45.1111329 C25.5584124,45.1166675 26,45.5627348 26,46.1110819 Z" id="Path" fill="#6EC5AB"></path>
                    <path d="M99,46.1110819 L99,64.9722391 C99,65.5235386 98.5538212,65.9708447 98.0025234,65.9722359 L93,65.9848594 C89.6946429,65.9932003 87.0083599,63.3204405 87.0000191,60.0150833 C87.0000064,60.0100492 87,60.005015 87,59.9999809 L87,51.0003056 C87,47.7197089 89.6594491,45.0602598 92.9400459,45.0602598 C92.9600309,45.0602598 92.9800159,45.0603607 93,45.0605624 L98.0100932,45.1111329 C98.5584124,45.1166675 99,45.5627348 99,46.1110819 Z" id="Path" fill="#6EC5AB" transform="translate(93.000000, 55.500000) scale(-1, 1) translate(-93.000000, -55.500000) "></path>
                    <path d="M56.5,0 C77.0035713,0 93.6638214,16.4552144 93.9949761,36.8798689 L94,37.5 L94,46 C94,47.1045695 93.1045695,48 92,48 C90.9456382,48 90.0818349,47.1841222 90.0054857,46.1492623 L90,46 L90,37.5 C90,18.9984609 75.0015391,4 56.5,4 C38.1834763,4 23.3003195,18.6999915 23.004488,36.9460162 L23,37.5 L23,46 C23,47.1045695 22.1045695,48 21,48 C19.9456382,48 19.0818349,47.1841222 19.0054857,46.1492623 L19,46 L19,37.5 C19,16.7893219 35.7893219,0 56.5,0 Z" id="Oval" fill="#00AB9E" fill-rule="nonzero"></path>
                    <path d="M21,63 C22.0543618,63 22.9181651,63.8158778 22.9945143,64.8507377 L23,65 L23,70 C23,73.2383969 25.5655749,75.8775718 28.7750617,75.9958615 L29,76 L42,76 C43.1045695,76 44,76.8954305 44,78 C44,79.0543618 43.1841222,79.9181651 42.1492623,79.9945143 L42,80 L29,80 C23.5707601,80 19.1520683,75.6733292 19.0038418,70.2799048 L19,70 L19,65 C19,63.8954305 19.8954305,63 21,63 Z" id="Path-2" fill="#00AB9E" fill-rule="nonzero"></path>
                    <circle id="Oval" fill="#3C968D" cx="42" cy="78" r="4"></circle>
                    <circle id="Oval" fill="#F1DA81" cx="42" cy="78" r="1"></circle>
                    <mask id="mask-2" fill="white">
                        <use xlink:href="#path-1"></use>
                    </mask>
                    <use id="Mask" fill="#C06C52" xlink:href="#path-1"></use>
                    <rect id="Rectangle" fill="#FFFFFF" mask="url(#mask-2)" x="48" y="75" width="17" height="2"></rect>
                </g>
            </g>
        </g>
    </g>
</svg>