<?xml version="1.0" encoding="UTF-8"?>
<svg width="32px" height="32px" viewBox="0 0 32 32" version="1.1" xmlns="http://www.w3.org/2000/svg" xmlns:xlink="http://www.w3.org/1999/xlink">
    <title>BCD4E2D1-21EF-43CA-8A9E-71244049F7B6</title>
    <g id="Cover" stroke="none" stroke-width="1" fill="none" fill-rule="evenodd">
        <g id="Icons-and-illustrations" transform="translate(-216.000000, -334.000000)" fill="#006330">
            <g id="House-protection" transform="translate(216.000000, 334.000000)">
                <path d="M24.517375,10.6920875 L30.565125,12.0074625 C30.8435694,12.0677958 31.052088,12.2753884 31.1265928,12.5307725 L31.14825,12.6285875 C31.983,18.1567125 32.32225,21.5660875 31.47975,24.1339625 C30.608375,26.7899625 28.571375,28.4147125 24.6695,30.2994625 C24.455875,30.4025875 24.2175,30.3947125 24.019125,30.2992125 L24.0135,30.2965875 C20.1155,28.4133375 18.08,26.7887125 17.209,24.1339625 C16.366625,21.5660875 16.70575,18.1567125 17.540625,12.6285875 C17.589375,12.3040875 17.8395,12.0597125 18.145,12.0028375 L24.186125,10.6889625 C24.29925,10.6645875 24.411875,10.6670875 24.517375,10.6920875 Z M24.344375,12.1882125 L18.946375,13.3622125 C18.201375,18.3652125 17.91175,21.4730875 18.632875,23.6710875 C19.326875,25.7865875 21.049,27.1684625 24.344375,28.7932125 C27.63975,27.1684625 29.362,25.7865875 30.055875,23.6710875 C30.777,21.4730875 30.487375,18.3652125 29.742375,13.3622125 L24.344375,12.1882125 Z M10.096625,1.75 L10.096625,5.75125 L15.49975,2.265125 C15.802,2.07125 16.1785,2.087 16.458625,2.275125 L29.050625,10.398875 L24.792125,9.47275 C24.635375,9.436625 24.475125,9.41975 24.315125,9.42225 L15.9715,4.03925 L5.3465,10.894125 L5.3465,26.626125 L11.5965,26.626125 L11.5965,14.000625 L16.072375,14.000625 C15.810375,15.803375 15.57825,17.635 15.49725,19.43525 C15.42075,21.1335 15.487375,22.895875 16.02125,24.523625 C16.501875,25.9885 17.309375,27.154 18.314875,28.126125 L4.5965,28.126125 C4.18225,28.126125 3.8465,27.7905 3.8465,27.376125 L3.8465,11.862 L0.94325,13.735 L-3.80140364e-13,12.265125 L6.721625,7.928625 L6.721625,1.75 L10.096625,1.75 Z M24.344375,13.4674625 L24.368875,13.4725875 L28.6325,14.4002125 C28.88575,16.1270875 29.1225,17.8957125 29.20025,19.6247125 C29.2045,19.7184625 29.20825,19.8134625 29.211375,19.9090875 L29.211375,19.9090875 L29.221625,20.0002125 L24.349125,19.9963375 L24.346875,27.5177125 C22.53475,26.6009625 20.47,25.2609625 19.8205,23.2814625 C19.48175,22.2484625 19.43575,20.9753375 19.4715,19.8752125 L19.4715,19.8752125 L24.3465,19.8752125 L24.344375,13.4674625 Z" id="ðŸŽ-Culoare"></path>
            </g>
        </g>
    </g>
</svg>