<?xml version="1.0" encoding="UTF-8"?>
<svg width="32px" height="32px" viewBox="0 0 32 32" version="1.1" xmlns="http://www.w3.org/2000/svg" xmlns:xlink="http://www.w3.org/1999/xlink">
    <title>CCF6A48B-EEC3-4014-A05D-35542E78C419</title>
    <g id="Cover" stroke="none" stroke-width="1" fill="none" fill-rule="evenodd">
        <g id="Icons-and-illustrations" transform="translate(-328.000000, -334.000000)" fill="#006330">
            <g id="Blocks" transform="translate(328.000000, 334.000000)">
                <path d="M29.50025,0 C30.052625,0 30.50025,0.44775 30.50025,1 L30.50025,30.5 L32.000125,30.5 L32.000125,32 L1.42108547e-14,32 L1.42108547e-14,30.5 L1.499875,30.5 L1.499875,14.125 C1.499875,13.57275 1.947625,13.125 2.499875,13.125 L9.249375,13.125 L9.249375,1 C9.249375,0.44775 9.697125,0 10.249375,0 L29.50025,0 Z M29.000375,1.5 L10.74925,1.5 L10.74925,13.125 L15.124875,13.125 C15.539,13.125 15.874875,13.46075 15.874875,13.875 L15.874875,30.5 L29.000375,30.5 L29.000375,1.5 Z M14.374875,14.625 L2.999875,14.625 L2.999875,30.5 L14.374875,30.5 L14.374875,14.625 Z M12.374275,24.2494875 L12.374275,27.9994875 L10.624275,27.9994875 L10.624275,24.2494875 L12.374275,24.2494875 Z M9.624275,24.2494875 L9.624275,27.9994875 L7.874275,27.9994875 L7.874275,24.2494875 L9.624275,24.2494875 Z M6.875025,24.2494875 L6.875025,27.9994875 L5.125025,27.9994875 L5.125025,24.2494875 L6.875025,24.2494875 Z M22.874275,21.8734875 L22.874275,27.9994875 L20.37665,27.9994875 L20.37665,21.8734875 L22.874275,21.8734875 Z M26.36965,21.8734875 L26.36965,27.9994875 L23.872025,27.9994875 L23.872025,21.8734875 L26.36965,21.8734875 Z M19.3729,21.8734875 L19.3729,27.9994875 L16.875275,27.9994875 L16.875275,21.8734875 L19.3729,21.8734875 Z M12.374275,20.2494875 L12.374275,23.3744875 L10.624275,23.3744875 L10.624275,20.2494875 L12.374275,20.2494875 Z M9.624275,20.2494875 L9.624275,23.3744875 L7.874275,23.3744875 L7.874275,20.2494875 L9.624275,20.2494875 Z M22.874275,17.4987375 L22.874275,20.8737375 L20.37665,20.8737375 L20.37665,17.4987375 L22.874275,17.4987375 Z M19.3729,17.4987375 L19.3729,20.8737375 L16.875275,20.8737375 L16.875275,17.4987375 L19.3729,17.4987375 Z M12.374275,16.2494875 L12.374275,19.3744875 L10.624275,19.3744875 L10.624275,16.2494875 L12.374275,16.2494875 Z M9.624275,16.2494875 L9.624275,19.3744875 L7.874275,19.3744875 L7.874275,16.2494875 L9.624275,16.2494875 Z M6.875025,16.2494875 L6.875025,19.3744875 L5.125025,19.3744875 L5.125025,16.2494875 L6.875025,16.2494875 Z M22.874275,13.1239875 L22.874275,16.4992375 L20.37665,16.4992375 L20.37665,13.1239875 L22.874275,13.1239875 Z M26.36965,13.1239875 L26.36965,16.4992375 L23.872025,16.4992375 L23.872025,13.1239875 L26.36965,13.1239875 Z M22.874275,8.7494875 L22.874275,12.1244875 L20.37665,12.1244875 L20.37665,8.7494875 L22.874275,8.7494875 Z M26.36965,8.7494875 L26.36965,12.1244875 L23.872025,12.1244875 L23.872025,8.7494875 L26.36965,8.7494875 Z M15.87765,8.7494875 L15.87765,12.1244875 L13.380025,12.1244875 L13.380025,8.7494875 L15.87765,8.7494875 Z M19.3729,8.7494875 L19.3729,12.1244875 L16.875275,12.1244875 L16.875275,8.7494875 L19.3729,8.7494875 Z M26.36965,4.3747375 L26.36965,7.7499875 L23.872025,7.7499875 L23.872025,4.3747375 L26.36965,4.3747375 Z M15.87765,4.3744875 L15.87765,7.7494875 L13.380025,7.7494875 L13.380025,4.3744875 L15.87765,4.3744875 Z M19.3729,4.3747375 L19.3729,7.7499875 L16.875275,7.7499875 L16.875275,4.3747375 L19.3729,4.3747375 Z" id="ðŸŽ-Culoare"></path>
            </g>
        </g>
    </g>
</svg>