<?xml version="1.0" encoding="UTF-8"?>
<svg width="32px" height="32px" viewBox="0 0 32 32" version="1.1" xmlns="http://www.w3.org/2000/svg" xmlns:xlink="http://www.w3.org/1999/xlink">
    <title>6834A003-2596-4069-AC97-A26201AA5810</title>
    <g id="Cover" stroke="none" stroke-width="1" fill="none" fill-rule="evenodd">
        <g id="Icons-and-illustrations" transform="translate(-384.000000, -334.000000)" fill="#006330">
            <g id="CT" transform="translate(384.000000, 334.000000)">
                <path d="M17.875,0 C18.3582492,-8.87714298e-17 18.75,0.391750844 18.75,0.875 L18.75,2.25 L23.875,2.25 C24.8414983,2.25 25.625,3.03350169 25.625,4 L25.625,28.125 C25.625,29.0914983 24.8414983,29.875 23.875,29.875 L20.625,29.875 L20.625,31.125 C20.625,31.6082492 20.2332492,32 19.75,32 C19.2667508,32 18.875,31.6082492 18.875,31.125 L18.875,29.875 L16.875,29.875 L16.875,31.125 C16.875,31.6082492 16.4832492,32 16,32 C15.5167508,32 15.125,31.6082492 15.125,31.125 L15.125,29.875 L13.124,29.875 L13.125,31.125 C13.125,31.6082492 12.7332492,32 12.25,32 C11.7667508,32 11.375,31.6082492 11.375,31.125 L11.374,29.875 L8.125,29.875 C7.15850169,29.875 6.375,29.0914983 6.375,28.125 L6.375,4 C6.375,3.03350169 7.15850169,2.25 8.125,2.25 L13.25,2.25 L13.25,0.875 C13.25,0.391750844 13.6417508,8.87714298e-17 14.125,0 C14.6082492,-8.87714298e-17 15,0.391750844 15,0.875 L15,2.25 L17,2.25 L17,0.875 C17,0.391750844 17.3917508,8.87714298e-17 17.875,0 Z M23.625,4.25 L8.375,4.25 L8.375,27.875 L12.875,27.875 L12.875,22.875 C12.875,22.1602786 13.4203141,21.572922 14.1175783,21.5062944 L14.25,21.5 L17.75,21.5 C18.4647214,21.5 19.052078,22.0453141 19.1187056,22.7425783 L19.125,22.875 L19.125,27.875 L23.625,27.875 L23.625,4.25 Z M17.75,22.5 L14.25,22.5 C14.0687816,22.5 13.917586,22.6285432 13.8826187,22.7994244 L13.875,22.875 L13.875,27.875 L18.125,27.875 L18.125,22.875 C18.125,22.6937816 17.9964568,22.542586 17.8255756,22.5076187 L17.75,22.5 Z M16.6875,23.25 C16.9981602,23.25 17.25,23.5018398 17.25,23.8125 C17.25,24.1231602 16.9981602,24.375 16.6875,24.375 L15.3125,24.375 C15.0018398,24.375 14.75,24.1231602 14.75,23.8125 C14.75,23.5018398 15.0018398,23.25 15.3125,23.25 L16.6875,23.25 Z M17.875,8.375 C16.4375,10.5 16.25,12.6875 17.375,12.75 C18.2742807,12.79996 18.375,12.375 18.75,11.875 C19.2916667,12.625 19.5625,13.5 19.5625,14.5 C19.5625,16 18.125,17.625 16,17.625 C13.875,17.625 12.5625,15.875 12.5625,14.5 C12.5625,13.125 13.9375,11.625 13.25,10.5 C13.8333333,10.875 14.2291667,11.125 14.4375,11.25 C15.4791667,9.45833333 16.625,8.5 17.875,8.375 Z" id="ðŸŽ-Culoare"></path>
            </g>
        </g>
    </g>
</svg>