<?xml version="1.0" encoding="UTF-8"?>
<svg width="20px" height="20px" viewBox="0 0 20 20" version="1.1" xmlns="http://www.w3.org/2000/svg" xmlns:xlink="http://www.w3.org/1999/xlink">
    <title>E0F6FCF8-D358-407A-BB1D-D3E3ECD111DC@2x</title>
    <g id="Cover" stroke="none" stroke-width="1" fill="none" fill-rule="evenodd">
        <g id="Icons-and-illustrations" transform="translate(-948.000000, -194.000000)" fill="#FFFFFF">
            <g id="Share" transform="translate(948.000000, 194.000000)">
                <path d="M15,0 C17.209139,0 19,1.790861 19,4 C19,6.209139 17.209139,8 15,8 C13.9065878,8 12.9156432,7.56128382 12.1935923,6.8502775 L8.83654849,8.86453924 C8.94291217,9.2244846 9,9.60557551 9,10 C9,10.3944245 8.94291217,10.7755154 8.83654849,11.1354608 L12.1935923,13.1497225 C12.9156432,12.4387162 13.9065878,12 15,12 C17.209139,12 19,13.790861 19,16 C19,18.209139 17.209139,20 15,20 C12.790861,20 11,18.209139 11,16 C11,15.6055755 11.0570878,15.2244846 11.1634515,14.8645392 L7.8064077,12.8502775 C7.08435681,13.5612838 6.09341223,14 5,14 C2.790861,14 1,12.209139 1,10 C1,7.790861 2.790861,6 5,6 C6.09341223,6 7.08435681,6.43871618 7.8064077,7.1497225 L11.1634515,5.13546076 C11.0570878,4.7755154 11,4.39442449 11,4 C11,1.790861 12.790861,0 15,0 Z" id="ðŸŽ-Culoare"></path>
            </g>
        </g>
    </g>
</svg>