<?xml version="1.0" encoding="UTF-8"?>
<svg width="32px" height="32px" viewBox="0 0 32 32" version="1.1" xmlns="http://www.w3.org/2000/svg" xmlns:xlink="http://www.w3.org/1999/xlink">
    <title>9143B19B-9CCC-4BC6-B655-3004A665DD54@2x</title>
    <g id="Cover" stroke="none" stroke-width="1" fill="none" fill-rule="evenodd">
        <g id="Icons-and-illustrations" transform="translate(-440.000000, -334.000000)" fill="#006330">
            <g id="Earthquake" transform="translate(440.000000, 334.000000)">
                <path d="M28.093,15.7165 L26.113125,28.379125 C26.056,28.7485 25.737375,29.0125 25.374875,29.012125 L25.374875,29.014875 L17.43025,29.014875 L17.448625,26.98875 L18.624625,24.102 L18.08575,19.1 L17.281375,23.615 L14.84775,26.291 L14.33525,29.014875 L2.749875,29.014875 C2.3355,29.014875 1.999875,28.679125 1.999875,28.264875 C1.999875,28.210625 2.005625,28.157875 2.016625,28.106875 L3.66225,15.823875 C3.663,15.8185 6.512125,14.485 6.777,14.361 L7.851625,15.129125 L9.696125,14.665 L7.902625,16.571 L6.52375,15.718 L4.999875,17.09125 L3.606,27.514875 L9.798875,27.514875 L11.42975,15.81275 L20.094625,17.0305 L19.552875,21.010875 L19.955875,24.555875 L18.656375,27.514875 L20.486125,27.514875 L20.958625,27.06 L21.418625,24.798375 L21.887,25.75775 L21.76275,27.514875 L24.736875,27.514875 L26.757,14.597625 L16.990375,6.417625 L16.68375,6.565375 L16.499375,9.835125 L18.116875,11.715625 L17.38825,15.522875 L16.915375,12.28025 L15.115125,10.916 L15.082375,9.940875 L14.932,5.471125 L16.740375,4.6005 C17.059125,4.44675 17.425,4.504125 17.68,4.717 L17.68025,4.71675 L32,16.706 L30.878875,18.045875 L28.093,15.7165 Z M0,12.66325 L7.330375,9.13125 L8.096,3 L11.445,3.418125 L10.94925,7.388875 L12.74275,6.525375 L12.989625,8.344 L0.75875,14.2355 L0,12.66325 Z" id="ðŸŽ-Culoare"></path>
            </g>
        </g>
    </g>
</svg>