<?xml version="1.0" encoding="UTF-8"?>
<svg width="32px" height="32px" viewBox="0 0 32 32" version="1.1" xmlns="http://www.w3.org/2000/svg" xmlns:xlink="http://www.w3.org/1999/xlink">
    <title>2E80EDCB-33A4-4745-8286-D46B91A9C765</title>
    <g id="Cover" stroke="none" stroke-width="1" fill="none" fill-rule="evenodd">
        <g id="Icons-and-illustrations" transform="translate(-496.000000, -334.000000)" fill="#006330">
            <g id="Explosion" transform="translate(496.000000, 334.000000)">
                <path d="M10.09675,4.4996375 L10.09675,8.5005125 L15.499875,5.0147625 C15.5655,4.9726375 15.634625,4.9403875 15.705375,4.9176375 L15.964375,6.7932625 L5.3465,13.6436375 L5.3465,29.3757625 L11.5965,29.3757625 L11.5965,22.0383875 L16.425125,20.2690125 L15.92125,25.8887625 L19.912625,22.0345125 L20.34625,23.6348875 L20.34625,29.3757625 L26.5965,29.3757625 L26.5965,25.2607625 L28.0965,26.6390125 L28.0965,30.1257625 C28.0965,30.5398875 27.76075,30.8757625 27.3465,30.8757625 L4.5965,30.8757625 C4.182375,30.8757625 3.8465,30.5398875 3.8465,30.1257625 L3.8465,14.6113875 L0.943375,16.4843875 L-2.66453526e-14,15.0147625 L6.72175,10.6780125 L6.72175,4.4996375 L10.09675,4.4996375 Z M26.7741875,1.125 L23.7688125,11.088625 L29.7779375,8.753 L25.3100625,13.178375 L31.0290625,13.361875 L25.3646875,15.631125 L29.3208125,18.411875 L24.8518125,18.081 L30.2110625,26.884125 L22.4893125,19.789875 L21.7146875,23.905 L20.5659375,19.666375 L17.4656875,22.66 L17.8460625,18.41725 L8.9455625,21.67825 L16.4416875,16.015375 L11.7041875,13.516125 L16.7620625,13.674625 L14.5678125,10.393375 L17.9064375,11.719875 L16.8204375,3.85525 L20.9339375,10.09475 L26.7741875,1.125 Z M27.183375,19.5068875 L28.0965,19.5745125 L28.0965,21.0071375 L27.183375,19.5068875 Z M19.2119375,10.208125 L19.7446875,14.06425 L18.4946875,13.56775 L19.6299375,15.26525 L18.1459375,15.21875 L19.3391875,15.84825 L17.8611875,16.861125 L19.5313125,16.4165 L19.3191875,18.785 L21.4324375,16.841125 L23.4119375,18.600625 L22.0538125,16.369625 L24.0134375,16.51475 L22.2393125,15.267875 L23.8274375,14.631375 L21.9075625,14.569875 L23.7539375,12.635875 L21.9845625,13.065375 L22.3076875,10.70375 L21.0928125,13.06075 L19.2119375,10.208125 Z M13.395625,16.7500125 L11.5965,18.1091375 L11.5965,16.7500125 L13.395625,16.7500125 Z M31.300125,14.5996375 L31.943375,15.0147625 L31.000125,16.4843875 L29.31275,15.3960125 L31.300125,14.5996375 Z" id="ðŸŽ-Culoare"></path>
            </g>
        </g>
    </g>
</svg>