<?xml version="1.0" encoding="UTF-8"?>
<svg width="32px" height="32px" viewBox="0 0 32 32" version="1.1" xmlns="http://www.w3.org/2000/svg" xmlns:xlink="http://www.w3.org/1999/xlink">
    <title>B770E5BB-00F6-4F57-B5AA-2B91A452E794</title>
    <g id="Cover" stroke="none" stroke-width="1" fill="none" fill-rule="evenodd">
        <g id="Icons-and-illustrations" transform="translate(-552.000000, -334.000000)" fill="#006330">
            <g id="Electric-phenomenon" transform="translate(552.000000, 334.000000)">
                <path d="M15.2052001,3.11274991 C15.5935125,2.46170693 16.5367397,2.46259082 16.9238313,3.11436042 L16.9238313,3.11436042 L31.5488313,27.7393604 C31.9447251,28.4059508 31.4643264,29.25 30.6890364,29.25 L30.6890364,29.25 L1.37653642,29.25 C0.600410217,29.25 0.12012937,28.4043153 0.517700091,27.7377499 L0.517700091,27.7377499 Z M16.0621614,5.58025001 L3.13728642,27.25 L28.9320364,27.25 L16.0621614,5.58025001 Z M17.3140364,10.1875 L14.3765364,18.375 L18.7515364,15.8125 L16.5015364,22.9375 L18.1890364,22.9375 L15.6265364,26.5 L14.0640364,22.9375 L15.4390364,22.9375 L16.0640364,18.6875 L11.8140364,20.8125 L14.9390364,10.1875 L17.3140364,10.1875 Z" id="ðŸŽ-Culoare"></path>
            </g>
        </g>
    </g>
</svg>