<?xml version="1.0" encoding="UTF-8"?>
<svg width="32px" height="32px" viewBox="0 0 32 32" version="1.1" xmlns="http://www.w3.org/2000/svg" xmlns:xlink="http://www.w3.org/1999/xlink">
    <title>E8889915-A894-434B-9251-330ED6EB97FE</title>
    <g id="Cover" stroke="none" stroke-width="1" fill="none" fill-rule="evenodd">
        <g id="Icons-and-illustrations" transform="translate(-720.000000, -334.000000)" fill="#006330">
            <g id="Storm" transform="translate(720.000000, 334.000000)">
                <path d="M10.096625,5.62455 L10.096625,9.62555 L12.46025,8.100675 C12.31075,8.6443 12.389875,9.2473 12.729,9.75005 C12.76925,9.809675 12.810375,9.868175 12.852375,9.92605 L5.346625,14.76855 L5.346625,30.50055 L11.596625,30.50055 L11.596625,17.87505 L17.13275,17.87505 C17.01675,18.4068 17.117,18.983175 17.457875,19.460675 C17.596,19.6543 17.74525,19.838175 17.9055,20.01155 C17.7325,20.411925 17.589625,20.82305 17.494375,21.2488 C17.047125,21.3768 16.6425,21.660175 16.370125,22.079925 C15.7705,23.002675 16.03375,24.241675 16.955875,24.84205 C17.2995,25.065925 17.659,25.26255 18.032625,25.4288 C18.2,25.798175 18.393875,26.15555 18.60925,26.49905 C19.092,27.2688 19.683,27.9703 20.346375,28.596425 L20.346375,30.50055 L26.596625,30.50055 L26.596625,24.298425 C27.107625,24.225175 27.611,24.107925 28.096625,23.93605 L28.096625,31.2508 C28.096625,31.6648 27.76075,32.0008 27.346625,32.0008 L4.596625,32.0008 C4.182375,32.0008 3.846625,31.6648 3.846625,31.2508 L3.846625,15.736425 L0.94325,17.609425 L1.42108547e-14,16.139675 L6.721625,11.80305 L6.721625,5.62455 L10.096625,5.62455 Z M25.1602,2.25 C26.668825,2.25 28.6017,2.466625 29.93795,2.97825 C30.547825,3.212 31.05595,3.514625 31.38995,3.898 C31.814325,4.385 31.96795,4.96025 31.742075,5.633125 C31.6002,6.056125 31.292075,6.50325 30.780825,6.97125 C30.112825,7.58275 29.31345,8.056125 28.422575,8.3985 C28.480575,9.123375 28.898075,9.809875 29.35445,10.55425 C29.390075,10.487625 29.423075,10.4195 29.4532,10.349625 C29.6167,9.971 30.056075,9.796625 30.4347,9.96 C30.813325,10.123625 30.9877,10.563 30.82445,10.9415 C30.65695,11.328875 30.4367,11.68025 30.1742,11.996875 C30.70945,13.09725 31.06945,14.403625 30.76895,16.1865 C30.728075,16.4295 30.671575,16.663625 30.60145,16.889625 C30.669075,16.848375 30.73495,16.80575 30.799075,16.7615 C31.1387,16.526875 31.60445,16.612375 31.839075,16.952 C32.0737,17.29175 31.98845,17.757375 31.648575,17.992 C31.019075,18.4265 30.274075,18.7435 29.47545,18.952875 C28.7272,19.893125 27.76345,20.6905 26.8212,21.4575 C27.129075,21.37675 27.413575,21.269125 27.672575,21.132625 C28.038325,20.94025 28.490825,21.080625 28.683325,21.446125 C28.875825,21.81175 28.735575,22.2645 28.369825,22.456875 C27.578325,22.873875 26.6477,23.087625 25.60445,23.13725 C25.3712,23.14825 25.132075,23.151125 24.8872,23.14625 C24.628575,23.414625 24.404075,23.685125 24.228575,23.96 C23.78645,24.652375 23.530325,25.318875 23.48845,25.985375 C23.44745,26.639875 23.61495,27.319625 24.0182,28.053 C24.2172,28.4155 24.084825,28.870625 23.722325,29.069625 C23.474825,29.205625 23.18395,29.18675 22.96095,29.045625 L22.960575,29.046125 C21.5112,28.12775 20.4017,27.004375 19.6682,25.835 C19.38495,25.383375 19.1572,24.923625 18.986575,24.464375 C18.520325,24.299375 18.07045,24.077125 17.63795,23.79475 C17.291825,23.569875 17.19345,23.10675 17.418325,22.7605 C17.6432,22.414375 18.106325,22.316 18.45245,22.54075 C18.505575,22.5755 18.5592,22.608875 18.61295,22.641375 C18.60595,22.42 18.6137,22.2015 18.636825,21.986875 C18.721325,21.198 19.04445,20.4505 19.4412,19.715375 C19.0692,19.442125 18.747325,19.115 18.475325,18.734625 C18.235825,18.398 18.31445,17.931125 18.651075,17.691625 C18.98745,17.452125 19.454575,17.53075 19.694075,17.8675 C19.838825,18.069875 20.005825,18.2495 20.195575,18.4065 C20.6202,17.678 21.011075,16.954625 21.1412,16.277125 C20.49345,16.04475 19.940825,15.7605 19.5557,15.45175 C19.233825,15.192875 19.1827,14.722 19.441575,14.399875 C19.654325,14.13525 20.01045,14.05375 20.309325,14.17675 C19.794575,13.63525 19.11045,13.05525 18.4277,12.476625 L18.21395,12.29525 C17.931825,12.0555 17.636325,11.796375 17.343575,11.51975 C15.73195,10.9895 14.5057,10.14875 13.7652,9.051 C13.533825,8.708 13.62445,8.2425 13.9672,8.011 C14.310325,7.779625 14.776075,7.870125 15.00745,8.213125 C15.047325,8.27225 15.089325,8.330625 15.13345,8.38775 C14.758825,7.202 14.923325,5.94125 16.096325,4.684125 C17.15895,3.5455 18.89595,2.934125 20.65695,2.611125 C22.351075,2.300125 24.055075,2.25 25.1602,2.25 Z M25.1602,3.75 C24.10295,3.75 22.482825,3.795875 20.92645,4.081875 C19.4372,4.355 17.9972,4.840875 17.192075,5.703625 C16.308325,6.650875 16.340325,7.5935 16.7722,8.4505 C17.0812,9.064 17.58145,9.65575 18.124575,10.194125 C18.235825,10.226375 18.349075,10.256875 18.4647,10.286125 C20.134825,10.707125 22.235575,10.799125 24.646825,10.497625 C25.0577,10.4475 25.431575,10.74 25.4817,11.151125 C25.531825,11.562 25.239325,11.935875 24.82845,11.985875 C23.17945,12.191875 21.65445,12.224375 20.288325,12.101125 C21.41295,13.091125 22.3872,14.09525 22.617075,15.156 C23.01095,15.243625 23.429325,15.310125 23.85545,15.348875 C25.030325,15.455875 26.2292,15.34625 27.075075,14.887 C27.437575,14.6895 27.89145,14.82325 28.088825,15.185875 C28.2862,15.548125 28.15245,16.002 27.78995,16.1995 C26.66045,16.813 25.15645,16.96775 23.7207,16.83725 C23.3392,16.8025 22.95995,16.746875 22.591575,16.673875 C22.41195,17.494125 21.996575,18.279875 21.5447,19.059375 C21.8752,19.142375 22.238825,19.193875 22.63645,19.213625 C23.049075,19.233 23.3677,19.583 23.348325,19.995625 C23.32895,20.40825 22.9787,20.727125 22.566075,20.7075 C21.905575,20.675125 21.308825,20.569625 20.77445,20.393375 C20.445825,21 20.184325,21.59275 20.125075,22.145 C20.087575,22.493875 20.10845,22.862625 20.185325,23.24175 C20.6262,23.3265 21.085575,23.3535 21.5627,23.32675 C21.975325,23.304 22.3282,23.620125 22.350825,24.03275 C22.37345,24.445375 22.057325,24.798125 21.644825,24.820875 C21.360325,24.83675 21.07995,24.837375 20.804075,24.82225 C20.84545,24.894375 20.8887,24.966125 20.933825,25.038125 C21.216575,25.489 21.5692,25.934125 21.988575,26.360375 C21.982575,26.203875 21.984575,26.047625 21.994325,25.891625 C22.052825,24.96225 22.3897,24.06425 22.968825,23.15725 C23.005075,23.100375 23.0427,23.04425 23.0812,22.988375 C22.83295,22.952125 22.58045,22.910375 22.3242,22.863375 C21.9182,22.788875 21.6492,22.39925 21.723575,21.99325 C21.798075,21.58725 22.1877,21.318125 22.5937,21.392625 C23.194325,21.50325 23.767825,21.581375 24.3102,21.621625 C24.76145,21.205875 25.2562,20.80325 25.7602,20.393375 C26.20895,20.028125 26.6657,19.6565 27.0962,19.268875 C25.98445,19.288625 24.873075,19.143125 23.90845,18.85575 C23.5122,18.737625 23.286575,18.320375 23.404575,17.924125 C23.522825,17.527625 23.939825,17.302 24.3362,17.42025 C25.401075,17.737625 26.680075,17.852125 27.903825,17.721 C28.1362,17.696125 28.365825,17.662375 28.590825,17.619625 C28.93845,17.103 29.190075,16.548125 29.29245,15.9405 C29.4882,14.778375 29.31245,13.846 28.9907,13.040375 C28.883825,13.110375 28.77445,13.1775 28.663075,13.24175 C27.6062,13.848875 26.3352,14.192875 25.12495,14.310625 C24.71395,14.349375 24.349325,14.047625 24.31045,13.63675 C24.2717,13.225625 24.573325,12.861125 24.984325,12.82225 C26.00195,12.723375 27.058325,12.44125 27.918825,11.94675 C28.0517,11.870375 28.1797,11.789125 28.30195,11.702625 C28.23095,11.58425 28.159325,11.46775 28.088825,11.352625 C27.578325,10.52 27.1032,9.745375 26.961075,8.827625 C26.789575,8.86425 26.616075,8.897 26.440325,8.925625 C24.69245,9.211 22.7407,9.112625 20.81195,8.66825 C19.88495,8.454875 19.1142,8.018125 18.69995,7.499 C18.436575,7.16925 18.298325,6.798375 18.316075,6.40575 C18.3347,6.006625 18.5082,5.62625 18.868075,5.29275 C18.885325,5.276625 18.903075,5.26175 18.9212,5.247625 C19.46295,4.777125 20.463325,4.379 22.059325,4.179 C24.15195,3.91675 25.423325,4.08425 26.12245,4.41875 C26.5207,4.609125 26.7807,4.864 26.9277,5.14975 C27.103325,5.49075 27.1142,5.847 27.00095,6.184625 C26.86545,6.588625 26.539825,6.95175 26.12245,7.186375 C25.761825,7.3885 25.3052,7.26 25.103075,6.89925 C24.900825,6.538375 25.029325,6.082125 25.390075,5.879625 C25.4442,5.849375 25.489325,5.818125 25.522825,5.788375 C25.5097,5.78175 25.494825,5.7745 25.47795,5.766375 C25.006825,5.541 24.02095,5.444375 22.24095,5.66725 C20.974075,5.826 20.246825,6.079375 19.9157,6.360875 L19.887575,6.3885 L19.887575,6.3885 C19.834825,6.43725 19.8107,6.463375 19.810325,6.47 C19.8097,6.48325 19.8317,6.517375 19.871825,6.567375 C20.083075,6.83225 20.546825,7.071375 21.14595,7.20925 C22.8922,7.611625 24.645075,7.702875 26.200075,7.449 C27.620325,7.217125 28.866825,6.6995 29.773075,5.869875 C30.08495,5.58425 30.2602,5.349375 30.3242,5.1585 C30.358325,5.056625 30.3307,4.964625 30.258825,4.882375 C30.09695,4.696375 29.794075,4.527875 29.4047,4.37875 C28.25145,3.937 26.52545,3.75 25.1602,3.75 Z" id="ðŸŽ-Culoare"></path>
            </g>
        </g>
    </g>
</svg>