<?xml version="1.0" encoding="UTF-8"?>
<svg width="32px" height="32px" viewBox="0 0 32 32" version="1.1" xmlns="http://www.w3.org/2000/svg" xmlns:xlink="http://www.w3.org/1999/xlink">
    <title>6E7F09A2-17DB-4E35-93CF-5B7B659058B1</title>
    <g id="Cover" stroke="none" stroke-width="1" fill="none" fill-rule="evenodd">
        <g id="Icons-and-illustrations" transform="translate(-936.000000, -334.000000)" fill="#006330">
            <g id="Theft" transform="translate(936.000000, 334.000000)">
                <path d="M28.3784375,17.7419875 C28.9918125,17.7351125 29.6024375,17.9709875 29.8989375,18.5348625 C30.0003125,18.7282375 30.0570625,18.9507375 30.0600625,19.1982375 C30.0646875,19.6211125 29.9054375,20.1172375 29.5288125,20.6577375 L28.7646875,21.7538625 L27.7108125,23.2668625 L29.3989375,21.9484875 C29.8265625,22.5473625 29.9819375,23.2431125 30.1291875,24.3378625 L31.1615625,32.0004875 L21.7641875,32.0004875 C22.3508125,31.4036125 23.1029375,30.5209875 23.7824375,29.8498625 C24.4668125,29.1738625 25.0756875,28.5866125 25.3595625,28.3483625 C25.7813125,27.9941125 25.9238125,27.9289875 26.4645625,27.9499875 C27.0353125,27.9718625 27.5914375,27.9936125 27.9480625,27.5348625 C28.3361875,27.0361125 28.5203125,26.4457375 28.5493125,25.8652375 C28.5811875,25.2194875 28.4165625,24.5798625 28.1246875,24.0924875 C27.7120625,23.4042375 27.2094375,23.5706125 26.6938125,23.7412375 C26.5564375,23.7866125 26.4174375,23.8324875 26.3623125,23.8234875 C26.2961875,23.8124875 26.2221875,23.7753625 26.1600625,23.7451125 L28.7084375,20.0873625 C28.9596875,19.7267375 29.0663125,19.4313625 29.0639375,19.2058625 C29.0598125,18.8334875 28.6975625,18.7346125 28.3861875,18.7379875 L28.3784375,17.7419875 Z M23.4381875,9.6482375 C26.0621875,9.6482375 27.1159375,11.2269875 27.3098125,13.0837375 C27.3719375,13.6808625 27.2064375,14.6496125 27.0511875,15.4457375 C26.7624375,16.9269875 26.7003125,17.0693625 25.9638125,17.9684875 C25.6986875,18.2922375 25.6893125,18.6716125 26.1460625,19.0593625 L27.5851875,20.2799875 L26.0689375,23.6987375 L26.0089375,23.6672375 C25.6498125,23.4782375 25.2876875,23.2878625 24.8475625,23.4441125 C24.3586875,23.6176125 24.0969375,23.9402375 23.8278125,24.2717375 C23.6848125,24.4474875 23.5390625,24.6272375 23.3659375,24.7453625 C22.4293125,25.3842375 21.4355625,25.9362375 20.4413125,26.4882375 L20.3073125,26.5624875 L19.4825625,28.1738625 C19.9499375,27.9011125 20.4378125,27.6301125 20.9256875,27.3593625 C21.9450625,26.7932375 22.9645625,26.2272375 23.9284375,25.5696125 C24.2188125,25.3713625 24.4120625,25.1334875 24.6013125,24.9003625 C24.7801875,24.6799875 24.9544375,24.4653625 25.1795625,24.3854875 C25.3259375,24.3337375 25.9206875,25.0496125 27.0063125,24.6903625 C27.1390625,24.6464875 27.2686875,24.6034875 27.2691875,24.6042375 C27.4653125,24.9313625 27.5753125,25.3691125 27.5531875,25.8183625 C27.5339375,26.2046125 27.4130625,26.5952375 27.1591875,26.9216125 C27.1026875,26.9941125 26.4935625,26.9526125 26.3366875,26.9479875 C25.9751875,26.9372375 25.6886875,26.9958625 25.4211875,27.1149875 C25.1676875,27.2282375 24.9548125,27.3847375 24.7188125,27.5827375 C24.4190625,27.8344875 23.7888125,28.4416125 23.0828125,29.1388625 C22.0855625,30.1242375 20.9351875,31.4172375 20.3700625,32.0004875 L15.7143125,32.0004875 L16.7468125,24.3378625 C16.9491875,22.8363625 17.1626875,22.0854875 18.0811875,21.3063625 L20.7295625,19.0593625 C21.1866875,18.6716125 21.1773125,18.2922375 20.9121875,17.9684875 C20.1756875,17.0693625 20.1136875,16.9269875 19.8249375,15.4457375 C19.6696875,14.6496125 19.5040625,13.6808625 19.5663125,13.0837375 C19.7600625,11.2269875 20.8139375,9.6482375 23.4381875,9.6482375 Z M10.096625,3.25 L10.096625,7.251 L15.499875,3.765125 C15.802,3.571 16.178375,3.586875 16.458625,3.775125 L23.628875,8.400875 C23.565625,8.399375 23.502125,8.398125 23.43825,8.398125 C22.5615,8.398125 21.774875,8.55175 21.0955,8.845 L15.971625,5.539 L5.346625,12.394 L5.346625,28.126 L11.596625,28.126 L11.596625,15.5005 L18.56225,15.5005 L18.598,15.68525 C18.8505,16.9795 18.964625,17.474625 19.626375,18.35625 L17.272625,20.353 C15.998125,21.434375 15.723625,22.57 15.508,24.170875 L14.773,29.626 L4.596625,29.626 C4.182375,29.626 3.846625,29.29025 3.846625,28.876 L3.846625,13.36175 L0.943375,15.234875 L3.55271368e-15,13.765125 L6.721625,9.4285 L6.721625,3.25 L10.096625,3.25 Z M23.4489375,13.6426125 C22.1098125,13.6426125 21.6725625,13.2226125 21.1201875,13.3793625 C20.7325625,13.4892375 20.6054375,14.2453625 20.7880625,14.7822375 C21.0918125,15.6736125 22.5600625,15.8127375 23.4489375,15.8127375 C24.3375625,15.8127375 25.8058125,15.6736125 26.1095625,14.7822375 C26.2920625,14.2453625 26.1649375,13.4892375 25.7771875,13.3793625 C25.2251875,13.2226125 24.7876875,13.6426125 23.4489375,13.6426125 Z M28.16525,11.327625 L31.943375,13.765125 L31,15.234875 L28.567875,13.6655 C28.579375,13.41825 28.57625,13.17825 28.553,12.954125 C28.490875,12.359125 28.359625,11.815625 28.16525,11.327625 Z" id="ðŸŽ-Culoare"></path>
            </g>
        </g>
    </g>
</svg>