<?xml version="1.0" encoding="UTF-8"?>
<svg width="157px" height="219px" viewBox="0 0 157 219" version="1.1" xmlns="http://www.w3.org/2000/svg" xmlns:xlink="http://www.w3.org/1999/xlink">
    <title>Illustration</title>
    <defs>
        <path d="M20,24 L104,24 L104,24 L135,55 L135,187 C135,188.104569 134.104569,189 133,189 L20,189 C18.8954305,189 18,188.104569 18,187 L18,26 C18,24.8954305 18.8954305,24 20,24 Z" id="path-1"></path>
        <filter x="-29.9%" y="-15.2%" width="159.8%" height="142.4%" filterUnits="objectBoundingBox" id="filter-2">
            <feOffset dx="0" dy="10" in="SourceAlpha" result="shadowOffsetOuter1"></feOffset>
            <feGaussianBlur stdDeviation="10" in="shadowOffsetOuter1" result="shadowBlurOuter1"></feGaussianBlur>
            <feColorMatrix values="0 0 0 0 0   0 0 0 0 0   0 0 0 0 0  0 0 0 0.12 0" type="matrix" in="shadowBlurOuter1" result="shadowMatrixOuter1"></feColorMatrix>
            <feOffset dx="0" dy="2" in="SourceAlpha" result="shadowOffsetOuter2"></feOffset>
            <feGaussianBlur stdDeviation="2.5" in="shadowOffsetOuter2" result="shadowBlurOuter2"></feGaussianBlur>
            <feColorMatrix values="0 0 0 0 0   0 0 0 0 0   0 0 0 0 0  0 0 0 0.12 0" type="matrix" in="shadowBlurOuter2" result="shadowMatrixOuter2"></feColorMatrix>
            <feMerge>
                <feMergeNode in="shadowMatrixOuter1"></feMergeNode>
                <feMergeNode in="shadowMatrixOuter2"></feMergeNode>
            </feMerge>
        </filter>
        <linearGradient x1="25.5404457%" y1="0%" x2="61.7741003%" y2="74.0685096%" id="linearGradient-3">
            <stop stop-color="#FFFFFF" offset="0%"></stop>
            <stop stop-color="#FAF5F0" offset="100%"></stop>
        </linearGradient>
        <filter x="-9.7%" y="-9.7%" width="119.4%" height="119.4%" filterUnits="objectBoundingBox" id="filter-4">
            <feGaussianBlur stdDeviation="1" in="SourceGraphic"></feGaussianBlur>
        </filter>
    </defs>
    <g id="Homepage" stroke="none" stroke-width="1" fill="none" fill-rule="evenodd">
        <g id="Eroare-lipsa-acord-GDPR" transform="translate(-109.000000, -80.000000)">
            <g id="Illustration" transform="translate(111.000000, 80.000000)">
                <path d="M151.828427,39.2010101 L113.79899,1.17157288 C113.048844,0.421427361 112.031429,2.57785356e-14 110.970563,0 L18,0 L18,0 C8.0588745,0 0,8.0588745 0,18 L0,187 C0,196.941125 8.0588745,205 18,205 L135,205 C144.941125,205 153,196.941125 153,187 L153,42.0294373 C153,40.9685713 152.578573,39.9511556 151.828427,39.2010101 Z" id="Path" fill="#F2F9F5"></path>
                <g id="Rectangle">
                    <use fill="black" fill-opacity="1" filter="url(#filter-2)" xlink:href="#path-1"></use>
                    <use fill="#FFFFFF" fill-rule="evenodd" xlink:href="#path-1"></use>
                </g>
                <path d="M18,16 L106,16 L106,16 L137,47 L137,187 C137,188.104569 136.104569,189 135,189 L18,189 C16.8954305,189 16,188.104569 16,187 L16,18 C16,16.8954305 16.8954305,16 18,16 Z" id="Rectangle" fill="url(#linearGradient-3)"></path>
                <polygon id="Rectangle" fill="#4A4F4C" opacity="0.2" filter="url(#filter-4)" points="106 18 135 47 104 49"></polygon>
                <polygon id="Rectangle" fill="#FFFFFF" points="106 16 137 47 106 47"></polygon>
                <g id="Group" transform="translate(105.000000, 123.000000)">
                    <circle id="Oval" fill="#E1261C" cx="20" cy="20" r="20"></circle>
                    <g transform="translate(7.500000, 7.500000)" fill="#FFFFFF" id="Icon/Close">
                        <polygon id="ðŸŽ-Culoare" points="18.6741748 3.67417479 21.3258252 6.32582521 15.1516748 12.5004248 21.3258252 18.6741748 18.6741748 21.3258252 12.5004248 15.1516748 6.32582521 21.3258252 3.67417479 18.6741748 9.84917479 12.5004248 3.67417479 6.32582521 6.32582521 3.67417479 12.5004248 9.84917479"></polygon>
                    </g>
                </g>
                <g id="Group-2" opacity="0.600000024" transform="translate(35.000000, 53.000000)" fill="#2C968B">
                    <rect id="Rectangle" x="0" y="74" width="54" height="6"></rect>
                    <rect id="Rectangle" x="0" y="87" width="37" height="6"></rect>
                    <rect id="Rectangle" x="0" y="0" width="27" height="6"></rect>
                    <rect id="Rectangle" x="0" y="100" width="37" height="6"></rect>
                </g>
            </g>
        </g>
    </g>
</svg>