<?xml version="1.0" encoding="UTF-8"?>
<svg width="32px" height="32px" viewBox="0 0 32 32" version="1.1" xmlns="http://www.w3.org/2000/svg" xmlns:xlink="http://www.w3.org/1999/xlink">
    <title>CD1A47DD-E385-4031-A3E9-466AA2D02934</title>
    <g id="Cover" stroke="none" stroke-width="1" fill="none" fill-rule="evenodd">
        <g id="Icons-and-illustrations" transform="translate(-776.000000, -334.000000)" fill="#006330">
            <g id="Hale" transform="translate(776.000000, 333.000000)">
                <path d="M15.5129641,8.63022401 C15.789884,8.45951081 16.1513167,8.45092762 16.44325,8.63846095 L16.44325,8.63846095 L21.846625,12.124336 L21.846625,9.12333595 L25.221625,9.12333595 L25.221625,14.301836 L31.94325,18.638586 L30.999875,20.108211 L28.096625,18.235211 L28.0968625,32.998336 L3.8468625,32.998336 L3.846625,18.235086 L0.94325,20.108211 L1.31450406e-13,18.638586 Z M15.971625,10.412461 L5.346625,17.267336 L5.346875,31.498336 L11.596875,31.498336 L11.5968625,18.623336 L20.3468625,18.623336 L20.346875,31.498336 L26.596875,31.498336 L26.596625,17.267461 L15.971625,10.412461 Z M5.13579915,11.0653936 C5.50784126,11.0653936 5.80948336,11.3670357 5.80948336,11.7390778 C5.80948336,12.1112883 5.50784126,12.4129304 5.13579915,12.4129304 C4.76375705,12.4129304 4.46211494,12.1112883 4.46211494,11.7390778 C4.46211494,11.3670357 4.76375705,11.0653936 5.13579915,11.0653936 Z M2.48695705,10.0120883 C2.85899915,10.0120883 3.16064126,10.3137304 3.16064126,10.6857725 C3.16064126,11.0579831 2.85899915,11.3594567 2.48695705,11.3594567 C2.11491494,11.3594567 1.81318863,11.0579831 1.81318863,10.6857725 C1.81318863,10.3137304 2.11491494,10.0120883 2.48695705,10.0120883 Z M3.1449781,3.33461464 L4.91954652,9.95743569 C4.95550441,10.0920041 4.87558863,10.2302778 4.74093599,10.2663199 C4.60636757,10.3021936 4.46809389,10.2222778 4.43205178,10.0877094 L2.65748336,3.46488832 C2.62152547,3.3303199 2.70152547,3.19204621 2.83609389,3.15600411 C2.97074652,3.119962 3.1090202,3.20004621 3.1449781,3.33461464 Z M6.94927284,8.91802516 C7.32131494,8.91802516 7.62295705,9.21966727 7.62295705,9.59187779 C7.62295705,9.9639199 7.32131494,10.265562 6.94927284,10.265562 C6.57714652,10.265562 6.27550441,9.9639199 6.27550441,9.59187779 C6.27550441,9.21966727 6.57714652,8.91802516 6.94927284,8.91802516 Z M0.496135994,2.28130937 L2.27070441,8.90413042 C2.30666231,9.03869885 2.22674652,9.17697253 2.09209389,9.21301464 C1.95744126,9.24888832 1.81916757,9.16897253 1.78320968,9.03440411 L0.00864125702,2.41158306 C-0.0274008482,2.27684621 0.0525991518,2.13874095 0.187251783,2.10269885 C0.321820204,2.06665674 0.460093889,2.14657253 0.496135994,2.28130937 Z M11.4579886,7.81966727 C11.8300307,7.81966727 12.1316728,8.12114095 12.1316728,8.49335148 C12.1316728,8.86539358 11.8300307,9.16703569 11.4579886,9.16703569 C11.0857781,9.16703569 10.784136,8.86539358 10.784136,8.49335148 C10.784136,8.12114095 11.0857781,7.81966727 11.4579886,7.81966727 Z M4.95853599,1.18724621 L6.73310441,7.81006727 C6.76906231,7.94463569 6.68914652,8.08290937 6.55449389,8.11895148 C6.41984126,8.15499358 6.28156757,8.07490937 6.24560968,7.94034095 L4.47104126,1.3175199 C4.43508336,1.18295148 4.51499915,1.04467779 4.64965178,1.00863569 C4.78430441,0.972593583 4.9225781,1.05267779 4.95853599,1.18724621 Z M15.9579886,6.69466727 C16.3300307,6.69466727 16.6316728,6.99614095 16.6316728,7.36835148 C16.6316728,7.74039358 16.3300307,8.04203569 15.9579886,8.04203569 C15.5857781,8.04203569 15.284136,7.74039358 15.284136,7.36835148 C15.284136,6.99614095 15.5857781,6.69466727 15.9579886,6.69466727 Z M10.3373149,3.33621464 L11.241736,6.71154095 C11.2777781,6.84610937 11.1978623,6.98438306 11.0631255,7.02042516 C10.928557,7.05646727 10.7902834,6.97655148 10.7542413,6.84181464 L9.84990441,3.46648832 C9.81386231,3.3319199 9.8937781,3.19364621 10.0284307,3.15760411 C10.1630834,3.121562 10.301357,3.20147779 10.3373149,3.33621464 Z M8.42009389,5.44745674 C8.79213599,5.44745674 9.0937781,5.74893042 9.0937781,6.12114095 C9.0937781,6.49318306 8.79213599,6.79482516 8.42009389,6.79482516 C8.04796757,6.79482516 7.74632547,6.49318306 7.74632547,6.12114095 C7.74632547,5.74893042 8.04796757,5.44745674 8.42009389,5.44745674 Z M14.8373149,2.21121464 L15.741736,5.58654095 C15.7777781,5.72110937 15.6978623,5.85938306 15.5631255,5.89542516 C15.428557,5.93146727 15.2902834,5.85155148 15.2542413,5.71681464 L14.3499044,2.34148832 C14.3138623,2.2069199 14.3937781,2.06864621 14.5284307,2.03260411 C14.6630834,1.996562 14.801357,2.07647779 14.8373149,2.21121464 Z M12.9200939,4.32245674 C13.292136,4.32245674 13.5937781,4.62393042 13.5937781,4.99614095 C13.5937781,5.36818306 13.292136,5.66982516 12.9200939,5.66982516 C12.5479676,5.66982516 12.2463255,5.36818306 12.2463255,4.99614095 C12.2463255,4.62393042 12.5479676,4.32245674 12.9200939,4.32245674 Z M7.65327284,2.28442516 L8.20392547,4.33933042 C8.23988336,4.47406727 8.15996757,4.61217253 8.02531494,4.64821464 C7.89066231,4.68425674 7.75238863,4.60434095 7.71643073,4.46960411 L7.16586231,2.41469885 C7.1298202,2.28013042 7.20973599,2.14185674 7.34438863,2.10581464 C7.47904126,2.06994095 7.61731494,2.14985674 7.65327284,2.28442516 Z M12.1532728,1.15942516 L12.7039255,3.21433042 C12.7398834,3.34906727 12.6599676,3.48717253 12.5253149,3.52321464 C12.3906623,3.55925674 12.2523886,3.47934095 12.2164307,3.34460411 L11.6658623,1.28969885 C11.6298202,1.15513042 11.709736,1.01685674 11.8443886,0.980814635 C11.9790413,0.944940951 12.1173149,1.02485674 12.1532728,1.15942516 Z" id="ðŸŽ-Culoare"></path>
            </g>
        </g>
    </g>
</svg>