<?xml version="1.0" encoding="UTF-8"?>
<svg width="32px" height="32px" viewBox="0 0 32 32" version="1.1" xmlns="http://www.w3.org/2000/svg" xmlns:xlink="http://www.w3.org/1999/xlink">
    <title>EE8F3FE2-09EF-4EF8-8377-87E2EC3DE050</title>
    <g id="Cover" stroke="none" stroke-width="1" fill="none" fill-rule="evenodd">
        <g id="Icons-and-illustrations" transform="translate(-888.000000, -334.000000)" fill="#006330">
            <g id="Fire" transform="translate(888.000000, 334.000000)">
                <path d="M23.911625,4.5462 C20.430375,10.3837 27.257,13.015325 31.14425,20.882075 C32.542875,23.712575 32.656875,28.8212 27.697,31.964575 C29.114125,29.462825 28.659125,25.30295 25.982125,21.7702 C26.52725,25.2917 23.242375,27.4902 23.4155,30.68445 C21.299,29.24145 19.64975,26.775075 19.743875,24.418575 C17.98075,26.555075 17.560375,28.7492 19.599125,32.00045 C9.077875,25.9167 20.05225,18.1562 17.218625,13.9492 C18.898625,14.8642 20.865875,17.6987 20.77825,20.1857 C22.66675,16.306075 15.8325,10.7472 23.911625,4.5462 Z M10.096625,3.375 L10.096625,7.376 L15.5,3.890125 C15.802125,3.696125 16.17875,3.711875 16.458875,3.900125 L20.308125,6.383375 C19.960625,6.86275 19.661375,7.3625 19.4155,7.886 L15.971625,5.664125 L5.346625,12.519 L5.346625,28.251125 L11.596625,28.251125 L11.596625,15.625375 L16.452875,15.625375 C16.45425,16.282125 16.21725,17.03 16.023625,17.576875 C15.572,18.85275 14.98275,20.08225 14.52,21.358875 C14.057875,22.6345 13.702875,23.963125 13.685375,25.328 C13.66275,27.06 14.192625,28.51575 15.075375,29.751125 L4.596625,29.751125 C4.182375,29.751125 3.846625,29.41525 3.846625,29.001125 L3.846625,13.48675 L0.943625,15.35975 L-3.55271368e-15,13.890125 L6.721625,9.5535 L6.721625,3.375 L10.096625,3.375 Z M24.512875,9.096125 L31.943625,13.890125 L31,15.35975 L28.096625,13.48675 C26.541375,12.483125 25.202125,10.80375 24.512875,9.096125 Z" id="ðŸŽ-Culoare"></path>
            </g>
        </g>
    </g>
</svg>