<?xml version="1.0" encoding="UTF-8"?>
<svg width="210px" height="112px" viewBox="0 0 210 112" version="1.1" xmlns="http://www.w3.org/2000/svg" xmlns:xlink="http://www.w3.org/1999/xlink">
    <title>34E675F5-59D5-4510-935B-955CA3C6905A@2x</title>
    <g id="Cover" stroke="none" stroke-width="1" fill="none" fill-rule="evenodd">
        <g id="Icons-and-illustrations" transform="translate(-516.000000, -602.000000)">
            <g id="UI/Misc/Ilustratii/Casa-1" transform="translate(516.000000, 602.000000)">
                <g id="Group-7" transform="translate(36.000000, 21.000000)">
                    <polygon id="Path-37" fill="#DBDBDB" points="17 9 8.5 0.5 31.5 0.5 23 9"></polygon>
                    <rect id="Rectangle" fill="#5E9F98" x="0" y="9" width="17" height="78"></rect>
                    <rect id="Rectangle" fill="#D7ECE1" x="23" y="9" width="17" height="78"></rect>
                    <polygon id="Path-37" fill="#5E9F98" points="0 9 8.5 0.5 17 9"></polygon>
                    <polygon id="Path-37" fill="#D7ECE1" points="23 9 31.5 0.5 40 9"></polygon>
                    <polygon id="Path-37" fill="#6EC5AB" points="3 9 8.5 3.5 14 9"></polygon>
                    <polygon id="Path-37" fill="#6EC5AB" points="26 9 31.5 3.5 37 9"></polygon>
                    <rect id="Rectangle" fill="#6EC5AB" x="3" y="15" width="4" height="4"></rect>
                    <rect id="Rectangle" fill="#6EC5AB" x="26" y="15" width="4" height="4"></rect>
                    <rect id="Rectangle" fill="#6EC5AB" x="10" y="15" width="4" height="4"></rect>
                    <rect id="Rectangle" fill="#F1DA81" x="33" y="15" width="4" height="4"></rect>
                    <rect id="Rectangle" fill="#6EC5AB" x="3" y="22" width="4" height="4"></rect>
                    <rect id="Rectangle" fill="#F1DA81" x="3" y="29" width="4" height="4"></rect>
                    <rect id="Rectangle" fill="#6EC5AB" x="3" y="36" width="4" height="4"></rect>
                    <rect id="Rectangle" fill="#6EC5AB" x="3" y="43" width="4" height="4"></rect>
                    <rect id="Rectangle" fill="#6EC5AB" x="3" y="50" width="4" height="4"></rect>
                    <rect id="Rectangle" fill="#6EC5AB" x="26" y="22" width="4" height="4"></rect>
                    <rect id="Rectangle" fill="#6EC5AB" x="26" y="29" width="4" height="4"></rect>
                    <rect id="Rectangle" fill="#F1DA81" x="26" y="36" width="4" height="4"></rect>
                    <rect id="Rectangle" fill="#6EC5AB" x="26" y="43" width="4" height="4"></rect>
                    <rect id="Rectangle" fill="#6EC5AB" x="26" y="50" width="4" height="4"></rect>
                    <rect id="Rectangle" fill="#6EC5AB" x="10" y="22" width="4" height="4"></rect>
                    <rect id="Rectangle" fill="#6EC5AB" x="10" y="29" width="4" height="4"></rect>
                    <rect id="Rectangle" fill="#6EC5AB" x="10" y="36" width="4" height="4"></rect>
                    <rect id="Rectangle" fill="#6EC5AB" x="10" y="43" width="4" height="4"></rect>
                    <rect id="Rectangle" fill="#6EC5AB" x="10" y="50" width="4" height="4"></rect>
                    <rect id="Rectangle" fill="#6EC5AB" x="33" y="22" width="4" height="4"></rect>
                    <rect id="Rectangle" fill="#6EC5AB" x="33" y="29" width="4" height="4"></rect>
                    <rect id="Rectangle" fill="#6EC5AB" x="33" y="36" width="4" height="4"></rect>
                    <rect id="Rectangle" fill="#6EC5AB" x="33" y="43" width="4" height="4"></rect>
                    <rect id="Rectangle" fill="#6EC5AB" x="33" y="50" width="4" height="4"></rect>
                    <rect id="Rectangle" fill="#ADD9C2" x="17" y="9" width="6" height="78"></rect>
                </g>
                <circle id="Oval" fill="#D7ECE1" cx="196" cy="94" r="12"></circle>
                <circle id="Oval" fill="#D7ECE1" cx="18" cy="98" r="12"></circle>
                <g id="Group-3" transform="translate(69.000000, 34.000000)">
                    <polygon id="Path" fill="#2E485D" points="0 74 0 16 16 16 16 8 32 8 32 0 56 0 56 74"></polygon>
                    <polygon id="Path" fill="#BFECD5" points="24 74 24 16 40 16 40 8 56 8 56 0 72 0 72 74"></polygon>
                    <polygon id="Path" fill="#83C5B1" points="50 74 50 8 56 8 56 0 72 0 72 74"></polygon>
                    <path d="M56,68 L56,72 L44,72 L44,68 L56,68 Z M40,68 L40,72 L28,72 L28,68 L40,68 Z M68,52 L68,64 L60,64 L60,52 L68,52 Z M56,60 L56,64 L44,64 L44,60 L56,60 Z M40,60 L40,64 L28,64 L28,60 L40,60 Z M56,52 L56,56 L44,56 L44,52 L56,52 Z M40,52 L40,56 L28,56 L28,52 L40,52 Z M68,36 L68,48 L60,48 L60,36 L68,36 Z M56,44 L56,48 L44,48 L44,44 L56,44 Z M40,44 L40,48 L28,48 L28,44 L40,44 Z M56,36 L56,40 L44,40 L44,36 L56,36 Z M40,36 L40,40 L28,40 L28,36 L40,36 Z M68,20 L68,32 L60,32 L60,20 L68,20 Z M56,28 L56,32 L44,32 L44,28 L56,28 Z M40,28 L40,32 L28,32 L28,28 L40,28 Z M56,20 L56,24 L44,24 L44,20 L56,20 Z M40,20 L40,24 L28,24 L28,20 L40,20 Z M56,12 L56,16 L44,16 L44,12 L56,12 Z M64,5 C66.209139,5 68,6.790861 68,9 L68,16 L60,16 L60,9 C60,6.790861 61.790861,5 64,5 Z" id="Combined-Shape" fill="#5E9F98"></path>
                    <path d="M56,68 L56,72 L44,72 L44,68 L56,68 Z M40,68 L40,72 L28,72 L28,68 L40,68 Z M20,68 L20,72 L4,72 L4,68 L20,68 Z M68,52 L68,64 L60,64 L60,52 L68,52 Z M56,60 L56,64 L44,64 L44,60 L56,60 Z M40,60 L40,64 L28,64 L28,60 L40,60 Z M20,60 L20,64 L4,64 L4,60 L20,60 Z M56,52 L56,56 L44,56 L44,52 L56,52 Z M40,52 L40,56 L28,56 L28,52 L40,52 Z M20,52 L20,56 L4,56 L4,52 L20,52 Z M68,36 L68,48 L60,48 L60,36 L68,36 Z M56,44 L56,48 L44,48 L44,44 L56,44 Z M40,44 L40,48 L28,48 L28,44 L40,44 Z M20,44 L20,48 L4,48 L4,44 L20,44 Z M56,36 L56,40 L44,40 L44,36 L56,36 Z M40,36 L40,40 L28,40 L28,36 L40,36 Z M20,36 L20,40 L4,40 L4,36 L20,36 Z M68,20 L68,32 L60,32 L60,20 L68,20 Z M56,28 L56,32 L44,32 L44,28 L56,28 Z M40,28 L40,32 L28,32 L28,28 L40,28 Z M20,28 L20,32 L4,32 L4,28 L20,28 Z M56,20 L56,24 L44,24 L44,20 L56,20 Z M40,20 L40,24 L28,24 L28,20 L40,20 Z M20,20 L20,24 L4,24 L4,20 L20,20 Z M56,12 L56,16 L44,16 L44,12 L56,12 Z M64,5 C66.209139,5 68,6.790861 68,9 L68,16 L60,16 L60,9 C60,6.790861 61.790861,5 64,5 Z" id="Combined-Shape" fill="#5E9F98"></path>
                    <rect id="Rectangle" fill="#F1DA81" x="44" y="28" width="6" height="4"></rect>
                    <rect id="Rectangle" fill="#F7DACA" x="50" y="52" width="6" height="4"></rect>
                    <rect id="Rectangle" fill="#FFFFFF" x="34" y="20" width="6" height="4"></rect>
                    <rect id="Rectangle" fill="#F7DACA" x="28" y="44" width="6" height="4"></rect>
                    <rect id="Rectangle" fill="#FFFFFF" x="28" y="68" width="6" height="4"></rect>
                    <rect id="Rectangle" fill="#F1DA81" x="4" y="36" width="8" height="4"></rect>
                    <rect id="Rectangle" fill="#F1DA81" x="12" y="20" width="8" height="4"></rect>
                </g>
                <path d="M41,68 C39.6915697,62.6351085 37.5256515,59.9685352 34.5022454,60.0002801 C29.9671362,60.0478975 29.3090937,63.7420846 26.2513268,63.7420846 C23.1935599,63.7420846 22.6901408,62.4287665 19.0763931,62.4518072 C16.667228,62.4671676 13.975097,64.3165652 11,68 L41,68 Z" id="Path-28" fill="#BFE2D0"></path>
                <path d="M38,14 C35.6635368,9.97633136 33.3363328,7.97640139 31.0183881,8.00021008 C27.541471,8.03592311 27.0369718,10.8065634 24.6926839,10.8065634 C22.3483959,10.8065634 21.9624413,9.82157487 19.1919014,9.83885538 C17.3448748,9.85037571 15.2809077,11.2374239 13,14 L38,14 Z" id="Path-28" fill="#BFE2D0"></path>
                <g id="Group-2" transform="translate(144.000000, 3.000000)">
                    <rect id="Rectangle" fill="#BFECD5" x="0" y="5" width="44" height="100"></rect>
                    <rect id="Rectangle" fill="#83C5B1" transform="translate(22.000000, 2.500000) scale(1, -1) translate(-22.000000, -2.500000) " x="9" y="0" width="26" height="5"></rect>
                    <path d="M16,3 L16,5 L12,5 L12,3 L16,3 Z M32,3 L32,5 L28,5 L28,3 L32,3 Z M24,3 L24,5 L20,5 L20,3 L24,3 Z" id="Combined-Shape" fill="#BFECD5"></path>
                    <path d="M20,26 L20,105 L16,105 L16,26 L20,26 Z M28,26 L28,105 L24,105 L24,26 L28,26 Z M36,26 L36,105 L32,105 L32,26 L36,26 Z M12,26 L12,105 L8,105 L8,26 L12,26 Z M20,9 L20,22 L16,22 L16,9 L20,9 Z M28,9 L28,22 L24,22 L24,9 L28,9 Z M36,9 L36,22 L32,22 L32,9 L36,9 Z M12,9 L12,22 L8,22 L8,9 L12,9 Z" id="Combined-Shape" fill="#6EC5AB"></path>
                    <rect id="Rectangle" fill="#FFE8DB" transform="translate(26.000000, 40.000000) scale(1, -1) translate(-26.000000, -40.000000) " x="24" y="38" width="4" height="4"></rect>
                    <rect id="Rectangle" fill="#F1DA81" transform="translate(26.000000, 50.000000) scale(1, -1) translate(-26.000000, -50.000000) " x="24" y="48" width="4" height="4"></rect>
                    <rect id="Rectangle" fill="#BFECD5" transform="translate(34.000000, 33.000000) scale(1, -1) translate(-34.000000, -33.000000) " x="32" y="31" width="4" height="4"></rect>
                    <rect id="Rectangle" fill="#FFE8DB" transform="translate(18.000000, 33.000000) scale(1, -1) translate(-18.000000, -33.000000) " x="16" y="31" width="4" height="4"></rect>
                    <rect id="Rectangle" fill="#FFE8DB" transform="translate(34.000000, 62.000000) scale(1, -1) translate(-34.000000, -62.000000) " x="32" y="60" width="4" height="4"></rect>
                    <rect id="Rectangle" fill="#FFE8DB" transform="translate(18.000000, 68.000000) scale(1, -1) translate(-18.000000, -68.000000) " x="16" y="66" width="4" height="4"></rect>
                    <rect id="Rectangle" fill="#FFE8DB" transform="translate(10.000000, 54.000000) scale(1, -1) translate(-10.000000, -54.000000) " x="8" y="52" width="4" height="4"></rect>
                    <rect id="Rectangle" fill="#F1DA81" transform="translate(10.000000, 44.000000) scale(1, -1) translate(-10.000000, -44.000000) " x="8" y="42" width="4" height="4"></rect>
                </g>
                <path d="M8.98144962,108 L201.01855,108 C204.444004,108 207.708492,109.45388 210,112 L210,112 L210,112 L0,112 C2.29150779,109.45388 5.5559958,108 8.98144962,108 Z" id="Rectangle" fill="#006330"></path>
                <g id="Group-6" transform="translate(176.000000, 64.000000)">
                    <circle id="Oval" fill="#3C968D" cx="13" cy="13" r="13"></circle>
                    <g id="Group-5" transform="translate(7.000000, 5.000000)" fill="#FFD8C2">
                        <path d="M6.99998741,0 C7.55227216,0 7.99998741,0.36441939 7.99998741,0.813953488 L7.99998741,0.813953488 L7.99997881,9.254 L11.3310353,6.25670585 C11.7099676,5.91566676 12.2778721,5.91778855 12.6535893,6.24301021 L12.7432941,6.33103527 C13.1127532,6.74154529 13.0794748,7.37383513 12.6689647,7.74329415 L12.6689647,7.74329415 L7.99997881,11.944 L7.99998741,38 L5.99998741,38 L6.0000533,17.3663707 C5.90276152,17.3102337 5.81334432,17.2366239 5.73661371,17.1459422 L5.73661371,17.1459422 L0.236613715,10.6459422 C-0.120130335,10.2243356 -0.0675488451,9.59335776 0.354057759,9.23661371 C0.775664362,8.87986967 1.40664224,8.93245115 1.76338629,9.35405776 L1.76338629,9.35405776 L5.99997881,14.361 L5.99998741,0.813953488 C5.99998741,0.396528968 6.3860276,0.0524941715 6.88336629,0.00547606038 Z" id="Combined-Shape" transform="translate(6.499994, 19.000000) scale(-1, 1) translate(-6.499994, -19.000000) "></path>
                    </g>
                </g>
                <g id="Group" transform="translate(9.000000, 70.000000)">
                    <polygon id="Rectangle" fill="#E3F9EC" points="8 19 20 7 32 19 32 38 8 38"></polygon>
                    <polygon id="Rectangle" fill="#2E485D" points="5 19 18.5 5.5 32 19 32 16 18.5 2 5 16.5714286"></polygon>
                    <polygon id="Rectangle" fill="#3C968D" points="18.5 2 32 16 77 16 63 2"></polygon>
                    <polygon id="Path" fill="#2E485D" points="59.5 9 53 16 46 9"></polygon>
                    <polygon id="Path" fill="#FFFFFF" points="59.6818182 13 67 19 74 19 74 38 32 38 32 19 53 19"></polygon>
                    <polygon id="Path" fill="#E3F9EC" points="59.5 16 55 21 32 21 32 19 54 19 59.5 13 65 19 74 19 74 21 64 21"></polygon>
                    <polygon id="Path" fill="#6EC5AB" points="59.5 13 54 19 32 19 32 16 53 16 59.4736842 9 66 16 77 16 77 19 65 19"></polygon>
                    <polygon id="Rectangle" fill="#3C968D" transform="translate(12.500000, 12.250000) scale(1, -1) translate(-12.500000, -12.250000) " points="5 5.5 8 5.5 20 17.5 18.5 19"></polygon>
                    <rect id="Rectangle" fill="#A43E43" x="14" y="23" width="11" height="7"></rect>
                    <rect id="Rectangle" fill="#A43E43" transform="translate(43.500000, 26.500000) scale(-1, 1) translate(-43.500000, -26.500000) " x="38" y="23" width="11" height="7"></rect>
                    <rect id="Rectangle" fill="#5E9F98" x="16" y="23" width="7" height="7"></rect>
                    <rect id="Rectangle" fill="#2E485D" x="18" y="17" width="3" height="3"></rect>
                    <rect id="Rectangle" fill="#5E9F98" transform="translate(44.500000, 26.500000) scale(-1, 1) translate(-44.500000, -26.500000) " x="41" y="23" width="7" height="7"></rect>
                    <rect id="Rectangle" fill="#5E9F98" transform="translate(68.000000, 26.500000) scale(-1, 1) translate(-68.000000, -26.500000) " x="66" y="23" width="4" height="7"></rect>
                    <rect id="Rectangle" fill="#6EC5AB" x="16" y="23" width="1" height="7"></rect>
                    <rect id="Rectangle" fill="#6EC5AB" transform="translate(46.500000, 26.500000) scale(-1, 1) translate(-46.500000, -26.500000) " x="46" y="23" width="1" height="7"></rect>
                    <rect id="Rectangle" fill="#6EC5AB" transform="translate(69.500000, 26.500000) scale(-1, 1) translate(-69.500000, -26.500000) " x="69" y="23" width="1" height="7"></rect>
                    <rect id="Rectangle" fill="#2E485D" transform="translate(19.500000, 30.500000) scale(1, -1) translate(-19.500000, -30.500000) " x="16" y="30" width="7" height="1"></rect>
                    <rect id="Rectangle" fill="#2E485D" transform="translate(43.500000, 30.500000) scale(-1, -1) translate(-43.500000, -30.500000) " x="40" y="30" width="7" height="1"></rect>
                    <rect id="Rectangle" fill="#A43E43" x="55" y="22" width="8" height="16"></rect>
                    <rect id="Rectangle" fill="#F0BDA1" transform="translate(56.000000, 31.000000) scale(-1, 1) translate(-56.000000, -31.000000) " x="55" y="30" width="2" height="2"></rect>
                    <rect id="Rectangle" fill="#572A2C" x="55" y="22" width="8" height="1"></rect>
                    <rect id="Rectangle" fill="#A43E43" x="21" y="0" width="11" height="2"></rect>
                    <rect id="Rectangle" fill="#572A2C" x="21" y="0" width="3" height="2"></rect>
                    <path d="M33,32 C36.2388064,32 38.8782391,34.5662236 38.9959063,38.0003695 L27.0040937,38.0003695 C27.1217609,34.5662236 29.7611936,32 33,32 Z" id="Combined-Shape" fill="#F1DA81"></path>
                    <path d="M74,32 C77.2388064,32 79.8782391,34.5662236 79.9959063,38.0003695 L68.0040937,38.0003695 C68.1217609,34.5662236 70.7611936,32 74,32 Z" id="Combined-Shape" fill="#F1DA81"></path>
                    <path d="M26.7333333,34 C28.3711864,34 29.8858528,35.662976 29.9938519,37.9993308 L23.006179,37.9991478 C23.1148443,35.6628891 24.645839,34 26.7333333,34 Z" id="Combined-Shape" fill="#F1DA81"></path>
                    <path d="M81.7333333,34 C83.3711864,34 84.8858528,35.662976 84.9938519,37.9993308 L78.006179,37.9991478 C78.1148443,35.6628891 79.645839,34 81.7333333,34 Z" id="Combined-Shape" fill="#F1DA81"></path>
                    <path d="M0,38 C0.411542547,31.4724418 1.58747878,26.7802138 3.5,24 C5.41252122,26.7802138 6.58845745,31.4724418 7,38 L0,38 Z" id="Path" fill="#3C968D"></path>
                    <path d="M7.73333333,34 C9.37118641,34 10.8858528,35.662976 10.9938519,37.9993308 L4.00617904,37.9991478 C4.11484432,35.6628891 5.64583896,34 7.73333333,34 Z" id="Combined-Shape" fill="#F1DA81"></path>
                </g>
                <g id="Group-4" transform="translate(127.000000, 76.000000)">
                    <path d="M5,32 C5.70550151,20.8099002 7.7213922,12.7660808 11,8 C14.2786078,12.7660808 16.2944985,20.8099002 17,32 L5,32 Z" id="Path" fill="#34827A"></path>
                    <path d="M0,32 C0.470334339,25.0061876 1.81426146,19.9788005 4,17 C6.18573854,19.9788005 7.52966566,25.0061876 8,32 L0,32 Z" id="Path" fill="#BFECD5"></path>
                    <path d="M11,27 C13.7614237,27 16,29.2385763 16,32.2 L15.996,32 L6.00340768,32.0004178 C6.09884015,29.2136511 8.18700194,27.1127031 10.788643,27.0043898 Z" id="Combined-Shape" fill="#F1DA81"></path>
                    <path d="M15,23 C17.7614237,23 20,25.2385763 20,28.2 L19.996,28 L10.0034077,28.0004178 C10.0988402,25.2136511 12.1870019,23.1127031 14.788643,23.0043898 Z" id="Combined-Shape" fill="#F1DA81"></path>
                    <polygon id="Rectangle" fill="#572A2C" points="17 0 19 0 19 6 17 8"></polygon>
                    <polygon id="Rectangle" fill="#A43E43" points="19 0 25 0 25 2 23 2 19 6"></polygon>
                    <polygon id="Rectangle" fill="#FFFFFF" transform="translate(53.000000, 19.000000) scale(-1, 1) translate(-53.000000, -19.000000) " points="43 16 53 6 63 15.8484848 63 32 43 32"></polygon>
                    <path d="M53,6 L63,16 L63,19 L53,9.15151515 L43,19 L43,32 L14,32 L14,16 L43,16 L43,15.8484848 L53,6 Z M56,21 L56,27 L50,27 L50,21 L56,21 Z" id="Combined-Shape" fill="#BFECD5"></path>
                    <rect id="Rectangle" fill="#2E485D" x="32" y="21" width="6" height="6"></rect>
                    <rect id="Rectangle" fill="#2E485D" x="23" y="21" width="6" height="11"></rect>
                    <polygon id="Rectangle" fill="#3C968D" points="11 14 41 14 43 16 13 16"></polygon>
                    <polygon id="Rectangle" fill="#2E485D" points="23 2 53 2 41 14 11 14"></polygon>
                    <polygon id="Path-29" fill="#6EC5AB" points="41 14 53 2 65 14 63 16 53 6 43 16"></polygon>
                    <path d="M63,27 C65.7614237,27 68,29.2385763 68,32.2 L67.996,32 L58.0034077,32.0004178 C58.0988402,29.2136511 60.1870019,27.1127031 62.788643,27.0043898 Z" id="Combined-Shape" fill="#F1DA81"></path>
                    <path d="M57,29 C58.6568542,29 60,30.3431458 60,32.12 L59.996,31.999 L54.0020943,31.9988094 C54.0594109,30.3451605 55.2862611,29.0943251 56.8237272,29.0050982 Z" id="Combined-Shape" fill="#F1DA81"></path>
                    <path d="M43.5,27 C45.9852814,27 48,29.0147186 48,31.68 C48,31.7872695 47.9956377,31.8939098 47.9870686,31.9997473 L39.0129314,31.9997473 C39.0043623,31.8939098 39,31.7872695 39,31.68 C39,29.0147186 41.0147186,27 43.5,27 Z" id="Combined-Shape" fill="#F1DA81"></path>
                    <path d="M65,32 C65.5879179,22.6749169 67.2678268,15.971734 70,12 C72.7321732,15.971734 74.4120821,22.6749169 75,32 L65,32 Z" id="Path" fill="#3C968D"></path>
                </g>
                <path d="M118,24 C115.663537,19.9763314 113.336333,17.9764014 111.018388,18.0002101 C107.541471,18.0359231 107.036972,20.8065634 104.692684,20.8065634 C102.348396,20.8065634 101.962441,19.8215749 99.1919014,19.8388554 C97.3448748,19.8503757 95.2809077,21.2374239 93,24 L118,24 Z" id="Path-28" fill="#BFE2D0"></path>
                <path d="M152,73 C149.663537,68.9763314 147.336333,66.9764014 145.018388,67.0002101 C141.541471,67.0359231 141.036972,69.8065634 138.692684,69.8065634 C136.348396,69.8065634 135.962441,68.8215749 133.191901,68.8388554 C131.344875,68.8503757 129.280908,70.2374239 127,73 L152,73 Z" id="Path-28" fill="#F5F9FC"></path>
                <path d="M183.502245,21 C185.901038,20.9998319 186.860471,22.0798904 188.000343,22.9438887 L188,28.999 L160,28.9997199 C162.835557,25.135827 165.428982,23.1381149 167.780276,23.0065836 L168,22.9997199 C171.613748,22.9766792 171.942233,24.9997199 175,24.9997199 C178.057767,24.9997199 179.504491,21.0002801 183.502245,21 Z" id="Path" fill="#FFFFFF"></path>
                <path d="M187.998543,22.9425242 C188.758821,23.5190455 189.599017,23.9997199 191,23.9997199 C194.5,23.9997199 193.5,22.9997199 197.5,22.9997199 C200.088235,22.9997199 202.519464,24.8838029 204.793685,28.651969 L205,28.9997199 L187.999543,28.9992828 L187.998543,22.9425242 Z" id="Path" fill="#BFE2D0"></path>
            </g>
        </g>
    </g>
</svg>