<?xml version="1.0" encoding="UTF-8"?>
<svg width="210px" height="112px" viewBox="0 0 210 112" version="1.1" xmlns="http://www.w3.org/2000/svg" xmlns:xlink="http://www.w3.org/1999/xlink">
    <title>6C8D3D06-77B8-4208-9926-BE5443A7E59A@2x</title>
    <g id="Cover" stroke="none" stroke-width="1" fill="none" fill-rule="evenodd">
        <g id="Icons-and-illustrations" transform="translate(-282.000000, -602.000000)">
            <g id="UI/Misc/Ilustratii/Casa-1" transform="translate(282.000000, 602.000000)">
                <path d="M113.925,0 C123.608361,0 133.209602,5.94086669 142.728722,17.8226001 C145.125644,20.8144293 148.751718,22.555631 152.585291,22.5556175 L170.225,22.5555556 L170.225,22.5555556 C188.326133,22.5555556 203,42.2057935 203,60.2777778 C203,78.3497621 188.326133,93 170.225,93 L51.775,93 C33.6738673,93 19,78.3497621 19,60.2777778 C19,42.6479392 32.9646346,23.2744637 50.4527424,22.581699 C52.922072,6.95202438 66.4755123,0 82.825,0 L113.925,0 Z" id="Path" fill="#D7ECE1"></path>
                <path d="M25,104 C26.8225456,76.0247506 32.0302632,55.9152021 40.5,44 C48.9697368,55.9152021 54.1774544,76.0247506 56,104 L25,104 Z" id="Path" fill="#3C968D"></path>
                <path d="M14,104.074076 C15.1758358,86.3564176 18.5356537,73.6203702 24,66.0740756 C29.4643463,73.6203702 32.8241642,86.3564176 34,104.074076 L14,104.074076 Z" id="Path" fill="#6EC5AB"></path>
                <path d="M41,91 C48.1797017,91 54,96.5964406 54,104 L54,104 L28,104 C28,96.5964406 33.8202983,91 41,91 Z" id="Combined-Shape" fill="#F1DA81"></path>
                <path d="M53,81 C60.1797017,81 66,86.5964406 66,94 L66,94 L40,94 C40,86.5964406 45.8202983,81 53,81 Z" id="Combined-Shape" fill="#F1DA81"></path>
                <path d="M15.3652445,104 L194.634756,104 C200.75499,104 206.490276,106.986109 210,112 L210,112 L210,112 L0,112 C3.50972388,106.986109 9.24501025,104 15.3652445,104 Z" id="Rectangle" fill="#008641"></path>
                <path d="M87.3,106 C87.6865993,106 88,106.313401 88,106.7 L88,112 L86,112 L86,106.7 C86,106.313401 86.3134007,106 86.7,106 L87.3,106 Z M84.3,108 C84.6865993,108 85,108.313401 85,108.7 L85,112 L83,112 L83,108.7 C83,108.313401 83.3134007,108 83.7,108 L84.3,108 Z M51.3,108 C51.6865993,108 52,108.313401 52,108.7 L52,110.3 C52,110.686599 51.6865993,111 51.3,111 L49.7,111 C49.3134007,111 49,110.686599 49,110.3 L49,108.7 C49,108.313401 49.3134007,108 49.7,108 L51.3,108 Z M190.3,106 C190.686599,106 191,106.313401 191,106.7 L191,108.3 C191,108.686599 190.686599,109 190.3,109 L188.7,109 C188.313401,109 188,108.686599 188,108.3 L188,106.7 C188,106.313401 188.313401,106 188.7,106 L190.3,106 Z M112.3,105 C112.686599,105 113,105.313401 113,105.7 L113,107.3 C113,107.686599 112.686599,108 112.3,108 L110.7,108 C110.313401,108 110,107.686599 110,107.3 L110,105.7 C110,105.313401 110.313401,105 110.7,105 L112.3,105 Z" id="Combined-Shape" fill="#006330"></path>
                <polygon id="Rectangle" fill="#572A2C" points="58 24 63 24 63 38 58 43"></polygon>
                <polygon id="Rectangle" fill="#A43E43" points="63 24 78 24 78 28 73 28 63 38"></polygon>
                <polygon id="Rectangle" fill="#FFFFFF" transform="translate(148.000000, 71.000000) scale(-1, 1) translate(-148.000000, -71.000000) " points="123 63 148 38 173 63 173 104 123 104"></polygon>
                <path d="M148,38 L173,63 L173,71 L148,46 L123,71 L123,104 L48,104 L48,63 L123,63 L148,38 Z M155,77 L155,91 L141,91 L141,77 L155,77 Z" id="Combined-Shape" fill="#BFECD5"></path>
                <rect id="Rectangle" fill="#2E485D" x="96" y="77" width="14" height="14"></rect>
                <rect id="Rectangle" fill="#2E485D" x="71" y="77" width="14" height="27"></rect>
                <polygon id="Rectangle" fill="#3C968D" points="43 58 118 58 123 63 48 63"></polygon>
                <polygon id="Rectangle" fill="#2E485D" points="73 28 148 28 118 58 43 58"></polygon>
                <polygon id="Path-29" fill="#6EC5AB" points="118 58 148 28 178 58 173 63 148 38 123 63"></polygon>
                <path d="M173,91 C180.179702,91 186,96.5964406 186,104 L186,104 L160,104 C160,96.5964406 165.820298,91 173,91 Z" id="Combined-Shape" fill="#F1DA81"></path>
                <path d="M158,96 C162.418278,96 166,99.3578644 166,103.8 C166,103.866965 165.998912,103.933784 165.99675,104.000439 L150.004,104 L150,103.8 C150,99.4416783 153.447838,96.1270979 157.750821,96.0035709 Z" id="Combined-Shape" fill="#F1DA81"></path>
                <path d="M124,92 C130.627417,92 136,96.9248678 136,103.44 C136,103.627568 135.994048,103.814349 135.982295,104.000187 L112.017705,104.000187 C112.005952,103.814349 112,103.627568 112,103.44 C112,96.9248678 117.372583,92 124,92 Z" id="Combined-Shape" fill="#F1DA81"></path>
                <path d="M178,104 C179.058252,87.6811045 182.082088,75.9505346 187,69 C191.917912,75.9505346 194.941748,87.6811045 196,104 L178,104 Z" id="Path" fill="#6EC5AB"></path>
                <rect id="Rectangle" fill="#6EC5AB" x="52" y="67" width="3" height="3" rx="0.7"></rect>
                <path d="M50.7,98 L51.3,98 C51.6865993,98 52,98.3134007 52,98.7 L52,104 L52,104 L50,104 L50,98.7 C50,98.3134007 50.3134007,98 50.7,98 Z" id="Rectangle" fill="#006330"></path>
                <path d="M47.7,100 L48.3,100 C48.6865993,100 49,100.313401 49,100.7 L49,104 L49,104 L47,104 L47,100.7 C47,100.313401 47.3134007,100 47.7,100 Z" id="Rectangle" fill="#006330"></path>
                <rect id="Rectangle" fill="#3C968D" x="25" y="91" width="3" height="3" rx="0.7"></rect>
                <rect id="Rectangle" fill="#D7ECE1" x="141" y="95" width="3" height="3" rx="0.7"></rect>
                <rect id="Rectangle" fill="#D7ECE1" x="182" y="93" width="3" height="3" rx="0.7"></rect>
            </g>
        </g>
    </g>
</svg>