<?xml version="1.0" encoding="UTF-8"?>
<svg width="280px" height="216px" viewBox="0 0 280 216" version="1.1" xmlns="http://www.w3.org/2000/svg" xmlns:xlink="http://www.w3.org/1999/xlink">
    <title>Ilustratii/Excluderi 1 An</title>
    <g id="Cover" stroke="none" stroke-width="1" fill="none" fill-rule="evenodd">
        <g id="Icons-and-illustrations" transform="translate(-48.000000, -811.000000)">
            <g id="Group" transform="translate(48.000000, 797.000000)">
                <g id="Excluderi-1-An" transform="translate(0.000000, 14.000000)">
                    <path d="M127,112 C134.435461,101.856926 141.235998,90.6127481 147.401612,90.2674665 L147.977778,90.2494485 C157.453827,90.1889647 158.315189,95.4996324 166.333333,95.4996324 C174.351478,95.4996324 178.145109,85.0007353 188.62811,85 C194.656186,84.9995772 200,96 208.288889,95.8745404 C217.446653,95.7359297 214.844444,93.2494485 225.333333,93.2494485 C229.857952,93.2494485 236.413508,99.4996324 245,112 L127,112 Z" id="Path" fill="#E5F2EC"></path>
                    <path d="M97,96 C91.2990297,85.270217 85.6206521,79.9370704 79.964867,80.0005602 C71.4811894,80.095795 70.2502113,87.4841691 64.5301487,87.4841691 C58.8100861,87.4841691 57.8683568,84.857533 51.1082394,84.9036143 C46.6014945,84.9343352 41.5654147,88.6331304 36,96 L97,96 Z" id="Path-28" fill="#F5F9FC"></path>
                    <path d="M33,205 C35.4104635,167.699667 42.29809,140.886936 53.5,125 C64.70191,140.886936 71.5895365,167.699667 74,205 L33,205 Z" id="Path" fill="#3C968D"></path>
                    <path d="M20,205 C21.5873784,181.221038 26.1231324,164.127922 33.5,154 C40.8768676,164.127922 45.4126216,181.221038 47,205 L20,205 Z" id="Path" fill="#6EC5AB"></path>
                    <path d="M63.5,174 C73.0551538,174 80.8216951,181.15304 80.9969736,190.670869 L81,191 L57.5498225,191.000372 C61.9719118,193.961747 64.8902999,198.878363 64.9969736,204.670869 L65,205 L30,205 C30,195.73886 37.1692968,188.640085 46.2516937,188.040999 C47.6611741,179.865793 54.8472184,174 63.5,174 Z" id="Path" fill="#F1DA81"></path>
                    <polygon id="Rectangle" fill="#572A2C" points="70 98 77 98 77 117 70 124"></polygon>
                    <circle id="Oval" fill="#E5F2EC" cx="236" cy="174" r="27"></circle>
                    <polygon id="Rectangle" fill="#A43E43" points="77 98 97 98 97 104 90 104 77 117"></polygon>
                    <polygon id="Rectangle" fill="#FFFFFF" transform="translate(190.500000, 161.500000) scale(-1, 1) translate(-190.500000, -161.500000) " points="157 151 190.5 118 224 151 224 205 157 205"></polygon>
                    <path d="M190.5,118 L224,151 L224,161 L190.5,128 L157.037,160.964 L157.2,205 L57,205 L57,151 L157,151 L190.5,118 Z M202,191 L202,195 L181,195 L181,191 L202,191 Z M190,179 L190,188 L181,188 L181,179 L190,179 Z M200,179 L200,188 L191,188 L191,179 L200,179 Z M190,169 L190,178 L181,178 L181,169 L190,169 Z M200,169 L200,178 L191,178 L191,169 L200,169 Z M208.066667,169 C208.582132,169 209,169.417868 209,169.933333 L209,172.066667 C209,172.582132 208.582132,173 208.066667,173 L205.933333,173 C205.417868,173 205,172.582132 205,172.066667 L205,169.933333 C205,169.417868 205.417868,169 205.933333,169 L208.066667,169 Z" id="Shape" fill="#BFECD5"></path>
                    <path d="M140,179 L140,188 L131,188 L131,179 L140,179 Z M130,179 L130,188 L121,188 L121,179 L130,179 Z M140,169 L140,178 L131,178 L131,169 L140,169 Z M130,169 L130,178 L121,178 L121,169 L130,169 Z" id="Combined-Shape" fill="#2E485D"></path>
                    <polygon id="Rectangle" fill="#2E485D" points="66 169 77 169 77 188 66 188"></polygon>
                    <rect id="Rectangle" fill="#3C968D" transform="translate(70.000000, 183.000000) rotate(-7.000000) translate(-70.000000, -183.000000) " x="60" y="181" width="20" height="4"></rect>
                    <path d="M78.0666667,198 C78.5821324,198 79,198.417868 79,198.933333 L79,201.066667 C79,201.582132 78.5821324,202 78.0666667,202 L75.9333333,202 C75.4178676,202 75,201.582132 75,201.066667 L75,198.933333 C75,198.417868 75.4178676,198 75.9333333,198 L78.0666667,198 Z M140,191 L140,195 L119,195 L119,191 L140,191 Z M77,191 L77,195 L64,195 L64,191 L77,191 Z M61.1170061,175.531717 L79.0923377,176.473765 L78.8829939,180.468283 L60.9076623,179.526235 L61.1170061,175.531717 Z M139.066667,159 C139.582132,159 140,159.417868 140,159.933333 L140,162.066667 C140,162.582132 139.582132,163 139.066667,163 L136.933333,163 C136.417868,163 136,162.582132 136,162.066667 L136,159.933333 C136,159.417868 136.417868,159 136.933333,159 L139.066667,159 Z" id="Combined-Shape" fill="#6EC5AB"></path>
                    <polygon id="Rectangle" fill="#2E485D" points="88 169 107 169 107 205 88 205"></polygon>
                    <path d="M104,180 L104,187 L98,187 L98,180 L104,180 Z M97,180 L97,187 L91,187 L91,180 L97,180 Z M104,172 L104,179 L98,179 L98,172 L104,172 Z M97,172 L97,179 L91,179 L91,172 L97,172 Z" id="Combined-Shape" fill="#3C968D"></path>
                    <polygon id="Rectangle" fill="#3C968D" points="50 144 150 144 157 151 57 151"></polygon>
                    <polygon id="Rectangle" fill="#2E485D" points="90 104 190 104 150 144 50 144"></polygon>
                    <polygon id="Rectangle" fill="#173247" points="86 116 116 116 107 125 77 125"></polygon>
                    <polygon id="Rectangle" fill="#173247" points="152 113 159 113 155 117 148 117"></polygon>
                    <polygon id="Rectangle" fill="#396282" points="111 112 141 112 132 121 102 121"></polygon>
                    <polygon id="Rectangle" fill="#1D3D57" points="108 132 153 132 147 138 102 138"></polygon>
                    <polygon id="Path-29" fill="#6EC5AB" points="150 144 190 104 230 144 224 151 190.5 118 157 151"></polygon>
                    <path d="M223.5,188 C233.055154,188 240.821695,195.15304 240.996974,204.670869 L241,205 L193.004266,205.000656 L193,204.725038 L193,204.725038 C193,198.61708 197.70101,194 203.5,194 C205.477277,194 207.326904,194.536782 208.906051,195.48642 C212.038786,190.909911 217.405583,188 223.5,188 Z M158,189 C166.836556,189 174,195.566196 174,204.252649 C174,204.502674 173.992067,204.751649 173.976403,204.99937 L142.023597,204.99937 C142.007933,204.751649 142,204.502674 142,204.252649 C142,195.566196 149.163444,189 158,189 Z" id="Shape" fill="#F1DA81"></path>
                    <path d="M235,205 C236.411003,183.086055 240.442784,167.333575 247,158 C253.557216,167.333575 257.588997,183.086055 259,205 L235,205 Z" id="Path" fill="#6EC5AB"></path>
                    <rect id="Rectangle" fill="#3C968D" x="25" y="187" width="4" height="4" rx="0.933333333"></rect>
                    <rect id="Rectangle" fill="#BFECD5" x="241" y="193" width="4" height="4" rx="0.933333333"></rect>
                    <path d="M20.7614443,205 L259.238556,205 C267.554205,205 275.329732,209.119694 280,216 L280,216 L280,216 L0,216 C4.67026836,209.119694 12.4457953,205 20.7614443,205 Z" id="Rectangle" fill="#008641"></path>
                    <g id="Group-2" transform="translate(100.000000, 0.000000)">
                        <rect id="Rectangle" fill="#F7CBB2" transform="translate(40.000000, 21.000000) scale(-1, 1) translate(-40.000000, -21.000000) " x="0" y="20" width="80" height="2"></rect>
                        <path d="M0,48 L80,48 L80,70 C80,71.1045695 79.1045695,72 78,72 L2,72 C0.8954305,72 1.3527075e-16,71.1045695 0,70 L0,48 L0,48 Z" id="Rectangle" fill="#F0BDA1" transform="translate(40.000000, 60.000000) scale(-1, 1) translate(-40.000000, -60.000000) "></path>
                        <path d="M0,50 L80,50 L80,68 C80,69.1045695 79.1045695,70 78,70 L2,70 C0.8954305,70 1.3527075e-16,69.1045695 0,68 L0,50 L0,50 Z" id="Rectangle" fill="#F7CBB2" transform="translate(40.000000, 60.000000) scale(-1, 1) translate(-40.000000, -60.000000) "></path>
                        <path d="M0,22 L80,22 L80,64 C80,65.1045695 79.1045695,66 78,66 L2,66 C0.8954305,66 1.3527075e-16,65.1045695 0,64 L0,22 L0,22 Z" id="Rectangle" fill="#FFE8DB" transform="translate(40.000000, 44.000000) scale(-1, 1) translate(-40.000000, -44.000000) "></path>
                        <path d="M80,66 L33,66 C31.8954305,66 31,65.1045695 31,64 L31,22 L31,22 L55,22 L80,66 Z" id="Rectangle" fill="#FFEFE6" transform="translate(55.500000, 44.000000) scale(-1, 1) translate(-55.500000, -44.000000) "></path>
                        <path d="M2,4 L78,4 C79.1045695,4 80,4.8954305 80,6 L80,20 L80,20 L0,20 L0,6 C-1.3527075e-16,4.8954305 0.8954305,4 2,4 Z" id="Rectangle" fill="#5E9F98"></path>
                        <path d="M18,7 C20.209139,7 22,8.790861 22,11 C22,13.209139 20.209139,15 18,15 C15.790861,15 14,13.209139 14,11 C14,8.790861 15.790861,7 18,7 Z M62,7 C64.209139,7 66,8.790861 66,11 C66,13.209139 64.209139,15 62,15 C59.790861,15 58,13.209139 58,11 C58,8.790861 59.790861,7 62,7 Z" id="Combined-Shape" fill="#2E485D"></path>
                        <path d="M18,0 C19.1045695,-2.02906125e-16 20,0.8954305 20,2 L20,11 C20,12.1045695 19.1045695,13 18,13 C16.8954305,13 16,12.1045695 16,11 L16,2 C16,0.8954305 16.8954305,2.02906125e-16 18,0 Z M62,0 C63.1045695,-2.02906125e-16 64,0.8954305 64,2 L64,11 C64,12.1045695 63.1045695,13 62,13 C60.8954305,13 60,12.1045695 60,11 L60,2 C60,0.8954305 60.8954305,2.02906125e-16 62,0 Z" id="Combined-Shape" fill="#6EC5AB"></path>
                        <text id="1940-➔" font-family="Roboto-Bold, Roboto" font-size="20" font-weight="bold" letter-spacing="-0.607692" fill="#2E485D">
                            <tspan x="7.94319319" y="51">1940 </tspan>
                            <tspan x="55.7836394" y="51" font-family="ZapfDingbatsITC, Zapf Dingbats" font-weight="normal">➔</tspan>
                        </text>
                    </g>
                    <path d="M125.066667,208 C125.582132,208 126,208.417868 126,208.933333 L126,216 L123,216 L123,208.933333 C123,208.417868 123.417868,208 123.933333,208 L125.066667,208 Z M121.066667,211 C121.582132,211 122,211.417868 122,211.933333 L122,216 L119,216 L119,211.933333 C119,211.417868 119.417868,211 119.933333,211 L121.066667,211 Z M61.0666667,211 C61.5821324,211 62,211.417868 62,211.933333 L62,214.066667 C62,214.582132 61.5821324,215 61.0666667,215 L58.9333333,215 C58.4178676,215 58,214.582132 58,214.066667 L58,211.933333 C58,211.417868 58.4178676,211 58.9333333,211 L61.0666667,211 Z M246.066667,208 C246.582132,208 247,208.417868 247,208.933333 L247,211.066667 C247,211.582132 246.582132,212 246.066667,212 L243.933333,212 C243.417868,212 243,211.582132 243,211.066667 L243,208.933333 C243,208.417868 243.417868,208 243.933333,208 L246.066667,208 Z M172.066667,207 C172.582132,207 173,207.417868 173,207.933333 L173,210.066667 C173,210.582132 172.582132,211 172.066667,211 L169.933333,211 C169.417868,211 169,210.582132 169,210.066667 L169,207.933333 C169,207.417868 169.417868,207 169.933333,207 L172.066667,207 Z M57.0666667,197 C57.5821324,197 58,197.417868 58,197.933333 L58,205 L55,205 L55,197.933333 C55,197.417868 55.4178676,197 55.9333333,197 L57.0666667,197 Z M53.0666667,200 C53.5821324,200 54,200.417868 54,200.933333 L54,205 L51,205 L51,200.933333 C51,200.417868 51.4178676,200 51.9333333,200 L53.0666667,200 Z" id="Shape" fill="#006330"></path>
                </g>
            </g>
        </g>
    </g>
</svg>