<?xml version="1.0" encoding="UTF-8"?>
<svg width="280px" height="198px" viewBox="0 0 280 198" version="1.1" xmlns="http://www.w3.org/2000/svg" xmlns:xlink="http://www.w3.org/1999/xlink">
    <title>Ilustratii/Excluderi 6 Cutremur</title>
    <g id="Cover" stroke="none" stroke-width="1" fill="none" fill-rule="evenodd">
        <g id="Icons-and-illustrations" transform="translate(-778.000000, -1072.000000)">
            <g id="Group" transform="translate(778.000000, 1040.000000)">
                <g id="Excluderi-6-Cutremur" transform="translate(0.000000, 32.000000)">
                    <circle id="Oval" fill="#E5F2EC" cx="226.5" cy="130.5" r="34.5"></circle>
                    <circle id="Oval" fill="#E5F2EC" cx="60" cy="126" r="25"></circle>
                    <circle id="Oval" fill="#E5F2EC" cx="195" cy="89" r="25"></circle>
                    <path d="M188,74 C178.560689,55.8934911 169.158785,46.8938062 159.794288,47.0009453 C145.747543,47.161654 143.709366,59.6295354 134.238443,59.6295354 C124.76752,59.6295354 123.208263,55.1970869 112.015282,55.2748492 C104.553294,55.3266907 96.214867,61.5684076 87,74 L188,74 Z" id="Path-28" fill="#F5F9FC" transform="translate(137.500000, 60.500000) scale(-1, 1) translate(-137.500000, -60.500000) "></path>
                    <path d="M54.5,170 C64.1649831,170 72,177.318422 72,187 L72,187 L37,187 C37,177.318422 44.8350169,170 54.5,170 Z" id="Combined-Shape" fill="#F1DA81"></path>
                    <path d="M70.5,156 C80.1649831,156 88,163.318422 88,173 L88,173 L53,173 C53,163.318422 60.8350169,156 70.5,156 Z" id="Combined-Shape" fill="#F1DA81"></path>
                    <polygon id="Rectangle" fill="#572A2C" points="77 80 84 80 84 99 77 106"></polygon>
                    <polygon id="Rectangle" fill="#A43E43" points="84 80 87 80 87 83 88.0364402 80.9635598 89 80 104 80 104 86 97 86 84 99"></polygon>
                    <polygon id="Rectangle" fill="#FFFFFF" transform="translate(197.500000, 143.500000) scale(-1, 1) translate(-197.500000, -143.500000) " points="164 133 197.5 100 231 133 231 187 164 187"></polygon>
                    <path d="M197.5,100 L231,133 L231,143 L200.078568,112.540082 L198.5,119 L202,122.5 L201.5,130.5 L197,132 L194.5,138.5 L195.5,146.5 L193,138 L195.5,130.5 L200,128.5 L200,123 L196.5,119 L198.07045,110.561936 L197.5,110 L164.465,142.542 L165,153.5 L163.5,161 L164.2,187 L64,187 L64,133 L114,132 L131,134 L149,133 L164,133 L197.5,100 Z M203,141 L203,147 L204,149 L203,151 L207,151 L207,170 L193,170 L193,176 L190,176 L190,180.5 L193,181 L192,186 L191.5,181.5 L188.5,181.5 L188,175 L191,174.5 L190.5,170 L188,170 L188,151 L201.5,151 L203,149 L202,147 L203,141 Z" id="Combined-Shape" fill="#BFECD5"></path>
                    <path d="M101,143 L102,147.5 L101.5,149 L102,150 L103,151 L119,151 L119,187 L100,187 L100,151 L101,151 L100,149 L101,147 L101,143 Z M90,151.333333 L90,170 L78,170 L77.5,171 L78.5,173 L77,176 L79,178 L77,180 L76,186 L76,180 L77.5,178 L75.5,176 L77,173 L76,170 L74,170 L74,151.333333 L90,151.333333 Z M133.071429,148 L133.071429,151.333333 L148,151.333333 L148,170 L147,170 L146,171 L146,173 L145,174 L146,176.5 L144,181 L145,176.5 L144,174 L145,172.5 L145,170 L129,170 L129,151.333333 L131.714286,151.333333 L133.071429,148 Z M197,86 L157,126 L137,125.5 L130,127 L122,125 L57,126 L97,86 L197,86 Z" id="Combined-Shape" fill="#2E485D"></path>
                    <polygon id="Rectangle" fill="#3C968D" points="57 126 122 125 130 127 137 125.5 157 126 164 133 155 133 153.5 137 155.5 138 156 143.5 153 145.5 154 149.5 152 145 155 143 154.5 139 152 138 153.05 134 152 133 149 133 131 134 114 132 64 133"></polygon>
                    <path d="M136.5,119 L130,127 L122,125 L136.5,119 Z M149,102 L142,109 L130,109 L137,102 L149,102 Z" id="Combined-Shape" fill="#173247"></path>
                    <polygon id="Rectangle" fill="#396282" points="149 96 179 96 170 105 140 105"></polygon>
                    <polygon id="Path-29" fill="#6EC5AB" points="157 126 197 86 237 126 231 133 197.5 100 164 133"></polygon>
                    <path d="M230.5,170 C240.164983,170 248,177.318422 248,187 L248,187 L213,187 C213,177.318422 220.835017,170 230.5,170 Z" id="Combined-Shape" fill="#F1DA81"></path>
                    <path d="M210.5,176 C216.29899,176 221,180.61708 221,186.725038 C221,186.81712 220.998572,186.908999 220.995734,187.000656 L200.004266,187.000656 C200.001428,186.908999 200,186.81712 200,186.725038 C200,180.61708 204.70101,176 210.5,176 Z" id="Combined-Shape" fill="#F1DA81"></path>
                    <path d="M165,171 C173.836556,171 181,177.566196 181,186.252649 C181,186.502674 180.992067,186.751649 180.976403,186.99937 L149.023597,186.99937 C149.007933,186.751649 149,186.502674 149,186.252649 C149,177.566196 156.163444,171 165,171 Z" id="Combined-Shape" fill="#F1DA81"></path>
                    <path d="M237,187 C238.411003,165.086055 242.442784,149.333575 249,140 C255.557216,149.333575 259.588997,165.086055 261,187 L237,187 Z" id="Path" fill="#6EC5AB"></path>
                    <rect id="Rectangle" fill="#6EC5AB" x="124" y="174" width="4" height="4" rx="0.933333333"></rect>
                    <path d="M62.9333333,179 L64.0666667,179 C64.5821324,179 65,179.417868 65,179.933333 L65,187 L65,187 L62,187 L62,179.933333 C62,179.417868 62.4178676,179 62.9333333,179 Z" id="Rectangle" fill="#006330"></path>
                    <path d="M58.9333333,182 L60.0666667,182 C60.5821324,182 61,182.417868 61,182.933333 L61,187 L61,187 L58,187 L58,182.933333 C58,182.417868 58.4178676,182 58.9333333,182 Z" id="Rectangle" fill="#006330"></path>
                    <rect id="Rectangle" fill="#3C968D" x="86" y="140" width="4" height="4" rx="0.933333333"></rect>
                    <rect id="Rectangle" fill="#D7ECE1" x="212" y="151" width="4" height="4" rx="0.933333333"></rect>
                    <rect id="Rectangle" fill="#D7ECE1" x="243" y="172" width="4" height="4" rx="0.933333333"></rect>
                    <g id="Icon/Warning" transform="translate(120.000000, 0.000000)">
                        <circle id="ðŸŽ-Culoare" fill="#E1261C" cx="20.9765924" cy="20.1708842" r="20"></circle>
                        <path d="M22.2264639,26.9930682 C23.2059608,26.9930682 24,27.7871074 24,28.7666043 L24,31.2195321 C24,32.199029 23.2059608,32.9930682 22.2264639,32.9930682 L19.7735361,32.9930682 C18.7940392,32.9930682 18,32.199029 18,31.2195321 L18,28.7666043 C18,27.7871074 18.7940392,26.9930682 19.7735361,26.9930682 L22.2264639,26.9930682 Z M23.9956366,8 C24.0324065,8 24.0691408,8.00228699 24.1056267,8.00684773 C24.5915933,8.06759355 24.9363028,8.51079153 24.875557,8.99675811 L24.875557,8.99675811 L23.097249,23.223222 C23.0417785,23.6669863 22.6645464,24 22.2173287,24 L22.2173287,24 L19.7829748,24 C19.3357571,24 18.958525,23.6669863 18.9030545,23.223222 L18.9030545,23.223222 L17.1247465,8.99675811 C17.1201858,8.96027219 17.1178988,8.92353792 17.1178988,8.88676806 C17.1178988,8.39701959 17.5149184,8 18.0046668,8 L18.0046668,8 Z" id="Combined-Shape" fill="#FFFFFF"></path>
                    </g>
                    <path d="M20.7614443,187 L91,187 L91,187 L92,186 L93,182 L93,187 L259.238556,187 C267.554205,187 275.329732,191.119694 280,198 L280,198 L280,198 L0,198 C4.67026836,191.119694 12.4457953,187 20.7614443,187 Z" id="Rectangle" fill="#008641"></path>
                    <path d="M132.066667,190 C132.582132,190 133,190.417868 133,190.933333 L133,198 L130,198 L130,190.933333 C130,190.417868 130.417868,190 130.933333,190 L132.066667,190 Z M128.066667,193 C128.582132,193 129,193.417868 129,193.933333 L129,198 L126,198 L126,193.933333 C126,193.417868 126.417868,193 126.933333,193 L128.066667,193 Z M68.0666667,193 C68.5821324,193 69,193.417868 69,193.933333 L69,196.066667 C69,196.582132 68.5821324,197 68.0666667,197 L65.9333333,197 C65.4178676,197 65,196.582132 65,196.066667 L65,193.933333 C65,193.417868 65.4178676,193 65.9333333,193 L68.0666667,193 Z M253.066667,190 C253.582132,190 254,190.417868 254,190.933333 L254,193.066667 C254,193.582132 253.582132,194 253.066667,194 L250.933333,194 C250.417868,194 250,193.582132 250,193.066667 L250,190.933333 C250,190.417868 250.417868,190 250.933333,190 L253.066667,190 Z M179.066667,189 C179.582132,189 180,189.417868 180,189.933333 L180,192.066667 C180,192.582132 179.582132,193 179.066667,193 L176.933333,193 C176.417868,193 176,192.582132 176,192.066667 L176,189.933333 C176,189.417868 176.417868,189 176.933333,189 L179.066667,189 Z" id="Combined-Shape" fill="#006330"></path>
                </g>
            </g>
        </g>
    </g>
</svg>