<?xml version="1.0" encoding="UTF-8"?>
<svg width="280px" height="127px" viewBox="0 0 280 127" version="1.1" xmlns="http://www.w3.org/2000/svg" xmlns:xlink="http://www.w3.org/1999/xlink">
    <title>Ilustratii/Excluderi 4 Structura</title>
    <g id="Cover" stroke="none" stroke-width="1" fill="none" fill-rule="evenodd">
        <g id="Icons-and-illustrations" transform="translate(-48.000000, -1143.000000)">
            <g id="Group" transform="translate(48.000000, 1040.000000)">
                <g id="Excluderi-4-Structura" transform="translate(0.000000, 103.000000)">
                    <path d="M20.7614443,116 L259.238556,116 C267.554205,116 275.329732,120.119694 280,127 L280,127 L280,127 L0,127 C4.67026836,120.119694 12.4457953,116 20.7614443,116 Z" id="Rectangle" fill="#008641"></path>
                    <path d="M132.066667,119 C132.582132,119 133,119.417868 133,119.933333 L133,127 L130,127 L130,119.933333 C130,119.417868 130.417868,119 130.933333,119 L132.066667,119 Z M128.066667,122 C128.582132,122 129,122.417868 129,122.933333 L129,127 L126,127 L126,122.933333 C126,122.417868 126.417868,122 126.933333,122 L128.066667,122 Z M68.0666667,122 C68.5821324,122 69,122.417868 69,122.933333 L69,125.066667 C69,125.582132 68.5821324,126 68.0666667,126 L65.9333333,126 C65.4178676,126 65,125.582132 65,125.066667 L65,122.933333 C65,122.417868 65.4178676,122 65.9333333,122 L68.0666667,122 Z M253.066667,119 C253.582132,119 254,119.417868 254,119.933333 L254,122.066667 C254,122.582132 253.582132,123 253.066667,123 L250.933333,123 C250.417868,123 250,122.582132 250,122.066667 L250,119.933333 C250,119.417868 250.417868,119 250.933333,119 L253.066667,119 Z M179.066667,118 C179.582132,118 180,118.417868 180,118.933333 L180,121.066667 C180,121.582132 179.582132,122 179.066667,122 L176.933333,122 C176.417868,122 176,121.582132 176,121.066667 L176,118.933333 C176,118.417868 176.417868,118 176.933333,118 L179.066667,118 Z" id="Combined-Shape" fill="#006330"></path>
                    <circle id="Oval" fill="#E5F2EC" cx="171.5" cy="34.5" r="34.5"></circle>
                    <g id="Group" transform="translate(30.000000, 3.000000)">
                        <path d="M21,0 L42,36 L30.333,36 L42,56 L30.333,56 L42,76 L0,76 L11.667,56 L0,56 L11.667,36 L0,36 L21,0 Z" id="Combined-Shape" fill="#3C968D"></path>
                        <polygon id="Rectangle" fill="#8A4246" points="18 76 24 76 24 113 18 113"></polygon>
                        <polygon id="Rectangle" fill="#572A2C" points="17 76 24 76 24 80 20.1111111 80 20.1111111 113 17 113"></polygon>
                        <polygon id="Path" fill="#46B0A5" points="28 36 21 0 42 36 30.333 36 42 56 30.333 56 42 76 28 76 24.111 56 28 56 24.111 36"></polygon>
                    </g>
                    <g id="Group-2" transform="translate(191.000000, 7.000000)">
                        <g id="Group" transform="translate(0.000000, 4.000000)">
                            <polygon id="Combined-Shape" fill="#3C968D" points="21 0 42 76 0 76"></polygon>
                            <polygon id="Rectangle" fill="#8A4246" points="17 76 23 76 23 105 17 105"></polygon>
                            <polygon id="Rectangle" fill="#572A2C" points="17 76 23 76 23 80 19.6666667 80 19.6666667 105 17 105"></polygon>
                            <polygon id="Path" fill="#46B0A5" points="28 76 21 0 42 76"></polygon>
                        </g>
                        <path d="M0,80 C2.46925528,44.5646841 9.52487268,15.0925894 21,0 C32.4751273,15.0925894 39.5307447,44.5646841 42,80 L0,80 Z" id="Path" fill="#6EC5AB"></path>
                        <path d="M21,0 C32.4751273,15.0925894 39.5307447,44.5646841 42,80 L35,80 L34.8614255,77.7702582 C32.8344682,46.2803966 28.095819,18.9966968 20.7214091,0.371622524 L21,0 Z" id="Path" fill="#BFECD5"></path>
                    </g>
                    <g id="Group-2" transform="translate(229.000000, 55.000000)">
                        <g id="Group" transform="translate(0.000000, 3.000000)">
                            <polygon id="Combined-Shape" fill="#3C968D" points="15 0 30 58 0 58"></polygon>
                            <polygon id="Path" fill="#46B0A5" points="20 58 15 0 30 58"></polygon>
                        </g>
                        <path d="M0,61 C1.76375377,33.9805716 6.80348049,11.5080994 15,0 C23.1965195,11.5080994 28.2362462,33.9805716 30,61 L0,61 Z" id="Path" fill="#3C968D"></path>
                    </g>
                    <polygon id="Rectangle" fill="#A43E43" transform="translate(95.500000, 34.000000) scale(-1, 1) translate(-95.500000, -34.000000) " points="92 30 99 30 99 38 92 38"></polygon>
                    <polygon id="Rectangle" fill="#572A2C" transform="translate(90.000000, 34.000000) scale(-1, 1) translate(-90.000000, -34.000000) " points="88 30 92 30 92 38 88 38"></polygon>
                    <polygon id="Rectangle" fill="#CC8760" points="54 73 79 48 104 73 104 116 54 116"></polygon>
                    <polygon id="Rectangle" fill="#D1A58C" transform="translate(156.000000, 94.500000) scale(-1, 1) translate(-156.000000, -94.500000) " points="104 73 208 73 208 116 104 116"></polygon>
                    <rect id="Rectangle" fill="#572A2C" transform="translate(79.000000, 91.000000) scale(-1, 1) translate(-79.000000, -91.000000) " x="72" y="81" width="14" height="20"></rect>
                    <rect id="Rectangle" fill="#572A2C" transform="translate(124.000000, 91.000000) scale(-1, 1) translate(-124.000000, -91.000000) " x="116" y="81" width="16" height="20"></rect>
                    <rect id="Rectangle" fill="#572A2C" transform="translate(156.000000, 98.500000) scale(-1, 1) translate(-156.000000, -98.500000) " x="145" y="81" width="22" height="35"></rect>
                    <polygon id="Rectangle" fill="#703639" transform="translate(158.500000, 70.500000) scale(-1, 1) translate(-158.500000, -70.500000) " points="104 68 208 68 213 73 109 73"></polygon>
                    <polygon id="Rectangle" fill="#8A4246" transform="translate(146.000000, 53.000000) scale(-1, 1) translate(-146.000000, -53.000000) " points="109 38 213 38 183 68 79 68"></polygon>
                    <path d="M156,29 C150.018654,17.5996055 144.061012,11.9331373 138.127074,12.0005952 C129.226166,12.1017822 127.934648,19.9519297 121.933271,19.9519297 C115.931894,19.9519297 114.94385,17.1611288 107.851268,17.2100902 C103.122879,17.2427312 97.8391236,21.1727011 92,29 L156,29 Z" id="Path-28" fill="#F5F9FC" transform="translate(124.000000, 20.500000) scale(-1, 1) translate(-124.000000, -20.500000) "></path>
                    <polygon id="Path-29" fill="#572A2C" transform="translate(79.000000, 55.500000) scale(-1, 1) translate(-79.000000, -55.500000) " points="49 68 79 38 109 68 104 73 79 48 54 73"></polygon>
                    <path d="M55,109 L103,109 L103,109 L103,115 L55,115 C53.3431458,115 52,113.656854 52,112 C52,110.343146 53.3431458,109 55,109 Z" id="Rectangle" fill="#F0BDA1"></path>
                    <path d="M55,102 L103,102 L103,102 L103,108 L55,108 C53.3431458,108 52,106.656854 52,105 C52,103.343146 53.3431458,102 55,102 Z" id="Rectangle" fill="#F0BDA1"></path>
                    <path d="M133,95 L144,95 C145.656854,95 147,96.3431458 147,98 C147,99.6568542 145.656854,101 144,101 L133,101 L133,101 L133,95 Z" id="Rectangle" fill="#F7DACA"></path>
                    <path d="M133,88 L144,88 C145.656854,88 147,89.3431458 147,91 C147,92.6568542 145.656854,94 144,94 L133,94 L133,94 L133,88 Z" id="Rectangle" fill="#F7DACA"></path>
                    <path d="M133,81 L144,81 C145.656854,81 147,82.3431458 147,84 C147,85.6568542 145.656854,87 144,87 L133,87 L133,87 L133,81 Z" id="Rectangle" fill="#F7DACA"></path>
                    <path d="M105,95 L115,95 C116.656854,95 118,96.3431458 118,98 C118,99.6568542 116.656854,101 115,101 L105,101 L105,101 L105,95 Z" id="Rectangle" fill="#F7DACA"></path>
                    <path d="M105,88 L115,88 C116.656854,88 118,89.3431458 118,91 C118,92.6568542 116.656854,94 115,94 L105,94 L105,94 L105,88 Z" id="Rectangle" fill="#F7DACA"></path>
                    <path d="M105,81 L115,81 C116.656854,81 118,82.3431458 118,84 C118,85.6568542 116.656854,87 115,87 L105,87 L105,87 L105,81 Z" id="Rectangle" fill="#F7DACA"></path>
                    <path d="M196,95 L207,95 C208.656854,95 210,96.3431458 210,98 C210,99.6568542 208.656854,101 207,101 L196,101 L196,101 L196,95 Z" id="Rectangle" fill="#F7DACA"></path>
                    <path d="M196,88 L207,88 C208.656854,88 210,89.3431458 210,91 C210,92.6568542 208.656854,94 207,94 L196,94 L196,94 L196,88 Z" id="Rectangle" fill="#F7DACA"></path>
                    <path d="M196,81 L207,81 C208.656854,81 210,82.3431458 210,84 C210,85.6568542 208.656854,87 207,87 L196,87 L196,87 L196,81 Z" id="Rectangle" fill="#F7DACA"></path>
                    <path d="M105,102 L144,102 C145.656854,102 147,103.343146 147,105 C147,106.656854 145.656854,108 144,108 L105,108 L105,108 L105,102 Z" id="Rectangle" fill="#F7DACA"></path>
                    <path d="M168,102 L207,102 C208.656854,102 210,103.343146 210,105 C210,106.656854 208.656854,108 207,108 L168,108 L168,108 L168,102 Z" id="Rectangle" fill="#F7DACA"></path>
                    <path d="M105,109 L144,109 C145.656854,109 147,110.343146 147,112 C147,113.656854 145.656854,115 144,115 L105,115 L105,115 L105,109 Z" id="Rectangle" fill="#F7DACA"></path>
                    <path d="M168,109 L207,109 C208.656854,109 210,110.343146 210,112 C210,113.656854 208.656854,115 207,115 L168,115 L168,115 L168,109 Z" id="Rectangle" fill="#F7DACA"></path>
                    <path d="M105,74 L207,74 C208.656854,74 210,75.3431458 210,77 C210,78.6568542 208.656854,80 207,80 L105,80 L105,80 L105,74 Z" id="Rectangle" fill="#F7DACA"></path>
                    <path d="M55,74 L103,74 L103,74 L103,80 L55,80 C53.3431458,80 52,78.6568542 52,77 C52,75.3431458 53.3431458,74 55,74 Z" id="Rectangle" fill="#F0BDA1"></path>
                    <path d="M62.2426407,67 L95.7573593,67 C96.5530088,67 97.3160705,67.3160705 97.8786797,67.8786797 L100,70 C100.686292,70.6862915 100.686292,71.7989899 100,72.4852814 C99.6704312,72.8148502 99.22344,73 98.7573593,73 L59.2426407,73 C58.2720779,73 57.4852814,72.2132034 57.4852814,71.2426407 C57.4852814,70.77656 57.6704312,70.3295688 58,70 L60.1213203,67.8786797 C60.6839295,67.3160705 61.4469912,67 62.2426407,67 Z" id="Rectangle" fill="#F0BDA1"></path>
                    <path d="M69.2426407,60 L88.7573593,60 C89.5530088,60 90.3160705,60.3160705 90.8786797,60.8786797 L93,63 C93.6862915,63.6862915 93.6862915,64.7989899 93,65.4852814 C92.6704312,65.8148502 92.22344,66 91.7573593,66 L66.2426407,66 C65.2720779,66 64.4852814,65.2132034 64.4852814,64.2426407 C64.4852814,63.77656 64.6704312,63.3295688 65,63 L67.1213203,60.8786797 C67.6839295,60.3160705 68.4469912,60 69.2426407,60 Z" id="Rectangle" fill="#F0BDA1"></path>
                    <path d="M76.2426407,53 L81.7573593,53 C82.5530088,53 83.3160705,53.3160705 83.8786797,53.8786797 L86,56 C86.6862915,56.6862915 86.6862915,57.7989899 86,58.4852814 C85.6704312,58.8148502 85.22344,59 84.7573593,59 L73.2426407,59 C72.2720779,59 71.4852814,58.2132034 71.4852814,57.2426407 C71.4852814,56.77656 71.6704312,56.3295688 72,56 L74.1213203,53.8786797 C74.6839295,53.3160705 75.4469912,53 76.2426407,53 Z" id="Rectangle" fill="#F0BDA1"></path>
                    <path d="M80.5,50.5 C80.8431458,50.8431458 80.8431458,51.3994949 80.5,51.7426407 C80.3352156,51.9074251 80.11172,52 79.8786797,52 L78.1213203,52 C77.636039,52 77.2426407,51.6066017 77.2426407,51.1213203 C77.2426407,50.88828 77.3352156,50.6647844 77.5,50.5 C78.3284271,49.6715729 79.6715729,49.6715729 80.5,50.5 Z" id="Rectangle" fill="#F0BDA1"></path>
                    <path d="M55,95 L71,95 L71,95 L71,101 L55,101 C53.3431458,101 52,99.6568542 52,98 C52,96.3431458 53.3431458,95 55,95 Z" id="Rectangle" fill="#F0BDA1"></path>
                    <path d="M55,88 L71,88 L71,88 L71,94 L55,94 C53.3431458,94 52,92.6568542 52,91 C52,89.3431458 53.3431458,88 55,88 Z" id="Rectangle" fill="#F0BDA1"></path>
                    <path d="M55,81 L71,81 L71,81 L71,87 L55,87 C53.3431458,87 52,85.6568542 52,84 C52,82.3431458 53.3431458,81 55,81 Z" id="Rectangle" fill="#F0BDA1"></path>
                    <path d="M87,95 L103,95 L103,95 L103,101 L87,101 C85.3431458,101 84,99.6568542 84,98 C84,96.3431458 85.3431458,95 87,95 Z" id="Rectangle" fill="#F0BDA1"></path>
                    <path d="M87,88 L103,88 L103,88 L103,94 L87,94 C85.3431458,94 84,92.6568542 84,91 C84,89.3431458 85.3431458,88 87,88 Z" id="Rectangle" fill="#F0BDA1"></path>
                    <path d="M87,81 L103,81 L103,81 L103,87 L87,87 C85.3431458,87 84,85.6568542 84,84 C84,82.3431458 85.3431458,81 87,81 Z" id="Rectangle" fill="#F0BDA1"></path>
                    <polygon id="Rectangle" fill="#572A2C" transform="translate(187.000000, 91.000000) scale(-1, 1) translate(-187.000000, -91.000000) " points="179 81 195 81 195 101 179 101"></polygon>
                    <path d="M168,95 L178,95 C179.656854,95 181,96.3431458 181,98 C181,99.6568542 179.656854,101 178,101 L168,101 L168,101 L168,95 Z" id="Rectangle" fill="#F7DACA"></path>
                    <path d="M168,88 L178,88 C179.656854,88 181,89.3431458 181,91 C181,92.6568542 179.656854,94 178,94 L168,94 L168,94 L168,88 Z" id="Rectangle" fill="#F7DACA"></path>
                    <path d="M168,81 L178,81 C179.656854,81 181,82.3431458 181,84 C181,85.6568542 179.656854,87 178,87 L168,87 L168,87 L168,81 Z" id="Rectangle" fill="#F7DACA"></path>
                    <path d="M48,103 C55.1797017,103 61,108.596441 61,116 L61,116 L35,116 C35,108.596441 40.8202983,103 48,103 Z" id="Combined-Shape" fill="#6EC5AB"></path>
                    <path d="M31,108 C35.418278,108 39,111.357864 39,115.8 C39,115.866965 38.998912,115.933784 38.9967504,116.000439 L23.004,116 L23,115.8 C23,111.441678 26.4478378,108.127098 30.7508207,108.003571 Z" id="Combined-Shape" fill="#6EC5AB"></path>
                    <path d="M229,105 C235.075132,105 240,109.70101 240,115.92 C240,115.946823 239.999878,115.973629 239.999633,116.000418 L218.001,116 L218,115.92 C218,109.799724 222.769764,105.149621 228.711593,105.003541 Z" id="Combined-Shape" fill="#6EC5AB"></path>
                </g>
            </g>
        </g>
    </g>
</svg>