<?xml version="1.0" encoding="UTF-8"?>
<svg width="280px" height="205px" viewBox="0 0 280 205" version="1.1" xmlns="http://www.w3.org/2000/svg" xmlns:xlink="http://www.w3.org/1999/xlink">
    <title>Ilustratii/Excluderi 3 Stare</title>
    <g id="Cover" stroke="none" stroke-width="1" fill="none" fill-rule="evenodd">
        <g id="Icons-and-illustrations" transform="translate(-778.000000, -822.000000)">
            <g id="Group" transform="translate(778.000000, 797.000000)">
                <g id="Excluderi-3-Stare" transform="translate(0.000000, 25.000000)">
                    <path d="M60,87 C70.4830011,87.0007353 73.5,98 80,98 C86.5,98 88.5,89 98,89 C104.333333,89 112,97.6666667 121,115 L121,115 L3,115 C10.5,102 18.4753813,95 23,95 C30,95 30.8422363,97.8613893 40,98 C48.2888889,98.1254596 53.9719236,86.9995772 60,87 Z M207.035133,45.0005602 C215.518811,45.095795 216.749789,52.4841691 222.469851,52.4841691 C228.189914,52.4841691 229.131643,49.857533 235.891761,49.9036143 C240.398505,49.9343352 245.434585,53.6331304 251,61 L190,61 C195.70097,50.270217 201.379348,44.9370704 207.035133,45.0005602 Z M120.198983,7.00049018 C125.113026,6.94493657 130.046698,11.6114398 135,21 L135,21 L82,21 C86.8355243,14.5539891 91.2111346,11.3175433 95.126831,11.2906625 C101.000376,11.2503414 101.818599,13.548648 106.78849,13.548648 C111.75838,13.548648 112.827919,7.08382059 120.198983,7.00049018 Z" id="Combined-Shape" fill="#F5F9FC"></path>
                    <path d="M33,194 L33,190 L35.001,190 L35.001,52.999 L1.00194087,52.9999767 C0.181822597,52.9999767 -0.274539692,52.0774269 0.179324025,51.4306631 L0.24690775,51.34429 L16.7469078,32.34429 C16.9097057,32.1568257 17.1353229,32.0377639 17.3788769,32.007572 L17.5019409,31.9999767 L35.001,31.999 L35.0000302,16.020744 C34.9992286,15.9561054 35.0047211,15.8916774 35.0161417,15.8284172 L35.0376731,15.7345225 L35.0678225,15.6430976 C35.0907338,15.5831305 35.1192076,15.5252886 35.152878,15.4705292 L44.6571451,0.464947919 C45.0266723,-0.118516136 45.8495323,-0.152837551 46.2723927,0.361983674 L46.3467833,0.464947919 L55.8409642,15.457 L55.900323,15.5602253 L55.9451968,15.6678666 L55.9755535,15.7707092 L55.9955564,15.8869708 L56.0019642,16 L56.001,31.999 L163.001941,31.9999767 C163.237306,31.9999767 163.463794,32.0829341 163.642628,32.2321688 L163.727894,32.312232 L181.727894,51.312232 C182.305437,51.921861 181.917169,52.9094179 181.113986,52.99414 L181.001941,52.9999767 L167.001,52.999 L167.001,66.084 L180.915,79.999 L178.085964,80 L166.085964,68 L165.916964,68 L153.916964,80 L151.088,79.999 L165.001,66.085 L165.001964,53 L56.001,52.999 L56,190 L58,190 L58,194 L33,194 Z M37.0019642,162.325 L37.001,190 L40.88,190 L53.5479642,178 L37.0019642,162.325 Z M54.0019642,180.324 L43.786,190 L54,190 L54.0019642,180.324 Z M54.0019642,144.324 L37.4549642,160.001 L54.0019642,175.677 L54.0019642,144.324 Z M37.0019642,126.325 L37.0019642,157.676 L53.5479642,142 L37.0019642,126.325 Z M54.0019642,108.324 L37.4549642,124.001 L54.0019642,139.677 L54.0019642,108.324 Z M37.0019642,90.325 L37.0019642,121.676 L53.5479642,106 L37.0019642,90.325 Z M54.0019642,72.324 L37.4549642,88.001 L54.0019642,103.677 L54.0019642,72.324 Z M37.0019642,54.325 L37.0019642,85.676 L53.5479642,70 L37.0019642,54.325 Z M54.001,52.999 L38.509,52.999 L54.0019642,67.677 L54.001,52.999 Z M17.319,34.732 L3.19394087,50.9999767 L33.586,50.999 L17.319,34.732 Z M54.0019642,35.415 L38.416,50.999 L54.001,50.999 L54.0019642,35.415 Z M56.001,35.616 L56.001,50.999 L69.764,50.999 L56.001,35.616 Z M90.000962,34.4529999 L74.326,50.999 L105.677,50.999 L90.000962,34.4529999 Z M126.000962,34.4529999 L110.326,50.999 L141.677,50.999 L126.000962,34.4529999 Z M162.572941,33.9999767 L162.431,33.999 L146.326,50.999 L178.677941,50.9999767 L162.572941,33.9999767 Z M123.678,33.999 L92.325,33.999 L108.001964,50.5459999 L123.678,33.999 Z M159.678,33.999 L128.325,33.999 L144.001964,50.5459999 L159.678,33.999 Z M87.678,33.999 L57.238,33.999 L72.022962,50.5239999 L87.678,33.999 Z M35.001,33.999 L19.416,33.999 L35.001,49.584 L35.001,33.999 Z M52.586,33.999 L37.001,33.999 L37.0019642,49.585 L52.586,33.999 Z M37.0019642,18.238 L37.001,31.999 L52.384,31.999 L37.0019642,18.238 Z M54.0019642,17.001 L38.6189642,17.001 L54.0019642,30.764 L54.0019642,17.001 Z M45.5019642,2.869 L37.8179642,15.001 L53.1849642,15.001 L45.5019642,2.869 Z" id="Shape" fill="#F1DA81" fill-rule="nonzero"></path>
                    <polygon id="Rectangle" fill="#6EC5AB" points="199.501964 110.5 230.001964 141 169.001964 141"></polygon>
                    <g id="Group-19" transform="translate(162.001964, 100.000000)">
                        <polygon id="Path-29" fill="#F7CBB2" transform="translate(34.000000, 20.500000) scale(-1, 1) translate(-34.000000, -20.500000) " points="0 34 34 2.85223234e-14 68 34 68 41 34 7 -4.95613967e-13 41"></polygon>
                        <rect id="Rectangle" fill="#F0BDA1" x="68" y="34" width="7" height="7"></rect>
                        <polygon id="Rectangle" fill="#FFE8DB" points="68 34 75 34 41 8.88247809e-14 34 8.88247809e-14"></polygon>
                        <polygon id="Rectangle" fill="#F0BDA1" points="34 7 37.5 10.5 7 41 0 41"></polygon>
                    </g>
                    <g id="Group-19" transform="translate(128.001964, 100.000000)">
                        <polygon id="Path-29" fill="#F7CBB2" transform="translate(34.000000, 20.500000) scale(-1, 1) translate(-34.000000, -20.500000) " points="0 34 34 2.85223234e-14 68 34 68 41 34 7 -4.95613967e-13 41"></polygon>
                        <rect id="Rectangle" fill="#F0BDA1" x="68" y="34" width="7" height="7"></rect>
                        <polygon id="Rectangle" fill="#FFE8DB" points="68 34 75 34 41 8.88247809e-14 34 8.88247809e-14"></polygon>
                        <polygon id="Rectangle" fill="#F0BDA1" points="34 7 37.5 10.5 7 41 0 41"></polygon>
                    </g>
                    <g id="Group-19" transform="translate(94.001964, 100.000000)">
                        <polygon id="Path-29" fill="#F7CBB2" transform="translate(34.000000, 20.500000) scale(-1, 1) translate(-34.000000, -20.500000) " points="0 34 34 2.85223234e-14 68 34 68 41 34 7 -4.95613967e-13 41"></polygon>
                        <rect id="Rectangle" fill="#F0BDA1" x="68" y="34" width="7" height="7"></rect>
                        <polygon id="Rectangle" fill="#FFE8DB" points="68 34 75 34 41 8.88247809e-14 34 8.88247809e-14"></polygon>
                        <polygon id="Rectangle" fill="#F0BDA1" points="34 7 37.5 10.5 7 41 0 41"></polygon>
                    </g>
                    <polygon id="Rectangle" fill="#6EC5AB" points="60.0019642 141 94.0019642 107 128.001964 141 128.001964 194 60.0019642 194"></polygon>
                    <polygon id="Rectangle" fill="#BFECD5" transform="translate(182.500000, 167.500000) scale(-1, 1) translate(-182.500000, -167.500000) " points="128 141 180.5 141 196 141 237 141 237 194 128 194"></polygon>
                    <rect id="Rectangle" fill="#E3F9EC" x="227" y="147" width="4" height="4" rx="0.933333333"></rect>
                    <rect id="Rectangle" fill="#5E9F98" x="102" y="182" width="4" height="4" rx="0.933333333"></rect>
                    <rect id="Rectangle" fill="#6EC5AB" x="78" y="180" width="4" height="4" rx="0.933333333"></rect>
                    <polygon id="Rectangle" fill="#2E485D" transform="translate(153.501964, 167.500000) scale(-1, 1) translate(-153.501964, -167.500000) " points="144.001964 158 163.001964 158 163.001964 177 144.001964 177"></polygon>
                    <polygon id="Rectangle" fill="#2E485D" transform="translate(94.001964, 167.500000) scale(-1, 1) translate(-94.001964, -167.500000) " points="84.0019642 158 104.001964 158 104.001964 177 84.0019642 177"></polygon>
                    <polygon id="Rectangle" fill="#2E485D" transform="translate(94.001964, 136.000000) scale(-1, 1) translate(-94.001964, -136.000000) " points="89.0019642 131 99.0019642 131 99.0019642 141 89.0019642 141"></polygon>
                    <polygon id="Rectangle" fill="#2E485D" transform="translate(211.501964, 167.500000) scale(-1, 1) translate(-211.501964, -167.500000) " points="202.001964 158 221.001964 158 221.001964 177 202.001964 177"></polygon>
                    <polygon id="Rectangle" fill="#2E485D" transform="translate(182.501964, 176.000000) scale(-1, 1) translate(-182.501964, -176.000000) " points="173.001964 158 192.001964 158 192.001964 194 173.001964 194"></polygon>
                    <polygon id="Rectangle" fill="#6EC5AB" transform="translate(190.001964, 176.000000) scale(-1, 1) translate(-190.001964, -176.000000) " points="188.001964 158 192.001964 158 192.001964 194 188.001964 194"></polygon>
                    <polygon id="Rectangle" fill="#BFECD5" transform="translate(86.001964, 167.500000) scale(-1, 1) translate(-86.001964, -167.500000) " points="84.0019642 158 88.0019642 158 88.0019642 177 84.0019642 177"></polygon>
                    <polygon id="Rectangle" fill="#BFECD5" transform="translate(91.001964, 136.000000) scale(-1, 1) translate(-91.001964, -136.000000) " points="89.0019642 131 93.0019642 131 93.0019642 141 89.0019642 141"></polygon>
                    <polygon id="Rectangle" fill="#6EC5AB" transform="translate(161.001964, 167.500000) scale(-1, 1) translate(-161.001964, -167.500000) " points="159.001964 158 163.001964 158 163.001964 177 159.001964 177"></polygon>
                    <polygon id="Rectangle" fill="#6EC5AB" transform="translate(219.001964, 167.500000) scale(-1, 1) translate(-219.001964, -167.500000) " points="217.001964 158 221.001964 158 221.001964 177 217.001964 177"></polygon>
                    <g id="Group-25" transform="translate(60.001964, 100.000000)">
                        <polygon id="Path-29" fill="#F7CBB2" transform="translate(34.000000, 20.500000) scale(-1, 1) translate(-34.000000, -20.500000) " points="0 34 34 2.85223234e-14 68 34 68 41 34 7 -4.95613967e-13 41"></polygon>
                        <rect id="Rectangle" fill="#F0BDA1" x="68" y="34" width="7" height="7"></rect>
                        <polygon id="Rectangle" fill="#FFE8DB" points="68 34 75 34 41 8.88247809e-14 34 8.88247809e-14"></polygon>
                    </g>
                    <polygon id="Rectangle" fill="#A43E43" points="115.001964 77 218.001964 77 226.001964 85 123.001964 85"></polygon>
                    <path d="M20.7614443,194 L259.238556,194 C267.554205,194 275.329732,198.119694 280,205 L280,205 L280,205 L4.54747351e-12,205 C4.67026836,198.119694 12.4457953,194 20.7614443,194 Z" id="Rectangle" fill="#F0BDA1" transform="translate(140.000000, 199.500000) scale(-1, 1) translate(-140.000000, -199.500000) "></path>
                    <path d="M115.068631,197 C115.584097,197 116.001964,197.417868 116.001964,197.933333 L116.001964,205 L113.001964,205 L113.001964,197.933333 C113.001964,197.417868 113.419832,197 113.935298,197 L115.068631,197 Z M111.068631,200 C111.584097,200 112.001964,200.417868 112.001964,200.933333 L112.001964,205 L109.001964,205 L109.001964,200.933333 C109.001964,200.417868 109.419832,200 109.935298,200 L111.068631,200 Z M51.0686308,200 C51.5840966,200 52.0019642,200.417868 52.0019642,200.933333 L52.0019642,203.066667 C52.0019642,203.582132 51.5840966,204 51.0686308,204 L48.9352975,204 C48.4198317,204 48.0019642,203.582132 48.0019642,203.066667 L48.0019642,200.933333 C48.0019642,200.417868 48.4198317,200 48.9352975,200 L51.0686308,200 Z M236.068631,197 C236.584097,197 237.001964,197.417868 237.001964,197.933333 L237.001964,200.066667 C237.001964,200.582132 236.584097,201 236.068631,201 L233.935298,201 C233.419832,201 233.001964,200.582132 233.001964,200.066667 L233.001964,197.933333 C233.001964,197.417868 233.419832,197 233.935298,197 L236.068631,197 Z M162.068631,196 C162.584097,196 163.001964,196.417868 163.001964,196.933333 L163.001964,199.066667 C163.001964,199.582132 162.584097,200 162.068631,200 L159.935298,200 C159.419832,200 159.001964,199.582132 159.001964,199.066667 L159.001964,196.933333 C159.001964,196.417868 159.419832,196 159.935298,196 L162.068631,196 Z" id="Combined-Shape" fill="#F2D0BD"></path>
                </g>
            </g>
        </g>
    </g>
</svg>