<?xml version="1.0" encoding="UTF-8"?>
<svg width="280px" height="229px" viewBox="0 0 280 229" version="1.1" xmlns="http://www.w3.org/2000/svg" xmlns:xlink="http://www.w3.org/1999/xlink">
    <title>Ilustratii/Excluderi 8 Patrimoniu</title>
    <g id="Cover" stroke="none" stroke-width="1" fill="none" fill-rule="evenodd">
        <g id="Icons-and-illustrations" transform="translate(-413.000000, -1338.000000)">
            <g id="Group" transform="translate(413.000000, 1337.000000)">
                <g id="Group-2" transform="translate(0.000000, 1.000000)">
                    <path d="M112.567807,40.540816 L122.418643,51.851034 C127.580719,57.777862 136.570051,58.397816 142.496879,53.23574 C142.939681,52.8500743 143.358188,52.437372 143.75,52 L146.49302,48.938024 C151.588332,43.2502338 158.863694,40 166.5,40 C173.981276,40 180.951522,43.7959058 185.010305,50.0804725 L186.25,52 C191.081658,59.4812764 199.379181,64 208.285045,64 L235.5,64 C247.926407,64 258,74.0735931 258,86.5 C258,98.9264069 247.926407,109 235.5,109 L33.5,109 C21.0735931,109 11,98.9264069 11,86.5 L11,85.5 C11,73.6258779 20.6258779,64 32.5,64 L40.2318219,64 C49.0623329,64 57.5464311,60.5643949 63.8888593,54.4201676 L78.8175978,39.9579522 C83.4241827,35.495323 89.5862894,33 96,33 C102.353114,33 108.395205,35.7500499 112.567807,40.540816 Z" id="Path" fill="#E5F2EC"></path>
                    <g id="Group" transform="translate(210.000000, 95.000000)">
                        <path d="M21,0 L42,36 L30.333,36 L42,56 L30.333,56 L42,76 L0,76 L11.667,56 L0,56 L11.667,36 L0,36 L21,0 Z" id="Combined-Shape" fill="#3C968D"></path>
                        <polygon id="Rectangle" fill="#8A4246" points="18 76 24 76 24 123 18 123"></polygon>
                        <polygon id="Rectangle" fill="#572A2C" points="17 76 24 76 24 80 20.1111111 80 20.1111111 123 17 123"></polygon>
                        <polygon id="Path" fill="#46B0A5" points="28 36 21 0 42 36 30.333 36 42 56 30.333 56 42 76 28 76 24.111 56 28 56 24.111 36"></polygon>
                    </g>
                    <path d="M20.7614443,218 L259.238556,218 C267.554205,218 275.329732,222.119694 280,229 L280,229 L280,229 L0,229 C4.67026836,222.119694 12.4457953,218 20.7614443,218 Z" id="Rectangle" fill="#008641"></path>
                    <path d="M108.066667,221 C108.582132,221 109,221.417868 109,221.933333 L109,229 L106,229 L106,221.933333 C106,221.417868 106.417868,221 106.933333,221 L108.066667,221 Z M104.066667,224 C104.582132,224 105,224.417868 105,224.933333 L105,229 L102,229 L102,224.933333 C102,224.417868 102.417868,224 102.933333,224 L104.066667,224 Z M253.066667,221 C253.582132,221 254,221.417868 254,221.933333 L254,224.066667 C254,224.582132 253.582132,225 253.066667,225 L250.933333,225 C250.417868,225 250,224.582132 250,224.066667 L250,221.933333 C250,221.417868 250.417868,221 250.933333,221 L253.066667,221 Z M179.066667,220 C179.582132,220 180,220.417868 180,220.933333 L180,223.066667 C180,223.582132 179.582132,224 179.066667,224 L176.933333,224 C176.417868,224 176,223.582132 176,223.066667 L176,220.933333 C176,220.417868 176.417868,220 176.933333,220 L179.066667,220 Z M25.0666667,219 C25.5821324,219 26,219.417868 26,219.933333 L26,222.066667 C26,222.582132 25.5821324,223 25.0666667,223 L22.9333333,223 C22.4178676,223 22,222.582132 22,222.066667 L22,219.933333 C22,219.417868 22.4178676,219 22.9333333,219 L25.0666667,219 Z" id="Combined-Shape" fill="#006330"></path>
                    <path d="M240.5,201 C250.164983,201 258,208.318422 258,218 L258,218 L223,218 C223,208.318422 230.835017,201 240.5,201 Z" id="Combined-Shape" fill="#F1DA81"></path>
                    <polygon id="Rectangle" fill="#8A4246" points="147 124 197 124 227 154 177 154"></polygon>
                    <rect id="Rectangle" fill="#FFFFFF" x="87" y="160" width="140" height="58"></rect>
                    <g id="Group" transform="translate(99.000000, 172.000000)" fill="#2E485D">
                        <path d="M6,0 C9.3137085,-6.08718376e-16 12,2.6862915 12,6 L12,24 L12,24 L0,24 L0,6 C-4.05812251e-16,2.6862915 2.6862915,6.08718376e-16 6,0 Z" id="Rectangle"></path>
                        <path d="M22,0 C25.3137085,-6.08718376e-16 28,2.6862915 28,6 L28,24 L28,24 L16,24 L16,6 C16,2.6862915 18.6862915,6.08718376e-16 22,0 Z" id="Rectangle"></path>
                    </g>
                    <polygon id="Rectangle" fill="#BFE2D0" points="97 64 137 64 137 154 97 154"></polygon>
                    <path d="M117,82 C121.418278,82 125,85.581722 125,90 L125,104 L125,104 L109,104 L109,90 C109,85.581722 112.581722,82 117,82 Z" id="Rectangle" fill="#2E485D"></path>
                    <rect id="Rectangle" fill="#BFECD5" x="87" y="154" width="140" height="6"></rect>
                    <polygon id="Rectangle" fill="#572A2C" points="137 13 137 64 97 64"></polygon>
                    <polygon id="Rectangle" fill="#8A4246" transform="translate(157.000000, 38.500000) scale(-1, 1) translate(-157.000000, -38.500000) " points="177 13 177 64 137 64"></polygon>
                    <polygon id="Rectangle" fill="#6EC5AB" points="137 0 152 0 147 5 152 10 137 10"></polygon>
                    <rect id="Rectangle" fill="#FFFFFF" x="137" y="64" width="40" height="154"></rect>
                    <rect id="Rectangle" fill="#BFECD5" x="137" y="154" width="30" height="64"></rect>
                    <circle id="Oval" fill="#BFECD5" cx="157" cy="93" r="11"></circle>
                    <polygon id="Rectangle" fill="#8A4246" points="57 124 107 124 137 154 87 154"></polygon>
                    <path d="M197,218 C198.411003,196.086055 202.442784,180.333575 209,171 C215.557216,180.333575 219.588997,196.086055 221,218 L197,218 Z" id="Path" fill="#3C968D"></path>
                    <path d="M126,218 C126.823085,204.944884 129.174958,195.560428 133,190 C136.825042,195.560428 139.176915,204.944884 140,218 L126,218 Z" id="Path" fill="#3C968D"></path>
                    <polygon id="Rectangle" fill="#572A2C" transform="translate(161.000000, 145.000000) scale(-1, 1) translate(-161.000000, -145.000000) " points="137 136 167 136 185 154 155 154"></polygon>
                    <polygon id="Rectangle" fill="#FFFFFF" points="185 136 203 154 203 218 167 218 167 154"></polygon>
                    <polygon id="Rectangle" fill="#BFECD5" points="57 124 87 153.842105 87 218 27 218 27 153.842105"></polygon>
                    <rect id="Rectangle" fill="#BFECD5" x="137" y="64" width="40" height="6"></rect>
                    <path d="M185,185 C189.418278,185 193,188.581722 193,193 L193,218 L193,218 L177,218 L177,193 C177,188.581722 180.581722,185 185,185 Z" id="Rectangle" fill="#6EC5AB"></path>
                    <path d="M82.5,201 C92.1649831,201 100,208.318422 100,218 L100,218 L65,218 C65,208.318422 72.8350169,201 82.5,201 Z" id="Combined-Shape" fill="#F1DA81"></path>
                    <path d="M62.5,207 C68.2989899,207 73,211.61708 73,217.725038 C73,217.81712 72.9985718,217.908999 72.9957345,218.000656 L52.0042655,218.000656 C52.0014282,217.908999 52,217.81712 52,217.725038 C52,211.61708 56.7010101,207 62.5,207 Z" id="Combined-Shape" fill="#F1DA81"></path>
                    <path d="M161.5,207 C167.29899,207 172,211.61708 172,217.725038 C172,217.81712 171.998572,217.908999 171.995734,218.000656 L151.004266,218.000656 C151.001428,217.908999 151,217.81712 151,217.725038 C151,211.61708 155.70101,207 161.5,207 Z" id="Combined-Shape" fill="#F1DA81"></path>
                    <g id="Group" transform="translate(43.000000, 172.000000)" fill="#2E485D">
                        <path d="M6,0 C9.3137085,-6.08718376e-16 12,2.6862915 12,6 L12,24 L12,24 L0,24 L0,6 C-4.05812251e-16,2.6862915 2.6862915,6.08718376e-16 6,0 Z" id="Rectangle"></path>
                        <path d="M22,0 C25.3137085,-6.08718376e-16 28,2.6862915 28,6 L28,24 L28,24 L16,24 L16,6 C16,2.6862915 18.6862915,6.08718376e-16 22,0 Z" id="Rectangle"></path>
                    </g>
                    <circle id="Oval" fill="#BFECD5" cx="185" cy="157" r="6"></circle>
                    <path d="M20,218 C20.8230851,204.944884 23.1749576,195.560428 27,190 C30.8250424,195.560428 33.1769149,204.944884 34,218 L20,218 Z" id="Path" fill="#3C968D"></path>
                    <path d="M216,218 C216.823085,204.944884 219.174958,195.560428 223,190 C226.825042,195.560428 229.176915,204.944884 230,218 L216,218 Z" id="Path" fill="#6EC5AB"></path>
                    <rect id="Rectangle" fill="#BFECD5" x="164" y="110" width="4" height="4" rx="0.933333333"></rect>
                    <rect id="Rectangle" fill="#E5F2EC" x="127" y="122" width="4" height="4" rx="0.933333333"></rect>
                    <rect id="Rectangle" fill="#E5F2EC" x="51" y="200" width="4" height="4" rx="0.933333333"></rect>
                    <rect id="Rectangle" fill="#E5F2EC" x="218" y="172" width="4" height="4" rx="0.933333333"></rect>
                </g>
            </g>
        </g>
    </g>
</svg>