<?xml version="1.0" encoding="UTF-8"?>
<svg width="280px" height="230px" viewBox="0 0 280 230" version="1.1" xmlns="http://www.w3.org/2000/svg" xmlns:xlink="http://www.w3.org/1999/xlink">
    <title>Excluderi 2 Pret</title>
    <g id="Cover" stroke="none" stroke-width="1" fill="none" fill-rule="evenodd">
        <g id="Icons-and-illustrations" transform="translate(-413.000000, -797.000000)">
            <g id="Excluderi-2-Pret" transform="translate(413.000000, 797.000000)">
                <g id="Group" transform="translate(64.000000, 0.000000)">
                    <rect id="Rectangle" fill="#F7CBB2" transform="translate(80.000000, 17.000000) scale(-1, 1) translate(-80.000000, -17.000000) " x="40" y="16" width="80" height="2"></rect>
                    <path d="M4,0 L118.852815,0 C119.602494,-1.37713774e-16 120.337084,0.21067778 120.972811,0.608006784 L150.119996,18.8249974 C151.289521,19.5559508 152,20.8378304 152,22.2169906 L152,41.7830094 C152,43.1621696 151.289521,44.4440492 150.119996,45.1750026 L120.972811,63.3919932 C120.337084,63.7893222 119.602494,64 118.852815,64 L4,64 C1.790861,64 2.705415e-16,62.209139 0,60 L0,4 C-2.705415e-16,1.790861 1.790861,4.05812251e-16 4,0 Z" id="Rectangle" fill="#FFE8DB" transform="translate(76.000000, 32.000000) scale(-1, 1) translate(-76.000000, -32.000000) "></path>
                    <path d="M56,0 L94.5,0 L94.5,0 L152,64 L56,64 C53.790861,64 52,62.209139 52,60 L52,4 C52,1.790861 53.790861,4.05812251e-16 56,0 Z" id="Rectangle" fill="#FFEFE6" transform="translate(102.000000, 32.000000) scale(-1, 1) translate(-102.000000, -32.000000) "></path>
                    <circle id="Oval" fill="#FFD8C2" cx="16" cy="32" r="10"></circle>
                    <circle id="Oval" fill="#FFFFFF" cx="16" cy="32" r="6"></circle>
                    <path d="M84.5308143,28 L84.5308143,25.9521484 L79.0288612,25.9521484 L81.9380409,22.8847656 C82.7349159,22.0117187 83.2974159,21.2470703 83.6255409,20.5908203 C83.9536659,19.9345703 84.1177284,19.2900391 84.1177284,18.6572266 C84.1177284,17.5029297 83.7529823,16.609375 83.0234901,15.9765625 C82.2939979,15.34375 81.2700721,15.0273437 79.9517127,15.0273437 C79.0903846,15.0273437 78.3198768,15.2104492 77.6401893,15.5766602 C76.9605018,15.9428711 76.4346229,16.4482422 76.0625526,17.0927734 C75.6904823,17.7373047 75.5044471,18.4492187 75.5044471,19.2285156 L75.5044471,19.2285156 L78.0532752,19.2285156 C78.0532752,18.5839844 78.2188026,18.0639648 78.5498573,17.668457 C78.880912,17.2729492 79.3335487,17.0751953 79.9077674,17.0751953 C80.4409706,17.0751953 80.8511268,17.237793 81.1382362,17.5629883 C81.4253456,17.8881836 81.5689002,18.3349609 81.5689002,18.9033203 C81.5689002,19.3193359 81.4326698,19.7587891 81.1602088,20.2216797 C80.8877479,20.6845703 80.4673377,21.2265625 79.8989784,21.8476562 L79.8989784,21.8476562 L75.7593299,26.2597656 L75.7593299,28 L84.5308143,28 Z M91.9794772,28 L91.9794772,15.1855469 L91.7070162,15.1855469 L86.4072115,17.0839844 L86.4072115,19.1494141 L89.4394381,18.2089844 L89.4394381,28 L91.9794772,28 Z M97.5297025,28.0966797 C97.9515775,28.0966797 98.2972806,27.972168 98.5668119,27.7231445 C98.8363431,27.4741211 98.9711088,27.1503906 98.9711088,26.7519531 C98.9711088,26.3476562 98.8348783,26.0195312 98.5624174,25.7675781 C98.2899564,25.515625 97.9457181,25.3896484 97.5297025,25.3896484 C97.1195463,25.3896484 96.7782377,25.515625 96.5057767,25.7675781 C96.2333158,26.0195312 96.0970853,26.3476562 96.0970853,26.7519531 C96.0970853,27.1503906 96.231851,27.4741211 96.5013822,27.7231445 C96.7709135,27.972168 97.1136869,28.0966797 97.5297025,28.0966797 Z M105.110201,28.1757812 C106.522311,28.1757812 107.594576,27.7070312 108.326998,26.7695312 C109.05942,25.8320312 109.425631,24.4785156 109.425631,22.7089844 L109.425631,22.7089844 L109.425631,20.3535156 C109.408053,18.6367187 109.030123,17.3198242 108.291842,16.402832 C107.553561,15.4858398 106.487154,15.0273437 105.092623,15.0273437 C103.698092,15.0273437 102.630221,15.4902344 101.88901,16.4160156 C101.147799,17.3417969 100.777194,18.6982422 100.777194,20.4853516 L100.777194,20.4853516 L100.777194,22.8408203 C100.794772,24.5576172 101.172701,25.8759766 101.910983,26.7958984 C102.649264,27.7158203 103.71567,28.1757812 105.110201,28.1757812 Z M105.110201,26.1279297 C104.483248,26.1279297 104.027682,25.8745117 103.743502,25.3676758 C103.459322,24.8608398 103.317233,24.0859375 103.317233,23.0429687 L103.317233,23.0429687 L103.317233,19.9316406 C103.334811,18.953125 103.48569,18.2338867 103.769869,17.7739258 C104.054049,17.3139648 104.494967,17.0839844 105.092623,17.0839844 C105.707858,17.0839844 106.160494,17.3256836 106.450533,17.809082 C106.740572,18.2924805 106.885592,19.0644531 106.885592,20.125 L106.885592,20.125 L106.885592,23.1660156 C106.873873,24.1679687 106.730319,24.9121094 106.454928,25.3984375 C106.179537,25.8847656 105.731295,26.1279297 105.110201,26.1279297 Z M115.160427,28.1757812 C116.572536,28.1757812 117.644802,27.7070312 118.377224,26.7695312 C119.109645,25.8320312 119.475856,24.4785156 119.475856,22.7089844 L119.475856,22.7089844 L119.475856,20.3535156 C119.458278,18.6367187 119.080349,17.3198242 118.342067,16.402832 C117.603786,15.4858398 116.53738,15.0273437 115.142849,15.0273437 C113.748317,15.0273437 112.680446,15.4902344 111.939235,16.4160156 C111.198024,17.3417969 110.827419,18.6982422 110.827419,20.4853516 L110.827419,20.4853516 L110.827419,22.8408203 C110.844997,24.5576172 111.222927,25.8759766 111.961208,26.7958984 C112.699489,27.7158203 113.765895,28.1757812 115.160427,28.1757812 Z M115.160427,26.1279297 C114.533474,26.1279297 114.077907,25.8745117 113.793727,25.3676758 C113.509548,24.8608398 113.367458,24.0859375 113.367458,23.0429687 L113.367458,23.0429687 L113.367458,19.9316406 C113.385036,18.953125 113.535915,18.2338867 113.820095,17.7739258 C114.104274,17.3139648 114.545192,17.0839844 115.142849,17.0839844 C115.758083,17.0839844 116.21072,17.3256836 116.500759,17.809082 C116.790798,18.2924805 116.935817,19.0644531 116.935817,20.125 L116.935817,20.125 L116.935817,23.1660156 C116.924099,24.1679687 116.780544,24.9121094 116.505153,25.3984375 C116.229763,25.8847656 115.78152,26.1279297 115.160427,26.1279297 Z M125.210652,28.1757812 C126.622761,28.1757812 127.695027,27.7070312 128.427449,26.7695312 C129.159871,25.8320312 129.526082,24.4785156 129.526082,22.7089844 L129.526082,22.7089844 L129.526082,20.3535156 C129.508504,18.6367187 129.130574,17.3198242 128.392293,16.402832 C127.654011,15.4858398 126.587605,15.0273437 125.193074,15.0273437 C123.798543,15.0273437 122.730672,15.4902344 121.989461,16.4160156 C121.24825,17.3417969 120.877644,18.6982422 120.877644,20.4853516 L120.877644,20.4853516 L120.877644,22.8408203 C120.895222,24.5576172 121.273152,25.8759766 122.011433,26.7958984 C122.749715,27.7158203 123.816121,28.1757812 125.210652,28.1757812 Z M125.210652,26.1279297 C124.583699,26.1279297 124.128133,25.8745117 123.843953,25.3676758 C123.559773,24.8608398 123.417683,24.0859375 123.417683,23.0429687 L123.417683,23.0429687 L123.417683,19.9316406 C123.435261,18.953125 123.58614,18.2338867 123.87032,17.7739258 C124.1545,17.3139648 124.595418,17.0839844 125.193074,17.0839844 C125.808308,17.0839844 126.260945,17.3256836 126.550984,17.809082 C126.841023,18.2924805 126.986043,19.0644531 126.986043,20.125 L126.986043,20.125 L126.986043,23.1660156 C126.974324,24.1679687 126.830769,24.9121094 126.555379,25.3984375 C126.279988,25.8847656 125.831746,26.1279297 125.210652,26.1279297 Z M140.213447,23.5439453 L140.213447,21.4960937 L135.265204,21.4960937 L135.265204,23.5439453 L140.213447,23.5439453 Z M45.8152644,49 L45.8152644,46.9521484 L40.3133113,46.9521484 L43.222491,43.8847656 C44.019366,43.0117187 44.581866,42.2470703 44.909991,41.5908203 C45.238116,40.9345703 45.4021785,40.2900391 45.4021785,39.6572266 C45.4021785,38.5029297 45.0374324,37.609375 44.3079402,36.9765625 C43.578448,36.34375 42.5545222,36.0273437 41.2361629,36.0273437 C40.3748347,36.0273437 39.6043269,36.2104492 38.9246394,36.5766602 C38.2449519,36.9428711 37.719073,37.4482422 37.3470027,38.0927734 C36.9749324,38.7373047 36.7888972,39.4492187 36.7888972,40.2285156 L36.7888972,40.2285156 L39.3377254,40.2285156 C39.3377254,39.5839844 39.5032527,39.0639648 39.8343074,38.668457 C40.1653621,38.2729492 40.6179988,38.0751953 41.1922175,38.0751953 C41.7254207,38.0751953 42.1355769,38.237793 42.4226863,38.5629883 C42.7097957,38.8881836 42.8533504,39.3349609 42.8533504,39.9033203 C42.8533504,40.3193359 42.7171199,40.7587891 42.444659,41.2216797 C42.172198,41.6845703 41.7517879,42.2265625 41.1834285,42.8476562 L41.1834285,42.8476562 L37.04378,47.2597656 L37.04378,49 L45.8152644,49 Z M51.391857,49.1757812 C52.8039663,49.1757812 53.876232,48.7070312 54.6086538,47.7695312 C55.3410757,46.8320312 55.7072867,45.4785156 55.7072867,43.7089844 L55.7072867,43.7089844 L55.7072867,41.3535156 C55.6897085,39.6367187 55.3117788,38.3198242 54.5734976,37.402832 C53.8352163,36.4858398 52.7688101,36.0273437 51.3742788,36.0273437 C49.9797476,36.0273437 48.9118765,36.4902344 48.1706656,37.4160156 C47.4294546,38.3417969 47.0588492,39.6982422 47.0588492,41.4853516 L47.0588492,41.4853516 L47.0588492,43.8408203 C47.0764273,45.5576172 47.454357,46.8759766 48.1926382,47.7958984 C48.9309195,48.7158203 49.9973257,49.1757812 51.391857,49.1757812 Z M51.391857,47.1279297 C50.7649038,47.1279297 50.3093374,46.8745117 50.0251578,46.3676758 C49.7409781,45.8608398 49.5988882,45.0859375 49.5988882,44.0429687 L49.5988882,44.0429687 L49.5988882,40.9316406 C49.6164663,39.953125 49.7673453,39.2338867 50.0515249,38.7739258 C50.3357046,38.3139648 50.7766226,38.0839844 51.3742788,38.0839844 C51.9895132,38.0839844 52.4421499,38.3256836 52.732189,38.809082 C53.0222281,39.2924805 53.1672476,40.0644531 53.1672476,41.125 L53.1672476,41.125 L53.1672476,44.1660156 C53.1555288,45.1679687 53.0119742,45.9121094 52.7365835,46.3984375 C52.4611929,46.8847656 52.0129507,47.1279297 51.391857,47.1279297 Z M61.4420823,49.1757812 C62.8541917,49.1757812 63.9264573,48.7070312 64.6588792,47.7695312 C65.3913011,46.8320312 65.757512,45.4785156 65.757512,43.7089844 L65.757512,43.7089844 L65.757512,41.3535156 C65.7399339,39.6367187 65.3620042,38.3198242 64.623723,37.402832 C63.8854417,36.4858398 62.8190355,36.0273437 61.4245042,36.0273437 C60.029973,36.0273437 58.9621019,36.4902344 58.2208909,37.4160156 C57.47968,38.3417969 57.1090745,39.6982422 57.1090745,41.4853516 L57.1090745,41.4853516 L57.1090745,43.8408203 C57.1266526,45.5576172 57.5045823,46.8759766 58.2428636,47.7958984 C58.9811448,48.7158203 60.0475511,49.1757812 61.4420823,49.1757812 Z M61.4420823,47.1279297 C60.8151292,47.1279297 60.3595628,46.8745117 60.0753831,46.3676758 C59.7912034,45.8608398 59.6491136,45.0859375 59.6491136,44.0429687 L59.6491136,44.0429687 L59.6491136,40.9316406 C59.6666917,39.953125 59.8175706,39.2338867 60.1017503,38.7739258 C60.38593,38.3139648 60.826848,38.0839844 61.4245042,38.0839844 C62.0397386,38.0839844 62.4923753,38.3256836 62.7824144,38.809082 C63.0724534,39.2924805 63.217473,40.0644531 63.217473,41.125 L63.217473,41.125 L63.217473,44.1660156 C63.2057542,45.1679687 63.0621995,45.9121094 62.7868089,46.3984375 C62.5114183,46.8847656 62.0631761,47.1279297 61.4420823,47.1279297 Z M68.864378,49.0966797 C69.286253,49.0966797 69.6319561,48.972168 69.9014874,48.7231445 C70.1710186,48.4741211 70.3057843,48.1503906 70.3057843,47.7519531 C70.3057843,47.3476562 70.1695538,47.0195312 69.8970928,46.7675781 C69.6246319,46.515625 69.2803936,46.3896484 68.864378,46.3896484 C68.4542218,46.3896484 68.1129132,46.515625 67.8404522,46.7675781 C67.5679913,47.0195312 67.4317608,47.3476562 67.4317608,47.7519531 C67.4317608,48.1503906 67.5665264,48.4741211 67.8360577,48.7231445 C68.1055889,48.972168 68.4483624,49.0966797 68.864378,49.0966797 Z M76.4448768,49.1757812 C77.8569862,49.1757812 78.9292518,48.7070312 79.6616737,47.7695312 C80.3940956,46.8320312 80.7603065,45.4785156 80.7603065,43.7089844 L80.7603065,43.7089844 L80.7603065,41.3535156 C80.7427284,39.6367187 80.3647987,38.3198242 79.6265174,37.402832 C78.8882362,36.4858398 77.8218299,36.0273437 76.4272987,36.0273437 C75.0327674,36.0273437 73.9648963,36.4902344 73.2236854,37.4160156 C72.4824745,38.3417969 72.111869,39.6982422 72.111869,41.4853516 L72.111869,41.4853516 L72.111869,43.8408203 C72.1294471,45.5576172 72.5073768,46.8759766 73.2456581,47.7958984 C73.9839393,48.7158203 75.0503456,49.1757812 76.4448768,49.1757812 Z M76.4448768,47.1279297 C75.8179237,47.1279297 75.3623573,46.8745117 75.0781776,46.3676758 C74.7939979,45.8608398 74.6519081,45.0859375 74.6519081,44.0429687 L74.6519081,44.0429687 L74.6519081,40.9316406 C74.6694862,39.953125 74.8203651,39.2338867 75.1045448,38.7739258 C75.3887245,38.3139648 75.8296424,38.0839844 76.4272987,38.0839844 C77.0425331,38.0839844 77.4951698,38.3256836 77.7852088,38.809082 C78.0752479,39.2924805 78.2202674,40.0644531 78.2202674,41.125 L78.2202674,41.125 L78.2202674,44.1660156 C78.2085487,45.1679687 78.064994,45.9121094 77.7896034,46.3984375 C77.5142127,46.8847656 77.0659706,47.1279297 76.4448768,47.1279297 Z M86.4951022,49.1757812 C87.9072115,49.1757812 88.9794772,48.7070312 89.711899,47.7695312 C90.4443209,46.8320312 90.8105319,45.4785156 90.8105319,43.7089844 L90.8105319,43.7089844 L90.8105319,41.3535156 C90.7929537,39.6367187 90.415024,38.3198242 89.6767428,37.402832 C88.9384615,36.4858398 87.8720553,36.0273437 86.477524,36.0273437 C85.0829928,36.0273437 84.0151217,36.4902344 83.2739108,37.4160156 C82.5326998,38.3417969 82.1620944,39.6982422 82.1620944,41.4853516 L82.1620944,41.4853516 L82.1620944,43.8408203 C82.1796725,45.5576172 82.5576022,46.8759766 83.2958834,47.7958984 C84.0341647,48.7158203 85.1005709,49.1757812 86.4951022,49.1757812 Z M86.4951022,47.1279297 C85.868149,47.1279297 85.4125826,46.8745117 85.1284029,46.3676758 C84.8442233,45.8608398 84.7021334,45.0859375 84.7021334,44.0429687 L84.7021334,44.0429687 L84.7021334,40.9316406 C84.7197115,39.953125 84.8705904,39.2338867 85.1547701,38.7739258 C85.4389498,38.3139648 85.8798678,38.0839844 86.477524,38.0839844 C87.0927584,38.0839844 87.5453951,38.3256836 87.8354342,38.809082 C88.1254733,39.2924805 88.2704928,40.0644531 88.2704928,41.125 L88.2704928,41.125 L88.2704928,44.1660156 C88.258774,45.1679687 88.1152194,45.9121094 87.8398287,46.3984375 C87.5644381,46.8847656 87.1161959,47.1279297 86.4951022,47.1279297 Z M96.5453275,49.1757812 C97.9574369,49.1757812 99.0297025,48.7070312 99.7621244,47.7695312 C100.494546,46.8320312 100.860757,45.4785156 100.860757,43.7089844 L100.860757,43.7089844 L100.860757,41.3535156 C100.843179,39.6367187 100.465249,38.3198242 99.7269681,37.402832 C98.9886869,36.4858398 97.9222806,36.0273437 96.5277494,36.0273437 C95.1332181,36.0273437 94.0653471,36.4902344 93.3241361,37.4160156 C92.5829252,38.3417969 92.2123197,39.6982422 92.2123197,41.4853516 L92.2123197,41.4853516 L92.2123197,43.8408203 C92.2298978,45.5576172 92.6078275,46.8759766 93.3461088,47.7958984 C94.08439,48.7158203 95.1507963,49.1757812 96.5453275,49.1757812 Z M96.5453275,47.1279297 C95.9183744,47.1279297 95.462808,46.8745117 95.1786283,46.3676758 C94.8944486,45.8608398 94.7523588,45.0859375 94.7523588,44.0429687 L94.7523588,44.0429687 L94.7523588,40.9316406 C94.7699369,39.953125 94.9208158,39.2338867 95.2049955,38.7739258 C95.4891752,38.3139648 95.9300931,38.0839844 96.5277494,38.0839844 C97.1429838,38.0839844 97.5956205,38.3256836 97.8856596,38.809082 C98.1756986,39.2924805 98.3207181,40.0644531 98.3207181,41.125 L98.3207181,41.125 L98.3207181,44.1660156 C98.3089994,45.1679687 98.1654447,45.9121094 97.8900541,46.3984375 C97.6146635,46.8847656 97.1664213,47.1279297 96.5453275,47.1279297 Z M115.353786,49 L115.353786,46.8818359 L109.41238,46.8818359 L109.41238,43.4541016 L114.47488,43.4541016 L114.47488,41.3886719 L109.41238,41.3886719 L109.41238,38.3388672 L115.336208,38.3388672 L115.336208,36.203125 L106.775661,36.203125 L106.775661,49 L115.353786,49 Z M119.401082,49.1757812 C120.508504,49.1757812 121.375691,48.7949219 122.002644,48.0332031 L122.002644,48.0332031 L122.072957,49 L124.463582,49 L124.463582,39.4902344 L121.914754,39.4902344 L121.914754,46.2226562 C121.592488,46.8203125 121.000691,47.1191406 120.139363,47.1191406 C119.237019,47.1191406 118.785847,46.6240234 118.785847,45.6337891 L118.785847,45.6337891 L118.785847,39.4902344 L116.245808,39.4902344 L116.245808,45.7216797 C116.257527,46.8525391 116.531453,47.7109375 117.067586,48.296875 C117.603718,48.8828125 118.38155,49.1757812 119.401082,49.1757812 Z M128.642713,49 L128.642713,42.7773437 C128.941541,42.1269531 129.571424,41.8017578 130.532362,41.8017578 C130.796034,41.8017578 131.100721,41.8251953 131.446424,41.8720703 L131.446424,41.8720703 L131.481581,39.4287109 C131.235487,39.3525391 130.971815,39.3144531 130.690565,39.3144531 C129.788221,39.3144531 129.082166,39.7509766 128.572401,40.6240234 L128.572401,40.6240234 L128.502088,39.4902344 L126.102674,39.4902344 L126.102674,49 L128.642713,49 Z M136.188056,49.1757812 C137.55915,49.1757812 138.651923,48.7348633 139.466376,47.8530273 C140.280829,46.9711914 140.688056,45.8007812 140.688056,44.3417969 L140.688056,44.3417969 L140.670478,43.6914062 C140.576728,42.34375 140.124091,41.2773437 139.312568,40.4921875 C138.501044,39.7070312 137.453681,39.3144531 136.170478,39.3144531 C135.268134,39.3144531 134.475654,39.5166016 133.793036,39.9208984 C133.110419,40.3251953 132.58747,40.8964844 132.224189,41.6347656 C131.860907,42.3730469 131.679267,43.2138672 131.679267,44.1572266 L131.679267,44.1572266 L131.679267,44.2714844 C131.679267,45.7832031 132.087958,46.9785156 132.905341,47.8574219 C133.722724,48.7363281 134.816962,49.1757812 136.188056,49.1757812 Z M136.188056,47.1279297 C135.555243,47.1279297 135.068915,46.8891602 134.729072,46.4116211 C134.389228,45.934082 134.219306,45.2441406 134.219306,44.3417969 C134.219306,43.328125 134.389228,42.5795898 134.729072,42.0961914 C135.068915,41.612793 135.549384,41.3710937 136.170478,41.3710937 C136.797431,41.3710937 137.283759,41.6142578 137.629462,42.1005859 C137.975165,42.5869141 138.148017,43.2724609 138.148017,44.1572266 C138.148017,45.1943359 137.975165,45.9487305 137.629462,46.4204102 C137.283759,46.8920898 136.80329,47.1279297 136.188056,47.1279297 Z" id="21.000-200.000Euro" fill="#2E485D" fill-rule="nonzero"></path>
                </g>
                <circle id="Oval" fill="#E5F2EC" cx="235.5" cy="177.5" r="29.5"></circle>
                <circle id="Oval" fill="#F1DA81" cx="40" cy="83" r="20"></circle>
                <path d="M65.96875,82 L70,86.0344828 L35.0625,121 L27,121 L65.96875,82 Z M210.41129,74 L249,113 L105,113 L66,74 L210.41129,74 Z" id="Combined-Shape" fill="#3C968D"></path>
                <path d="M70,86 L105,121 L105,121 L241,121 L241,128 L105,128 L105,220 L35,220 L35,121 L70,86 Z M150.066667,166 C150.582132,166 151,166.417868 151,166.933333 L151,169.066667 C151,169.582132 150.582132,170 150.066667,170 L147.933333,170 C147.417868,170 147,169.582132 147,169.066667 L147,166.933333 C147,166.417868 147.417868,166 147.933333,166 L150.066667,166 Z M124,98 L124,108 L114.032848,98.032848 L124,98 Z M160,98 L160,108 L150.032848,98.032848 L160,98 Z M196,98 L196,108 L186.032848,98.032848 L196,98 Z" id="Combined-Shape" fill="#E3F9EC"></path>
                <path d="M137,85 L150,98 L150,108 L124,108 L124,98 L137,85 Z M173,85 L186,98 L186,108 L160,108 L160,98 L173,85 Z M209,85 L222,98 L222,108 L196,108 L196,98 L209,85 Z" id="Combined-Shape" fill="#FFFFFF"></path>
                <polygon id="Path" fill="#FFFFFF" points="241 128 241 220 105 220 105 128"></polygon>
                <path d="M249,113 L249,121 L105,121 L105,113 L249,113 Z M143,96 L143,105 L131,105 L131,96 L143,96 Z M179,96 L179,105 L167,105 L167,96 L179,96 Z M215,96 L215,105 L203,105 L203,96 L215,96 Z" id="Combined-Shape" fill="#6EC5AB"></path>
                <path d="M185,176 L185,220 L161,220 L161,176 L185,176 Z M86,180 L86,200 L54,200 L54,180 L86,180 Z M151,180 L151,200 L119,200 L119,180 L151,180 Z M227,180 L227,200 L195,200 L195,180 L227,180 Z M86,136 L86,156 L54,156 L54,136 L86,136 Z M151,136 L151,156 L119,156 L119,136 L151,136 Z M185,136 L185,156 L161,156 L161,136 L185,136 Z M227,136 L227,156 L195,156 L195,136 L227,136 Z M112,67 L112,74 L88,74 L88,67 L112,67 Z" id="Combined-Shape" fill="#A43E43"></path>
                <path d="M80,180 L80,200 L60,200 L60,180 L80,180 Z M145,180 L145,200 L125,200 L125,180 L145,180 Z M221,180 L221,200 L201,200 L201,180 L221,180 Z M80,136 L80,156 L60,156 L60,136 L80,136 Z M145,136 L145,156 L125,156 L125,136 L145,136 Z M179,136 L179,156 L167,156 L167,136 L179,136 Z M221,136 L221,156 L201,156 L201,136 L221,136 Z" id="Combined-Shape" fill="#5E9F98"></path>
                <path d="M64,180 L64,200 L60,200 L60,180 L64,180 Z M145,180 L145,200 L141,200 L141,180 L145,180 Z M221,180 L221,200 L217,200 L217,180 L221,180 Z M64,136 L64,156 L60,156 L60,136 L64,136 Z M145,136 L145,156 L141,156 L141,136 L145,136 Z M179,136 L179,156 L175,156 L175,136 L179,136 Z M221,136 L221,156 L217,156 L217,136 L221,136 Z" id="Combined-Shape" fill="#6EC5AB"></path>
                <rect id="Rectangle" fill="#F0BDA1" transform="translate(163.000000, 202.500000) scale(-1, 1) translate(-163.000000, -202.500000) " x="161" y="200" width="4" height="5"></rect>
                <path d="M185,176 L185,180 L161,180 L161,176 L185,176 Z M88,67 L88,74 L80,74 L80,67 L88,67 Z" id="Combined-Shape" fill="#572A2C"></path>
                <path d="M19.9466952,220 L260.053305,220 C267.907447,220 275.300951,223.706631 280,230 L280,230 L280,230 L0,230 C4.69904858,223.706631 12.0925532,220 19.9466952,220 Z" id="Rectangle" fill="#008641"></path>
                <path d="M166.869565,230 L179,230 L165.521739,220 L148,220 L149.47308,220 C152.877388,220 156.175671,221.184245 158.802472,223.349708 L166.869565,230 L166.869565,230 Z" id="Path" fill="#006330"></path>
                <polygon id="Path" fill="#D6676C" points="177 225 177 220 204 220 204 225 209 225 209 230 182 230 182 225"></polygon>
                <path d="M178.052632,230 L168.470839,222.717837 C166.150824,220.954626 163.317059,220 160.403062,220 L157,220 L157,220 L177,220 L177,225 L182,225 L182,230 L178.052632,230 Z" id="Path" fill="#572A2C"></path>
                <path d="M110,203 C119.059638,203 126.819709,210.218455 126.996904,219.669418 L127,220.001001 L127,220.001001 L92,219.999 L80,220 C80,213.70101 84.4771525,209 91,209 C92.4148679,209 93.8252641,209.460044 95.0955264,210.285137 C98.2353617,205.919656 103.501975,203.104606 109.654377,203.002854 L110,203 Z M237,203 C242.251407,203 247.06617,205.425347 250.220564,209.30499 C251.095634,209.105041 252.024962,209 253,209 C257.447467,209 261.850749,213.545616 261.99629,219.686397 L262,220 L254,220.001001 L254,220.001001 L219,220 C219,210.496537 226.65796,203.168181 236.654377,203.002854 L237,203 Z M30,209 C34.4474667,209 38.8507489,213.545616 38.9962896,219.686397 L39,220 L19,220 C19,213.70101 23.4771525,209 30,209 Z" id="Shape" fill="#F1DA81"></path>
                <path d="M116.066667,222 C116.582132,222 117,222.417868 117,222.933333 L117,230 L114,230 L114,222.933333 C114,222.417868 114.417868,222 114.933333,222 L116.066667,222 Z M112.066667,225 C112.582132,225 113,225.417868 113,225.933333 L113,230 L110,230 L110,225.933333 C110,225.417868 110.417868,225 110.933333,225 L112.066667,225 Z M68.0666667,225 C68.5821324,225 69,225.417868 69,225.933333 L69,228.066667 C69,228.582132 68.5821324,229 68.0666667,229 L65.9333333,229 C65.4178676,229 65,228.582132 65,228.066667 L65,225.933333 C65,225.417868 65.4178676,225 65.9333333,225 L68.0666667,225 Z M253.066667,222 C253.582132,222 254,222.417868 254,222.933333 L254,225.066667 C254,225.582132 253.582132,226 253.066667,226 L250.933333,226 C250.417868,226 250,225.582132 250,225.066667 L250,222.933333 C250,222.417868 250.417868,222 250.933333,222 L253.066667,222 Z M149.066667,221 C149.582132,221 150,221.417868 150,221.933333 L150,224.066667 C150,224.582132 149.582132,225 149.066667,225 L146.933333,225 C146.417868,225 146,224.582132 146,224.066667 L146,221.933333 C146,221.417868 146.417868,221 146.933333,221 L149.066667,221 Z" id="Combined-Shape" fill="#006330"></path>
                <rect id="Rectangle" fill="#D7ECE1" x="48" y="171" width="4" height="4" rx="0.933333333"></rect>
                <rect id="Rectangle" fill="#D7ECE1" x="82" y="123" width="4" height="4" rx="0.933333333"></rect>
                <path d="M232.066667,213 C232.582132,213 233,213.417868 233,213.933333 L233,216.066667 C233,216.582132 232.582132,217 232.066667,217 L229.933333,217 C229.417868,217 229,216.582132 229,216.066667 L229,213.933333 C229,213.417868 229.417868,213 229.933333,213 L232.066667,213 Z M103.066667,209 C103.582132,209 104,209.417868 104,209.933333 L104,212.066667 C104,212.582132 103.582132,213 103.066667,213 L100.933333,213 C100.417868,213 100,212.582132 100,212.066667 L100,209.933333 C100,209.417868 100.417868,209 100.933333,209 L103.066667,209 Z" id="Shape" fill="#FFEA96"></path>
                <path d="M80,200 L80,204 L60,204 L60,200 L80,200 Z M145,200 L145,204 L125,204 L125,200 L145,200 Z M221,200 L221,204 L201,204 L201,200 L221,200 Z M80,156 L80,160 L60,160 L60,156 L80,156 Z M145,156 L145,160 L125,160 L125,156 L145,156 Z M179,156 L179,160 L167,160 L167,156 L179,156 Z M221,156 L221,160 L201,160 L201,156 L221,156 Z M74,118 L74,126 L66,126 L66,118 L74,118 Z M66,74 L105,112.942857 L105,121 L66,82.0571429 L27,121 L27,113 L66,74 Z M143,105 L143,108 L131,108 L131,105 L143,105 Z M179,105 L179,108 L167,108 L167,105 L179,105 Z M215,105 L215,108 L203,108 L203,105 L215,105 Z M137,85 L124,98 L114,98 L101,85 L137,85 Z M173,85 L160,98 L150,98 L137,85 L173,85 Z M209,85 L196,98 L186,98 L173,85 L209,85 Z" id="Combined-Shape" fill="#2E485D"></path>
            </g>
        </g>
    </g>
</svg>