<?xml version="1.0" encoding="UTF-8"?>
<svg width="280px" height="184px" viewBox="0 0 280 184" version="1.1" xmlns="http://www.w3.org/2000/svg" xmlns:xlink="http://www.w3.org/1999/xlink">
    <title>Ilustratii/Excluderi 5 Inundatii</title>
    <g id="Cover" stroke="none" stroke-width="1" fill="none" fill-rule="evenodd">
        <g id="Icons-and-illustrations" transform="translate(-413.000000, -1086.000000)">
            <g id="Group" transform="translate(413.000000, 1040.000000)">
                <g id="Excluderi-5-Inundatii" transform="translate(0.000000, 46.000000)">
                    <path d="M146.5,22.5 C155.076703,32.347326 167.496104,38 180.554805,38 L194.5,38 C209.687831,38 222,50.3121694 222,65.5 C222,80.6878306 209.687831,93 194.5,93 L52.5,93 C37.3121694,93 25,80.6878306 25,65.5 L25,61.5 C25,48.5213084 35.5213084,38 48.5,38 L54.5572365,38 C65.2700377,38 75.0866496,32.0196165 80,22.5 C84.9133504,12.9803835 94.7299623,7 105.442764,7 L112.445195,7 C125.503896,7 137.923297,12.652674 146.5,22.5 Z" id="Path" fill="#E5F2EC"></path>
                    <path d="M40,113 C41.5285866,89.6872922 45.8963498,72.9293351 53,63 C60.1036502,72.9293351 64.4714134,89.6872922 66,113 L40,113 Z" id="Path" fill="#2E485D"></path>
                    <path d="M204,108 C215.59798,108 225,116.954305 225,128.8 C225,128.866913 224.999599,128.933771 224.998799,129.000571 L183.002,129 L183,128.8 C183,117.073958 192.21304,108.18119 203.649226,108.002735 Z" id="Combined-Shape" fill="#E0CB78"></path>
                    <g id="Group" transform="translate(201.000000, 0.000000)">
                        <path d="M21,0 L42,36 L30.333,36 L42,56 L30.333,56 L42,76 L0,76 L11.667,56 L0,56 L11.667,36 L0,36 L21,0 Z" id="Combined-Shape" fill="#3C968D"></path>
                        <polygon id="Rectangle" fill="#8A4246" points="18 76 24 76 24 129 18 129"></polygon>
                        <polygon id="Rectangle" fill="#572A2C" points="17 76 24 76 24 80 20.1111111 80 20.1111111 129 17 129"></polygon>
                        <polygon id="Path" fill="#46B0A5" points="28 36 21 0 42 36 30.333 36 42 56 30.333 56 42 76 28 76 24.111 56 28 56 24.111 36"></polygon>
                    </g>
                    <path d="M183,92 C190.179702,92 196,97.5964406 196,105 L196,105 L170,105 C170,97.5964406 175.820298,92 183,92 Z" id="Combined-Shape" fill="#E0CB78"></path>
                    <path d="M200,99 C205.522847,99 210,103.253295 210,108.88 C210,108.920116 209.999696,108.96019 209.999089,109.00022 L190.001,109 L190,108.88 C190,103.348663 194.326671,99.144574 199.720095,99.0036516 Z" id="Combined-Shape" fill="#E0CB78"></path>
                    <path d="M31.9945048,113 L54,113 L54,113 L64,105 L201.807481,105 C202.858,105 203.831988,105.549498 204.375228,106.448653 L215.666059,125.136925 C217.114698,127.534673 219.712,129 222.513383,129 L243.91112,129 C250.724958,129 256.382629,134.261147 256.876875,141.057036 L260,184 L260,184 L0,184 L12.483782,128.603217 C14.5396412,119.480342 22.6428521,113 31.9945048,113 Z" id="Rectangle" fill="#6EC5AB"></path>
                    <polygon id="Rectangle" fill="#A43E43" transform="translate(105.500000, 25.000000) scale(-1, 1) translate(-105.500000, -25.000000) " points="102 21 109 21 109 29 102 29"></polygon>
                    <polygon id="Rectangle" fill="#572A2C" transform="translate(100.000000, 25.000000) scale(-1, 1) translate(-100.000000, -25.000000) " points="98 21 102 21 102 29 98 29"></polygon>
                    <polygon id="Rectangle" fill="#F0BDA1" points="64 64 89 39 114 64 114 105 64 105"></polygon>
                    <rect id="Rectangle" fill="#FFE8DB" transform="translate(150.000000, 84.500000) scale(-1, 1) translate(-150.000000, -84.500000) " x="114" y="64" width="72" height="41"></rect>
                    <rect id="Rectangle" fill="#F0BDA1" transform="translate(150.000000, 66.500000) scale(-1, 1) translate(-150.000000, -66.500000) " x="114" y="64" width="72" height="5"></rect>
                    <rect id="Rectangle" fill="#572A2C" transform="translate(89.000000, 85.000000) scale(-1, 1) translate(-89.000000, -85.000000) " x="82" y="78" width="14" height="14"></rect>
                    <rect id="Rectangle" fill="#F0BDA1" transform="translate(131.000000, 85.000000) scale(-1, 1) translate(-131.000000, -85.000000) " x="124" y="78" width="14" height="14"></rect>
                    <rect id="Rectangle" fill="#F0BDA1" transform="translate(173.000000, 85.000000) scale(-1, 1) translate(-173.000000, -85.000000) " x="166" y="78" width="14" height="14"></rect>
                    <rect id="Rectangle" fill="#572A2C" transform="translate(152.000000, 91.500000) scale(-1, 1) translate(-152.000000, -91.500000) " x="145" y="78" width="14" height="27"></rect>
                    <polygon id="Rectangle" fill="#703639" transform="translate(152.500000, 61.500000) scale(-1, 1) translate(-152.500000, -61.500000) " points="114 59 186 59 191 64 119 64"></polygon>
                    <polygon id="Rectangle" fill="#8A4246" transform="translate(140.000000, 44.000000) scale(-1, 1) translate(-140.000000, -44.000000) " points="119 29 191 29 161 59 89 59"></polygon>
                    <path d="M166,18 C160.018654,6.59960552 154.061012,0.933137262 148.127074,1.00059522 C139.226166,1.10178215 137.934648,8.95192971 131.933271,8.95192971 C125.931894,8.95192971 124.94385,6.16112881 117.851268,6.21009023 C113.122879,6.24273118 107.839124,10.1727011 102,18 L166,18 Z" id="Path-28" fill="#F5F9FC" transform="translate(134.000000, 9.500000) scale(-1, 1) translate(-134.000000, -9.500000) "></path>
                    <polygon id="Path-29" fill="#572A2C" transform="translate(89.000000, 46.500000) scale(-1, 1) translate(-89.000000, -46.500000) " points="59 59 89 29 119 59 114 64 89 39 64 64"></polygon>
                    <rect id="Rectangle" fill="#F0BDA1" transform="translate(181.500000, 72.500000) scale(-1, 1) translate(-181.500000, -72.500000) " x="180" y="71" width="3" height="3" rx="0.7"></rect>
                    <rect id="Rectangle" fill="#FFE8DB" transform="translate(94.500000, 97.500000) scale(-1, 1) translate(-94.500000, -97.500000) " x="93" y="96" width="3" height="3" rx="0.7"></rect>
                    <rect id="Rectangle" fill="#5E9F98" transform="translate(37.500000, 128.500000) scale(-1, 1) translate(-37.500000, -128.500000) " x="36" y="127" width="3" height="3" rx="0.7"></rect>
                    <path d="M31,113 C31.9994605,98.079867 34.8553056,87.3547745 39.5,81 C44.1446944,87.3547745 47.0005395,98.079867 48,113 L31,113 Z" id="Path" fill="#3C968D"></path>
                    <rect id="Rectangle" fill="#51857F" transform="translate(169.500000, 135.500000) scale(-1, 1) translate(-169.500000, -135.500000) " x="168" y="134" width="3" height="3" rx="0.7"></rect>
                    <path d="M116.7,99 L117.3,99 C117.686599,99 118,99.3134007 118,99.7 L118,105 L118,105 L116,105 L116,99.7 C116,99.3134007 116.313401,99 116.7,99 Z" id="Rectangle" fill="#6EC5AB" transform="translate(117.000000, 102.000000) scale(-1, 1) translate(-117.000000, -102.000000) "></path>
                    <path d="M119.7,101 L120.3,101 C120.686599,101 121,101.313401 121,101.7 L121,105 L121,105 L119,105 L119,101.7 C119,101.313401 119.313401,101 119.7,101 Z" id="Rectangle" fill="#6EC5AB" transform="translate(120.000000, 103.000000) scale(-1, 1) translate(-120.000000, -103.000000) "></path>
                    <rect id="Rectangle" fill="#51857F" transform="translate(198.500000, 111.500000) scale(-1, 1) translate(-198.500000, -111.500000) " x="197" y="110" width="3" height="3" rx="0.7"></rect>
                    <path d="M69.7,110 L71.3,110 C71.6865993,110 72,110.313401 72,110.7 L72,112.3 C72,112.686599 71.6865993,113 71.3,113 L69.7,113 C69.3134007,113 69,112.686599 69,112.3 L69,110.7 C69,110.313401 69.3134007,110 69.7,110 Z" id="Rectangle" fill="#51857F" transform="translate(70.500000, 111.500000) scale(-1, 1) translate(-70.500000, -111.500000) "></path>
                    <path d="M64,105 L54,113 L52.7071068,122.050253 C52.2543539,125.219523 50.561157,128.079132 48,130 C45.3629787,131.977766 43.1725988,134.489322 41.5717853,137.370786 L29,160 L29,160 L49.5,156.5 L56.5466251,135.579176 C56.793881,134.845095 57.0694754,134.120865 57.3727884,133.408115 L60.2625508,126.617513 C61.3889639,123.970575 62.1288165,121.175386 62.459385,118.317797 L64,105 L64,105 Z" id="Path-3" fill="#3C968D"></path>
                    <polygon id="Path-3" fill="#3C968D" points="79 132 73 145 88 145"></polygon>
                    <path d="M65.1359861,145 L205.721179,145 C215.160107,145 223.260514,138.277259 225,129 L225,129 L225,129 L239,129 C237.299681,147.136735 222.075946,161 203.859683,161 L122.165525,161 C115.145345,161 109.154111,166.075337 108,173 L108,173 L108,173 L259.238556,173 C267.554205,173 275.329732,177.119694 280,184 L280,184 L280,184 L8,184 L10.2976041,179.283865 C20.5162159,158.30882 41.8041934,145 65.1359861,145 Z" id="Path" fill="#E6FFEC"></path>
                    <path d="M81.5465734,157 L203.289304,157 C218.262827,157 231.47371,147.204248 235.823243,132.876375 L237,129 L237,129 L239,129 C237.299681,147.136735 222.075946,161 203.859683,161 L122.165525,161 C115.145345,161 109.154111,166.075337 108,173 L108,173 L108,173 L280,173 L280,184 L40,184 C47.2972165,167.581263 63.5792616,157 81.5465734,157 Z" id="Path" fill="#D2FADC"></path>
                    <path d="M125.703675,161 L180.773188,161 C185.055005,161 189.135615,159.18265 192,156 C194.81291,152.874545 198.996948,151.354177 203.160146,151.944701 L258.544923,159.800698 C263.786667,160.544208 268.248268,163.995844 270.284504,168.882809 L272,173 L272,173 L107,173 L109.062669,169.905996 C112.771985,164.342023 119.016611,161 125.703675,161 Z" id="Rectangle" fill="#3C968D" transform="translate(189.500000, 162.000000) scale(-1, 1) translate(-189.500000, -162.000000) "></path>
                    <path d="M107,145 L97.004,145 L97,144.8 C97,140.441678 100.447838,137.127098 104.750821,137.003571 L105,137 C106.448548,137 107.807176,137.36093 108.979145,138.002668 C111.277391,134.343372 115.354087,132 120,132 C127.077135,132 132.833428,137.437684 132.99645,144.683822 L133,145 L107,145 Z" id="Combined-Shape" fill="#F1DA81" transform="translate(115.000000, 138.500000) scale(-1, 1) translate(-115.000000, -138.500000) "></path>
                    <path d="M184,98 C187.865993,98 191,100.910149 191,104.76 C191,104.840585 190.998164,104.920925 190.994527,105.000983 L177.005473,105.000983 C177.001836,104.920925 177,104.840585 177,104.76 C177,100.910149 180.134007,98 184,98 Z" id="Combined-Shape" fill="#F1DA81"></path>
                    <path d="M183,105 L183,106 C183,108.761424 180.761424,111 178,111 L176,111 C174.343146,111 173,112.343146 173,114 C173,115.656854 171.656854,117 170,117 L153.905125,117 C151.430692,117 149.084093,115.900912 147.5,114 C145.915907,112.099088 143.569308,111 141.094875,111 L135.485281,111 C130.052247,111 124.841735,108.841735 121,105 L121,105 L121,105 L183,105 Z" id="Path" fill="#BFECD5"></path>
                    <path d="M179,145 C179.940669,131.012375 182.628523,120.957601 187,115 C191.371477,120.957601 194.059331,131.012375 195,145 L179,145 Z" id="Path" fill="#3C968D"></path>
                    <path d="M165.7,167 L166.3,167 C166.686599,167 167,167.313401 167,167.7 L167,173 L167,173 L165,173 L165,167.7 C165,167.313401 165.313401,167 165.7,167 Z" id="Rectangle" fill="#6EC5AB" transform="translate(166.000000, 170.000000) scale(-1, 1) translate(-166.000000, -170.000000) "></path>
                    <path d="M232.7,155 L233.3,155 C233.686599,155 234,155.313401 234,155.7 L234,161 L234,161 L232,161 L232,155.7 C232,155.313401 232.313401,155 232.7,155 Z" id="Rectangle" fill="#3C968D" transform="translate(233.000000, 158.000000) scale(-1, 1) translate(-233.000000, -158.000000) "></path>
                    <path d="M168.7,169 L169.3,169 C169.686599,169 170,169.313401 170,169.7 L170,173 L170,173 L168,173 L168,169.7 C168,169.313401 168.313401,169 168.7,169 Z" id="Rectangle" fill="#6EC5AB" transform="translate(169.000000, 171.000000) scale(-1, 1) translate(-169.000000, -171.000000) "></path>
                    <path d="M235.7,157 L236.3,157 C236.686599,157 237,157.313401 237,157.7 L237,161 L237,161 L235,161 L235,157.7 C235,157.313401 235.313401,157 235.7,157 Z" id="Rectangle" fill="#3C968D" transform="translate(236.000000, 159.000000) scale(-1, 1) translate(-236.000000, -159.000000) "></path>
                    <rect id="Rectangle" fill="#6EC5AB" transform="translate(121.500000, 165.500000) scale(-1, 1) translate(-121.500000, -165.500000) " x="120" y="164" width="3" height="3" rx="0.7"></rect>
                </g>
            </g>
        </g>
    </g>
</svg>