<?xml version="1.0" encoding="UTF-8"?>
<svg width="280px" height="169px" viewBox="0 0 280 169" version="1.1" xmlns="http://www.w3.org/2000/svg" xmlns:xlink="http://www.w3.org/1999/xlink">
    <title>Ilustratii/Excluderi 7 Alunecari</title>
    <g id="Cover" stroke="none" stroke-width="1" fill="none" fill-rule="evenodd">
        <g id="Icons-and-illustrations" transform="translate(-48.000000, -1394.000000)">
            <g id="Group" transform="translate(48.000000, 1333.000000)">
                <g id="Excluderi-7-Alunecari" transform="translate(0.000000, 61.000000)">
                    <path d="M201.135615,34.0816319 L201.5,34.5 C210.076703,44.347326 222.496104,50 235.554805,50 L240.5,50 C254.583261,50 266,61.4167389 266,75.5 L266,78 C266,93.463973 253.463973,106 238,106 L47,106 C31.536027,106 19,93.463973 19,78 C19,62.536027 31.536027,50 47,50 L93.7233306,50 C108.010942,50 121.738063,44.4412514 132,34.5 L133.635196,32.9159043 C142.848365,23.990646 155.172579,19 168,19 C180.706227,19 192.79041,24.5000999 201.135615,34.0816319 Z" id="Path" fill="#BFE2D0"></path>
                    <path d="M189.5,133 C199.164983,133 207,140.318422 207,150 L207,150 L172,150 C172,140.318422 179.835017,133 189.5,133 Z" id="Combined-Shape" fill="#F1DA81" transform="translate(189.500000, 141.500000) rotate(4.000000) translate(-189.500000, -141.500000) "></path>
                    <ellipse id="Combined-Shape" fill="#F1DA81" transform="translate(172.952680, 125.327041) rotate(4.000000) translate(-172.952680, -125.327041) " cx="172.95268" cy="125.327041" rx="17.5" ry="16.3461538"></ellipse>
                    <path d="M216,160 C218.410463,122.699667 225.29809,95.8869362 236.5,80 C247.70191,95.8869362 254.589537,122.699667 257,160 L216,160 Z" id="Path" fill="#2E485D" transform="translate(236.500000, 120.000000) rotate(9.000000) translate(-236.500000, -120.000000) "></path>
                    <path d="M200,155 C201.587378,131.221038 206.123132,114.127922 213.5,104 C220.876868,114.127922 225.412622,131.221038 227,155 L200,155 Z" id="Path" fill="#3C968D" transform="translate(213.500000, 129.500000) rotate(6.000000) translate(-213.500000, -129.500000) "></path>
                    <path d="M41.898825,120.552959 L171.266648,134.647723 C173.40815,134.881042 175.497893,135.458801 177.45511,136.358671 L214.714658,153.489498 C216.887274,154.488402 219.221419,155.089591 221.606261,155.264518 L260.086742,158.087047 C267.992355,158.666921 275.25745,162.648371 280,169 L280,169 L280,169 L0,169 L10.4417489,140.162679 C15.1517528,127.154907 28.1459668,119.05457 41.898825,120.552959 Z" id="Rectangle" fill="#6EC5AB"></path>
                    <path d="M54.25,154.5 L60.3484159,156.188792 C67.0974688,158.057761 74.0241783,159.212605 81.014523,159.634315 L180.759659,165.651689 C184.594104,165.883011 188.385318,166.586897 192.047255,167.74737 L196,169 L196,169 L17,169 L25.4965435,161.312651 C33.2823408,154.268358 44.1312616,151.697888 54.25,154.5 Z" id="Rectangle" fill="#3C968D"></path>
                    <g id="Group" transform="translate(109.000000, 84.500000) rotate(6.000000) translate(-109.000000, -84.500000) translate(37.000000, 38.000000)">
                        <rect id="Rectangle" fill="#F0BDA1" x="0" y="39" width="82" height="52"></rect>
                        <polygon id="Rectangle" fill="#FFE8DB" points="82 39 113 8 144 39 144 91 82 91"></polygon>
                        <polygon id="Rectangle" fill="#F7CBB2" points="82 39 113 8 144 39 144 51 113 20 82 51"></polygon>
                        <path d="M114.995128,49.8604871 C120.517976,49.8604871 124.995128,54.3376396 124.995128,59.8604871 L124.995128,91.8604871 L124.995128,91.8604871 L104.995128,91.8604871 L104.995128,59.8604871 C104.995128,54.3376396 109.472281,49.8604871 114.995128,49.8604871 Z" id="Rectangle" fill="#572A2C" transform="translate(114.995128, 70.860487) rotate(3.000000) translate(-114.995128, -70.860487) "></path>
                        <rect id="Rectangle" fill="#572A2C" x="43" y="54" width="21" height="24"></rect>
                        <rect id="Rectangle" fill="#572A2C" x="16" y="54" width="21" height="24"></rect>
                        <polygon id="Rectangle" fill="#2E485D" points="31 8 113 8 82 39 0 39"></polygon>
                        <polygon id="Rectangle" fill="#A43E43" transform="translate(36.500000, 7.500000) scale(-1, 1) translate(-36.500000, -7.500000) " points="30 0 43 0 43 15 36 8 30 8"></polygon>
                        <polygon id="Rectangle" fill="#572A2C" transform="translate(27.000000, 7.500000) scale(-1, 1) translate(-27.000000, -7.500000) " points="24 0 30 0 30 15 24 15"></polygon>
                        <polygon id="Path-2" fill="#DBAD93" points="70 91 73 83 72 77 75 65 74 77 75 83 74 91"></polygon>
                    </g>
                    <path d="M38,127 L28.004,127 L28,126.8 C28,122.441678 31.4478378,119.127098 35.7508207,119.003571 L36,119 C37.4485481,119 38.8071765,119.36093 39.9791447,120.002668 C42.2773911,116.343372 46.3540872,114 51,114 C58.0771346,114 63.8334283,119.437684 63.9964496,126.683822 L64,127 L38,127 Z" id="Combined-Shape" fill="#F1DA81" transform="translate(46.000000, 120.500000) scale(-1, 1) rotate(-4.000000) translate(-46.000000, -120.500000) "></path>
                    <rect id="Rectangle" fill="#FFEA96" transform="translate(36.000000, 122.000000) rotate(5.000000) translate(-36.000000, -122.000000) " x="34" y="120" width="4" height="4" rx="0.933333333"></rect>
                    <rect id="Rectangle" fill="#BFE2D0" transform="translate(208.000000, 138.000000) rotate(5.000000) translate(-208.000000, -138.000000) " x="206" y="136" width="4" height="4" rx="0.933333333"></rect>
                    <rect id="Rectangle" fill="#3C968D" transform="translate(89.000000, 149.000000) rotate(5.000000) translate(-89.000000, -149.000000) " x="87" y="147" width="4" height="4" rx="0.933333333"></rect>
                    <rect id="Rectangle" fill="#3C968D" transform="translate(172.000000, 144.000000) rotate(5.000000) translate(-172.000000, -144.000000) " x="170" y="142" width="4" height="4" rx="0.933333333"></rect>
                    <g id="Group-30" transform="translate(13.000000, 163.000000)" fill="#3C968D">
                        <path d="M0.7,0 L1.3,0 C1.68659932,-1.82039446e-16 2,0.313400675 2,0.7 L2,6 L2,6 L0,6 L0,0.7 C-1.58367065e-16,0.313400675 0.313400675,2.93061749e-16 0.7,0 Z" id="Rectangle" transform="translate(1.000000, 3.000000) scale(-1, 1) translate(-1.000000, -3.000000) "></path>
                        <path d="M3.7,2 L4.3,2 C4.68659932,2 5,2.31340068 5,2.7 L5,6 L5,6 L3,6 L3,2.7 C3,2.31340068 3.31340068,2 3.7,2 Z" id="Rectangle" transform="translate(4.000000, 4.000000) scale(-1, 1) translate(-4.000000, -4.000000) "></path>
                    </g>
                    <path d="M171,27 C161.560689,8.89349112 152.158785,-0.106193761 142.794288,0.000945345051 C128.747543,0.161654004 126.709366,12.6295354 117.238443,12.6295354 C107.76752,12.6295354 106.208263,8.19708694 95.0152817,8.27484919 C87.5532942,8.32669069 79.214867,14.5684076 70,27 L171,27 Z" id="Path-28" fill="#E3F9EC" transform="translate(120.500000, 13.500000) scale(-1, 1) translate(-120.500000, -13.500000) "></path>
                    <rect id="Rectangle" fill="#6EC5AB" x="37" y="162" width="4" height="4" rx="0.933333333"></rect>
                </g>
            </g>
        </g>
    </g>
</svg>