<?xml version="1.0" encoding="UTF-8"?>
<svg width="280px" height="183px" viewBox="0 0 280 183" version="1.1" xmlns="http://www.w3.org/2000/svg" xmlns:xlink="http://www.w3.org/1999/xlink">
    <title>Ilustratii/Excluderi 9 Zona interzisa</title>
    <g id="Cover" stroke="none" stroke-width="1" fill="none" fill-rule="evenodd">
        <g id="Icons-and-illustrations" transform="translate(-778.000000, -1384.000000)">
            <g id="Group" transform="translate(778.000000, 1337.000000)">
                <g id="Excluderi-9-Zona-interzisa" transform="translate(0.000000, 47.000000)">
                    <path d="M232,155.25 C240.836556,155.25 248,161.816196 248,170.502649 C248,170.752674 247.992067,171.001649 247.976403,171.24937 L216.023597,171.24937 C216.007933,171.001649 216,170.752674 216,170.502649 C216,161.816196 223.163444,155.25 232,155.25 Z" id="Combined-Shape" fill="#D7ECE1"></path>
                    <path d="M232,25.75 C232,38.7286916 242.521308,49.25 255.5,49.25 L256,49.25 C269.254834,49.25 280,59.995166 280,73.25 L280,182.25 L280,182.25 L0,182.25 L0,105.25 C-2.4348735e-15,85.367749 16.117749,69.25 36,69.25 L83.5580198,69.25 C103.752886,69.25 121.309244,55.3925412 126,35.75 C130.690756,16.1074588 148.247114,2.25 168.44198,2.25 L208.5,2.25 C221.478692,2.25 232,12.7713084 232,25.75 Z" id="Path" fill="#BFE2D0"></path>
                    <path d="M20.7614443,171.25 L259.238556,171.25 C267.554205,171.25 275.329732,175.369694 280,182.25 L280,182.25 L280,182.25 L0,182.25 C4.67026836,175.369694 12.4457953,171.25 20.7614443,171.25 Z" id="Rectangle" fill="#008641"></path>
                    <path d="M237,150.25 C248.59798,150.25 258,158.75659 258,170.01 C258,170.425914 257.982833,170.839589 257.949061,171.250455 L216.050939,171.250455 C216.017167,170.839589 216,170.425914 216,170.01 C216,158.75659 225.40202,150.25 237,150.25 Z" id="Combined-Shape" fill="#83C5B1"></path>
                    <path d="M216,171.25 C217.881337,142.342242 223.257046,121.562376 232,109.25 C240.742954,121.562376 246.118663,142.342242 248,171.25 L216,171.25 Z" id="Path" fill="#3C968D"></path>
                    <path d="M239,171.25 C240.293419,149.336055 243.989219,133.583575 250,124.25 C256.010781,133.583575 259.706581,149.336055 261,171.25 L239,171.25 Z" id="Path" fill="#6EC5AB"></path>
                    <polygon id="Rectangle" fill="#E3F9EC" points="47 69.25 170 69.25 170 171.25 47 171.25"></polygon>
                    <polygon id="Rectangle" fill="#FFFFFF" points="170 81.25 201 50.25 232 81.25 232 171.25 170 171.25"></polygon>
                    <path d="M236,161.25 C241.522847,161.25 246,165.279437 246,170.61 C246,170.824909 245.990272,171.038556 245.971165,171.25059 L226.028835,171.25059 C226.009728,171.038556 226,170.824909 226,170.61 C226,165.279437 230.477153,161.25 236,161.25 Z" id="Combined-Shape" fill="#F1DA81"></path>
                    <path d="M218,153.25 C227.941125,153.25 236,160.413444 236,169.89 C236,170.347211 235.974925,170.801207 235.925846,171.250925 L200.074154,171.250925 C200.025075,170.801207 200,170.347211 200,169.89 C200,160.413444 208.058875,153.25 218,153.25 Z" id="Combined-Shape" fill="#F1DA81"></path>
                    <polygon id="Rectangle" fill="#E3F9EC" points="170 69.25 201 38.25 232 69.25 232 81.25 201 50.25 170 81.25"></polygon>
                    <path d="M120,125.25 L120,171.25 L99,171.25 L99,125.25 L120,125.25 Z M155,125.25 L155,159.25 L134,159.25 L134,125.25 L155,125.25 Z M85,125.25 L85,159.25 L64,159.25 L64,125.25 L85,125.25 Z M155,85.25 L155,109.25 L134,109.25 L134,85.25 L155,85.25 Z M85,85.25 L85,109.25 L64,109.25 L64,85.25 L85,85.25 Z M120,85.25 L120,109.25 L99,109.25 L99,85.25 L120,85.25 Z" id="Combined-Shape" fill="#3C968D"></path>
                    <rect id="Rectangle" fill="#83C5B1" x="191" y="85.25" width="20" height="24"></rect>
                    <rect id="Rectangle" fill="#D7ECE1" x="206" y="85.25" width="5" height="24"></rect>
                    <path d="M104,125.25 L104,171.25 L99,171.25 L99,125.25 L104,125.25 Z M139,125.25 L139,159.25 L134,159.25 L134,125.25 L139,125.25 Z M69,125.25 L69,159.25 L64,159.25 L64,125.25 L69,125.25 Z M139,85.25 L139,109.25 L134,109.25 L134,85.25 L139,85.25 Z M69,85.25 L69,109.25 L64,109.25 L64,85.25 L69,85.25 Z M104,85.25 L104,109.25 L99,109.25 L99,85.25 L104,85.25 Z" id="Combined-Shape" fill="#83C5B1"></path>
                    <polygon id="Rectangle" fill="#572A2C" points="78 38.25 201 38.25 170 69.25 47 69.25"></polygon>
                    <path d="M120,167.25 L120,171.25 L97,171.25 L97,167.25 L120,167.25 Z M85,159.25 L85,163.25 L62,163.25 L62,159.25 L85,159.25 Z M155,159.25 L155,163.25 L132,163.25 L132,159.25 L155,159.25 Z M85,109.25 L85,113.25 L62,113.25 L62,109.25 L85,109.25 Z M120,109.25 L120,113.25 L97,113.25 L97,109.25 L120,109.25 Z M155,109.25 L155,113.25 L132,113.25 L132,109.25 L155,109.25 Z M213,109.25 L213,113.25 L191,113.25 L191,109.25 L213,109.25 Z" id="Combined-Shape" fill="#BFECD5"></path>
                    <polygon id="Rectangle" fill="#E3F9EC" points="109 49.25 129 69.25 89 69.25"></polygon>
                    <polygon id="Rectangle" fill="#A43E43" transform="translate(129.000000, 59.250000) scale(-1, -1) translate(-129.000000, -59.250000) " points="129 49.25 149 69.25 109 69.25"></polygon>
                    <polygon id="Rectangle" fill="#A43E43" transform="translate(86.500000, 33.750000) scale(-1, 1) translate(-86.500000, -33.750000) " points="80 22.25 93 22.25 93 45.25 86 38.25 80 38.25"></polygon>
                    <polygon id="Rectangle" fill="#572A2C" transform="translate(75.500000, 33.750000) scale(-1, 1) translate(-75.500000, -33.750000) " points="71 22.25 80 22.25 80 45.25 71 45.25"></polygon>
                    <rect id="Rectangle" fill="#006330" x="175" y="173.25" width="4" height="4" rx="0.933333333"></rect>
                    <path d="M129.933333,174.25 L131.066667,174.25 C131.582132,174.25 132,174.667868 132,175.183333 L132,182.25 L132,182.25 L129,182.25 L129,175.183333 C129,174.667868 129.417868,174.25 129.933333,174.25 Z" id="Rectangle" fill="#006330"></path>
                    <path d="M125.933333,176.25 L127.066667,176.25 C127.582132,176.25 128,176.667868 128,177.183333 L128,182.25 L128,182.25 L125,182.25 L125,177.183333 C125,176.667868 125.417868,176.25 125.933333,176.25 Z" id="Rectangle" fill="#006330"></path>
                    <rect id="Rectangle" fill="#006330" x="96" y="174.25" width="4" height="4" rx="0.933333333"></rect>
                    <rect id="Rectangle" fill="#BFECD5" x="157" y="77.25" width="4" height="4" rx="0.933333333"></rect>
                    <rect id="Rectangle" fill="#E3F9EC" x="207" y="117.25" width="4" height="4" rx="0.933333333"></rect>
                    <rect id="Rectangle" fill="#FFEA96" x="209" y="159.25" width="4" height="4" rx="0.933333333"></rect>
                    <rect id="Rectangle" fill="#006330" x="249" y="174.25" width="4" height="4" rx="0.933333333"></rect>
                    <g id="Group-5" transform="translate(0.000000, 125.250000)">
                        <g id="Group-4" transform="translate(0.000000, 10.000000)">
                            <rect id="Rectangle" fill="#F1DA81" x="0" y="0" width="280" height="12"></rect>
                            <path d="M44,0 L32,12 L20,12 L32,0 L44,0 Z M20,0 L8,12 L0,12 L0,8 L8,0 L20,0 Z M140,0 L128,12 L116,12 L128,0 L140,0 Z M236,0 L224,12 L212,12 L224,0 L236,0 Z M92,0 L80,12 L68,12 L80,0 L92,0 Z M188,0 L176,12 L164,12 L176,0 L188,0 Z M68,0 L56,12 L44,12 L56,0 L68,0 Z M164,0 L152,12 L140,12 L152,0 L164,0 Z M260,0 L248,12 L236,12 L248,0 L260,0 Z M280,0 L280,4 L272,12 L260,12 L272,0 L280,0 Z M116,0 L104,12 L92,12 L104,0 L116,0 Z M212,0 L200,12 L188,12 L200,0 L212,0 Z" id="Combined-Shape" fill="#2E485D"></path>
                        </g>
                        <g id="Group-2" transform="translate(177.000000, 0.000000)">
                            <path d="M4,0 L44,0 C46.209139,-4.05812251e-16 48,1.790861 48,4 L48,28 C48,30.209139 46.209139,32 44,32 L4,32 C1.790861,32 2.705415e-16,30.209139 0,28 L0,4 C-2.705415e-16,1.790861 1.790861,4.05812251e-16 4,0 Z" id="Rectangle" fill="#2E485D"></path>
                            <path d="M4,2 L44,2 C45.1045695,2 46,2.8954305 46,4 L46,28 C46,29.1045695 45.1045695,30 44,30 L4,30 C2.8954305,30 2,29.1045695 2,28 L2,4 C2,2.8954305 2.8954305,2 4,2 Z" id="Rectangle" fill="#FFFFFF"></path>
                            <circle id="Oval" fill="#E1261C" cx="16" cy="16" r="11"></circle>
                            <path d="M22.3953245,12.0800808 C23.0959697,13.220744 23.5,14.5631889 23.5,16 C23.5,20.1421356 20.1421356,23.5 16,23.5 C14.5631889,23.5 13.220744,23.0959697 12.0800808,22.3953245 Z M16,8.5 C17.4368111,8.5 18.779256,8.90403026 19.9199192,9.60467553 L9.60467553,19.9199192 C8.90403026,18.779256 8.5,17.4368111 8.5,16 C8.5,11.8578644 11.8578644,8.5 16,8.5 Z" id="Combined-Shape" fill="#FFFFFF"></path>
                            <path d="M39,18 L39,22 L33,22 L33,18 L39,18 Z M42,10 L42,14 L33,14 L33,10 L42,10 Z" id="Combined-Shape" fill="#2E485D" opacity="0.900000036"></path>
                        </g>
                    </g>
                    <g id="Group" transform="translate(37.000000, 134.250000)"></g>
                    <path d="M45,157.25 C52.7319865,157.25 59,162.846441 59,170.25 C59,170.586102 58.9827325,170.919981 58.9488921,171.250943 L31.0511079,171.250943 C31.0172675,170.919981 31,170.586102 31,170.25 C31,162.846441 37.2680135,157.25 45,157.25 Z" id="Combined-Shape" fill="#F1DA81"></path>
                    <path d="M27,163.25 C31.418278,163.25 35,166.607864 35,171.05 C35,171.116965 34.998912,171.183784 34.9967504,171.250439 L19.004,171.25 L19,171.05 C19,166.691678 22.4478378,163.377098 26.7508207,163.253571 Z" id="Combined-Shape" fill="#F1DA81"></path>
                    <path d="M189.066667,163.25 C189.582132,163.25 190,163.667868 190,164.183333 L190,171.25 L187,171.25 L187,164.183333 C187,163.667868 187.417868,163.25 187.933333,163.25 L189.066667,163.25 Z M185.066667,165.25 C185.582132,165.25 186,165.667868 186,166.183333 L186,171.25 L183,171.25 L183,166.183333 C183,165.667868 183.417868,165.25 183.933333,165.25 L185.066667,165.25 Z" id="Combined-Shape" fill="#008641" transform="translate(186.500000, 167.250000) scale(-1, 1) translate(-186.500000, -167.250000) "></path>
                    <rect id="Rectangle" fill="#FFEA96" x="34" y="165.25" width="4" height="4" rx="0.933333333"></rect>
                    <path d="M90,18 C87.0342247,5.92899408 82.1248101,-0.0707958405 75.2717561,0.000630230034 C64.9921753,0.107769336 63.5006124,8.41969028 56.5696741,8.41969028 C49.6387358,8.41969028 48.4976526,5.46472462 40.3064911,5.51656613 C34.8457168,5.55112713 28.7435531,9.71227175 22,18 L90,18 Z" id="Path-28" fill="#E3F9EC"></path>
                </g>
            </g>
        </g>
    </g>
</svg>