<?xml version="1.0" encoding="UTF-8"?>
<svg width="91px" height="42px" viewBox="0 0 91 42" version="1.1" xmlns="http://www.w3.org/2000/svg" xmlns:xlink="http://www.w3.org/1999/xlink">
    <title>Group</title>
    <g id="Sales" stroke="none" stroke-width="1" fill="none" fill-rule="evenodd">
        <g id="Sales-start" transform="translate(-143.000000, -208.000000)">
            <g id="Group" transform="translate(143.000000, 208.000000)">
                <path d="M19.2,42 L19.22766,41.9659925 C13.2838978,41.500812 8.6,36.3211797 8.6,30 C8.6,23.372583 13.7487254,18 20.1,18 C22.3486542,18 24.4465691,18.6734521 26.2186142,19.8376113 C26.2060812,19.5597102 26.2,19.2805653 26.2,19 C26.2,8.50658975 34.7065898,0 45.2,0 C54.7324256,0 62.6252729,7.01986947 63.9909768,16.1720434 C65.6728223,15.4187526 67.5375087,15 69.5,15 C76.4517476,15 82.1762449,20.2544832 82.9185439,27.0085016 C86.6365924,27.1859397 89.6,30.4721801 89.6,34.5 C89.6,38.066776 87.2761775,41.0520257 84.1621999,41.8125339 L84.2,42 L19.2,42 Z" id="Combined-Shape-Copy" fill="#D9EEFF" transform="translate(49.500000, 21.000000) scale(-1, 1) translate(-49.500000, -21.000000) "></path>
                <path d="M7,32 L7.04612971,31.8761487 C3.0443557,31.1864381 0,27.6987428 0,23.5 C0,19.2778201 3.07843737,15.7746478 7.1132318,15.1125634 C7.03830351,14.5866746 7,14.0478104 7,13.5 C7,7.14872538 12.1487254,2 18.5,2 C23.6108864,2 27.9430667,5.33403684 29.44026,9.9458295 C31.6156265,8.10786012 34.4284359,7 37.5,7 C44.4035594,7 50,12.5964406 50,19.5 C50,25.5473863 45.7056129,30.5917647 40.000024,31.7499498 L40,32 L7,32 Z" id="Combined-Shape" fill="#EBF6FF" transform="translate(25.000000, 17.000000) scale(-1, 1) translate(-25.000000, -17.000000) "></path>
            </g>
        </g>
    </g>
</svg>