<?xml version="1.0" encoding="UTF-8"?>
<svg width="200px" height="59px" viewBox="0 0 200 59" version="1.1" xmlns="http://www.w3.org/2000/svg" xmlns:xlink="http://www.w3.org/1999/xlink">
    <title>Logo</title>
    <g id="Create-User-profile" stroke="none" stroke-width="1" fill="none" fill-rule="evenodd">
        <g id="Intro" transform="translate(-88.000000, -136.000000)">
            <g id="Logo" transform="translate(88.000000, 136.000000)">
                <path d="M15.2053601,0 C23.5775544,0 30.4040201,6.83517588 30.4040201,15.19866 C30.4040201,23.5775544 23.5775544,30.4040201 15.2053601,30.4040201 C6.8358459,30.4040201 0,23.5775544 0,15.19866 C0,6.83517588 6.8358459,0 15.2053601,0 Z M133.732328,0.112562814 L144.40737,30.3276382 L135.522948,30.3276382 L133.939698,25.3956449 L125.243886,25.3956449 L127.41809,18.6696817 L131.564489,18.6696817 L128.307538,10.9849246 L121.255946,30.3366834 L112.511223,30.3276382 L124.059631,0.112562814 L133.732328,0.112562814 Z M70.7329983,0.173869347 L78.7407035,0.201340034 L87.2378559,14.6264657 L87.2378559,0.201340034 L96.0160804,0.201340034 L96.0160804,30.3276382 L87.3326633,30.3276382 L79.0448911,16.3072027 L79.0448911,30.3276382 L70.7329983,30.3276382 L70.7329983,0.173869347 Z M100.960134,0.173869347 L111.41809,0.201340034 L111.41809,30.3276382 L100.960134,30.3276382 L100.960134,0.173869347 Z M176.923618,0.201340034 L176.923618,30.3276382 L166.449916,30.3276382 L166.449916,0.231490787 L176.923618,0.201340034 Z M161.761139,0.222110553 L161.761139,7.81876047 L157.130318,7.81876047 C155.857956,7.97721943 155.565829,9.09380235 156.219765,9.96214405 L162.41943,16.0696817 C167.104858,20.6911223 161.676047,30.239866 155.690787,30.278727 L145.238526,30.278727 L145.238526,21.7695142 L153.163149,21.7695142 C154.539698,21.7567839 155.056951,19.601675 154.001005,18.6328308 L147.372529,12.5504188 C144.090787,8.5001675 145.941709,0.24958124 153.40067,0.24958124 L161.761139,0.222110553 Z M193.066667,0.201340034 L198.357789,0.213065327 L198.357789,7.97721943 L193.556784,7.97721943 C187.446231,7.95845896 183.823116,19.9966499 192.323283,21.6864322 L192.323283,15.6619765 L199.923283,15.6619765 L199.923283,30.2788549 C186.656951,30.3001675 179.344389,27.6358459 179.112898,14.720268 C178.970184,6.99061977 185.092462,0.252261307 193.066667,0.201340034 Z M44.6649916,0.273701843 L49.6978224,9.52998325 L54.7306533,0.273701843 L64.3115578,0.273701843 L67.719263,30.1571189 L57.9879397,30.1571189 L56.1855946,13.7554439 L49.6978224,24.4757119 L43.1969849,13.7554439 L41.4103853,30.1571189 L31.6703518,30.1571189 L35.0837521,0.273701843 L44.6649916,0.273701843 Z M15.2053601,8.24489112 C11.3752094,8.24489112 8.24522613,11.3685092 8.24522613,15.19866 C8.24522613,19.041541 11.3752094,22.1648241 15.2053601,22.1648241 C19.0355109,22.1648241 22.1654941,19.041541 22.1654941,15.19866 C22.1654941,11.3685092 19.0355109,8.24489112 15.2053601,8.24489112 Z" id="Combined-Shape" fill="#007B40"></path>
                <polyline id="Fill-3" fill="#D8232A" points="0.0067001675 40.5480737 199.709883 40.5480737 199.709883 37.5068677 0.0067001675 37.5038526 0.0067001675 40.5480737"></polyline>
                <path d="M182.775544,47.9229481 L182.775544,54.9370184 C182.775544,56.3654941 183.683082,57.2515913 185.077722,57.2515913 C186.472362,57.2515913 187.400335,56.3654941 187.400335,54.9370184 L187.400335,47.9229481 L189.089782,47.9229481 L189.089782,55.0134003 C189.089782,57.2174204 187.351424,58.7125628 185.077722,58.7125628 C182.80603,58.7125628 181.082412,57.2174204 181.082412,55.0134003 L181.082412,47.9229481 L182.775544,47.9229481 Z M87.6887772,47.9229481 L87.6887772,54.9370184 C87.6887772,56.3654941 88.5932998,57.2515913 89.9906198,57.2515913 C91.3879397,57.2515913 92.3072027,56.3654941 92.3072027,54.9370184 L92.3072027,47.9229481 L94.0036851,47.9229481 L94.0036851,55.0134003 C94.0036851,57.2174204 92.2619765,58.7125628 89.9906198,58.7125628 C87.7162479,58.7125628 85.9929648,57.2174204 85.9929648,55.0134003 L85.9929648,47.9229481 L87.6887772,47.9229481 Z M174.689112,47.8308208 C175.876382,47.8308208 176.862982,48.238861 177.630486,48.9701843 C178.62942,49.9273945 178.69476,50.9956283 178.698385,52.7286183 L178.698385,53.809237 C178.69476,55.5417085 178.62942,56.6097762 177.630486,57.5651591 C176.862982,58.2984925 175.876382,58.7125628 174.689112,58.7125628 C173.495142,58.7125628 172.524288,58.2984925 171.753769,57.5651591 C170.75453,56.6097762 170.681385,55.5417085 170.676344,53.809237 L170.676344,52.7286183 C170.681385,50.9956283 170.75453,49.9273945 171.753769,48.9701843 C172.524288,48.238861 173.495142,47.8308208 174.689112,47.8308208 Z M79.9892797,47.8308208 C81.4629816,47.8308208 82.4974874,48.1909548 83.4536013,49.0492462 L82.3721943,50.0693467 C81.681742,49.438526 80.8837521,49.240871 79.9430486,49.240871 C78.6251256,49.240871 77.9035176,49.9628141 77.9035176,50.9122278 C77.9035176,51.3025126 78.0278057,51.6455611 78.3269682,51.9048576 C78.6067002,52.1423786 79.0633166,52.3249581 79.5805695,52.398325 L80.8536013,52.5748744 C81.8884422,52.7273032 82.4639866,52.9705193 82.9363484,53.3721943 C83.5447236,53.8840871 83.8428811,54.6515913 83.8428811,55.5705193 C83.8428811,57.5370184 82.1628141,58.7125628 79.8308208,58.7125628 C78.1497487,58.7125628 76.9443886,58.3319933 75.8844221,57.2934673 L77.0107203,56.2288107 C77.8271357,57.0140704 78.7162479,57.2515913 79.8609715,57.2515913 C81.3222781,57.2515913 82.1628141,56.6482412 82.1628141,55.6137353 C82.1628141,55.1470687 82.0288107,54.7547739 81.7306533,54.5018425 C81.4442211,54.2435511 81.1644891,54.1396985 80.5065327,54.0512563 L79.1912898,53.8720268 C78.278057,53.7497487 77.559464,53.4515913 77.0723618,53.0134003 C76.5239531,52.519598 76.2559464,51.8442211 76.2559464,50.9735343 C76.2559464,49.1102178 77.6686767,47.8308208 79.9892797,47.8308208 Z M154.274707,47.8308208 C155.794305,47.8308208 156.643216,48.281742 157.645561,49.240871 L156.500503,50.3403685 C155.794305,49.6643216 155.279062,49.2897822 154.274707,49.2897822 C153.61675,49.2897822 153.00469,49.5453936 152.61541,49.9470687 C152.090494,50.4954216 151.968014,51.0696189 151.958718,53.0082931 L151.958124,53.2690117 C151.958124,55.4180905 152.067672,56.0331658 152.61541,56.6060302 C153.00469,57.0140704 153.61675,57.2515913 154.274707,57.2515913 C155.01474,57.2515913 155.623451,56.9835846 156.062312,56.4994975 C156.470017,56.0636516 156.61005,55.4670017 156.61005,54.7969849 L156.61005,54.2154104 L154.274707,54.2154104 L154.274707,52.8365159 L158.302848,52.8365159 L158.302848,54.441206 C158.302848,55.8261307 158.053266,56.721273 157.316583,57.4763819 C156.530988,58.2713568 155.499162,58.7125628 154.274707,58.7125628 C153.114908,58.7125628 152.112898,58.2984925 151.342379,57.5651591 C150.346795,56.6097762 150.270946,55.5417085 150.265384,53.809237 L150.265384,52.7286183 C150.270946,50.9956283 150.346795,49.9273945 151.342379,48.9701843 C152.112898,48.238861 153.084757,47.8308208 154.274707,47.8308208 Z M131.921273,47.8308208 C133.318928,47.8308208 134.207705,48.3122278 135.041541,49.0914573 L133.912228,50.1879397 C133.333333,49.6338358 132.849581,49.2897822 131.921273,49.2897822 C131.263317,49.2897822 130.669682,49.5306533 130.274037,49.9323283 C129.729313,50.5075377 129.619765,51.119598 129.619765,53.2690117 C129.619765,55.4180905 129.729313,56.0331658 130.274037,56.6060302 C130.669682,57.0140704 131.263317,57.2515913 131.921273,57.2515913 C132.849581,57.2515913 133.333333,56.9041876 133.912228,56.3500838 L135.041541,57.4462312 C134.207705,58.2254606 133.318928,58.7125628 131.921273,58.7125628 C130.760804,58.7125628 129.759464,58.2984925 128.988945,57.5651591 C127.989706,56.6097762 127.916561,55.5417085 127.91152,53.809237 L127.91152,52.7286183 C127.916561,50.9956283 127.989706,49.9273945 128.988945,48.9701843 C129.759464,48.238861 130.760804,47.8308208 131.921273,47.8308208 Z M101.121273,47.9229481 C103.237521,47.9229481 104.583585,49.2254606 104.583585,51.0462312 C104.583585,52.5748744 103.61206,53.5551089 102.360134,53.8840871 L104.927303,58.6157454 L102.951089,58.6157454 L100.60402,54.1125628 L98.4820771,54.1125628 L98.4820771,58.6157454 L96.7953099,58.6157454 L96.7953099,47.9229481 L101.121273,47.9229481 Z M196.113903,47.9229481 C198.294472,47.9229481 199.688777,49.3048576 199.688777,51.161809 C199.688777,53.0311558 198.294472,54.4137353 196.113903,54.4137353 L193.578224,54.4137353 L193.578224,58.6157454 L191.885427,58.6157454 L191.885427,47.9229481 L196.113903,47.9229481 Z M62.5396985,47.9229481 L62.5396985,58.6157454 L60.8469012,58.6157454 L60.8469012,47.9229481 L62.5396985,47.9229481 Z M165.092462,47.9229481 C167.21139,47.9229481 168.557119,49.2254606 168.557119,51.0462312 C168.557119,52.5748744 167.586265,53.5551089 166.331658,53.8840871 L168.901173,58.6157454 L166.928308,58.6157454 L164.574539,54.1125628 L162.462312,54.1125628 L162.462312,58.6157454 L160.768844,58.6157454 L160.768844,47.9229481 L165.092462,47.9229481 Z M118.503518,47.9229481 L123.660637,55.4338358 L123.660637,47.9229481 L125.354104,47.9229481 L125.354104,58.6157454 L123.80134,58.6157454 L118.643216,51.0921273 L118.643216,58.6157454 L116.950419,58.6157454 L116.950419,47.9229481 L118.503518,47.9229481 Z M37.3825796,47.9229481 L42.5396985,55.4338358 L42.5396985,47.9229481 L44.2324958,47.9229481 L44.2324958,58.6157454 L42.679732,58.6157454 L37.5226131,51.0921273 L37.5226131,58.6157454 L35.8298157,58.6157454 L35.8298157,47.9229481 L37.3825796,47.9229481 Z M26.0164154,47.9229481 L31.1715243,55.4338358 L31.1715243,47.9229481 L32.8670017,47.9229481 L32.8670017,58.6157454 L31.3142379,58.6157454 L26.1571189,51.0921273 L26.1571189,58.6157454 L24.4606365,58.6157454 L24.4606365,47.9229481 L26.0164154,47.9229481 Z M51.320938,47.9229481 L55.4063652,58.6157454 L53.6040201,58.6157454 L52.8365159,56.4686767 L48.4345059,56.4686767 L47.6666667,58.6157454 L45.8646566,58.6157454 L49.9537688,47.9229481 L51.320938,47.9229481 Z M1.79329983,47.9229481 L4.36951424,55.7045226 L6.94237856,47.9229481 L8.72596315,47.9229481 L5.0241206,58.6157454 L3.7118928,58.6157454 L0.042881072,47.9229481 L1.79329983,47.9229481 Z M111.226466,47.9229481 L115.321608,58.6157454 L113.522613,58.6157454 L112.748744,56.4686767 L108.346734,56.4686767 L107.579229,58.6157454 L105.773869,58.6157454 L109.869012,47.9229481 L111.226466,47.9229481 Z M144.492462,47.9229481 L144.492462,49.3782245 L139.054941,49.3782245 L139.054941,52.5015075 L143.694472,52.5015075 L143.694472,53.9443886 L139.054941,53.9443886 L139.054941,57.159799 L144.492462,57.159799 L144.492462,58.6157454 L137.362144,58.6157454 L137.362144,47.9229481 L144.492462,47.9229481 Z M22.0981575,47.9229481 L22.0981575,49.3782245 L16.6603015,49.3782245 L16.6603015,52.5015075 L21.2941374,52.5015075 L21.2941374,53.9443886 L16.6603015,53.9443886 L16.6603015,57.159799 L22.0981575,57.159799 L22.0981575,58.6157454 L14.961809,58.6157454 L14.961809,47.9229481 L22.0981575,47.9229481 Z M67.0552764,47.9229481 L72.2127303,55.4338358 L72.2127303,47.9229481 L73.9051926,47.9229481 L73.9051926,58.6157454 L72.3530988,58.6157454 L67.1953099,51.0921273 L67.1953099,58.6157454 L65.5055276,58.6157454 L65.5055276,47.9229481 L67.0552764,47.9229481 Z M12.001675,47.9229481 L12.001675,58.6157454 L10.3092127,58.6157454 L10.3092127,47.9229481 L12.001675,47.9229481 Z M174.689112,49.2897822 C174.025126,49.2897822 173.41608,49.5453936 173.023786,49.9470687 C172.478392,50.519263 172.365829,51.119598 172.365829,53.2690117 C172.365829,55.4180905 172.478392,56.0154104 173.023786,56.5906198 C173.41608,56.9953099 174.025126,57.2515913 174.689112,57.2515913 C175.343384,57.2515913 175.955444,56.9953099 176.348409,56.5906198 C176.896482,56.0154104 177.00603,55.4180905 177.00603,53.2690117 C177.00603,51.119598 176.896482,50.519263 176.348409,49.9470687 C175.955444,49.5453936 175.343384,49.2897822 174.689112,49.2897822 Z M110.587605,50.3403685 L108.845561,55.0837521 L112.280402,55.0837521 L110.587605,50.3403685 Z M50.6753769,50.3403685 L48.9340034,55.0837521 L52.3681742,55.0837521 L50.6753769,50.3403685 Z M196.019765,49.3782245 L193.578224,49.3782245 L193.578224,52.9430486 L196.019765,52.9430486 C197.19799,52.9430486 197.998995,52.2948074 197.998995,51.161809 C197.998995,50.038191 197.19799,49.3782245 196.019765,49.3782245 Z M164.967504,49.3782245 L162.462312,49.3782245 L162.462312,52.7273032 L164.967504,52.7273032 C166.096817,52.7273032 166.864322,52.1122278 166.864322,51.0616415 C166.864322,50.0077052 166.096817,49.3782245 164.967504,49.3782245 Z M100.99397,49.3782245 L98.4820771,49.3782245 L98.4820771,52.7273032 L100.99397,52.7273032 C102.116918,52.7273032 102.890117,52.1122278 102.890117,51.0616415 C102.890117,50.0077052 102.116918,49.3782245 100.99397,49.3782245 Z" id="Combined-Shape" fill="#1A1919"></path>
            </g>
        </g>
    </g>
</svg>