<?xml version="1.0" encoding="UTF-8"?>
<svg width="40px" height="40px" viewBox="0 0 40 40" version="1.1" xmlns="http://www.w3.org/2000/svg" xmlns:xlink="http://www.w3.org/1999/xlink">
    <title>Angry</title>
    <g id="Homepage" stroke="none" stroke-width="1" fill="none" fill-rule="evenodd">
        <g id="Sugestii" transform="translate(-303.000000, -320.000000)" fill="currentColor">
            <g id="Icon/Car" transform="translate(303.000000, 320.000000)">
                <path d="M20,0 C31.045695,0 40,8.954305 40,20 C40,31.045695 31.045695,40 20,40 C8.954305,40 0,31.045695 0,20 C0,8.954305 8.954305,0 20,0 Z M20,4 C11.163444,4 4,11.163444 4,20 C4,28.836556 11.163444,36 20,36 C28.836556,36 36,28.836556 36,20 C36,11.163444 28.836556,4 20,4 Z M25,26 C25.5522847,26 26,26.4477153 26,27 C26,27.5522847 25.5522847,28 25,28 L15,28 C14.4477153,28 14,27.5522847 14,27 C14,26.4477153 14.4477153,26 15,26 L25,26 Z M12.2555296,15.0161992 L12.4850713,15.059715 L16.4850713,16.059715 C17.5566611,16.3276125 18.2081825,17.4134814 17.940285,18.4850713 C17.6915231,19.4801189 16.7374694,20.1129648 15.7444704,19.9838008 L15.5149287,19.940285 L11.5149287,18.940285 C10.4433389,18.6723875 9.79181755,17.5865186 10.059715,16.5149287 C10.3084769,15.5198811 11.2625306,14.8870352 12.2555296,15.0161992 Z M27.7444704,15.0161992 C28.7374694,14.8870352 29.6915231,15.5198811 29.940285,16.5149287 C30.2081825,17.5865186 29.5566611,18.6723875 28.4850713,18.940285 L28.4850713,18.940285 L24.4850713,19.940285 L24.2555296,19.9838008 C23.2625306,20.1129648 22.3084769,19.4801189 22.059715,18.4850713 C21.7918175,17.4134814 22.4433389,16.3276125 23.5149287,16.059715 L23.5149287,16.059715 L27.5149287,15.059715 Z" id="ðŸŽ-Culoare"></path>
            </g>
        </g>
    </g>
</svg>