<?xml version="1.0" encoding="UTF-8"?>
<svg width="32px" height="32px" viewBox="0 0 32 32" version="1.1" xmlns="http://www.w3.org/2000/svg" xmlns:xlink="http://www.w3.org/1999/xlink">
    <title>83C93978-9DF3-4716-A90A-88C8F229530C</title>
    <g id="Cover" stroke="none" stroke-width="1" fill="none" fill-rule="evenodd">
        <g id="Icons-and-illustrations" transform="translate(-48.000000, -382.000000)" fill="#FFFFFF">
            <g id="Annulment" transform="translate(48.000000, 382.000000)">
                <path d="M16.0001948,0.25 C18.9964708,2.76991732 22.8633673,4.2879045 27.0848087,4.2879045 C28.7922553,4.2879045 30.4416998,4.03956785 32,3.5765676 C30.762806,17.2117119 26.4548702,28.6995407 16.0003038,31.7634198 C4.91519126,28.6995407 1.32524476,17.2117119 -7.10542736e-14,3.5765676 C1.55830025,4.03956785 3.20774469,4.2879045 4.91519126,4.2879045 C9.07850843,4.2879045 12.8969768,2.8114313 15.8755459,0.353517618 L16.0001948,0.25 Z M16.4123539,3.78114765 C15.4401964,3.78114765 15.2334155,4.78058876 15.2334155,5.52442567 L15.2334155,13.9507481 L14.8514452,13.9507481 L14.8514452,6.32282977 C14.8514452,5.57899286 14.725079,4.78489669 13.7500496,4.78489669 C12.7750201,4.78489669 12.5711111,5.7843378 12.5711111,6.52673873 L12.5711111,13.9507481 L12.1891408,13.9507481 L12.1891408,8.92769495 C12.1891408,8.18529401 12.0599028,7.38976187 11.0863093,7.38976187 C10.1127158,7.38976187 9.90737085,8.38920297 9.90737085,9.13303989 L9.90737085,21.7653436 C9.90737085,23.4626703 10.7660861,24.6387368 11.9191769,25.562071 C13.0722677,26.4839693 14.7049753,26.9463544 16.3750185,26.4581217 C18.0450616,25.9713249 19.0961979,24.9460362 19.7883396,23.7426861 C20.4790453,22.5379001 22.8886174,18.3333548 23.2734596,17.5651062 C23.6568659,16.7968577 24.2987484,15.9424504 24.0934034,15.3694949 C23.8880585,14.7965395 23.4271093,14.3872856 22.914465,14.6184781 C22.4018206,14.8482347 22.0686736,15.0535796 21.6077245,15.7457213 C21.1453394,16.437863 20.1774898,18.1280098 20.1774898,18.1280098 L20.1774898,7.38401795 C20.1774898,6.64018104 20.0511237,5.84608488 19.0760942,5.84608488 C18.1025007,5.84608488 17.8971558,6.84552598 17.8971558,7.58936289 L17.8971558,13.9507481 L17.5151855,13.9507481 L17.5151855,5.31908073 C17.5151855,4.57524382 17.3873834,3.78114765 16.4123539,3.78114765 Z" id="ðŸŽ-Culoare"></path>
            </g>
        </g>
    </g>
</svg>