<?xml version="1.0" encoding="UTF-8"?>
<svg width="20px" height="20px" viewBox="0 0 20 20" version="1.1" xmlns="http://www.w3.org/2000/svg" xmlns:xlink="http://www.w3.org/1999/xlink">
    <title>3B1B354B-7B7F-4CB9-ABCC-997F422179C1@2x</title>
    <g id="Cover" stroke="none" stroke-width="1" fill="none" fill-rule="evenodd">
        <g id="Icons-and-illustrations" transform="translate(-156.000000, -150.000000)" fill="#008641">
            <g id="Asigurari-selected" transform="translate(156.000000, 150.000000)">
                <path d="M10,0 L18,2 L18,12 C18,13.2590292 17.4072234,14.4445825 16.4,15.2 L10,20 L3.6,15.2 C2.59277663,14.4445825 2,13.2590292 2,12 L2,2 L10,0 Z M13.2028903,5.44187845 L13.12,5.54006474 L9.381,10.5260647 L7.27781746,8.42224728 L7.18187456,8.33677028 C6.75010514,7.99486227 6.12107521,8.02335461 5.72218254,8.42224728 C5.32328987,8.82113995 5.29479754,9.45016988 5.63670554,9.8819393 L5.72218254,9.9778822 L8.72218254,12.9778822 L8.82077254,13.0655118 C9.26410417,13.4148032 9.90531491,13.3692337 10.2947936,12.9607564 L10.38,12.8600647 L14.88,6.86006474 L14.9510495,6.75299784 C15.2284598,6.27721483 15.1112955,5.65853639 14.66,5.32006474 C14.2087045,4.98159308 13.5819672,5.04234538 13.2028903,5.44187845 Z" id="ðŸŽ-Culoare"></path>
            </g>
        </g>
    </g>
</svg>