<?xml version="1.0" encoding="UTF-8"?>
<svg width="20px" height="20px" viewBox="0 0 20 20" version="1.1" xmlns="http://www.w3.org/2000/svg" xmlns:xlink="http://www.w3.org/1999/xlink">
    <title>86D197BC-25B9-48DE-837C-3A1BF62BF5D8@2x</title>
    <g id="Cover" stroke="none" stroke-width="1" fill="none" fill-rule="evenodd">
        <g id="Icons-and-illustrations" transform="translate(-732.000000, -194.000000)" fill="currentColor">
            <g id="Delete" transform="translate(732.000000, 194.000000)">
                <path d="M17,6 C17.5522847,6 18,6.44771525 18,7 C18,7.51283584 17.6139598,7.93550716 17.1166211,7.99327227 L17,8 L16.455,8 L15.9989685,18.0454077 C15.9764263,18.541336 15.5953731,18.9393469 15.1129987,18.9936754 L15,19 L5,19 C4.50355958,19 4.08865645,18.6374125 4.01248054,18.1580026 L4.00103146,18.0454077 L3.544,8 L3,8 C2.44771525,8 2,7.55228475 2,7 C2,6.48716416 2.38604019,6.06449284 2.88337887,6.00672773 L3,6 L17,6 Z M5.955,17 L14.044,17 L14.453,8 L12.939,8 L12.4980526,15.0623783 C12.463602,15.6135875 11.9888309,16.0325032 11.4376217,15.9980526 C10.9257846,15.9660628 10.5280169,15.5544088 10.5013874,15.0544354 L10.5019474,14.9376217 L10.935,8 L9.064,8 L9.49805258,14.9376217 C9.53250315,15.4888309 9.1135875,15.963602 8.56237829,15.9980526 C8.05054115,16.0300424 7.60461243,15.6711195 7.51593668,15.1783526 L7.50194742,15.0623783 L7.06,8 L5.546,8 L5.955,17 Z M11.5,0.5 C11.9369576,0.5 12.3182332,0.782719582 12.4507518,1.18987516 L12.4805807,1.30388386 L12.819,3 L17,3 C17.5522847,3 18,3.44771525 18,4 C18,4.51283584 17.6139598,4.93550716 17.1166211,4.99327227 L17,5 L3,5 C2.44771525,5 2,4.55228475 2,4 C2,3.48716416 2.38604019,3.06449284 2.88337887,3.00672773 L3,3 L7.18,3 L7.51941932,1.30388386 C7.60511376,0.875411685 7.95711741,0.556986087 8.38235535,0.506890656 L8.5,0.5 L11.5,0.5 Z M10.68,2.5 L9.319,2.5 L9.218,3 L10.779,3 L10.68,2.5 Z" id="ðŸŽ-Culoare"></path>
            </g>
        </g>
    </g>
</svg>