<?xml version="1.0" encoding="UTF-8"?>
<svg width="20px" height="21px" viewBox="0 0 20 21" version="1.1" xmlns="http://www.w3.org/2000/svg" xmlns:xlink="http://www.w3.org/1999/xlink">
    <title>DBA96E11-B7FE-429D-9280-2046A08226F8@2x</title>
      <linearGradient id="lg" gradientTransform="rotate(135)">
    <stop id="color1" offset="0" style="stop-color:var(--ion-color-base);"/>
    <stop id="color2" offset="1" style="stop-color:var(--ion-color-shade);" />
  </linearGradient>
    <g id="Cover" stroke="none" stroke-width="1" fill="none" fill-rule="evenodd">
        <g id="Icons-and-illustrations" transform="translate(-372.000000, -150.000000)" fill="url(#lg)">
            <g id="CallCenter" transform="translate(372.000000, 150.000000)">
                <path d="M10,-5.1159077e-13 C13.5121201,-5.1159077e-13 16.5594234,2.42416823 17.349157,5.84634717 L17.5,6.5 C17.5384522,6.66662617 17.5734821,6.83359109 17.6051141,7.00080093 L18,7 C19.1045695,7 20,7.8954305 20,9 L20,11 C20,12.1045695 19.1045695,13 18,13 L17.307165,13.0005683 C16.7737184,14.8140655 15.8385831,16.5126854 14.5374486,17.9583904 L14.4597649,18.0447057 C12.2430108,20.5077658 8.44927174,20.7074363 5.98621161,18.4906822 C5.88196177,18.3968573 5.78104985,18.2994204 5.68365861,18.1985542 L5.46255136,17.9583904 C4.16141686,16.5126854 3.22628158,14.8140655 2.69283499,13.0005683 L2,13 C0.945638205,13 0.0818348781,12.1841222 0.00548573643,11.1492623 L0,11 L0,9 C0,7.9456382 0.815877791,7.08183488 1.85073766,7.00548574 L2,7 L2.3948859,7.00080093 L2.44488536,6.75018159 L2.44488536,6.75018159 L2.65084296,5.84634717 C3.44057656,2.42416823 6.48787986,-5.1159077e-13 10,-5.1159077e-13 Z M12,5 C10.7892697,7.42146063 8.20428822,8.46867011 4.24505561,8.14162843 C3.90166619,11.0933911 4.79086812,14.0735799 6.72515582,16.3635871 L7.02682342,16.7067762 C7.12064827,16.8110261 7.21989123,16.910269 7.32414107,17.0040939 C8.91144649,18.4326688 11.3277156,18.3559006 12.8219604,16.8659467 L12.9731766,16.7067762 L13.0508603,16.6204609 C13.6715596,15.9307951 14.1935714,15.1729337 14.6114564,14.3679145 C13.8805914,14.6635725 12.9860043,14.855256 11.9341015,14.9434871 C11.7448881,15.5549095 11.1744223,16 10.5,16 C9.67157288,16 9,15.3284271 9,14.5 C9,13.6715729 9.67157288,13 10.5,13 C11.1327234,13 11.673948,13.391753 11.8943502,13.9459354 C13.5009149,13.8119932 14.6154086,13.4282583 15.2737683,12.8003673 C15.7634754,11.3311372 15.9357261,9.7612298 15.7633278,8.19774352 C14.3020006,8.16239835 13.0480287,7.09605735 12,5 Z" id="ðŸŽ-Culoare"></path>
            </g>
        </g>
    </g>
</svg>