<?xml version="1.0" encoding="UTF-8"?>
<svg width="20px" height="20px" viewBox="0 0 20 20" version="1.1" xmlns="http://www.w3.org/2000/svg" xmlns:xlink="http://www.w3.org/1999/xlink">
    <title>C7279A64-CFF8-4FA7-A7C5-2FFE0DCF44ED@2x</title>
          <linearGradient id="lg" gradientTransform="rotate(135)">
    <stop id="color1" offset="0" style="stop-color:var(--ion-color-base);"/>
    <stop id="color2" offset="1" style="stop-color:var(--ion-color-shade);" />
  </linearGradient>
    <g id="Cover" stroke="none" stroke-width="1" fill="none" fill-rule="evenodd">
        <g id="Icons-and-illustrations" transform="translate(-228.000000, -194.000000)" fill="url(#lg)">
            <g id="Car" transform="translate(228.000000, 194.000000)">
                <path d="M13.6595371,2 C14.9953977,2 16.1622468,2.88172735 16.5364256,4.14922887 L16.5824782,4.32441457 L17.432,8 L19.3596118,8 C19.3800522,8 19.4004541,8.00125342 19.4207034,8.00374622 L19.4808796,8.01492875 C19.7190107,8.07446152 19.8741653,8.29556891 19.8586659,8.53212186 L19.844683,8.62126781 L19.6893661,9.24253563 C19.5873487,9.65060538 19.2427503,9.94702773 18.8325808,9.99359764 L18.7192236,10 L18.5372578,10.0006021 C19.3893549,10.2374579 20,11.017622 20,11.9273046 L20,18 C20,18.5522847 19.5522847,19 19,19 L17,19 C16.4477153,19 16,18.5522847 16,18 L16,17 L4,17 L4,18 C4,18.5522847 3.55228475,19 3,19 L1,19 C0.44771525,19 0,18.5522847 0,18 L0,11.9273046 C0,11.017622 0.610645072,10.2374579 1.46274215,10.0006021 L1.28077641,10 C0.821908765,10 0.421925657,9.68770263 0.310633906,9.24253563 L0.155316953,8.62126781 C0.0883425896,8.35337036 0.251222937,8.08190311 0.519120391,8.01492875 C0.558780693,8.00501367 0.5995073,8 0.640388203,8 L2.567,8 L3.41752181,4.32441457 C3.71835112,3.02286737 4.8401989,2.08455101 6.15940621,2.00541868 L6.34046285,2 L13.6595371,2 Z M12.881966,13 L7.11803399,13 C7.01076227,13 6.90496374,13.0249756 6.80901699,13.072949 C6.49871632,13.2280994 6.35616698,13.5852245 6.46103681,13.9053209 L6.5,14 L6.7236068,14.4472136 C6.87417748,14.748355 7.16449816,14.9509034 7.4931787,14.9921964 L7.61803399,15 L12.381966,15 C12.7186523,15 13.0296525,14.8309117 13.2135764,14.5553977 L13.2763932,14.4472136 L13.5,14 C13.5479734,13.9040533 13.572949,13.7982547 13.572949,13.690983 C13.572949,13.3411652 13.3129976,13.0520624 12.9757283,13.0063079 L12.881966,13 Z M16.5,11 C15.6715729,11 15,11.6715729 15,12.5 C15,13.3284271 15.6715729,14 16.5,14 C17.3284271,14 18,13.3284271 18,12.5 C18,11.6715729 17.3284271,11 16.5,11 Z M3.5,11 C2.67157288,11 2,11.6715729 2,12.5 C2,13.3284271 2.67157288,14 3.5,14 C4.32842712,14 5,13.3284271 5,12.5 C5,11.6715729 4.32842712,11 3.5,11 Z M13.6595371,4 L6.34046285,4 C5.91372962,4 5.53873658,4.26992695 5.39845193,4.66427877 L5.36614917,4.77480486 L4.237,9.658 L5,9.57142857 C8.32251949,9.19171206 11.6774805,9.19171206 15,9.57142857 L15.762,9.658 L14.6338508,4.77480486 C14.5377526,4.35903284 14.1903124,4.05445822 13.7744987,4.00658309 L13.6595371,4 Z" id="ðŸŽ-Culoare"></path>
            </g>
        </g>
    </g>
</svg>