<?xml version="1.0" encoding="UTF-8"?>
<svg width="32px" height="32px" viewBox="0 0 32 32" version="1.1" xmlns="http://www.w3.org/2000/svg" xmlns:xlink="http://www.w3.org/1999/xlink">
    <title>6CC44544-2C73-4D2A-BF35-F4C8055650BD</title>
    <g id="Cover" stroke="none" stroke-width="1" fill="none" fill-rule="evenodd">
        <g id="Icons-and-illustrations" transform="translate(-104.000000, -382.000000)" fill="#FFFFFF">
            <g id="Coins" transform="translate(104.000000, 382.000000)">
                <path d="M20.664812,9.65145153 C26.8364048,9.65145153 31.8374672,14.654133 31.8374672,20.8257258 C31.8374672,26.9973185 26.8364048,32 20.664812,32 C14.4948382,32 9.49215675,26.9973185 9.49215675,20.8257258 C9.49215675,14.654133 14.4948382,9.65145153 20.664812,9.65145153 Z M21.011276,13.0578081 C19.3518105,13.0578081 17.9335746,13.5143635 16.7549493,14.4258553 C15.576324,15.3357281 14.7684476,16.5969219 14.3280822,18.2061987 L14.3280822,18.2061987 L12.4840517,18.2061987 L12.4840517,20.1101318 L14.002665,20.1101318 C13.9880941,20.2687929 13.9799991,20.5067846 13.9799991,20.8192498 C13.9799991,21.13981 13.9880941,21.3810396 14.002665,21.5413197 L14.002665,21.5413197 L12.4840517,21.5413197 L12.4840517,23.4452528 L14.3280822,23.4452528 C14.7684476,25.0512917 15.576324,26.3092475 16.7549493,27.2239773 C17.9335746,28.1354691 19.3518105,28.5920244 21.011276,28.5920244 C22.9152092,28.5920244 24.521248,27.8958584 25.8326305,26.5019074 L25.8326305,26.5019074 L24.2427816,24.4004574 C23.3296708,25.4592773 22.244947,25.9870683 20.9902291,25.9870683 C20.1807338,25.9870683 19.4667588,25.7652666 18.8466854,25.3249011 C18.2249929,24.8829166 17.7441527,24.2563672 17.4025456,23.4452528 L17.4025456,23.4452528 L22.8310216,23.4452528 L22.8310216,21.5413197 L16.9395143,21.5413197 C16.9200864,21.311423 16.9103724,21.0701934 16.9103724,20.8192498 C16.9103724,20.5893531 16.9200864,20.3529805 16.9395143,20.1101318 L16.9395143,20.1101318 L22.8310216,20.1101318 L22.8310216,18.2061987 L17.3928317,18.2061987 C17.7279628,17.4064173 18.205565,16.7814868 18.8240195,16.3346454 C19.445712,15.8861849 20.1645438,15.6627642 20.9788962,15.6627642 C22.241709,15.6627642 23.3215758,16.1937932 24.2201157,17.2558511 L24.2201157,17.2558511 L25.8747243,15.1106884 C24.5633417,13.7426412 22.941113,13.0578081 21.011276,13.0578081 Z M7.42826733,-9.20152843e-13 C11.4611733,-9.20152843e-13 14.7315347,3.26874235 14.7315347,7.30164833 C14.7315347,8.19371224 14.5485887,9.03558744 14.2555514,9.82565493 C12.4406627,10.8877129 10.9139544,12.3836603 9.81304072,14.1726451 C9.061829,14.4333026 8.26852353,14.6049157 7.42826733,14.6049157 C3.39536134,14.6049157 0.125,11.3345543 0.125,7.30164833 C0.125,3.26874235 3.39536134,-9.20152843e-13 7.42826733,-9.20152843e-13 Z M7.65492603,2.2261123 C6.57020222,2.2261123 5.64413951,2.52238761 4.8734999,3.11817621 C4.1028603,3.71396481 3.57506931,4.5380311 3.28850795,5.58875611 L3.28850795,5.58875611 L2.08235983,5.58875611 L2.08235983,6.83376 L3.07480117,6.83376 C3.06508722,6.93737541 3.06023025,7.09441752 3.06023025,7.29841035 C3.06023025,7.50726016 3.06508722,7.66430227 3.07480117,7.76953667 L3.07480117,7.76953667 L2.08235983,7.76953667 L2.08235983,9.01454056 L3.28850795,9.01454056 C3.57506931,10.0636466 4.1028603,10.8860939 4.8734999,11.4835015 C5.64413951,12.0792901 6.57020222,12.3788034 7.65492603,12.3788034 C8.89831094,12.3788034 9.94903594,11.922248 10.8054821,11.0107562 L10.8054821,11.0107562 L9.76608999,9.637852 C9.16868239,10.33078 8.46118343,10.6740061 7.64197411,10.6740061 C7.11256413,10.6740061 6.64629479,10.5315349 6.23992811,10.2417356 C5.83518042,9.9535552 5.51947722,9.54395054 5.29767548,9.01454056 L5.29767548,9.01454056 L8.84326525,9.01454056 L8.84326525,7.76953667 L4.99492421,7.76953667 C4.98035329,7.62058952 4.97387733,7.46192842 4.97387733,7.29841035 C4.97387733,7.14784421 4.98035329,6.99404009 4.99492421,6.83376 L4.99492421,6.83376 L8.84326525,6.83376 L8.84326525,5.58875611 L5.28958053,5.58875611 C5.50976327,5.06744108 5.8206095,4.65783642 6.22697618,4.36641808 C6.63172387,4.07338076 7.10123119,3.92767159 7.63387915,3.92767159 C8.45956444,3.92767159 9.16382542,4.27413561 9.75313806,4.96868265 L9.75313806,4.96868265 L10.8346239,3.56663665 C9.97655878,2.67295375 8.91611984,2.2261123 7.65492603,2.2261123 Z" id="ðŸŽ-Culoare"></path>
            </g>
        </g>
    </g>
</svg>