<?xml version="1.0" encoding="UTF-8"?>
<svg width="20px" height="20px" viewBox="0 0 20 20" version="1.1" xmlns="http://www.w3.org/2000/svg" xmlns:xlink="http://www.w3.org/1999/xlink">
    <title>1D67C291-067E-48FA-BB8F-6978F49CD0B0@2x</title>
      <linearGradient id="lg" gradientTransform="rotate(135)">
    <stop id="color1" offset="0" style="stop-color:var(--ion-color-base);"/>
    <stop id="color2" offset="1" style="stop-color:var(--ion-color-shade);" />
  </linearGradient>
    <g id="Cover" stroke="none" stroke-width="1" fill="none" fill-rule="evenodd">
        <g id="Icons-and-illustrations" transform="translate(-408.000000, -150.000000)" fill="url(#lg)">
            <g id="Chat" transform="translate(408.000000, 150.000000)">
                <path d="M19,6 C19.5522847,6 20,6.44771525 20,7 L20,7 L20,14 C20,14.5522847 19.5522847,15 19,15 L19,15 L16,15 L16,19 L12,15 L9,15 C8.44771525,15 8,14.5522847 8,14 L8,14 L8,7 C8,6.44771525 8.44771525,6 9,6 L9,6 Z M11,1 C11.5522847,1 12,1.44771525 12,2 L12,4 C12,4.55228475 11.5522847,5 11,5 L9,5 C7.8954305,5 7,5.8954305 7,7 L7,11 L4,14 L4,10 L1,10 C0.44771525,10 0,9.55228475 0,9 L0,2 C0,1.44771525 0.44771525,1 1,1 L11,1 Z" id="ðŸŽ-Culoare"></path>
            </g>
        </g>
    </g>
</svg>