<?xml version="1.0" encoding="UTF-8"?>
<svg width="20px" height="20px" viewBox="0 0 20 20" version="1.1" xmlns="http://www.w3.org/2000/svg" xmlns:xlink="http://www.w3.org/1999/xlink">
    <title>D734639B-A469-40FB-AFFA-D8347EF0895F@2x</title>
    <g id="Cover" stroke="none" stroke-width="1" fill="none" fill-rule="evenodd">
        <g id="Icons-and-illustrations" transform="translate(-48.000000, -194.000000)" fill="currentColor">
            <g id="Cod" transform="translate(48.000000, 194.000000)">
                <path d="M12,17.5 C12,18.3284271 11.3284271,19 10.5,19 L9.5,19 C8.67157288,19 8,18.3284271 8,17.5 C8,16.6715729 8.67157288,16 9.5,16 L10.5,16 C11.3284271,16 12,16.6715729 12,17.5 Z M6,12.5 C6,13.3284271 5.32842712,14 4.5,14 L3.5,14 C2.67157288,14 2,13.3284271 2,12.5 C2,11.6715729 2.67157288,11 3.5,11 L4.5,11 C5.32842712,11 6,11.6715729 6,12.5 Z M12,12.5 C12,13.3284271 11.3284271,14 10.5,14 L9.5,14 C8.67157288,14 8,13.3284271 8,12.5 C8,11.6715729 8.67157288,11 9.5,11 L10.5,11 C11.3284271,11 12,11.6715729 12,12.5 Z M18,12.5 C18,13.3284271 17.3284271,14 16.5,14 L15.5,14 C14.6715729,14 14,13.3284271 14,12.5 C14,11.6715729 14.6715729,11 15.5,11 L16.5,11 C17.3284271,11 18,11.6715729 18,12.5 Z M6,7.5 C6,8.32842712 5.32842712,9 4.5,9 L3.5,9 C2.67157288,9 2,8.32842712 2,7.5 C2,6.67157288 2.67157288,6 3.5,6 L4.5,6 C5.32842712,6 6,6.67157288 6,7.5 Z M12,7.5 C12,8.32842712 11.3284271,9 10.5,9 L9.5,9 C8.67157288,9 8,8.32842712 8,7.5 C8,6.67157288 8.67157288,6 9.5,6 L10.5,6 C11.3284271,6 12,6.67157288 12,7.5 Z M18,7.5 C18,8.32842712 17.3284271,9 16.5,9 L15.5,9 C14.6715729,9 14,8.32842712 14,7.5 C14,6.67157288 14.6715729,6 15.5,6 L16.5,6 C17.3284271,6 18,6.67157288 18,7.5 Z M6,2.5 C6,3.32842712 5.32842712,4 4.5,4 L3.5,4 C2.67157288,4 2,3.32842712 2,2.5 C2,1.67157288 2.67157288,1 3.5,1 L4.5,1 C5.32842712,1 6,1.67157288 6,2.5 Z M12,2.5 C12,3.32842712 11.3284271,4 10.5,4 L9.5,4 C8.67157288,4 8,3.32842712 8,2.5 C8,1.67157288 8.67157288,1 9.5,1 L10.5,1 C11.3284271,1 12,1.67157288 12,2.5 Z M18,2.5 C18,3.32842712 17.3284271,4 16.5,4 L15.5,4 C14.6715729,4 14,3.32842712 14,2.5 C14,1.67157288 14.6715729,1 15.5,1 L16.5,1 C17.3284271,1 18,1.67157288 18,2.5 Z" id="ðŸŽ-Culoare"></path>
            </g>
        </g>
    </g>
</svg>