<?xml version="1.0" encoding="UTF-8"?>
<svg width="20px" height="20px" viewBox="0 0 20 20" version="1.1" xmlns="http://www.w3.org/2000/svg" xmlns:xlink="http://www.w3.org/1999/xlink">
    <title>145441F1-E9A7-4646-B536-E24B4FAF6944@2x</title>
    <g id="Cover" stroke="none" stroke-width="1" fill="none" fill-rule="evenodd">
        <g id="Icons-and-illustrations" transform="translate(-264.000000, -150.000000)">
            <g id="Dosar-selected" transform="translate(264.000000, 150.000000)">
                <polygon id="Rectangle" fill="#FFFFFF" points="1 3 7 3 10 6 19 6 19 18 1 18"></polygon>
                <path d="M6.69722436,2 C7.09207433,2 7.47808972,2.11687605 7.80662475,2.33589941 L7.80662475,2.33589941 L10.3027756,4 L18,4 C19.1045695,4 20,4.8954305 20,6 L20,6 L20,17 C20,18.1045695 19.1045695,19 18,19 L18,19 L2,19 C0.8954305,19 0,18.1045695 0,17 L0,17 L0,4 C0,2.8954305 0.8954305,2 2,2 L2,2 Z M17,6 L3,6 L3.00672773,6.11662113 C3.06449284,6.61395981 3.48716416,7 4,7 L4,7 L18,7 L17.9932723,6.88337887 C17.9355072,6.38604019 17.5128358,6 17,6 L17,6 Z" id="ðŸŽ-Culoare" fill="currentColor"></path>
            </g>
        </g>
    </g>
</svg>