<?xml version="1.0" encoding="UTF-8"?>
<svg width="20px" height="20px" viewBox="0 0 20 20" version="1.1" xmlns="http://www.w3.org/2000/svg" xmlns:xlink="http://www.w3.org/1999/xlink">
    <title>3509ACD1-77D5-487F-BF9E-E06C2D56B936@2x</title>
      <linearGradient id="lg" gradientTransform="rotate(135)" gradientUnits="userSpaceOnUse">
    <stop id="color1" offset="0" style="stop-color:var(--ion-color-base);"/>
    <stop id="color2" offset="1" style="stop-color:var(--ion-color-shade);" />
  </linearGradient>
    <g id="Cover" stroke="none" stroke-width="1" fill="none" fill-rule="evenodd">
        <g id="Icons-and-illustrations" transform="translate(-228.000000, -150.000000)" fill="url(#lg)">
            <g id="Dosar-default" transform="translate(228.000000, 150.000000)">
                <path d="M6.69722436,2 L2,2 C0.8954305,2 0,2.8954305 0,4 L0,17 C0,18.1045695 0.8954305,19 2,19 L18,19 C19.1045695,19 20,18.1045695 20,17 L20,6 C20,4.8954305 19.1045695,4 18,4 L10.3027756,4 L7.80662475,2.33589941 C7.47808972,2.11687605 7.09207433,2 6.69722436,2 Z M2,4 L6.69722436,4 L9.19337525,5.66410059 C9.52191028,5.88312395 9.90792567,6 10.3027756,6 L18,6 L18,17 L2,17 L2,4 Z M18,8 L18,6 L4.93333333,6 C4.41786757,6 4,6.44771525 4,7 L4,8 L18,8 Z" id="ðŸŽ-Culoare"></path>
            </g>
        </g>
    </g>
</svg>