<?xml version="1.0" encoding="UTF-8"?>
<svg width="20px" height="20px" viewBox="0 0 20 20" version="1.1" xmlns="http://www.w3.org/2000/svg" xmlns:xlink="http://www.w3.org/1999/xlink">
    <title>14E4C67E-49E8-4CCB-8DE7-189DECCBDFFC@2x</title>
    <g id="Cover" stroke="none" stroke-width="1" fill="none" fill-rule="evenodd">
        <g id="Icons-and-illustrations" transform="translate(-552.000000, -150.000000)" fill="#747C78">
            <g id="Email" transform="translate(552.000000, 150.000000)">
                <path d="M18,3 C19.1045695,3 20,3.8954305 20,5 L20,5 L20,15 C20,16.1045695 19.1045695,17 18,17 L18,17 L2,17 C0.8954305,17 0,16.1045695 0,15 L0,15 L0,5 C0,3.8954305 0.8954305,3 2,3 L2,3 Z M18,7.699 L10.4856429,11.8741573 C10.2213732,12.0209738 9.90717077,12.0393259 9.63041787,11.9292135 L9.51435707,11.8741573 L2,7.7 L2,15 L18,15 L18,7.699 Z M18,5 L2,5 L2,5.411 L10,9.855 L18,5.411 L18,5 Z" id="ðŸŽ-Culoare"></path>
            </g>
        </g>
    </g>
</svg>