<?xml version="1.0" encoding="UTF-8"?>
<svg width="32px" height="32px" viewBox="0 0 32 32" version="1.1" xmlns="http://www.w3.org/2000/svg" xmlns:xlink="http://www.w3.org/1999/xlink">
    <title>A2AD6398-8F00-42BC-8171-F2C86FA4197A</title>
    <g id="Cover" stroke="none" stroke-width="1" fill="none" fill-rule="evenodd">
        <g id="Icons-and-illustrations" transform="translate(-160.000000, -382.000000)" fill="#FFFFFF">
            <g id="Exclusion" transform="translate(160.000000, 382.000000)">
                <path d="M16.1354532,2 L32,30 L0,30 L16.1354532,2 Z M19.7501154,13.25 C19.2813626,13.25 18.1716092,14.2917664 17.4763568,14.9795857 L17.3511121,15.1040633 C16.6731053,15.7833373 15.4514259,17.0949952 15.4514259,17.0949952 C15.4514259,17.0949952 14.3666151,14.4716794 14.139768,14.0179852 C13.9129209,13.5655583 13.2298449,13.4350261 12.601263,13.7924054 C11.9245235,14.176398 11.5608078,15.0166194 11.8776333,15.8289602 C12.1944589,16.6425683 13.4161384,19.5827097 13.4161384,19.5827097 C13.4161384,19.5827097 10.0679256,24.513783 9.70674447,25.0118329 C9.344296,25.5098827 9.0730933,26.0066652 9.38991889,26.4590921 C9.70674447,26.911519 9.75110005,27.2283446 10.2491499,27.4095688 C10.7459324,27.5907931 11.5608078,27.4095688 12.1501033,26.5490706 C12.7368643,25.6898396 15.0002663,22.3872497 15.0002663,22.3872497 C15.0002663,22.3872497 16.4462582,24.7406302 17.1698878,25.5542382 C17.8947848,26.3691136 17.9847632,26.8215406 18.8452615,26.7302948 C19.7032252,26.6403163 20.066941,25.9623096 20.1569194,25.5542382 C20.2468979,25.1474342 18.7540157,22.9309224 18.2559659,22.0260686 C17.7579161,21.1212147 16.8999524,19.7183111 16.8999524,19.7183111 L16.9302273,19.687215 C17.1872098,19.4230037 19.0092866,17.5445255 19.6588696,16.7325468 C20.201275,16.05454 20.9705275,15.1940418 20.9249046,14.5616579 C20.880549,13.9280067 20.2468979,13.25 19.7501154,13.25 Z" id="ðŸŽ-Culoare"></path>
            </g>
        </g>
    </g>
</svg>