<?xml version="1.0" encoding="UTF-8"?>
<svg width="20px" height="20px" viewBox="0 0 20 20" version="1.1" xmlns="http://www.w3.org/2000/svg" xmlns:xlink="http://www.w3.org/1999/xlink">
    <title>Face ID@2x</title>
    <g id="Cover" stroke="none" stroke-width="1" fill="none" fill-rule="evenodd">
        <g id="Icons-and-illustrations" transform="translate(-696.000000, -238.000000)" fill="currentColor">
            <g id="Checkbox-indecisive" transform="translate(696.000000, 238.000000)">
                <path d="M1,14 C1.55228475,14 2,14.4477153 2,15 L2,15 L2,17 L2.00672773,17.1166211 C2.06449284,17.6139598 2.48716416,18 3,18 L3,18 L5,18 L5.11662113,18.0067277 C5.61395981,18.0644928 6,18.4871642 6,19 C6,19.5522847 5.55228475,20 5,20 L5,20 L3,20 L2.82372721,19.9949073 C1.24891996,19.9036609 0,18.5976809 0,17 L0,17 L0,15 L0.00672773133,14.8833789 C0.0644928393,14.3860402 0.487164161,14 1,14 Z M19,14 C19.5128358,14 19.9355072,14.3860402 19.9932723,14.8833789 L20,15 L20,17 C20,18.5976809 18.75108,19.9036609 17.1762728,19.9949073 L17,20 L15,20 C14.4477153,20 14,19.5522847 14,19 C14,18.4871642 14.3860402,18.0644928 14.8833789,18.0067277 L15,18 L17,18 C17.5128358,18 17.9355072,17.6139598 17.9932723,17.1166211 L18,17 L18,15 C18,14.4477153 18.4477153,14 19,14 Z M13.3330017,13.3923263 C13.6875415,13.8157882 13.6316692,14.4464832 13.2082073,14.801023 C12.3152974,15.5486043 11.188439,15.9658745 10,15.9658745 C8.81145813,15.9658745 7.68450926,15.5485319 6.79156592,14.8008332 C6.36812495,14.4462684 6.31228978,13.8155701 6.66685457,13.3921291 C7.02141936,12.9686882 7.65211765,12.912853 8.07555862,13.2674178 C8.61180122,13.7164361 9.28535893,13.9658745 10,13.9658745 C10.7145794,13.9658745 11.3880828,13.7164795 11.924305,13.267532 C12.3477668,12.9129922 12.9784618,12.9688645 13.3330017,13.3923263 Z M10.5,6 C11.0128358,6 11.4355072,6.38604019 11.4932723,6.88337887 L11.5,7 L11.5,10 C11.5,11.0543618 10.6841222,11.9181651 9.64926234,11.9945143 L9.5,12 L9,12 C8.44771525,12 8,11.5522847 8,11 C8,10.4871642 8.38604019,10.0644928 8.88337887,10.0067277 L9,10 L9.5,10 L9.5,7 C9.5,6.44771525 9.94771525,6 10.5,6 Z M14,6 C14.5128358,6 14.9355072,6.38604019 14.9932723,6.88337887 L15,7 L15,8 C15,8.55228475 14.5522847,9 14,9 C13.4871642,9 13.0644928,8.61395981 13.0067277,8.11662113 L13,8 L13,7 C13,6.44771525 13.4477153,6 14,6 Z M6,6 C6.51283584,6 6.93550716,6.38604019 6.99327227,6.88337887 L7,7 L7,8 C7,8.55228475 6.55228475,9 6,9 C5.48716416,9 5.06449284,8.61395981 5.00672773,8.11662113 L5,8 L5,7 C5,6.44771525 5.44771525,6 6,6 Z M5,0 C5.55228475,0 6,0.44771525 6,1 C6,1.51283584 5.61395981,1.93550716 5.11662113,1.99327227 L5,2 L3,2 C2.48716416,2 2.06449284,2.38604019 2.00672773,2.88337887 L2,3 L2,5 C2,5.55228475 1.55228475,6 1,6 C0.487164161,6 0.0644928393,5.61395981 0.00672773133,5.11662113 L0,5 L0,3 C0,1.40231912 1.24891996,0.0963391206 2.82372721,0.00509269341 L3,0 L5,0 Z M17,0 L17.1762728,0.00509269341 C18.75108,0.0963391206 20,1.40231912 20,3 L20,3 L20,5 L19.9932723,5.11662113 C19.9355072,5.61395981 19.5128358,6 19,6 C18.4477153,6 18,5.55228475 18,5 L18,5 L18,3 L17.9932723,2.88337887 C17.9355072,2.38604019 17.5128358,2 17,2 L17,2 L15,2 L14.8833789,1.99327227 C14.3860402,1.93550716 14,1.51283584 14,1 C14,0.44771525 14.4477153,0 15,0 L15,0 L17,0 Z" id="ðŸŽ-Culoare"></path>
            </g>
        </g>
    </g>
</svg>