<?xml version="1.0" encoding="UTF-8"?>
<svg width="210px" height="112px" viewBox="0 0 210 112" version="1.1" xmlns="http://www.w3.org/2000/svg" xmlns:xlink="http://www.w3.org/1999/xlink">
    <title>99D8FDF0-CD13-46F8-908B-B03C80600977@2x</title>
    <g id="Cover" stroke="none" stroke-width="1" fill="none" fill-rule="evenodd">
        <g id="Icons-and-illustrations" transform="translate(-750.000000, -602.000000)">
            <g id="UI/Misc/Ilustratii/Casa-1" transform="translate(750.000000, 602.000000)">
                <g id="Group" transform="translate(70.000000, 16.000000)">
                    <path d="M56.9897893,29.4098053 L63.1763478,53.0261333 L63.488,53.0261333 L69.6745585,29.4098053 C70.1216167,27.7032231 71.6637066,26.5130667 73.4278732,26.5130667 L53.2364746,26.5130667 C55.0006412,26.5130667 56.5427312,27.7032231 56.9897893,29.4098053 Z M21.504,53.0261333 L27.6905585,29.4098053 C28.1376167,27.7032231 29.6797066,26.5130667 31.4438732,26.5130667 L41.984,26.5130667 L48.1705585,2.89673865 C48.6176167,1.19015644 50.1597066,1.28754672e-13 51.9238732,1.29318778e-13 L73.7164746,1.29318778e-13 C75.4806412,1.29438795e-13 77.0227312,1.19015644 77.4697893,2.89673865 L83.6563478,26.5130667 L95.2204746,26.5130667 C96.9846412,26.5130667 98.5267312,27.7032231 98.9737893,29.4098053 L105.160348,53.0261333 L115.700475,53.0261333 C117.464641,53.0261333 119.006731,54.2162898 119.453789,55.922872 L125.640348,79.5392 L83.968,79.5392 L90.1545585,55.922872 C90.6016167,54.2162898 92.1437066,53.0261333 93.9078732,53.0261333 L73.7164746,53.0261333 C75.4806412,53.0261333 77.0227312,54.2162898 77.4697893,55.922872 L83.6563478,79.5392 L41.984,79.5392 L48.1705585,55.922872 C48.6176167,54.2162898 50.1597066,53.0261333 51.9238732,53.0261333 L31.7324746,53.0261333 C33.4966412,53.0261333 35.0387312,54.2162898 35.4857893,55.922872 L41.6723478,79.5392 L1.8000416e-13,79.5392 L6.18655855,55.922872 C6.63361665,54.2162898 8.17570662,53.0261333 9.93987322,53.0261333 L21.504,53.0261333 Z" id="Combined-Shape" fill="#FFD740"></path>
                    <path d="M119.367578,56.5805165 C119.627331,56.9207415 119.816942,57.3091571 119.925414,57.7232323 L125.640348,79.5392 L84.3505267,79.5392 C84.2790985,79.5392 84.2211946,79.4812961 84.2211946,79.409868 C84.2211946,79.3695495 84.2399976,79.3315374 84.2720439,79.3070709 L114.835584,55.9726574 C116.254915,54.8890373 118.283958,55.161185 119.367578,56.5805165 Z M77.3835782,56.5805165 C77.6433306,56.9207415 77.832942,57.3091571 77.9414136,57.7232323 L83.6563478,79.5392 L42.3665267,79.5392 C42.2950985,79.5392 42.2371946,79.4812961 42.2371946,79.409868 C42.2371946,79.3695495 42.2559976,79.3315374 42.2880439,79.3070709 L72.8515836,55.9726574 C74.270915,54.8890373 76.2999581,55.161185 77.3835782,56.5805165 Z M35.3995782,56.5805165 C35.6593306,56.9207415 35.848942,57.3091571 35.9574136,57.7232323 L41.6723478,79.5392 L0.382526658,79.5392 C0.311098549,79.5392 0.253194626,79.4812961 0.253194626,79.409868 C0.253194626,79.3695495 0.27199756,79.3315374 0.304043947,79.3070709 L30.8675836,55.9726574 C32.286915,54.8890373 34.3159581,55.161185 35.3995782,56.5805165 Z M98.8875782,30.0674498 C99.1473306,30.4076748 99.336942,30.7960905 99.4454136,31.2101656 L105.160348,53.0261333 L63.8705267,53.0261333 C63.7990985,53.0261333 63.7411946,52.9682294 63.7411946,52.8968013 C63.7411946,52.8564828 63.7599976,52.8184708 63.7920439,52.7940042 L94.3555836,29.4595907 C95.774915,28.3759706 97.8039581,28.6481184 98.8875782,30.0674498 Z M56.9035782,30.0674498 C57.1633306,30.4076748 57.352942,30.7960905 57.4614136,31.2101656 L63.1763478,53.0261333 L21.8865267,53.0261333 C21.8150985,53.0261333 21.7571946,52.9682294 21.7571946,52.8968013 C21.7571946,52.8564828 21.7759976,52.8184708 21.8080439,52.7940042 L52.3715836,29.4595907 C53.790915,28.3759706 55.8199581,28.6481184 56.9035782,30.0674498 Z M77.3835782,3.55438313 C77.6433306,3.89460815 77.832942,4.28302378 77.9414136,4.69709897 L83.6563478,26.5130667 L42.3665267,26.5130667 C42.2950985,26.5130667 42.2371946,26.4551627 42.2371946,26.3837346 C42.2371946,26.3434161 42.2559976,26.3054041 42.2880439,26.2809376 L72.8515836,2.94652403 C74.270915,1.86290392 76.2999581,2.13505171 77.3835782,3.55438313 Z" id="Combined-Shape" fill="#FFC106"></path>
                    <path d="M102.778435,55.612774 L95.868338,57.4763401 C94.9303522,57.7293031 94.1558231,58.3906213 93.7589868,59.2773729 L89.1770435,69.5159675 L92.0378436,58.0625431 C92.3974423,56.622863 93.6908604,55.612774 95.1747708,55.612774 L102.778435,55.612774 Z M60.7944348,55.612774 L53.884338,57.4763401 C52.9463522,57.7293031 52.1718231,58.3906213 51.7749868,59.2773729 L47.1930435,69.5159675 L50.0538436,58.0625431 C50.4134423,56.622863 51.7068604,55.612774 53.1907708,55.612774 L60.7944348,55.612774 Z M18.8104348,55.612774 L11.900338,57.4763401 C10.9623522,57.7293031 10.1878231,58.3906213 9.79098682,59.2773729 L5.20904348,69.5159675 L8.06984357,58.0625431 C8.42944229,56.622863 9.72286043,55.612774 11.2067708,55.612774 L18.8104348,55.612774 Z M118.784,26.5130667 L118.784,28.5525333 C118.784,32.4948155 121.979851,35.6906667 125.922133,35.6906667 L128,35.6906667 L128,36.7104 L125.922133,36.7104 C121.979851,36.7104 118.784,39.9062512 118.784,43.8485333 L118.784,45.888 L117.76,45.888 L117.76,43.8485333 C117.76,39.9062512 114.564149,36.7104 110.621867,36.7104 L108.544,36.7104 L108.544,35.6906667 L110.621867,35.6906667 C114.564149,35.6906667 117.76,32.4948155 117.76,28.5525333 L117.76,26.5130667 L118.784,26.5130667 Z M82.2984348,29.0997073 L75.388338,30.9632734 C74.4503522,31.2162364 73.6758231,31.8775546 73.2789868,32.7643063 L68.6970435,43.0029008 L71.5578436,31.5494764 C71.9174423,30.1097964 73.2108604,29.0997073 74.6947708,29.0997073 L82.2984348,29.0997073 Z M40.3144348,29.0997073 L33.404338,30.9632734 C32.4663522,31.2162364 31.6918231,31.8775546 31.2949868,32.7643063 L26.7130435,43.0029008 L29.5738436,31.5494764 C29.9334423,30.1097964 31.2268604,29.0997073 32.7107708,29.0997073 L40.3144348,29.0997073 Z M109.568,21.4144 L109.568,22.4341333 C109.568,24.686866 111.394201,26.5130667 113.646933,26.5130667 L114.688,26.5130667 L114.688,27.5328 L113.646933,27.5328 C111.394201,27.5328 109.568,29.3590007 109.568,31.6117333 L109.568,32.6314667 L108.544,32.6314667 L108.544,31.6117333 C108.544,29.3590007 106.717799,27.5328 104.465067,27.5328 L103.424,27.5328 L103.424,26.5130667 L104.465067,26.5130667 C106.717799,26.5130667 108.544,24.686866 108.544,22.4341333 L108.544,21.4144 L109.568,21.4144 Z M18.432,15.296 L18.432,16.3157333 C18.432,18.568466 20.2582007,20.3946667 22.5109333,20.3946667 L23.552,20.3946667 L23.552,21.4144 L22.5109333,21.4144 C20.2582007,21.4144 18.432,23.2406007 18.432,25.4933333 L18.432,26.5130667 L17.408,26.5130667 L17.408,25.4933333 C17.408,23.2406007 15.5817993,21.4144 13.3290667,21.4144 L12.288,21.4144 L12.288,20.3946667 L13.3290667,20.3946667 C15.5817993,20.3946667 17.408,18.568466 17.408,16.3157333 L17.408,15.296 L18.432,15.296 Z M27.648,8.11629282e-12 L27.648,2.03946667 C27.648,5.98174885 30.8438512,9.1776 34.7861333,9.1776 L36.864,9.1776 L36.864,10.1973333 L34.7861333,10.1973333 C30.8438512,10.1973333 27.648,13.3931845 27.648,17.3354667 L27.648,19.3749333 L26.624,19.3749333 L26.624,17.3354667 C26.624,13.3931845 23.4281488,10.1973333 19.4858667,10.1973333 L17.408,10.1973333 L17.408,9.1776 L19.4858667,9.1776 C23.4281488,9.1776 26.624,5.98174885 26.624,2.03946667 L26.624,8.11629282e-12 L27.648,8.11629282e-12 Z M60.7944348,2.58664065 L53.884338,4.45020678 C52.9463522,4.70316973 52.1718231,5.36448793 51.7749868,6.2512396 L47.1930435,16.4898341 L50.0538436,5.03640972 C50.4134423,3.59672969 51.7068604,2.58664065 53.1907708,2.58664065 L60.7944348,2.58664065 Z" id="Combined-Shape" fill="#FFE68A"></path>
                </g>
            </g>
        </g>
    </g>
</svg>