<?xml version="1.0" encoding="UTF-8"?>
<svg width="32px" height="32px" viewBox="0 0 32 32" version="1.1" xmlns="http://www.w3.org/2000/svg" xmlns:xlink="http://www.w3.org/1999/xlink">
    <title>DF1908BD-2D15-4F94-876D-79C6C6E1ACC9</title>
    <g id="Cover" stroke="none" stroke-width="1" fill="none" fill-rule="evenodd">
        <g id="Icons-and-illustrations" transform="translate(-216.000000, -382.000000)" fill="#FFFFFF">
            <g id="Globe" transform="translate(216.000000, 382.000000)">
                <path d="M16.0007913,2.0250468e-13 C24.8233025,2.0250468e-13 32,7.17705242 32,16 C32,24.8229476 24.8233025,32 16.0007913,32 C7.17828001,32 3.55271368e-15,24.8229476 3.55271368e-15,16 C3.55271368e-15,7.17705242 7.17828001,2.0250468e-13 16.0007913,2.0250468e-13 Z M15.414,24.724 L10.380591,24.7243483 C11.9015203,28.5877874 14.2691542,29.9732263 15.4366278,30.4396143 L15.414,24.724 Z M21.6201576,24.7243098 L16.77,24.724 L16.7919372,30.3433159 C18.0168542,29.7954826 20.1918152,28.3530033 21.6201576,24.7243098 Z M27.7557015,24.7246032 L23.0669736,24.7250405 C22.0935195,27.4426446 20.7199676,29.1579899 19.4502095,30.234236 C22.8234676,29.4169489 25.7440625,27.4279628 27.7557015,24.7246032 Z M8.9336594,24.7250405 L4.24541849,24.7246032 C6.25683172,27.4279628 9.17726879,29.4169489 12.5503506,30.2347318 C11.2806655,29.1579899 9.90711352,27.4426446 8.9336594,24.7250405 Z M7.62947426,16.6792304 L1.37171995,16.6782541 C1.48308531,19.10908 2.18991293,21.3873803 3.34941799,23.3702292 L8.50676324,23.369765 C8.00588854,21.5464293 7.67726154,19.3423388 7.62947426,16.6792304 Z M23.0147416,16.6794003 L16.739,16.678 L16.765,23.369 L22.0846845,23.3704077 C22.6102973,21.5985869 22.9642161,19.4016693 23.0147416,16.6794003 Z M15.383,16.678 L8.98589147,16.6794003 C9.03640929,19.4012414 9.39022884,21.5978975 9.91575955,23.3695915 L15.409,23.369 L15.383,16.678 Z M30.6298589,16.6782541 L24.3711587,16.6792304 C24.3233715,19.3423388 23.9947445,21.5464293 23.4938698,23.369765 L28.6518141,23.3702292 C29.8114797,21.3873803 30.5184676,19.10908 30.6298589,16.6782541 Z M8.54626993,8.4897295 L3.43165026,8.49020325 C2.22319397,10.5055206 1.4854958,12.834036 1.371674,15.3226235 L7.62948253,15.3215747 C7.67854562,12.5892749 8.0232364,10.3401693 8.54626993,8.4897295 Z M22.0268072,8.48963062 L16.708,8.49 L16.734,15.322 L23.0146149,15.3212322 C22.9617732,12.5279748 22.5837285,10.2866047 22.0268072,8.48963062 Z M15.351,8.49 L9.95851923,8.48948362 C9.40951213,10.2854042 9.03781866,12.5265212 8.98590217,15.3212881 L15.378,15.322 L15.351,8.49 Z M28.5695705,8.49020325 L23.4543631,8.4897295 C23.9773966,10.3401693 24.3220874,12.5892749 24.3711505,15.3215747 L30.6299049,15.3226235 C30.5160565,12.834036 29.7781911,10.5055206 28.5695705,8.49020325 Z M12.5524287,1.76533091 L12.3541348,1.8141921 C9.12209384,2.64546814 6.31828248,4.55507416 4.3506054,7.13508535 L8.98506471,7.13464938 C9.95561473,4.49744376 11.3043023,2.82267184 12.5524287,1.76533091 Z M16.6816844,1.61998151 L16.703,7.135 L21.5418864,7.13506304 C20.0672302,3.54105577 17.8574215,2.13591897 16.6816844,1.61998151 Z M10.4371804,7.13497124 L15.346,7.135 L15.3258471,1.60662151 C14.1399428,2.10804968 11.9123795,3.49558528 10.4371804,7.13497124 Z M19.4487165,1.76469408 L19.4943676,1.80468143 C20.7294961,2.86407321 22.0569723,4.52992546 23.0155683,7.13464938 L27.6505029,7.13508535 C25.6424877,4.50247072 22.7639678,2.56787752 19.4487165,1.76469408 Z" id="ðŸŽ-Culoare"></path>
            </g>
        </g>
    </g>
</svg>