<?xml version="1.0" encoding="UTF-8"?>
<svg width="21px" height="20px" viewBox="0 0 21 20" version="1.1" xmlns="http://www.w3.org/2000/svg" xmlns:xlink="http://www.w3.org/1999/xlink">
    <title>3D22C436-9CE6-45E7-99F2-2F848AEBFFD7@2x</title>
          <linearGradient id="lg" gradientTransform="rotate(135)" gradientUnits="userSpaceOnUse" gradientUnits="objectBoundingBox">
    <stop id="color1" offset="0" style="stop-color:var(--ion-color-base);"/>
    <stop id="color2" offset="1" style="stop-color:var(--ion-color-shade);" />
  </linearGradient>
    <g id="Cover" stroke="none" stroke-width="1" fill="none" fill-rule="evenodd">
        <g id="Icons-and-illustrations" transform="translate(-120.000000, -194.000000)" fill="url(#lg)">
            <g id="Grup" transform="translate(120.000000, 194.000000)">
                <path d="M7,0 C9,0 10,1.5 10,4 C10,6 8.5,7.5 8.5,8.5 C8.5,9.05573142 9.77395433,9.95890493 12.321863,11.2095205 C13.3490692,11.713707 14,12.7583257 14,13.9025969 L14,20 L0,20 L0,13.9025825 C0,12.7583199 0.650941751,11.7137091 1.67813726,11.2095204 L2.22336871,10.9373251 C4.40778957,9.8270078 5.5,9.01456611 5.5,8.5 C5.5,7.5 4,6 4,4 C4,1.5 5,0 7,0 Z M13.062795,1 C15.062795,1 17.062795,2.5 17.062795,5 C17.062795,7 15.562795,9 15.562795,9 L18.7268956,11.1094004 C19.5614916,11.6657977 20.062795,12.6024917 20.062795,13.6055513 L20.062795,20 L15.361795,20 L15.361795,18 L18.062795,18 L18.062795,13.6055513 C18.062795,13.3129922 17.9348582,13.0373702 17.7165026,12.8487884 L17.6174952,12.773501 L14.4533946,10.6641006 C13.5435517,10.0575386 13.2969002,8.84164828 13.8705722,7.93375876 L14.0703422,7.64669848 C14.1932749,7.46219129 14.3578915,7.18767099 14.5239406,6.85557281 C14.8659354,6.17158334 15.062795,5.51538451 15.062795,5 C15.062795,3.81196013 14.1770203,3 13.062795,3 C12.3992893,3 11.8167931,3.28792407 11.4541078,3.77173103 L11.361,3.907 L11.3570429,3.66237735 C11.3302276,2.88464768 11.2098508,2.17802999 11,1.55756857 C11.6249162,1.19382769 12.3438556,1 13.062795,1 Z" id="ðŸŽ-Culoare"></path>
            </g>
        </g>
    </g>
</svg>