<?xml version="1.0" encoding="UTF-8"?>
<svg width="32px" height="32px" viewBox="0 0 32 32" version="1.1" xmlns="http://www.w3.org/2000/svg" xmlns:xlink="http://www.w3.org/1999/xlink">
    <title>2163C7A6-8AA9-4686-B135-5EDB556D5B42</title>
    <g id="Cover" stroke="none" stroke-width="1" fill="none" fill-rule="evenodd">
        <g id="Icons-and-illustrations" transform="translate(-272.000000, -382.000000)" fill="#FFFFFF">
            <g id="Handshake" transform="translate(272.000000, 382.000000)">
                <path d="M26.7345677,7.38652288 L30.3389048,14.8738991 C30.3389048,14.8738991 27.5268329,16.9970447 27.1166086,17.1833679 C26.7063843,17.3696912 25.5524328,15.8039496 25.0310408,15.2449798 C24.5096489,14.6860101 23.5764669,14.8363213 23.1302306,14.9850667 C22.6824285,15.1338122 22.3849376,16.140584 22.0874467,16.3629193 C21.7899558,16.5868204 20.819196,16.661976 20.3729596,16.9970447 C19.9251576,17.3321134 19.5149333,18.3013074 19.0311191,18.4876306 C18.5457392,18.6739539 17.9507574,18.7115317 17.5420989,19.0466004 C17.1303088,19.3816691 16.7592281,20.1645399 16.2378361,20.1269621 C15.7148785,20.0893843 14.9695855,20.9474107 14.6720946,21.2824794 C14.3730379,21.617548 14.4106157,22.8090774 14.7081066,23.1832896 C15.0071633,23.5559361 16.9455513,25.4176028 16.9455513,25.4176028 C16.9455513,25.4176028 15.342232,25.567914 14.8944299,25.120112 C14.4481935,24.6723099 14.0003914,23.9270169 13.1439308,23.8158492 C12.2859044,23.7046816 12.5035425,22.9061534 12.0087682,22.4943633 C11.4905077,22.0637844 10.9832074,22.362841 10.3866599,22.3252632 C9.79011234,22.2876854 9.64136689,21.8790269 9.49262144,21.2824794 C9.34231025,20.6859318 8.8960739,20.612342 8.11320312,20.612342 C7.33033233,20.612342 6.99526363,20.2381297 6.73378479,19.8294712 C6.47387169,19.4192469 6.69777273,18.7851215 6.95925158,18.3013074 C7.21916468,17.8174932 10.870474,14.426097 11.4670216,13.7919717 C12.0635691,13.1594121 13.0327631,12.6004423 13.4054096,12.6380201 C13.7764904,12.6740322 15.9387795,14.649998 16.7200846,15.0962344 C17.5029553,15.5440365 18.9575293,15.5816143 19.5900889,15.2825576 C20.2242142,14.9850667 20.9319294,14.2773515 21.1182526,13.6432262 C21.3045759,13.0106666 21.0806748,12.0774846 20.4105374,11.3337574 C19.7388343,10.5884644 16.2816769,7.83589071 16.2816769,7.83589071 C16.2816769,7.83589071 20.1114808,8.01751673 21.043097,8.20383998 C21.9747133,8.39016323 23.6516225,8.53890868 24.6583943,8.31500763 C25.6636004,8.09110659 26.7345677,7.38652288 26.7345677,7.38652288 L26.7345677,7.38652288 Z M15.7083023,21.5262653 C16.6571417,20.6447528 17.7030571,22.0319998 18.0897953,22.4109093 C18.3559713,22.6755196 19.4989627,23.6948174 19.6758915,24.375915 C19.7854934,24.7955337 19.0057541,25.3811211 18.5877011,25.4374878 C18.1665166,25.4938545 17.6936627,25.0460524 17.3852116,24.739167 C17.0783262,24.4307159 15.7928524,23.3691431 15.4577837,22.7819901 C15.1211493,22.1964027 15.4781383,21.7407719 15.7083023,21.5262653 Z M18.2510667,19.7540024 C19.1999061,18.8724899 20.2458214,20.259737 20.6325596,20.6386464 C20.8987357,20.9032567 22.041727,21.9225545 22.2202216,22.6036521 C22.3298235,23.0232708 21.5485184,23.6088582 21.1304654,23.6652249 C20.7108467,23.7215916 20.236427,23.2737895 19.9279759,22.9669041 C19.6210905,22.658453 18.3356167,21.5968803 18.000548,21.0097272 C17.6654793,20.4241398 18.0209027,19.968509 18.2510667,19.7540024 Z M20.9040592,18.1057463 C21.8528986,17.222668 22.8972482,18.6114808 23.2839864,18.9903903 C23.5517282,19.2534348 24.6931538,20.2742984 24.8716483,20.9538302 C24.9812502,21.3734489 24.2015109,21.960602 23.7818922,22.0169687 C23.3622735,22.0717697 22.8894195,21.6255333 22.5794027,21.318648 C22.2725173,21.0101969 20.9886092,19.9486241 20.6519748,19.361471 C20.3169061,18.7743179 20.6738952,18.3202529 20.9040592,18.1057463 Z M23.3076291,16.1042588 C24.2549027,15.2227463 25.3008181,16.6099933 25.6875563,16.9889028 C25.9537323,17.2535131 27.0967237,18.2728109 27.2752182,18.9539085 C27.3848201,19.3735272 26.6035151,19.9591146 26.1854621,20.0154813 C25.7658433,20.071848 25.2914237,19.6240459 24.9829726,19.3171605 C24.6760872,19.0087094 23.3906134,17.9471367 23.0555447,17.3599836 C22.720476,16.7743962 23.0774651,16.3187654 23.3076291,16.1042588 Z M12.213254,7.3088621 C13.1808823,6.9362156 14.1140643,7.2712843 14.6354562,7.68150859 C15.1568482,8.09173288 17.690218,10.3276119 18.8441696,11.2216503 C19.9996869,12.1156887 20.2596,13.3823737 19.8885192,13.9053314 C19.5158727,14.4267233 18.6594121,14.6490586 17.6526402,14.5003131 C16.6474341,14.3515677 14.9329471,12.5634908 14.261244,12.1908443 C13.5911066,11.8181978 12.6970681,11.7054644 11.8766196,12.1532665 C11.056171,12.6010686 5.82502838,18.099953 5.82502838,18.099953 L5.82502838,18.099953 L1.51923905,14.5378909 L4.49884527,7.68150859 C5.3928837,8.01657729 7.29369398,8.31563393 8.30046581,8.38922378 C9.3056719,8.46437938 11.24406,7.68150859 12.213254,7.3088621 Z M28.286061,6.5 L32,13.8120132 L31.0323717,14.4226524 L27.3810624,7.03235214 L28.286061,6.5 Z M3.01874976,6.88031863 L3.8564215,7.34690962 L0.865855091,14.1187419 L-2.22044605e-14,13.4486045 L3.01874976,6.88031863 Z" id="ðŸŽ-Culoare"></path>
            </g>
        </g>
    </g>
</svg>