<?xml version="1.0" encoding="UTF-8"?>
<svg width="32px" height="32px" viewBox="0 0 32 32" version="1.1" xmlns="http://www.w3.org/2000/svg" xmlns:xlink="http://www.w3.org/1999/xlink">
    <title>58BDAD42-720F-44E6-AD76-B069BD0A4244</title>
    <g id="Cover" stroke="none" stroke-width="1" fill="none" fill-rule="evenodd">
        <g id="Icons-and-illustrations" transform="translate(-328.000000, -382.000000)" fill="#FFFFFF">
            <g id="Hourglass" transform="translate(328.000000, 382.000000)">
                <path d="M27.7732134,9.71445147e-17 L27.7732134,1.49262505 L25.7229632,1.49278215 C26.1261974,8.89538193 22.2240313,14.2860636 20.8090813,15.9799706 C25.4863728,20.7978885 25.7258937,28.0774016 25.6631485,30.5080654 L27.7732134,30.507375 L27.7732134,32 L4.25,32 L4.25,30.507375 L6.50282007,30.5080654 C6.44042943,28.0774016 6.68094956,20.7978885 11.3567762,15.9799706 C9.94350664,14.2860636 6.03977826,8.89538193 6.44290056,1.49278215 L4.25,1.49262505 L4.25,9.71445147e-17 L27.7732134,9.71445147e-17 Z M24.2293783,1.49270086 L7.93645108,1.49281867 C7.45952316,9.72583817 12.8665458,15.4433507 12.9208104,15.5010069 L13.450283,16.0478964 L12.8929434,16.5651772 C8.1796421,20.930812 7.9513742,28.2506383 8.00080195,30.5075079 L24.1649901,30.5074355 C24.2129854,28.2490971 23.9776885,20.9220103 19.2746557,16.5651772 L18.7190579,16.0496381 L19.2450471,15.5010069 C19.3010036,15.4433547 24.7040224,9.70352031 24.2293783,1.49270086 Z M21.3786126,7.2957492 C21.3786126,7.2957492 21.3368122,9.11929462 20.3440511,11.1100419 C19.3478066,13.0990475 16.8606787,14.9643934 16.8606787,14.9643934 L16.8606787,14.9643934 L16.8606787,16.7879388 C16.8606787,16.7879388 19.7832281,18.4982746 21.171352,22.2585751 C22.0073613,24.5192837 22.3957574,28.9327165 22.3957574,28.9327165 L22.3957574,28.9327165 L9.772016,28.9327165 C9.772016,28.9327165 9.92876776,25.6792467 11.2228406,22.4658357 C12.4542127,19.4144016 14.9953328,16.9951995 14.9953328,16.9951995 L14.9953328,16.9951995 L14.9953328,15.0044522 C12.0118244,13.8026887 10.6028003,8.78837424 10.6028003,8.78837424 L10.6028003,8.78837424 Z" id="ðŸŽ-Culoare"></path>
            </g>
        </g>
    </g>
</svg>