<?xml version="1.0" encoding="UTF-8"?>
<svg width="20px" height="20px" viewBox="0 0 20 20" version="1.1" xmlns="http://www.w3.org/2000/svg" xmlns:xlink="http://www.w3.org/1999/xlink">
    <title>F016B8C4-4740-4398-AB55-E2C89A2B4ADF@2x</title>
    <g id="Cover" stroke="none" stroke-width="1" fill="none" fill-rule="evenodd">
        <g id="Icons-and-illustrations" transform="translate(-516.000000, -194.000000)">
            <g id="Info" transform="translate(516.000000, 194.000000)">
                <rect id="Rectangle" fill="#FFFFFF" x="7" y="4" width="5" height="12"></rect>
                <path d="M10,0 C15.5228475,0 20,4.4771525 20,10 C20,15.5228475 15.5228475,20 10,20 C4.4771525,20 0,15.5228475 0,10 C0,4.4771525 4.4771525,0 10,0 Z M11,8.5 L7.90138782,8.5 C7.8061484,8.5 7.71303992,8.52819098 7.63379594,8.5810203 C7.41211557,8.72880722 7.35221309,9.02831963 7.5,9.25 L7.5,9.25 L7.83205029,9.74807544 C7.94156197,9.91234296 8,10.1053507 8,10.3027756 L8,10.3027756 L8,15 C8,15.5522847 8.44771525,16 9,16 L9,16 L11,16 C11.5522847,16 12,15.5522847 12,15 L12,15 L12,9.5 C12,8.94771525 11.5522847,8.5 11,8.5 L11,8.5 Z M11,4 L9,4 C8.44771525,4 8,4.44771525 8,5 L8,5 L8,6 C8,6.55228475 8.44771525,7 9,7 L9,7 L11,7 C11.5522847,7 12,6.55228475 12,6 L12,6 L12,5 C12,4.44771525 11.5522847,4 11,4 L11,4 Z" id="ðŸŽ-Culoare" fill="currentColor"></path>
            </g>
        </g>
    </g>
</svg>