<?xml version="1.0" encoding="UTF-8"?>
<svg width="20px" height="20px" viewBox="0 0 20 20" version="1.1" xmlns="http://www.w3.org/2000/svg" xmlns:xlink="http://www.w3.org/1999/xlink">
    <title>0B9FF277-D614-40E3-B55E-6E76C31F9855@2x</title>
      <linearGradient id="lg" gradientTransform="rotate(135)" gradientUnits="userSpaceOnUse">
    <stop id="color1" offset="0" style="stop-color:var(--ion-color-base);"/>
    <stop id="color2" offset="1" style="stop-color:var(--ion-color-shade);" />
  </linearGradient>
    <g id="Cover" stroke="none" stroke-width="1" fill="none" fill-rule="evenodd">
        <g id="Icons-and-illustrations" transform="translate(-444.000000, -150.000000)" fill="url(#lg)">
            <g id="Questions" transform="translate(444.000000, 150.000000)">
                <path d="M10,0 C15.5228475,0 20,4.4771525 20,10 C20,15.5228475 15.5228475,20 10,20 C4.4771525,20 0,15.5228475 0,10 C0,4.4771525 4.4771525,0 10,0 Z M9.86237514,13.7716049 C9.44210137,13.7716049 9.0972993,13.9008916 8.82796892,14.159465 C8.55863855,14.4180384 8.42397336,14.7464563 8.42397336,15.1447188 C8.42397336,15.537037 8.55567888,15.8609968 8.8190899,16.1165981 C9.08250092,16.3721994 9.43026267,16.5 9.86237514,16.5 C10.2944876,16.5 10.6422494,16.3721994 10.9056604,16.1165981 C11.1690714,15.8609968 11.3007769,15.537037 11.3007769,15.1447188 C11.3007769,14.7464563 11.1661117,14.4180384 10.8967814,14.159465 C10.627451,13.9008916 10.2826489,13.7716049 9.86237514,13.7716049 Z M10.0399556,3.5 C8.79689234,3.5 7.81576027,3.82098765 7.09655938,4.46296296 C6.42872998,5.05908289 6.06586031,5.86790567 6.00795035,6.88943129 L6,7.12894376 L8.57491676,7.12894376 C8.58675546,6.65340649 8.72438032,6.28040695 8.98779134,6.00994513 C9.25120237,5.73948331 9.60192379,5.6042524 10.0399556,5.6042524 C10.963374,5.6042524 11.4250832,6.10653864 11.4250832,7.11111111 C11.4250832,7.4439872 11.336293,7.76051669 11.1587125,8.06069959 C10.9811321,8.36088249 10.6244913,8.75022862 10.0887902,9.228738 C9.55308916,9.70724737 9.18460969,10.193187 8.98335183,10.6865569 C8.80445595,11.125108 8.70506936,11.6975139 8.68519204,12.4037748 L8.68146504,12.6748971 L10.954495,12.6748971 L10.9900111,12.1310014 C11.0478892,11.6131941 11.2577703,11.1540952 11.6196544,10.7537046 L11.7624861,10.60631 L12.481687,9.91975309 C13.0440252,9.37288523 13.4376619,8.87505716 13.6625971,8.42626886 C13.8875324,7.97748057 14,7.50045725 14,6.9951989 C14,5.88363054 13.6537181,5.0232053 12.9611543,4.41392318 C12.2685905,3.80464106 11.2948576,3.5 10.0399556,3.5 Z" id="ðŸŽ-Culoare"></path>
            </g>
        </g>
    </g>
</svg>