<?xml version="1.0" encoding="UTF-8"?>
<svg width="40px" height="40px" viewBox="0 0 40 40" version="1.1" xmlns="http://www.w3.org/2000/svg" xmlns:xlink="http://www.w3.org/1999/xlink">
    <title>Indifferent</title>
    <g id="Homepage" stroke="none" stroke-width="1" fill="none" fill-rule="evenodd">
        <g id="Sugestii" transform="translate(-168.000000, -320.000000)" fill="currentColor">
            <g id="Icon/Car" transform="translate(168.000000, 320.000000)">
                <path d="M20,0 C31.045695,0 40,8.954305 40,20 C40,31.045695 31.045695,40 20,40 C8.954305,40 0,31.045695 0,20 C0,8.954305 8.954305,0 20,0 Z M20,4 C11.163444,4 4,11.163444 4,20 C4,28.836556 11.163444,36 20,36 C28.836556,36 36,28.836556 36,20 C36,11.163444 28.836556,4 20,4 Z M27,26 C27.5522847,26 28,26.4477153 28,27 C28,27.5522847 27.5522847,28 27,28 L13,28 C12.4477153,28 12,27.5522847 12,27 C12,26.4477153 12.4477153,26 13,26 L27,26 Z M15,14 C16.6568542,14 18,15.3431458 18,17 C18,18.6568542 16.6568542,20 15,20 C13.3431458,20 12,18.6568542 12,17 C12,15.3431458 13.3431458,14 15,14 Z M25,14 C26.6568542,14 28,15.3431458 28,17 C28,18.6568542 26.6568542,20 25,20 C23.3431458,20 22,18.6568542 22,17 C22,15.3431458 23.3431458,14 25,14 Z" id="ðŸŽ-Culoare"></path>
            </g>
        </g>
    </g>
</svg>