<?xml version="1.0" encoding="UTF-8"?>
<svg width="32px" height="32px" viewBox="0 0 32 32" version="1.1" xmlns="http://www.w3.org/2000/svg" xmlns:xlink="http://www.w3.org/1999/xlink">
    <title>DF51A1C3-9F27-426D-91DB-E0DC9FB4F996</title>
    <g id="Cover" stroke="none" stroke-width="1" fill="none" fill-rule="evenodd">
        <g id="Icons-and-illustrations" transform="translate(-832.000000, -334.000000)" fill="#006330">
            <g id="Flood" transform="translate(832.000000, 334.000000)">
                <path d="M31.18525,27.31305 C31.599625,27.31305 31.93525,27.6488 31.93525,28.06305 C31.93525,28.477175 31.599625,28.81305 31.18525,28.81305 C30.298375,28.81305 29.346875,29.255675 28.496625,29.651175 C27.827875,29.962175 27.212875,30.2483 26.610375,30.34555 C26.483125,30.36605 26.368375,30.3758 26.265125,30.3758 C25.65675,30.3758 25.139875,30.118675 24.756625,29.735925 C24.51125,29.49055 24.3215,29.1898 24.20025,28.872175 C23.492625,29.005675 22.76825,29.34255 22.10525,29.651175 C21.4365,29.962175 20.82125,30.2483 20.219,30.34555 C20.117375,30.361925 20.014125,30.370675 19.910125,30.372675 C19.284875,30.3838 18.755125,30.1253 18.36325,29.735675 C18.11625,29.49005 17.92475,29.18855 17.80125,28.869925 C17.08325,29.0023 16.350375,29.34255 15.681125,29.653425 C15.013375,29.963425 14.399875,30.24855 13.799125,30.34555 C13.671875,30.36605 13.557125,30.3758 13.453875,30.3758 C12.84525,30.3758 12.328625,30.118675 11.94525,29.735925 C11.7,29.49055 11.51,29.1898 11.388875,28.872175 C10.681375,29.005675 9.95675,29.34255 9.29375,29.651175 C8.62525,29.962175 8.01,30.2483 7.40775,30.34555 C7.280625,30.36605 7.165625,30.3758 7.062375,30.3758 C6.453875,30.3758 5.937125,30.118675 5.554,29.735925 C5.19025,29.372675 4.949,28.8878 4.871375,28.40605 C4.851375,28.28255 4.841125,28.1673 4.841125,28.06305 C4.841125,27.6488 5.176875,27.31305 5.591125,27.31305 C6.005375,27.31305 6.341125,27.6488 6.341125,28.06305 C6.341125,28.107675 6.343375,28.14405 6.348,28.171925 C6.377,28.35255 6.46925,28.536175 6.60875,28.6753 C6.728625,28.795175 6.884875,28.8758 7.062375,28.8758 C7.10725,28.8758 7.144625,28.8733 7.173375,28.868925 C7.56025,28.806425 8.090625,28.559675 8.66675,28.2918 C9.659875,27.829925 10.771,27.31305 11.982375,27.31305 C12.39675,27.31305 12.732375,27.6488 12.732375,28.06305 C12.732375,28.107675 12.734875,28.14405 12.73925,28.171925 C12.7685,28.35255 12.860625,28.536175 13,28.6753 C13.119875,28.795175 13.276375,28.8758 13.453875,28.8758 C13.49875,28.8758 13.536125,28.8733 13.56475,28.868925 C13.950625,28.806675 14.47925,28.56105 15.05425,28.29405 C16.05,27.83155 17.1665,27.31305 18.388125,27.31305 C18.8025,27.31305 19.138125,27.6488 19.138125,28.06305 C19.138125,28.0728 19.138,28.08255 19.1375,28.09205 C19.139125,28.110425 19.141625,28.129925 19.145,28.150175 C19.17525,28.337675 19.27175,28.5298 19.418,28.67505 C19.54275,28.799175 19.704375,28.881675 19.88675,28.878425 C19.91525,28.87805 19.94775,28.8748 19.984625,28.868925 C20.371625,28.806425 20.901875,28.559675 21.478,28.2918 C22.47125,27.829925 23.58225,27.31305 24.794,27.31305 C25.208,27.31305 25.544,27.6488 25.544,28.06305 C25.544,28.107675 25.546125,28.14405 25.5505,28.171925 C25.579875,28.35255 25.671875,28.536175 25.8115,28.6753 C25.931375,28.795175 26.087625,28.8758 26.265125,28.8758 C26.31,28.8758 26.347375,28.8733 26.37625,28.868925 C26.763125,28.806425 27.2935,28.559675 27.869625,28.2918 C28.86275,27.829925 29.973875,27.31305 31.18525,27.31305 Z M26.3445,22.68805 C26.7585,22.68805 27.0945,23.0238 27.0945,23.43805 C27.0945,23.482425 27.096625,23.51905 27.101375,23.546675 C27.130375,23.7273 27.222375,23.910925 27.361875,24.0503 C27.481875,24.170175 27.638125,24.25055 27.815625,24.25055 C27.860625,24.25055 27.898,24.2483 27.9265,24.243675 C28.31375,24.181425 28.844,23.934675 29.420125,23.66655 C29.91525,23.4363 30.440875,23.191925 31.014625,23.0003 C31.40625,22.869175 31.829875,23.080425 31.960875,23.471925 C32.092,23.86355 31.880875,24.287175 31.48925,24.4183 C31.00875,24.578675 30.513375,24.809175 30.047125,25.025925 C29.378375,25.336925 28.763125,25.62305 28.160875,25.7203 C28.03375,25.7408 27.919,25.75055 27.815625,25.75055 C27.207,25.75055 26.690375,25.493675 26.307125,25.110925 C26.06175,24.86555 25.872125,24.5648 25.75075,24.247175 C25.04325,24.380675 24.318625,24.71755 23.6555,25.025925 C22.987,25.336925 22.371875,25.6233 21.7695,25.7203 C21.642375,25.7408 21.527375,25.75055 21.424125,25.75055 C20.815625,25.75055 20.298875,25.493675 19.91575,25.110925 C19.670125,24.86555 19.4805,24.5648 19.359125,24.247175 C18.651625,24.380675 17.92725,24.71755 17.264125,25.025925 C16.5955,25.336925 15.98025,25.6233 15.377875,25.7203 C15.276375,25.736925 15.173125,25.745675 15.069125,25.747675 C14.444125,25.7588 13.91425,25.5003 13.52225,25.110675 C13.275375,24.86505 13.084,24.56355 12.96025,24.244925 C12.242125,24.3773 11.5095,24.71755 10.840375,25.028425 C10.172625,25.338425 9.559125,25.6233 8.958,25.7203 C8.831,25.7408 8.716125,25.75055 8.61275,25.75055 C8.004375,25.75055 7.4875,25.493675 7.1045,25.110925 C6.859,24.86555 6.66925,24.5648 6.547875,24.247175 C5.840375,24.380675 5.116,24.71755 4.453,25.025925 C3.78425,25.336925 3.169,25.6233 2.56675,25.7203 C2.4395,25.7408 2.3245,25.75055 2.22125,25.75055 C1.612875,25.75055 1.09625,25.493675 0.713,25.110925 C0.349125,24.747675 0.108,24.2628 0.030375,23.78105 C0.010375,23.6573 -1.03028697e-13,23.5423 -1.03028697e-13,23.43805 C-1.03028697e-13,23.0238 0.336,22.68805 0.75,22.68805 C1.164375,22.68805 1.5,23.0238 1.5,23.43805 C1.5,23.482425 1.5025,23.51905 1.506875,23.546675 C1.53625,23.7273 1.62825,23.910925 1.767625,24.0503 C1.8875,24.170175 2.04375,24.25055 2.22125,24.25055 C2.266125,24.25055 2.3035,24.2483 2.332375,24.243675 C2.71925,24.181425 3.249625,23.934675 3.826,23.66655 C4.818875,23.204675 5.93,22.68805 7.141625,22.68805 C7.555625,22.68805 7.891625,23.0238 7.891625,23.43805 C7.891625,23.482425 7.89375,23.51905 7.898375,23.546675 C7.9275,23.7273 8.0195,23.910925 8.159125,24.0503 C8.279,24.170175 8.43525,24.25055 8.61275,24.25055 C8.65775,24.25055 8.695125,24.2483 8.723875,24.243675 C9.109875,24.181425 9.638125,23.93605 10.213375,23.66905 C11.20925,23.2063 12.3255,22.68805 13.547125,22.68805 C13.961375,22.68805 14.297125,23.0238 14.297125,23.43805 C14.297125,23.4478 14.296875,23.4573 14.296625,23.46705 C14.298125,23.485425 14.30075,23.504675 14.304,23.525175 C14.33425,23.712675 14.430625,23.90455 14.576875,24.05005 C14.701875,24.174175 14.8635,24.256675 15.045625,24.253425 C15.07425,24.25305 15.106875,24.2498 15.1435,24.243675 C15.53075,24.181425 16.06075,23.934675 16.63725,23.66655 C17.630375,23.204675 18.74125,22.68805 19.952875,22.68805 C20.367125,22.68805 20.702875,23.0238 20.702875,23.43805 C20.702875,23.482425 20.705375,23.51905 20.70975,23.546675 C20.73875,23.7273 20.831,23.910925 20.9705,24.0503 C21.090375,24.170175 21.246625,24.25055 21.424125,24.25055 C21.469,24.25055 21.506375,24.2483 21.535125,24.243675 C21.922125,24.181425 22.452375,23.934675 23.028625,23.66655 C24.02175,23.204675 25.13275,22.68805 26.3445,22.68805 Z M20.3749875,12.6255 L20.3749875,21.48275 C20.2387375,21.453375 20.0976125,21.438 19.9528625,21.438 C18.5504875,21.438 17.3529875,21.955125 16.1101125,22.53325 C15.9528625,22.6065 15.6997375,22.73175 15.4551125,22.8365 C15.1997375,22.02625 14.4416125,21.438 13.5471125,21.438 C12.8676125,21.438 12.2366125,21.558125 11.6252375,21.747625 L11.6252375,12.6255 L20.3749875,12.6255 Z M10.1252375,1.625 L10.1252375,5.626 L15.5286125,2.140125 C15.8306125,1.946125 16.2069875,1.962 16.4872375,2.150125 L31.9718625,12.14025 L31.0286125,13.609875 L28.1252375,11.73675 L28.1252375,22.527375 C27.8344875,21.96025 27.2807375,21.549875 26.6252375,21.457625 L26.6252375,10.769 L16.0002375,3.914125 L5.3752375,10.769125 L5.3752375,21.70325 C4.8654875,21.851375 4.3708625,22.050125 3.8752375,22.270125 L3.8752375,11.736875 L0.9719875,13.609875 L0.0286125,12.14025 L6.7502375,7.8035 L6.7502375,1.625 L10.1252375,1.625 Z" id="ðŸŽ-Culoare"></path>
            </g>
        </g>
    </g>
</svg>