<?xml version="1.0" encoding="UTF-8"?>
<svg width="20px" height="20px" viewBox="0 0 20 20" version="1.1" xmlns="http://www.w3.org/2000/svg" xmlns:xlink="http://www.w3.org/1999/xlink">
    <title>BA04F624-C80C-4B3F-82E7-B97C377979B5@2x</title>
    <g id="Cover" stroke="none" stroke-width="1" fill="none" fill-rule="evenodd">
        <g id="Icons-and-illustrations" transform="translate(-804.000000, -150.000000)" fill="currentColor">
            <g id="Locked" transform="translate(804.000000, 150.000000)">
                <path d="M3,20 C2.44771525,20 2,19.5522847 2,19 L2,10 C2,9.44771525 2.44771525,9 3,9 L4.5,9 L4.5,5.5 C4.5,2.53652085 6.84378001,0.120460863 9.77879286,0.00436720397 L10,0 C13.0375661,0 15.5,2.46243388 15.5,5.5 L15.5,5.5 L15.5,9 L17,9 C17.5522847,9 18,9.44771525 18,10 L18,19 C18,19.5522847 17.5522847,20 17,20 L3,20 Z M10,12 C9.17157288,12 8.5,12.6715729 8.5,13.5 C8.5,13.8886766 8.6478296,14.2428258 8.89033036,14.5092891 L8.99990047,14.6179642 L9,17 L11,17 L11.0010701,14.6170946 C11.3073236,14.3424646 11.5,13.9437333 11.5,13.5 C11.5,12.6715729 10.8284271,12 10,12 Z M10,2 C8.06700338,2 6.5,3.56700338 6.5,5.5 L6.5,5.5 L6.5,9 L13.5,9 L13.5,5.5 C13.5,3.6314366 12.0357224,2.10487355 10.1920352,2.00517886 Z" id="ðŸŽ-Culoare"></path>
            </g>
        </g>
    </g>
</svg>