<?xml version="1.0" encoding="UTF-8"?>
<svg width="20px" height="20px" viewBox="0 0 20 20" version="1.1" xmlns="http://www.w3.org/2000/svg" xmlns:xlink="http://www.w3.org/1999/xlink">
    <title>A8645507-CE2B-42AD-AB66-B79B2C4DC79A@2x</title>
    <g id="Cover" stroke="none" stroke-width="1" fill="none" fill-rule="evenodd">
        <g id="Icons-and-illustrations" transform="translate(-696.000000, -194.000000)" fill="currentColor">
            <g id="Numar-telefon" transform="translate(696.000000, 194.000000)">
                <path d="M19,3 C19.5522847,3 20,3.44771525 20,4 L20,16 C20,16.5522847 19.5522847,17 19,17 L15,17 L15,18 L13,18 L13,17 L7,17 L7,18 L5,18 L5,17 L1,17 C0.44771525,17 0,16.5522847 0,16 L0,4 C0,3.44771525 0.44771525,3 1,3 L19,3 Z M18,5 L2,5 L2,15 L5,15 C5,14.4477153 5.44771525,14 6,14 C6.55228475,14 7,14.4477153 7,15 L13,15 C13,14.4477153 13.4477153,14 14,14 C14.5522847,14 15,14.4477153 15,15 L18,15 L18,5 Z M14,8 C14.5522847,8 15,8.44771525 15,9 L15,10 L5,10 L5,9 C5,8.44771525 5.44771525,8 6,8 L14,8 Z" id="ðŸŽ-Culoare"></path>
            </g>
        </g>
    </g>
</svg>