<?xml version="1.0" encoding="UTF-8"?>
<svg width="20px" height="20px" viewBox="0 0 20 20" version="1.1" xmlns="http://www.w3.org/2000/svg" xmlns:xlink="http://www.w3.org/1999/xlink">
    <title>ADA0AB56-B06D-46A7-BFFE-F3E8CBC70DA5@2x</title>
    <g id="Cover" stroke="none" stroke-width="1" fill="none" fill-rule="evenodd">
        <g id="Icons-and-illustrations" transform="translate(-732.000000, -150.000000)">
            <g id="Notificare" transform="translate(732.000000, 150.000000)">
                <path d="M12,18 C12,19.1045695 11.1045695,20 10,20 C8.8954305,20 8,19.1045695 8,18 L12,18 Z M11,2.66453526e-14 C11.5522847,2.65438995e-14 12,0.44771525 12,1 L12,2 L13.7655355,3.41242839 C15.8365283,5.06922267 17.1645397,7.48085767 17.4574224,10.1168012 L17.9447842,14.5030581 C17.9762187,14.7859679 18.2153492,15 18.5,15 C18.7761424,15 19,15.2238576 19,15.5 L19,17 L1,17 L1,15.5 C1,15.2238576 1.22385763,15 1.5,15 C1.78465076,15 2.02378135,14.7859679 2.05521576,14.5030581 L2.54257764,10.1168012 C2.83546026,7.48085767 4.16347167,5.06922267 6.23446451,3.41242839 L8,2 L8,1 C8,0.44771525 8.44771525,2.67468057e-14 9,2.66453526e-14 L11,2.66453526e-14 Z" id="ðŸŽ-Culoare" fill="currentColor"></path>
                <circle id="Oval" fill="#E1261C" cx="16" cy="4" r="4"></circle>
            </g>
        </g>
    </g>
</svg>