<?xml version="1.0" encoding="UTF-8"?>
<svg width="20px" height="22px" viewBox="0 0 20 22" version="1.1" xmlns="http://www.w3.org/2000/svg" xmlns:xlink="http://www.w3.org/1999/xlink">
    <title>BE58A7C6-4CEE-4401-9B4C-3DE232FD96B7@2x</title>
    <g id="Cover" stroke="none" stroke-width="1" fill="none" fill-rule="evenodd">
        <g id="Icons-and-illustrations" transform="translate(-192.000000, -149.000000)" fill="currentColor">
            <g id="No-Asigurari" transform="translate(192.000000, 149.000000)">
                <path d="M19.9991971,6.356 L19.9991971,8.553 L17.9991971,9.4619843 L18,12.9415284 C18,14.4712968 17.3000986,15.9118519 16.1091868,16.8572787 L15.906191,17.0101958 L10,21.2289036 L4.09380903,17.0101958 C3.75962142,16.7714903 3.45998539,16.4954749 3.19894265,16.1900032 L-0.000802944302,17.644 L-0.000802944302,15.447 L19.9991971,6.356 Z M15.9991971,10.3709843 L5.15119706,15.3019843 L5.25628542,15.3827288 L10,18.771 L14.7437146,15.3827288 C15.4229415,14.8975668 15.8642842,14.1555288 15.9734803,13.3397846 L15.993805,13.134419 L16,12.9415284 L15.9991971,10.3709843 Z M10,0.959984302 L18,3.24569859 L17.9991971,5.2649843 L15.9991971,6.1739843 L16,4.754 L10,3.039 L4,4.754 L3.99919706,11.6279843 L1.99919706,12.5379843 L2,3.24569859 L10,0.959984302 Z" id="ðŸŽ-Culoare"></path>
            </g>
        </g>
    </g>
</svg>