<svg xmlns="http://www.w3.org/2000/svg" xmlns:xlink="http://www.w3.org/1999/xlink" viewBox="0 0 375 272">
<defs><style>.cls-1{fill:url(#linear-gradient);}.cls-2,.cls-3,.cls-4{fill-rule:evenodd;}.cls-2{fill:url(#linear-gradient-2);}.cls-3{fill:url(#linear-gradient-3);}.cls-4{fill:url(#linear-gradient-4);}</style>
<linearGradient id="linear-gradient" x1="50.4" y1="34.4" x2="322.36" y2="235.94" gradientUnits="userSpaceOnUse">
<stop offset="0" stop-color="#008741"/><stop offset="1" stop-color="#00632e"/>
</linearGradient>
<linearGradient id="linear-gradient-2" x1="-531.73" y1="554.59" x2="-531.73" y2="554.1" gradientTransform="matrix(375, 0, 0, -159, 199587.82, 88260.48)" gradientUnits="userSpaceOnUse">
<stop offset="0" stop-color="#fff" stop-opacity="0"/>
<stop offset="1" stop-color="#fff" stop-opacity="0.06"/>
</linearGradient>
<linearGradient id="linear-gradient-3" x1="-531.73" y1="554.58" x2="-531.73" y2="554.1" gradientTransform="matrix(375, 0, 0, -159, 199587.82, 88236.48)" xlink:href="#linear-gradient-2"/>
<linearGradient id="linear-gradient-4" x1="187.5" y1="110.04" x2="187.5" y2="0.77" gradientUnits="userSpaceOnUse">
<stop offset="0" stop-color="#fff" stop-opacity="0.06"/>
<stop offset="0.7" stop-color="#fff" stop-opacity="0"/></linearGradient>
</defs>
<g id="Layer_2" data-name="Layer 2"><g id="Layer_1-2" data-name="Layer 1">
<rect id="path-2" class="cls-1" width="375" height="272"/>
<path class="cls-2" d="M375,0V159c-17.5,0-29-8-46.8-8.06S299,159,281.31,159s-27.31-8-46.88-8.06S206,159,187.54,159s-33-8-46.88-8.06S111.5,159,93.77,159s-30.27-8-46.88-8.06S16,159,0,159V0Z"/>
<path class="cls-3" d="M375,0V135c-17.5,0-29-8-46.8-8.06S299,135,281.31,135s-27.31-8-46.88-8.06S206,135,187.54,135s-33-8-46.88-8.06S111.5,135,93.77,135s-30.27-8-46.88-8.06S16,135,0,135V0Z"/>
<path class="cls-4" d="M375,0V111c-17.5,0-29-8-46.8-8.06S299,111,281.31,111s-27.31-8-46.88-8.06S206,111,187.54,111s-33-8-46.88-8.06S111.5,111,93.77,111s-30.27-8-46.88-8.06S16,111,0,111V0Z"/>
</g></g></svg>