<?xml version="1.0" encoding="UTF-8"?>
<svg width="40px" height="40px" viewBox="0 0 40 40" version="1.1" xmlns="http://www.w3.org/2000/svg" xmlns:xlink="http://www.w3.org/1999/xlink">
    <title>Pleased</title>
    <g id="Homepage" stroke="none" stroke-width="1" fill="none" fill-rule="evenodd">
        <g id="Sugestii" transform="translate(-100.000000, -320.000000)" fill="currentColor">
            <g id="Icon/Car" transform="translate(100.000000, 320.000000)">
                <path d="M20,0 C31.045695,0 40,8.954305 40,20 C40,31.045695 31.045695,40 20,40 C8.954305,40 0,31.045695 0,20 C0,8.954305 8.954305,0 20,0 Z M20,4 C11.163444,4 4,11.163444 4,20 C4,28.836556 11.163444,36 20,36 C28.836556,36 36,28.836556 36,20 C36,11.163444 28.836556,4 20,4 Z M23.5527864,25.1055728 C24.0467649,24.8585836 24.6474379,25.0588079 24.8944272,25.5527864 C25.1414164,26.0467649 24.9411921,26.6474379 24.4472136,26.8944272 C22.9788155,27.6286262 21.4933204,28 20,28 C18.5066796,28 17.0211845,27.6286262 15.5527864,26.8944272 C15.0588079,26.6474379 14.8585836,26.0467649 15.1055728,25.5527864 C15.3525621,25.0588079 15.9532351,24.8585836 16.4472136,25.1055728 C17.6454822,25.7047071 18.8266538,26 20,26 C21.1733462,26 22.3545178,25.7047071 23.5527864,25.1055728 Z M15,14 C16.6568542,14 18,15.3431458 18,17 C18,18.6568542 16.6568542,20 15,20 C13.3431458,20 12,18.6568542 12,17 C12,15.3431458 13.3431458,14 15,14 Z M25,14 C26.6568542,14 28,15.3431458 28,17 C28,18.6568542 26.6568542,20 25,20 C23.3431458,20 22,18.6568542 22,17 C22,15.3431458 23.3431458,14 25,14 Z" id="ðŸŽ-Culoare"></path>
            </g>
        </g>
    </g>
</svg>