<?xml version="1.0" encoding="UTF-8"?>
<svg width="20px" height="22px" viewBox="0 0 20 22" version="1.1" xmlns="http://www.w3.org/2000/svg" xmlns:xlink="http://www.w3.org/1999/xlink">
    <title>630C6F55-7949-4DA1-8945-3DF5409A071A@2x</title>
    <g id="Cover" stroke="none" stroke-width="1" fill="none" fill-rule="evenodd">
        <g id="Icons-and-illustrations" transform="translate(-120.000000, -149.000000)" fill="#747C78">
            <g id="Asigurari-defdault" transform="translate(120.000000, 149.000000)">
                <path d="M10,0.978529111 L19,2.85352911 L19,12.3458021 C19,14.4468399 17.9010047,16.3948159 16.1026938,17.4812954 L16.1026938,17.4812954 L10,21.1683396 L3.89730616,17.4812954 C2.0989953,16.3948159 1,14.4468399 1,12.3458021 L1,12.3458021 L1,2.85352911 L10,0.978529111 Z M10,3.02 L3,4.479 L3,12.3458021 C3,13.6727733 3.65757059,14.9081619 4.74615473,15.6503941 L4.74615473,15.6503941 L4.93153744,15.7694643 L10,18.831 L15.0684626,15.7694643 C16.2042378,15.0832667 16.9215861,13.8816031 16.9939502,12.5660472 L16.9939502,12.5660472 L17,12.3458021 L17,4.479 L10,3.02 Z M14.6,7.2 C15.007841,7.50588078 15.1155105,8.06348933 14.8690296,8.49497485 L14.8,8.6 L10.3,14.6 C9.95921237,15.0543835 9.31655146,15.1287336 8.8825205,14.7867701 L8.79289322,14.7071068 L5.79289322,11.7071068 C5.40236893,11.3165825 5.40236893,10.6834175 5.79289322,10.2928932 C6.15337718,9.93240926 6.72060824,9.90467972 7.11289944,10.2097046 L7.20710678,10.2928932 L9.392,12.477 L13.2,7.4 C13.5313708,6.9581722 14.1581722,6.86862915 14.6,7.2 Z" id="ðŸŽ-Culoare"></path>
            </g>
        </g>
    </g>
</svg>