<?xml version="1.0" encoding="UTF-8"?>
<svg width="21px" height="20px" viewBox="0 0 21 20" version="1.1" xmlns="http://www.w3.org/2000/svg" xmlns:xlink="http://www.w3.org/1999/xlink">
    <title>906F3798-D2EC-4D6B-89A8-C953A4DA3428@2x</title>
    <g id="Cover" stroke="none" stroke-width="1" fill="none" fill-rule="evenodd">
        <g id="Icons-and-illustrations" transform="translate(-768.000000, -194.000000)" fill="#747C78">
            <g id="Petitie" transform="translate(768.000000, 194.000000)">
                <path d="M16,0 L16,6.924 L17.4852814,5.43933983 C18.0344562,4.89016504 18.9035186,4.85584162 19.4926793,5.33636956 L19.6066017,5.43933983 C20.1923882,6.02512627 20.1923882,6.97487373 19.6066017,7.56066017 L19.6066017,7.56066017 L16,11.166 L16,20 L1,20 L1,0 L16,0 Z M11.4748737,15.6923882 L9,16.0459415 L9.35355339,13.5710678 L14,8.924 L14,2 L3,2 L3,18 L14,18 L14,15.995 L15.9999774,13.996 L15.9999774,11.167 L11.4748737,15.6923882 Z M8,11 L8,13 L5,13 L5,11 L8,11 Z M10,8 L10,10 L5,10 L5,8 L10,8 Z M12,5 L12,7 L5,7 L5,5 L12,5 Z" id="ðŸŽ-Culoare"></path>
            </g>
        </g>
    </g>
</svg>