<?xml version="1.0" encoding="UTF-8"?>
<svg width="20px" height="20px" viewBox="0 0 20 20" version="1.1" xmlns="http://www.w3.org/2000/svg" xmlns:xlink="http://www.w3.org/1999/xlink">
    <title>24FD8FD6-B63C-49AA-B970-B8892C137A53@2x</title>
          <linearGradient id="lg" gradientTransform="rotate(135,50%,50%)" gradientUnits="userSpaceOnUse">
    <stop id="color1" offset="0" style="stop-color:var(--ion-color-base);"/>
    <stop id="color2" offset="1" style="stop-color:var(--ion-color-shade);" />
  </linearGradient>
    <g id="Cover" stroke="none" stroke-width="1" fill="none" fill-rule="evenodd">
        <g id="Icons-and-illustrations" transform="translate(-552.000000, -194.000000)" fill="url(#lg)">
            <g id="Pin" transform="translate(552.000000, 194.000000)">
                <path d="M10,0 C13.8659932,0 17,3.08923523 17,6.9 C17,12.4976539 12.9704287,13.4568576 10.5833333,20 L10.5833333,20 L9.41666667,20 C7.01009786,13.6154721 3,12.427464 3,6.9 C3,3.08923523 6.13400675,0 10,0 Z M10,4 C8.34314575,4 7,5.34314575 7,7 C7,8.65685425 8.34314575,10 10,10 C11.6568542,10 13,8.65685425 13,7 C13,5.34314575 11.6568542,4 10,4 Z" id="ðŸŽ-Culoare"></path>
            </g>
        </g>
    </g>
</svg>