<?xml version="1.0" encoding="UTF-8"?>
<svg width="20px" height="20px" viewBox="0 0 20 20" version="1.1" xmlns="http://www.w3.org/2000/svg" xmlns:xlink="http://www.w3.org/1999/xlink">
    <title>1371F75C-FDFB-4C93-B2BA-80610E97AC5A@2x</title>
    <g id="Cover" stroke="none" stroke-width="1" fill="none" fill-rule="evenodd">
        <g id="Icons-and-illustrations" transform="translate(-588.000000, -194.000000)" fill="currentColor">
            <g id="Card-default" transform="translate(588.000000, 194.000000)">
                <path d="M17,2 C18.6568542,2 20,3.34314575 20,5 L20,15 C20,16.6568542 18.6568542,18 17,18 L3,18 C1.34314575,18 -2.45176293e-11,16.6568542 -2.45178322e-11,15 L-2.45178322e-11,5 C-2.45180351e-11,3.34314575 1.34314575,2 3,2 L17,2 Z M18,9 L2,9 L2,15 C2,15.5522847 2.44771525,16 3,16 L17,16 C17.5522847,16 18,15.5522847 18,15 L18,9 Z M17,4 L3,4 C2.44771525,4 2,4.44771525 2,5 L2,6 L18,6 L18,5 C18,4.44771525 17.5522847,4 17,4 Z M14.5,11 C15.3284271,11 16,11.6715729 16,12.5 C16,13.3284271 15.3284271,14 14.5,14 C13.6715729,14 13,13.3284271 13,12.5 C13,11.6715729 13.6715729,11 14.5,11 Z M11.5,11 C12.3284271,11 13,11.6715729 13,12.5 C13,13.3284271 12.3284271,14 11.5,14 C10.6715729,14 10,13.3284271 10,12.5 C10,11.6715729 10.6715729,11 11.5,11 Z" id="ðŸŽ-Culoare"></path>
            </g>
        </g>
    </g>
</svg>