<?xml version="1.0" encoding="UTF-8"?>
<svg width="32px" height="32px" viewBox="0 0 32 32" version="1.1" xmlns="http://www.w3.org/2000/svg" xmlns:xlink="http://www.w3.org/1999/xlink">
    <title>338FA547-63F7-44A9-90DB-DEE915F9B21C</title>
    <g id="Cover" stroke="none" stroke-width="1" fill="none" fill-rule="evenodd">
        <g id="Icons-and-illustrations" transform="translate(-384.000000, -382.000000)" fill="#FFFFFF">
            <g id="Restriction---large" transform="translate(384.000000, 382.000000)">
                <path d="M16.1346342,2 L32,30 L0,30 L16.1346342,2 Z M16,23 C14.8954305,23 14,23.8954305 14,25 C14,26.1045695 14.8954305,27 16,27 C17.1045695,27 18,26.1045695 18,25 C18,23.8954305 17.1045695,23 16,23 Z M16,10 C14.9085801,10 14.0213494,10.8742376 14.0003796,11.9606412 L14,12 L14,18.5857864 C14,19.4711698 14.3439012,20.3210961 14.9577306,20.9569782 L15,21 L15.9116117,21.9116117 C15.9566721,21.9566721 16.027576,21.9601383 16.0766124,21.9220102 L16.0883883,21.9116117 L17,21 C17.6260606,20.3739394 17.9838743,19.5297759 17.999468,18.6460964 L18,18.5857864 L18,12 C18,10.8954305 17.1045695,10 16,10 Z" id="ðŸŽ-Culoare"></path>
            </g>
        </g>
    </g>
</svg>