<?xml version="1.0" encoding="UTF-8"?>
<svg width="32px" height="32px" viewBox="0 0 32 32" version="1.1" xmlns="http://www.w3.org/2000/svg" xmlns:xlink="http://www.w3.org/1999/xlink">
    <title>C5816E0E-A185-4A46-A5A5-CE77371FE9D4</title>
    <g id="Cover" stroke="none" stroke-width="1" fill="none" fill-rule="evenodd">
        <g id="Icons-and-illustrations" transform="translate(-608.000000, -334.000000)" fill="#006330">
            <g id="Type-A" transform="translate(608.000000, 334.000000)">
                <path d="M28.0963875,30.5 L3.8463875,30.5 L3.846625,12.111875 L0.943375,13.984875 L0,12.14025 L6.721625,7.8035 L6.721625,1.625 L10.096625,1.625 L10.096625,5.626 L15.5,2.140125 C15.7919333,1.95259167 16.153366,1.96117486 16.4302859,2.13188806 L31.94325,12.14025 L31,13.984875 L28.096625,12.11175 L28.0963875,30.5 Z M25.8463875,11.0625 L15.971625,4.664125 L6.0963875,11.0625 L6.0963875,28.25 L11.596375,28.25 L11.5963875,14.125 L20.3463875,14.125 L20.346375,28.25 L25.8463875,28.25 L25.8463875,11.0625 Z" id="ðŸŽ-Culoare"></path>
            </g>
        </g>
    </g>
</svg>