<?xml version="1.0" encoding="UTF-8"?>
<svg width="32px" height="32px" viewBox="0 0 32 32" version="1.1" xmlns="http://www.w3.org/2000/svg" xmlns:xlink="http://www.w3.org/1999/xlink">
    <title>B727A8AE-BC99-4E3E-80D2-316CBA54F685</title>
    <g id="Cover" stroke="none" stroke-width="1" fill="none" fill-rule="evenodd">
        <g id="Icons-and-illustrations" transform="translate(-664.000000, -334.000000)" fill="#006330">
            <g id="Type-B" transform="translate(664.000000, 334.000000)">
                <path d="M28.125,30.5023584 L3.875,30.5023584 L3.875,17.7523584 L1,19.6273584 L0,18.1273584 L6.75,13.7523584 L6.75,8.62735841 L8.875,8.625 L8.88036043,12.3947362 L15.5,8.12735841 C15.8199891,7.9532824 16.1820639,7.96186623 16.5,8.12735841 L32,18.1273584 L31,19.6273584 L28.125,17.7523584 L28.125,27.5023584 L28.125,30.5023584 Z M18.875,20.2523584 L18.875,30.5023584 L13.125,30.5023584 L13.125,20.2523584 L18.875,20.2523584 Z M16,9.87735841 L26.625,16.7523584 L26.625,29.0023584 L20.375,29.0023584 L20.375,18.7523584 L11.625,18.7523584 L11.625,29.0023584 L5.375,29.0023584 L5.375,16.7523584 L16,9.87735841 Z" id="ðŸŽ-Culoare"></path>
            </g>
        </g>
    </g>
</svg>