<?xml version="1.0" encoding="UTF-8"?>
<svg width="32px" height="32px" viewBox="0 0 32 32" version="1.1" xmlns="http://www.w3.org/2000/svg" xmlns:xlink="http://www.w3.org/1999/xlink">
    <title>BEB65A7F-EA4A-4A2E-B0F6-1B7E4B07BF37</title>
    <g id="Cover" stroke="none" stroke-width="1" fill="none" fill-rule="evenodd">
        <g id="Icons-and-illustrations" transform="translate(-440.000000, -382.000000)" fill="#FFFFFF">
            <g id="Umbrella" transform="translate(440.000000, 382.000000)">
                <path d="M14.9770247,24.7452067 C14.9770247,24.3781329 15.1681388,24.0550979 15.4568403,23.8686834 L16.6096161,23.8686834 C16.8983176,24.0550979 17.0894317,24.3781329 17.0894317,24.7452067 L17.0894317,28.0493718 C17.0894317,29.0895395 16.630428,30.1787505 15.9233313,30.828824 L15.9253617,30.8312011 C12.894059,33.8329745 7.84032275,30.557835 9.42938677,26.5974659 C9.94092782,25.3222158 11.8958497,26.0916446 11.3851969,27.3657687 C10.646121,29.20902 13.0006565,30.7691464 14.4318547,29.351896 L14.4338851,29.3538978 C14.7695403,29.0207288 14.9771516,28.5591966 14.9771516,28.049497 L14.9771516,24.7452067 L14.9770247,24.7452067 Z M16.570911,22.6167038 L15.4287951,22.6167038 L15.4287951,12.8580942 L16.570911,12.8580942 L16.570911,22.6167038 L16.570911,22.6167038 Z M30.9773081,11.5425585 C29.6396365,10.2007497 25.7384221,10.2912045 24.2319711,11.3157334 L24.246311,11.3939274 C24.2944068,11.6659174 24.1097647,11.925021 23.8338803,11.9725629 C23.557742,12.0199797 23.2950553,11.8379441 23.2469596,11.5658291 C23.2355384,11.5040245 23.2243711,11.4424702 23.2125692,11.381041 C21.7636047,10.2585507 17.980409,10.288327 16.507587,11.3381282 L16.507587,11.4798782 C16.507587,11.7562471 16.2805598,11.9803198 15.9999799,11.9803198 C15.7196539,11.9803198 15.4923728,11.7562471 15.4923728,11.4798782 L15.4923728,11.3491379 C14.0366826,10.2929561 10.2574208,10.2547974 8.78992872,11.3669036 C8.77749235,11.4329618 8.76518288,11.4992703 8.75325411,11.5658291 C8.70490454,11.8379441 8.44221786,12.0199797 8.1663334,11.9725629 C7.89019514,11.925021 7.70555306,11.6659174 7.75364883,11.3939274 L7.76659282,11.3247414 C6.27207062,10.2920803 2.36514569,10.1948695 1.02239801,11.5436845 C1.00970784,11.5775894 0.997144561,11.6118697 0.984708187,11.6460248 C0.891816088,11.9061293 0.602226239,12.0427498 0.338270548,11.9510439 C0.0745686606,11.8592129 -0.0640080771,11.5738361 0.0288840218,11.3137317 C2.36438428,4.85153031 8.48193812,1.69424476 15.428922,1.47304961 L15.428922,0.56299671 C15.428922,0.257602272 15.6790454,0.00688107089 15.987036,0.00025022076 L15.9999799,0 L15.9999799,0 L16.0002337,0 L16.0131777,0.00025022076 C16.3212952,0.00713129165 16.5710379,0.257727383 16.5710379,0.56299671 L16.5710379,1.47304961 C23.5181487,1.69424476 29.6354487,4.85153031 31.9710759,11.3137317 C32.063968,11.5738361 31.9257719,11.8592129 31.6616893,11.9510439 C31.3977336,12.0427498 31.1082707,11.9061293 31.0152517,11.6460248 C31.0028153,11.6113692 30.9898713,11.5769639 30.9773081,11.5425585 L30.9773081,11.5425585 Z" id="ðŸŽ-Culoare"></path>
            </g>
        </g>
    </g>
</svg>