<?xml version="1.0" encoding="UTF-8"?>
<svg width="20px" height="20px" viewBox="0 0 20 20" version="1.1" xmlns="http://www.w3.org/2000/svg" xmlns:xlink="http://www.w3.org/1999/xlink">
    <title>140C675D-C68F-4732-97E1-95458F74E542@2x</title>
          <linearGradient id="lg" gradientTransform="rotate(135,50%,50%)" gradientUnits="userSpaceOnUse">
    <stop id="color1" offset="0" style="stop-color:var(--ion-color-base);"/>
    <stop id="color2" offset="1" style="stop-color:var(--ion-color-shade);" />
  </linearGradient>
    <g id="Cover" stroke="none" stroke-width="1" fill="none" fill-rule="evenodd">
        <g id="Icons-and-illustrations" transform="translate(-300.000000, -150.000000)" fill="url(#lg)">
            <g id="USer-default" transform="translate(300.000000, 150.000000)">
                <path d="M10,0 C12,0 14,1.5 14,4 C14,5.37622241 12.3672178,7.83333333 12.3672178,8.83333333 C12.3672178,9.38929059 13.4411724,10.2157002 15.5890818,11.3125623 C16.4743671,11.7646429 17.0782356,12.625885 17.2015306,13.6122446 L17.9297478,19.4379826 C17.9639991,19.7119926 17.7696362,19.9618877 17.4956263,19.9961389 C17.4750538,19.9987105 17.4543414,20 17.4336089,20 L2.56639111,20 C2.29024873,20 2.06639111,19.7761424 2.06639111,19.5 C2.06639111,19.4792675 2.06768062,19.458555 2.07025217,19.4379826 L2.8042121,13.5663032 C2.92423136,12.6062797 3.49986334,11.7630547 4.35023028,11.3016158 L4.852111,11.022993 C6.52884885,10.069143 7.36721778,9.33925646 7.36721778,8.83333333 C7.36721778,7.83333333 6,5.38824122 6,4 C6,1.5 8,0 10,0 Z M4.81077102,13.6963726 L4.78876785,13.8143727 L4.26521778,17.9993333 L15.7342178,17.9993333 L15.2169748,13.8603141 C15.2008647,13.731433 15.1601403,13.6089605 15.0987999,13.4985992 L15.1961161,13.4805807 C13.465192,13.8267655 11.732847,14 10,14 C8.48375886,14 6.96790208,13.8673673 5.45304522,13.6022924 L4.88477565,13.4949043 C4.85314874,13.558802 4.82824585,13.626302 4.81077102,13.6963726 Z M10,2 C8.88577469,2 8,2.81196013 8,4 C8,4.18544211 8.10741819,4.60859496 8.33384494,5.25296718 L8.94476629,6.90613357 C9.31579713,7.93142985 9.36721778,8.22151045 9.36721778,8.83333333 C9.36721778,10.0226453 8.71380039,10.8982834 7.33090805,11.8497386 C8.22063761,11.9505374 9.11039635,12 10,12 C10.8329198,12 11.6659755,11.9566399 12.4992967,11.8698796 C11.0423386,10.9206924 10.3672178,10.0488016 10.3672178,8.83333333 C10.3672178,8.28544142 10.5050224,7.77437291 10.7590391,7.12306967 C10.8206631,6.96506459 10.8888369,6.80049749 10.9691921,6.61441241 L11.5296486,5.35300845 L11.6754578,5.00752181 C11.8953038,4.46902011 12,4.11975094 12,4 C12,2.81196013 11.1142253,2 10,2 Z" id="ðŸŽ-Culoare"></path>
            </g>
        </g>
    </g>
</svg>