<?xml version="1.0" encoding="UTF-8"?>
<svg width="21px" height="21px" viewBox="0 0 21 21" version="1.1" xmlns="http://www.w3.org/2000/svg" xmlns:xlink="http://www.w3.org/1999/xlink">
    <title>5FDF88B0-C08C-4A2B-B536-C63645B22006@2x</title>
    <g id="Cover" stroke="none" stroke-width="1" fill="none" fill-rule="evenodd">
        <g id="Icons-and-illustrations" transform="translate(-1055.000000, -194.000000)" fill="currentColor">
            <g id="Warning" transform="translate(1055.000000, 194.000000)">
                <path d="M10.9882962,0.0854421106 C16.5111437,0.0854421106 20.9882962,4.56259461 20.9882962,10.0854421 C20.9882962,15.6082896 16.5111437,20.0854421 10.9882962,20.0854421 C5.46544869,20.0854421 0.988296192,15.6082896 0.988296192,10.0854421 C0.988296192,4.56259461 5.46544869,0.0854421106 10.9882962,0.0854421106 Z M11,13.4965341 C10.1715729,13.4965341 9.5,14.168107 9.5,14.9965341 C9.5,15.8249612 10.1715729,16.4965341 11,16.4965341 C11.8284271,16.4965341 12.5,15.8249612 12.5,14.9965341 C12.5,14.168107 11.8284271,13.4965341 11,13.4965341 Z M11.9955608,4 L10.004591,4 L9.89335667,4.00690918 C9.45611178,4.06162863 9.1178229,4.43469255 9.1178229,4.88676806 C9.1178229,4.92353792 9.1201099,4.96027219 9.12467064,4.99675811 L9.12467064,4.99675811 L9.90297862,11.223222 L9.92340391,11.3317271 C10.0218072,11.720176 10.3729493,12 10.782899,12 L10.782899,12 L11.2172528,12 L11.3274535,11.9931908 C11.7251081,11.9437286 12.0463251,11.6300059 12.0971731,11.223222 L12.0971731,11.223222 L12.8754811,4.99675811 L12.8824222,4.88552579 C12.8823589,4.44487025 12.5541354,4.0629208 12.1055508,4.00684773 C12.0690649,4.00228699 12.0323306,4 11.9955608,4 L11.9955608,4 Z" id="ðŸŽ-Culoare"></path>
            </g>
        </g>
    </g>
</svg>