<?xml version="1.0" encoding="UTF-8"?>
<svg width="70px" height="120px" viewBox="0 0 70 120" version="1.1" xmlns="http://www.w3.org/2000/svg" xmlns:xlink="http://www.w3.org/1999/xlink">
    <title>BFC68544-7F11-42C7-81F3-EDA9D455E0CE</title>
    <defs>
        <path d="M57.2,0.000172999225 C59.8509668,0.000172999225 62,2.1492062 62,4.800173 L62,105.200173 C62,107.85114 59.8509668,110.000173 57.2,110.000173 L4.8,110.000173 C2.1490332,110.000173 -2.33988546e-15,107.85114 0,105.200173 L0,4.800173 C-3.24649801e-16,2.1492062 2.1490332,0.000172999225 4.8,0.000172999225 L27,4.21884749e-14 C27,2.209139 28.790861,4 31,4 C33.209139,4 35,2.209139 35,4.21884749e-14 L35,4.21884749e-14 L57.2,0.000172999225 Z" id="path-1"></path>
    </defs>
    <g id="Homepage" stroke="none" stroke-width="1" fill="none" fill-rule="evenodd">
        <g id="8-0-Schimbare-Numar-Telefon" transform="translate(-153.000000, -120.000000)">
            <g id="Phone-change" transform="translate(153.000000, 120.000000)">
                <g id="Group-9">
                    <path d="M7.5,0 L62.5,0 C66.6421356,-7.6089797e-16 70,3.35786438 70,7.5 L70,112.5 C70,116.642136 66.6421356,120 62.5,120 L7.5,120 C3.35786438,120 5.07265313e-16,116.642136 0,112.5 L0,7.5 C-5.07265313e-16,3.35786438 3.35786438,7.6089797e-16 7.5,0 Z" id="Mask" fill="#2E485D"></path>
                    <g id="Group" transform="translate(4.000000, 4.000000)">
                        <mask id="mask-2" fill="white">
                            <use xlink:href="#path-1"></use>
                        </mask>
                        <use id="Combined-Shape" fill="#FCF9F5" xlink:href="#path-1"></use>
                    </g>
                </g>
                <g id="Group-2" transform="translate(12.000000, 29.000000)">
                    <path d="M36,43 C36,47.418278 32.418278,51 28,51 L28,51 L21,51 L21,55 L13,49.5 L21,44 L21,48 L28,48 C30.7614237,48 33,45.7614237 33,43 L33,43 Z M39.1715729,14 C39.7020059,14 40.2107137,14.2107137 40.5857864,14.5857864 L46.4142136,20.4142136 C46.7892863,20.7892863 47,21.2979941 47,21.8284271 L47,39 C47,40.1045695 46.1045695,41 45,41 L28,41 C26.8954305,41 26,40.1045695 26,39 L26,16 C26,14.8954305 26.8954305,14 28,14 L39.1715729,14 Z M33,31 L30,31 L30,36 C30,36.5128358 30.3860402,36.9355072 30.8833789,36.9932723 L31,37 L36,37 L36,34 L34,34 L33.8833789,33.9932723 C33.424297,33.9399506 33.0600494,33.575703 33.0067277,33.1166211 L33,33 L33,31 Z M43,31 L40,31 L40,33 L39.9932723,33.1166211 C39.9399506,33.575703 39.575703,33.9399506 39.1166211,33.9932723 L39,34 L37,34 L37,37 L42,37 C42.5128358,37 42.9355072,36.6139598 42.9932723,36.1166211 L43,36 L43,31 Z M39,28 L34,28 L34,33 L39,33 L39,28 Z M42,24 L37,24 L37,27 L39,27 C39.5128358,27 39.9355072,27.3860402 39.9932723,27.8833789 L40,28 L40,30 L43,30 L43,25 C43,24.4477153 42.5522847,24 42,24 Z M36,24 L31,24 C30.4871642,24 30.0644928,24.3860402 30.0067277,24.8833789 L30,25 L30,30 L33,30 L33,28 L33.0067277,27.8833789 C33.0600494,27.424297 33.424297,27.0600494 33.8833789,27.0067277 L34,27 L36,27 L36,24 Z" id="Combined-Shape" fill="#AFC8DB"></path>
                    <path d="M13.1715729,14 C13.7020059,14 14.2107137,14.2107137 14.5857864,14.5857864 L20.4142136,20.4142136 C20.7892863,20.7892863 21,21.2979941 21,21.8284271 L21,39 C21,40.1045695 20.1045695,41 19,41 L2,41 C0.8954305,41 1.3527075e-16,40.1045695 0,39 L0,16 C-1.3527075e-16,14.8954305 0.8954305,14 2,14 L13.1715729,14 Z M7,31 L4,31 L4,36 C4,36.5128358 4.38604019,36.9355072 4.88337887,36.9932723 L5,37 L10,37 L10,34 L8,34 L7.88337887,33.9932723 C7.42429701,33.9399506 7.06004937,33.575703 7.00672773,33.1166211 L7,33 L7,31 Z M17,31 L14,31 L14,33 L13.9932723,33.1166211 C13.9399506,33.575703 13.575703,33.9399506 13.1166211,33.9932723 L13,34 L11,34 L11,37 L16,37 C16.5128358,37 16.9355072,36.6139598 16.9932723,36.1166211 L17,36 L17,31 Z M13,28 L8,28 L8,33 L13,33 L13,28 Z M16,24 L11,24 L11,27 L13,27 C13.5128358,27 13.9355072,27.3860402 13.9932723,27.8833789 L14,28 L14,30 L17,30 L17,25 C17,24.4477153 16.5522847,24 16,24 Z M10,24 L5,24 C4.48716416,24 4.06449284,24.3860402 4.00672773,24.8833789 L4,25 L4,30 L7,30 L7,28 L7.00672773,27.8833789 C7.06004937,27.424297 7.42429701,27.0600494 7.88337887,27.0067277 L8,27 L10,27 L10,24 Z M26,0 L34,5.5 L26,11 L26,7 L19,7 C16.2385763,7 14,9.23857625 14,12 L14,12 L11,12 C11,7.581722 14.581722,4 19,4 L19,4 L26,4 L26,0 Z" id="Combined-Shape" fill="#00AB9E" fill-rule="nonzero"></path>
                </g>
            </g>
        </g>
    </g>
</svg>