<?xml version="1.0" encoding="UTF-8"?>
<svg width="20px" height="20px" viewBox="0 0 20 20" version="1.1" xmlns="http://www.w3.org/2000/svg" xmlns:xlink="http://www.w3.org/1999/xlink">
    <title>E02A7DC5-8112-4211-A42A-7829EDF097D3@2x</title>
    <g id="Cover" stroke="none" stroke-width="1" fill="none" fill-rule="evenodd">
        <g id="Icons-and-illustrations" transform="translate(-912.000000, -194.000000)" fill="#A7ACA9">
            <g id="Renew" transform="translate(912.000000, 194.000000)">
                <path d="M17.7395833,11.6666667 C17.7395833,11.7013889 17.7361111,11.7256944 17.7291667,11.7395833 C17.2847222,13.6006944 16.3541667,15.109375 14.9375,16.265625 C13.5208333,17.421875 11.8611111,18 9.95833333,18 C8.94444444,18 7.96354167,17.8090278 7.015625,17.4270833 C6.06770833,17.0451389 5.22222222,16.5 4.47916667,15.7916667 L3.13541667,17.1354167 C3.00347222,17.2673611 2.84722222,17.3333333 2.66666667,17.3333333 C2.48611111,17.3333333 2.32986111,17.2673611 2.19791667,17.1354167 C2.06597222,17.0034722 2,16.8472222 2,16.6666667 L2,12 C2,11.8194444 2.06597222,11.6631944 2.19791667,11.53125 C2.32986111,11.3993056 2.48611111,11.3333333 2.66666667,11.3333333 L7.33333333,11.3333333 C7.51388889,11.3333333 7.67013889,11.3993056 7.80208333,11.53125 C7.93402778,11.6631944 8,11.8194444 8,12 C8,12.1805556 7.93402778,12.3368056 7.80208333,12.46875 L6.375,13.8958333 C6.86805556,14.3541667 7.42708333,14.7083333 8.05208333,14.9583333 C8.67708333,15.2083333 9.32638889,15.3333333 10,15.3333333 C10.9305556,15.3333333 11.7986111,15.1076389 12.6041667,14.65625 C13.4097222,14.2048611 14.0555556,13.5833333 14.5416667,12.7916667 C14.6180556,12.6736111 14.8020833,12.2673611 15.09375,11.5729167 C15.1493056,11.4131944 15.2534722,11.3333333 15.40625,11.3333333 L17.40625,11.3333333 C17.4965278,11.3333333 17.5746528,11.3663194 17.640625,11.4322917 C17.7065972,11.4982639 17.7395833,11.5763889 17.7395833,11.6666667 Z M18,3.33333333 L18,8 C18,8.18055556 17.9340278,8.33680556 17.8020833,8.46875 C17.6701389,8.60069444 17.5138889,8.66666667 17.3333333,8.66666667 L12.6666667,8.66666667 C12.4861111,8.66666667 12.3298611,8.60069444 12.1979167,8.46875 C12.0659722,8.33680556 12,8.18055556 12,8 C12,7.81944444 12.0659722,7.66319444 12.1979167,7.53125 L13.6354167,6.09375 C12.6076389,5.14236111 11.3958333,4.66666667 10,4.66666667 C9.06944444,4.66666667 8.20138889,4.89236111 7.39583333,5.34375 C6.59027778,5.79513889 5.94444444,6.41666667 5.45833333,7.20833333 C5.38194444,7.32638889 5.19791667,7.73263889 4.90625,8.42708333 C4.85069444,8.58680556 4.74652778,8.66666667 4.59375,8.66666667 L2.52083333,8.66666667 C2.43055556,8.66666667 2.35243056,8.63368056 2.28645833,8.56770833 C2.22048611,8.50173611 2.1875,8.42361111 2.1875,8.33333333 L2.1875,8.26041667 C2.63888889,6.39930556 3.57638889,4.890625 5,3.734375 C6.42361111,2.578125 8.09027778,2 10,2 C11.0138889,2 12,2.19270833 12.9583333,2.578125 C13.9166667,2.96354167 14.7673611,3.50694444 15.5104167,4.20833333 L16.8645833,2.86458333 C16.9965278,2.73263889 17.1527778,2.66666667 17.3333333,2.66666667 C17.5138889,2.66666667 17.6701389,2.73263889 17.8020833,2.86458333 C17.9340278,2.99652778 18,3.15277778 18,3.33333333 Z" id="ðŸŽ-Culoare"></path>
            </g>
        </g>
    </g>
</svg>