<?xml version="1.0" encoding="UTF-8"?>
<svg width="124px" height="158px" viewBox="0 0 124 158" version="1.1" xmlns="http://www.w3.org/2000/svg" xmlns:xlink="http://www.w3.org/1999/xlink">
    <title>1908F156-BE53-43C0-ADC9-A42E6F18A86C</title>
    <defs>
        <ellipse id="path-1" cx="57.5" cy="70" rx="57.5" ry="70"></ellipse>
    </defs>
    <g id="Cover" stroke="none" stroke-width="1" fill="none" fill-rule="evenodd">
        <g id="Icons-and-illustrations" transform="translate(-1156.000000, -1700.000000)">
            <g id="Selfie" transform="translate(1156.000000, 1700.000000)">
                <g id="Rectangle" transform="translate(4.000000, 13.671233)">
                    <mask id="mask-2" fill="white">
                        <use xlink:href="#path-1"></use>
                    </mask>
                    <use id="Mask" fill="#F2F9F5" xlink:href="#path-1"></use>
                    <path d="M55.0335628,83.1486025 L57.5890411,82.739726 L57.5890411,82.739726 L60.1445194,83.1486025 C89.4164945,87.8321186 111.716258,111.882767 114.178082,141.424658 L114.178082,141.424658 L114.178082,141.424658 L1,141.424658 C3.46182418,111.882767 25.7615877,87.8321186 55.0335628,83.1486025 Z" fill="#3C968D" mask="url(#mask-2)"></path>
                </g>
                <path d="M61.5890411,9.67123288 C27.3280977,9.67123288 0,43.0722411 0,83.8356164 C0,124.598992 27.3280977,158 61.5890411,158 C95.8499845,158 123.178082,124.598992 123.178082,83.8356164 C123.178082,43.0722411 95.8499845,9.67123288 61.5890411,9.67123288 Z M61.5890411,14.6712329 C92.8423055,14.6712329 118.178082,45.6371822 118.178082,83.8356164 C118.178082,122.034051 92.8423055,153 61.5890411,153 C30.3357767,153 5,122.034051 5,83.8356164 C5,45.6371822 30.3357767,14.6712329 61.5890411,14.6712329 Z" id="Oval" fill="#F1DA81"></path>
                <path d="M61.5890411,94.3150685 L72.3885124,96.0429839 C74.5037126,96.3814159 77.2972747,97.1026755 80.7691988,98.2067627 C83.0766693,98.9405434 84.6438356,101.083409 84.6438356,103.504742 L84.6438356,103.504742 L84.6438356,103.504742 C84.6438356,110.905008 74.3218525,119.465753 61.5890411,119.465753 C48.8562297,119.465753 38.5342466,110.905008 38.5342466,103.504742 C38.5324429,101.084572 40.0981293,98.9419028 42.4044405,98.2083116 C45.8782653,97.1033616 48.6733084,96.3815857 50.7895698,96.0429839 L61.5890411,94.3150685 Z" id="Path" fill="#6EC5AB"></path>
                <path d="M44.8219178,75.4520548 L78.3561644,75.4520548 L78.3561644,100.119073 C78.3561644,106.173836 70.8492676,113.178082 61.5890411,113.178082 C52.3288146,113.178082 44.8219178,106.173836 44.8219178,100.119073 L44.8219178,75.4520548 Z" id="Rectangle" fill="#FFD8C2"></path>
                <path d="M44.8219178,77.5479452 L78.3561644,77.5479452 L78.3561644,92.2191781 C78.3561644,104.794521 44.8219178,105.842466 44.8219178,96.4109589 L44.8219178,77.5479452 Z" id="Rectangle" fill="#F0BDA1"></path>
                <path d="M30,31 L93,31 L93,68.6575342 C93,84.8629306 79.8629306,98 63.6575342,98 L59.3424658,98 C43.1370694,98 30,84.8629306 30,68.6575342 L30,31 L30,31 Z" id="Rectangle" fill="#FFD8C2"></path>
                <ellipse id="Oval" fill="#2E485D" cx="61.5890411" cy="29.3424658" rx="23.0547945" ry="10.4794521"></ellipse>
                <path d="M44.8219178,10.4794521 L44.8219178,34.5821918 C44.8219178,37.4760126 42.4760126,39.8219178 39.5821918,39.8219178 L38.5342466,39.8219178 C36.21919,39.8219178 34.3424658,41.698642 34.3424658,44.0136986 L34.3424658,52.3972603 C34.3424658,54.7123169 32.4657416,56.5890411 30.1506849,56.5890411 L30.1506849,56.5890411 L30.1506849,56.5890411 L30.1506849,25.1506849 C30.1506849,17.0479868 36.7192196,10.4794521 44.8219178,10.4794521 L44.8219178,10.4794521 L44.8219178,10.4794521 Z" id="Path" fill="#2E485D"></path>
                <path d="M93.0273973,25.1506849 L48.9178082,25.1506849 L48.9178082,35.630137 C48.9178082,37.9451936 47.041084,39.8219178 44.7260274,39.8219178 C42.4109708,39.8219178 40.5342466,41.698642 40.5342466,44.0136986 L40.5342466,52.3972603 C40.5342466,54.7123169 38.6575224,56.5890411 36.3424658,56.5890411 L36.3424658,56.5890411 L36.3424658,56.5890411 L36.3424658,27.2465753 C36.3424658,12.1987073 48.541173,-7.88465163e-16 63.5890411,0 C64.9863014,0 66.3835616,0 67.7808219,0 C69.2100457,0 70.6392694,0 72.0684932,0 C83.6437763,-2.12634501e-15 93.0273973,9.383621 93.0273973,20.9589041 L93.0273973,25.1506849 L93.0273973,25.1506849 Z" id="Path" fill="#2E485D" transform="translate(64.684932, 28.294521) scale(-1, 1) translate(-64.684932, -28.294521) "></path>
                <path d="M30.1506849,46.109589 L30.1506849,64.9726027 L28.3483789,64.9726027 C25.5911687,64.9726027 23.2380823,62.7504577 22.7847997,59.7186183 L21.8447461,53.4309471 C21.3326328,50.0056104 23.4083821,46.766029 26.481062,46.1951396 C26.7875088,46.1382032 27.0976515,46.109589 27.4083252,46.109589 L30.1506849,46.109589 Z M95.769757,46.109589 C96.0804307,46.109589 96.3905734,46.1382032 96.6970201,46.1951396 C99.6558971,46.744885 101.690323,49.7693021 101.379669,53.0512447 L101.333336,53.4309471 L100.393282,59.7186183 C99.9588867,62.6241311 97.7797057,64.7860183 95.1721416,64.9611312 L94.8297033,64.9726027 L93.0273973,64.9726027 L93.0273973,46.109589 L95.769757,46.109589 Z" id="Shape" fill="#F7CBB2"></path>
                <path d="M70,82 C70,84.209139 68.209139,86 66,86 L57,86 C54.790861,86 53,84.209139 53,82 L70,82 Z M66.2054795,71 C66.2054795,73.209139 64.4146185,75 62.2054795,75 L61.2054795,75 C58.9963405,75 57.2054795,73.209139 57.2054795,71 L66.2054795,71 Z" id="Combined-Shape" fill="#F0BDA1"></path>
                <path d="M76.260274,54.4931507 C78.5753306,54.4931507 80.4520548,56.3698749 80.4520548,58.6849315 C80.4520548,60.9999881 78.5753306,62.8767123 76.260274,62.8767123 C73.9452174,62.8767123 72.0684932,60.9999881 72.0684932,58.6849315 C72.0684932,56.3698749 73.9452174,54.4931507 76.260274,54.4931507 Z M46.9178082,54.4931507 C49.2328648,54.4931507 51.109589,56.3698749 51.109589,58.6849315 C51.109589,60.9999881 49.2328648,62.8767123 46.9178082,62.8767123 C44.6027516,62.8767123 42.7260274,60.9999881 42.7260274,58.6849315 C42.7260274,56.3698749 44.6027516,54.4931507 46.9178082,54.4931507 Z" id="Combined-Shape" fill="#2E485D"></path>
            </g>
        </g>
    </g>
</svg>