<?xml version="1.0" encoding="UTF-8"?>
<svg width="20px" height="20px" viewBox="0 0 20 20" version="1.1" xmlns="http://www.w3.org/2000/svg" xmlns:xlink="http://www.w3.org/1999/xlink">
    <title>64186304-1548-49F8-B9F6-6C98E02699F5@2x</title>
    <g id="Cover" stroke="none" stroke-width="1" fill="none" fill-rule="evenodd">
        <g id="Icons-and-illustrations" transform="translate(-588.000000, -150.000000)" fill="#018641">
            <g id="Asistenta" transform="translate(588.000000, 150.000000)">
                <path d="M17.3520721,0.00591891889 C18.8094865,0.00591891889 20.000036,1.19642342 20.000036,2.65383784 L20.000036,12.3129279 C20.000036,13.7703243 18.8094595,14.9608468 17.3520721,14.9608468 L12.6015315,14.9608468 L7.84910811,19.4956667 C7.49066667,19.8376847 6.89207207,19.5492432 6.94118018,19.0522613 L7.34556757,14.9608468 L2.64801802,14.9608468 C1.19063063,14.9608468 5.4054039e-05,13.7703423 5.4054039e-05,12.3129279 L5.4054039e-05,2.65383784 C5.4054039e-05,1.1963964 1.1906036,0.00591891889 2.64801802,0.00591891889 L17.3520721,0.00591891889 Z M7.19502703,3.69958559 L5.95835135,3.69958559 L5.77514414,4.43585586 C5.49612613,4.50901802 5.23214414,4.61962162 4.98898198,4.76173874 L4.98898198,4.76173874 L4.33834234,4.37047748 L3.46386486,5.24500901 L3.85511712,5.89559459 C3.71295495,6.13868468 3.60240541,6.40261261 3.52926126,6.68151351 L3.52926126,6.68151351 L2.79276577,6.86489189 L2.79276577,8.10159459 L3.52909009,8.28481982 C3.60227928,8.56383784 3.71285586,8.82794595 3.85496396,9.07103604 L3.85496396,9.07103604 L3.46371171,9.7216036 L4.33823423,10.5961081 L4.9888018,10.2048739 C5.23189189,10.347009 5.49569369,10.4575405 5.77476577,10.5307568 L5.77476577,10.5307568 L5.95811712,11.2671532 L7.19479279,11.2671532 L7.37804505,10.5308559 C7.65707207,10.4576667 7.921,10.3471171 8.16418919,10.204973 L8.16418919,10.204973 L8.8148018,10.5962342 L9.68927928,9.7217027 L9.29807207,9.07114414 C9.44018919,8.82802703 9.55073874,8.56412613 9.62390991,8.28515315 L9.62390991,8.28515315 L10.3603514,8.10184685 L10.3603514,6.86514414 L9.62406306,6.68194595 C9.55086486,6.40287387 9.44034234,6.13879279 9.29818018,5.89572973 L9.29818018,5.89572973 L9.68943243,5.24513514 L8.81490991,4.37058559 L8.16434234,4.76186486 C7.92127928,4.61972973 7.65745045,4.50917117 7.37837838,4.43598198 L7.37837838,4.43598198 L7.19502703,3.69958559 Z M14.6567297,4.24011712 L13.4515676,4.24011712 L13.2034775,5.25379279 C12.9771622,5.34322523 12.7677838,5.46718018 12.5817928,5.61938739 L12.5817928,5.61938739 L11.5936757,5.33091892 L10.991045,6.39237838 L11.7117928,7.12397297 L11.7116847,7.84379279 L10.990973,8.57408108 L11.5935766,9.63559459 L12.5815135,9.34715315 C12.7675495,9.49940541 12.9767838,9.62338739 13.2030901,9.71279279 L13.2030901,9.71279279 L13.4513423,10.7266036 L14.6565225,10.7266036 L14.9045946,9.71291892 C15.1309369,9.62354054 15.3402883,9.49953153 15.5263063,9.34735135 L15.5263063,9.34735135 L16.5143964,9.63581982 L17.1170721,8.57433333 L16.3963874,7.84379279 L16.3963874,7.12307207 L17.1170721,6.3926036 L16.5145225,5.33111712 L15.5265586,5.61961261 C15.3404144,5.46746847 15.1312613,5.3432973 14.904982,5.25394595 L14.904982,5.25394595 L14.6567297,4.24011712 Z M14.054,6.22206306 C15.7357117,6.22206306 15.7357117,8.74462162 14.054,8.74462162 C12.3723604,8.74462162 12.3723604,6.22206306 14.054,6.22206306 Z M6.57659688,6.48335586 C7.90991065,6.48335586 7.90991065,8.48335586 6.57659688,8.48335586 C5.24324398,8.48335586 5.24324398,6.48335586 6.57659688,6.48335586 Z" id="ðŸŽ-Culoare"></path>
            </g>
        </g>
    </g>
</svg>