<?xml version="1.0" encoding="UTF-8"?>
<svg width="20px" height="20px" viewBox="0 0 20 20" version="1.1" xmlns="http://www.w3.org/2000/svg" xmlns:xlink="http://www.w3.org/1999/xlink">
    <title>94468ACE-FB7A-4919-87ED-F5308D79D108@2x</title>
    <g id="Cover" stroke="none" stroke-width="1" fill="none" fill-rule="evenodd">
        <g id="Icons-and-illustrations" transform="translate(-660.000000, -150.000000)" fill="#ffffff">
            <g id="File" transform="translate(660.000000, 150.000000)">
                <path d="M11.9770284,0 C12.4527208,0 12.9107757,0.169458075 13.2706472,0.474689168 L13.4008393,0.595449396 L17.4238109,4.6735873 C17.7519859,5.00626244 17.9519992,5.44190357 17.9923951,5.9038322 L18,6.0781379 L18,18 C18,19.0543618 17.1841222,19.9181651 16.1492623,19.9945143 L16,20 L4,20 C2.9456382,20 2.08183488,19.1841222 2.00548574,18.1492623 L2,18 L2,2 C2,0.945638205 2.81587779,0.0818348781 3.85073766,0.00548573643 L4,0 L11.9770284,0 Z M10,2 L4,2 L4,18 L16,18 L16,16 L11,16 C10.4477153,16 10,15.5522847 10,15 C10,14.4871642 10.3860402,14.0644928 10.8833789,14.0067277 L11,14 L16,14 L16,12 L11,12 C10.4477153,12 10,11.5522847 10,11 C10,10.4871642 10.3860402,10.0644928 10.8833789,10.0067277 L11,10 L16,10 L16,8 L12,8 C10.9456382,8 10.0818349,7.18412221 10.0054857,6.14926234 L10,6 L10,2 Z M7,10 C7.55228475,10 8,10.4477153 8,11 C8,11.5522847 7.55228475,12 7,12 C6.44771525,12 6,11.5522847 6,11 C6,10.4477153 6.44771525,10 7,10 Z M12,2.023 L12,6 L15.923,6 L12,2.023 Z" id="ðŸŽ-Culoare"></path>
            </g>
        </g>
    </g>
</svg>