<?xml version="1.0" encoding="UTF-8" standalone="no"?>
<svg
   xmlns:dc="http://purl.org/dc/elements/1.1/"
   xmlns:cc="http://creativecommons.org/ns#"
   xmlns:rdf="http://www.w3.org/1999/02/22-rdf-syntax-ns#"
   xmlns:svg="http://www.w3.org/2000/svg"
   xmlns="http://www.w3.org/2000/svg"
   xmlns:sodipodi="http://sodipodi.sourceforge.net/DTD/sodipodi-0.dtd"
   xmlns:inkscape="http://www.inkscape.org/namespaces/inkscape"
   id="svg883"
   version="1.1"
   viewBox="0 0 144 78"
   height="78"
   width="144"
   sodipodi:docname="sm-gold.svg"
   inkscape:version="0.92.3 (2405546, 2018-03-11)">
  <sodipodi:namedview
     pagecolor="#ffffff"
     bordercolor="#666666"
     borderopacity="1"
     objecttolerance="10"
     gridtolerance="10"
     guidetolerance="10"
     inkscape:pageopacity="0"
     inkscape:pageshadow="2"
     inkscape:window-width="2560"
     inkscape:window-height="1416"
     id="namedview1654"
     showgrid="true"
     inkscape:zoom="2.8284271"
     inkscape:cx="-98.586269"
     inkscape:cy="-30.577733"
     inkscape:window-x="1680"
     inkscape:window-y="24"
     inkscape:window-maximized="1"
     inkscape:current-layer="svg883">
    <inkscape:grid
       type="xygrid"
       id="grid2199" />
  </sodipodi:namedview>
  <metadata
     id="metadata889">
    <rdf:RDF>
      <cc:Work
         rdf:about="">
        <dc:format>image/svg+xml</dc:format>
        <dc:type
           rdf:resource="http://purl.org/dc/dcmitype/StillImage" />
        <dc:title>02DB37F4-F71D-4083-A180-3F8079EB92F8@2x</dc:title>
      </cc:Work>
    </rdf:RDF>
  </metadata>
  <defs
     id="defs887" />
  <title
     id="title872">02DB37F4-F71D-4083-A180-3F8079EB92F8@2x</title>
  <g
     transform="matrix(1.125,0,0,0.98064537,-78.75,-15.690074)"
     style="fill:none;fill-rule:evenodd;stroke:none;stroke-width:1"
     id="Cover">
    <g
       transform="translate(-750,-602)"
       id="Icons-and-illustrations">
      <g
         transform="translate(750,602)"
         id="UI/Misc/Ilustratii/Casa-1">
        <g
           transform="translate(70,16)"
           id="Group">
          <path
             style="fill:#ffd740"
             id="Combined-Shape"
             d="m 56.989789,29.409805 6.186559,23.616328 H 63.488 l 6.186559,-23.616328 c 0.447058,-1.706582 1.989148,-2.896738 3.753314,-2.896738 H 53.236475 c 1.764166,0 3.306256,1.190156 3.753314,2.896738 z M 21.504,53.026133 27.690559,29.409805 c 0.447058,-1.706582 1.989148,-2.896738 3.753314,-2.896738 H 41.984 L 48.170558,2.8967387 C 48.617617,1.1901564 50.159707,0 51.923873,0 h 21.792602 c 1.764166,0 3.306256,1.1901564 3.753314,2.8967387 l 6.186559,23.6163283 h 11.564127 c 1.764166,0 3.306256,1.190156 3.753314,2.896738 l 6.186561,23.616328 h 10.54012 c 1.76417,0 3.30626,1.190157 3.75332,2.896739 L 125.64035,79.5392 H 83.968 l 6.186558,-23.616328 c 0.447059,-1.706582 1.989149,-2.896739 3.753315,-2.896739 H 73.716475 c 1.764166,0 3.306256,1.190157 3.753314,2.896739 L 83.656348,79.5392 H 41.984 l 6.186558,-23.616328 c 0.447059,-1.706582 1.989149,-2.896739 3.753315,-2.896739 H 31.732475 c 1.764166,0 3.306256,1.190157 3.753314,2.896739 L 41.672348,79.5392 H 0 L 6.1865585,55.922872 C 6.6336166,54.21629 8.1757066,53.026133 9.9398732,53.026133 Z"
             inkscape:connector-curvature="0" />
          <path
             style="fill:#ffc106"
             id="path875"
             d="m 119.36758,56.580517 c 0.25975,0.340224 0.44936,0.72864 0.55783,1.142715 L 125.64035,79.5392 H 84.350527 c -0.07143,0 -0.129332,-0.0579 -0.129332,-0.129332 0,-0.04032 0.0188,-0.07833 0.05085,-0.102797 L 114.83558,55.972657 c 1.41933,-1.08362 3.44838,-0.811472 4.532,0.60786 z m -41.984002,0 c 0.259753,0.340224 0.449364,0.72864 0.557836,1.142715 L 83.656348,79.5392 H 42.366527 c -0.07143,0 -0.129332,-0.0579 -0.129332,-0.129332 0,-0.04032 0.0188,-0.07833 0.05085,-0.102797 l 30.56354,-23.334414 c 1.419331,-1.08362 3.448374,-0.811472 4.531993,0.60786 z m -41.984,0 c 0.259753,0.340224 0.449364,0.72864 0.557836,1.142715 L 41.672348,79.5392 H 0.38252666 c -0.0714281,0 -0.12933203,-0.0579 -0.12933203,-0.129332 0,-0.04032 0.0188029,-0.07833 0.0508493,-0.102797 L 30.867584,55.972657 c 1.419331,-1.08362 3.448374,-0.811472 4.531994,0.60786 z m 63.488,-26.513067 c 0.259753,0.340225 0.449364,0.72864 0.557836,1.142716 l 5.714936,21.815967 H 63.870527 c -0.07143,0 -0.129332,-0.0579 -0.129332,-0.129332 0,-0.04032 0.0188,-0.07833 0.05085,-0.102797 l 30.56354,-23.334413 c 1.419331,-1.08362 3.448374,-0.811473 4.531994,0.607859 z m -41.984,0 c 0.259753,0.340225 0.449364,0.72864 0.557836,1.142716 l 5.714934,21.815967 H 21.886527 c -0.07143,0 -0.129332,-0.0579 -0.129332,-0.129332 0,-0.04032 0.0188,-0.07833 0.05085,-0.102797 l 30.56354,-23.334413 c 1.419331,-1.08362 3.448374,-0.811473 4.531994,0.607859 z m 20.48,-26.5130669 c 0.259753,0.3402251 0.449364,0.7286407 0.557836,1.1427159 l 5.714934,21.815968 H 42.366527 c -0.07143,0 -0.129332,-0.0579 -0.129332,-0.129332 0,-0.04032 0.0188,-0.07833 0.05085,-0.102797 L 72.851584,2.946524 c 1.419331,-1.0836201 3.448374,-0.8114723 4.531994,0.6078591 z"
             inkscape:connector-curvature="0" />
          <path
             style="fill:#ffe68a"
             id="path877"
             d="m 102.77844,55.612774 -6.910102,1.863566 c -0.937986,0.252963 -1.712515,0.914281 -2.109351,1.801033 l -4.581944,10.238595 2.860801,-11.453425 c 0.359598,-1.43968 1.653016,-2.449769 3.136927,-2.449769 z m -41.984005,0 -6.910097,1.863566 c -0.937986,0.252963 -1.712515,0.914281 -2.109351,1.801033 l -4.581943,10.238595 2.8608,-11.453425 c 0.359598,-1.43968 1.653016,-2.449769 3.136927,-2.449769 z m -41.984,0 -6.910097,1.863566 c -0.937986,0.252963 -1.712515,0.914281 -2.1093512,1.801033 L 5.2090435,69.515968 8.0698436,58.062543 c 0.3595987,-1.43968 1.6530168,-2.449769 3.1369274,-2.449769 z M 118.784,26.513067 v 2.039466 c 0,3.942283 3.19585,7.138134 7.13813,7.138134 H 128 V 36.7104 h -2.07787 c -3.94228,0 -7.13813,3.195851 -7.13813,7.138133 V 45.888 h -1.024 v -2.039467 c 0,-3.942282 -3.19585,-7.138133 -7.13813,-7.138133 H 108.544 v -1.019733 h 2.07787 c 3.94228,0 7.13813,-3.195851 7.13813,-7.138134 v -2.039466 z m -36.485565,2.58664 -6.910097,1.863566 c -0.937986,0.252963 -1.712515,0.914282 -2.109351,1.801033 l -4.581943,10.238595 2.8608,-11.453425 c 0.359598,-1.43968 1.653016,-2.449769 3.136927,-2.449769 z m -41.984,0 -6.910097,1.863566 c -0.937986,0.252963 -1.712515,0.914282 -2.109351,1.801033 l -4.581943,10.238595 2.8608,-11.453425 c 0.359598,-1.43968 1.653016,-2.449769 3.136927,-2.449769 z M 109.568,21.4144 v 1.019733 c 0,2.252733 1.8262,4.078934 4.07893,4.078934 H 114.688 V 27.5328 h -1.04107 c -2.25273,0 -4.07893,1.826201 -4.07893,4.078933 v 1.019734 h -1.024 v -1.019734 c 0,-2.252732 -1.8262,-4.078933 -4.07893,-4.078933 H 103.424 v -1.019733 h 1.04107 c 2.25273,0 4.07893,-1.826201 4.07893,-4.078934 V 21.4144 Z M 18.432,15.296 v 1.019733 c 0,2.252733 1.826201,4.078934 4.078933,4.078934 H 23.552 V 21.4144 h -1.041067 c -2.252732,0 -4.078933,1.826201 -4.078933,4.078933 v 1.019734 h -1.024 v -1.019734 c 0,-2.252732 -1.826201,-4.078933 -4.078933,-4.078933 H 12.288 v -1.019733 h 1.041067 c 2.252732,0 4.078933,-1.826201 4.078933,-4.078934 V 15.296 Z M 27.648,0 v 2.0394667 c 0,3.9422821 3.195851,7.1381333 7.138133,7.1381333 H 36.864 v 1.019733 h -2.077867 c -3.942282,0 -7.138133,3.195852 -7.138133,7.138134 v 2.039466 h -1.024 v -2.039466 c 0,-3.942282 -3.195851,-7.138134 -7.138133,-7.138134 H 17.408 V 9.1776 h 2.077867 C 23.428149,9.1776 26.624,5.9817488 26.624,2.0394667 V 0 Z m 33.146435,2.5866407 -6.910097,1.8635661 c -0.937986,0.2529629 -1.712515,0.9142811 -2.109351,1.8010328 l -4.581943,10.2385944 2.8608,-11.4534243 c 0.359598,-1.43968 1.653016,-2.449769 3.136927,-2.449769 z"
             inkscape:connector-curvature="0" />
        </g>
      </g>
    </g>
  </g>
</svg>
