<?xml version="1.0" encoding="UTF-8"?>
<svg width="20px" height="20px" viewBox="0 0 20 20" version="1.1" xmlns="http://www.w3.org/2000/svg" xmlns:xlink="http://www.w3.org/1999/xlink">
    <title>0CF96774-0C77-4F1E-B606-43C0E248A034@2x</title>
    <g id="Cover" stroke="none" stroke-width="1" fill="none" fill-rule="evenodd">
        <g id="Icons-and-illustrations" transform="translate(-840.000000, -150.000000)" fill="#018641">
            <g id="Iesire" transform="translate(840.000000, 150.000000)">
                <path d="M5.70710678,13.2928932 L4.29289322,14.7071068 L0.292893219,10.7071068 C-0.0675907428,10.3466228 -0.0953202783,9.77939176 0.209704612,9.38710056 L0.292893219,9.29289322 L4.29289322,5.29289322 L5.70710678,6.70710678 L3.414,9 L14,9 L14,11 L8.999,11 L9,18 L18,18 L18,2 L9,2 L8.999,7 L6.999,7 L7,1 C7,0.44771525 7.44771525,0 8,0 L19,0 C19.5522847,0 20,0.44771525 20,1 L20,19 C20,19.5522847 19.5522847,20 19,20 L8,20 C7.44771525,20 7,19.5522847 7,19 L6.999,11 L3.414,11 L5.70710678,13.2928932 Z" id="ðŸŽ-Culoare"></path>
            </g>
        </g>
    </g>
</svg>