<?xml version="1.0" encoding="UTF-8"?>
<svg width="20px" height="20px" viewBox="0 0 20 20" version="1.1" xmlns="http://www.w3.org/2000/svg" xmlns:xlink="http://www.w3.org/1999/xlink">
    <title>3040D02B-26F8-4A16-837F-414619C20825@2x</title>
    <g id="Cover" stroke="none" stroke-width="1" fill="none" fill-rule="evenodd">
        <g id="Icons-and-illustrations" transform="translate(-480.000000, -194.000000)">
            <g id="OMNIASIG-simbol" transform="translate(480.000000, 194.000000)">
                <g id="Simbol-OMNIASIG" transform="translate(1.340000, 0.000000)">
                    <polygon id="Fill-1" fill="#D8232A" points="8.66163636 7.73299394 12.5812727 9.99481212 8.66284848 12.2574788 4.74369697 9.99481212"></polygon>
                    <polygon id="Fill-2" fill="#007B40" points="17.2522545 8.54986667 8.66231515 3.59192727 2.57395152 7.1062303 0.0726181818 5.66150303 0.0726181818 7.92307879 2.57395152 9.36804848 8.66158788 5.85374545 14.7500727 9.36913939 14.7509212 9.36804848 17.2522545 10.8130182"></polygon>
                    <polygon id="Fill-3" fill="#007B40" points="16.7097576 15.2677939 14.7506061 14.1368848 8.66224242 17.6524 0.0725454545 12.6922788 0.0725454545 14.9551879 8.66224242 19.9139758"></polygon>
                    <polygon id="Fill-4" fill="#007B40" points="8.66287273 14.1368727 2.57438788 10.6216 2.57402424 10.6216 0.072569697 9.17687273 0.072569697 11.4395394 8.66226667 16.3988121 14.7506303 12.8836606 17.2522061 14.3281455 17.2522061 12.0662061 14.7506303 10.6216"></polygon>
                    <polygon id="Fill-5" fill="#007B40" points="17.2522545 5.03555152 8.66231515 0.0776121212 0.616012121 4.72161212 2.57395152 5.85264242 8.66231515 2.33821818 17.2522545 7.2973697"></polygon>
                </g>
            </g>
        </g>
    </g>
</svg>