<?xml version="1.0" encoding="UTF-8" standalone="no"?>
<svg
   xmlns:dc="http://purl.org/dc/elements/1.1/"
   xmlns:cc="http://creativecommons.org/ns#"
   xmlns:rdf="http://www.w3.org/1999/02/22-rdf-syntax-ns#"
   xmlns:svg="http://www.w3.org/2000/svg"
   xmlns="http://www.w3.org/2000/svg"
   id="svg1592"
   version="1.1"
   viewBox="0 0 96 72"
   height="72"
   width="96">
  <metadata
     id="metadata1598">
    <rdf:RDF>
      <cc:Work
         rdf:about="">
        <dc:format>image/svg+xml</dc:format>
        <dc:type
           rdf:resource="http://purl.org/dc/dcmitype/StillImage" />
        <dc:title>88ACF9FF-55A0-43AD-B4E8-FDF3CB1611B3@2x</dc:title>
      </cc:Work>
    </rdf:RDF>
  </metadata>
  <defs
     id="defs1596" />
  <title
     id="title1578">88ACF9FF-55A0-43AD-B4E8-FDF3CB1611B3@2x</title>
  <g
     transform="translate(-86,-24)"
     style="fill:none;fill-rule:evenodd;stroke:none;stroke-width:1"
     id="Cover">
    <g
       transform="translate(-984,-602)"
       id="Icons-and-illustrations">
      <g
         transform="translate(984,602)"
         id="UI/Misc/Ilustratii/Casa-1">
        <g
           transform="translate(86,24)"
           id="Group">
          <path
             style="fill:#ffd433"
             id="Combined-Shape"
             d="M 48,12 V 72 H 20.807794 c -0.838652,0 -1.571937,-0.565281 -1.785368,-1.37632 L 5.5384615,19.384615 9.8168525,18.640596 c -0.082247,0.6981 -0.1245448,1.408428 -0.1245448,2.128635 0,9.941125 8.0588743,18 18.0000003,18 9.941125,0 18,-8.058875 18,-18 0,-2.88909 -0.680653,-5.619205 -1.890347,-8.038735 z" />
          <path
             style="fill:#ffc619"
             transform="matrix(-1,0,0,1,138.46154,0)"
             id="path1581"
             d="M 90.461539,12 V 72 H 63.269333 C 62.43068,72 61.697396,71.434719 61.483964,70.62368 L 48,19.384615 52.278391,18.640596 c -0.08225,0.6981 -0.124545,1.408428 -0.124545,2.128635 0,9.941125 8.058875,18 18,18 9.941126,0 18,-8.058875 18,-18 0,-2.88909 -0.680652,-5.619205 -1.890347,-8.038735 z" />
          <path
             style="fill:#ffd226"
             id="path1583"
             d="m 89.538461,13.846154 c 3.56861,0 6.461539,2.892929 6.461539,6.461538 0,3.568609 -2.892929,6.461539 -6.461539,6.461539 -3.568609,0 -6.461538,-2.89293 -6.461538,-6.461539 0,-3.568609 2.892929,-6.461538 6.461538,-6.461538 z m -83.0769225,0 c 3.5686095,0 6.4615385,2.892929 6.4615385,6.461538 0,3.568609 -2.892929,6.461539 -6.4615385,6.461539 C 2.8929293,26.769231 0,23.876301 0,20.307692 0,16.739083 2.8929293,13.846154 6.4615385,13.846154 Z M 48,0 c 4.588212,0 8.307692,3.7194805 8.307692,8.3076923 0,4.5882117 -3.71948,8.3076927 -8.307692,8.3076927 -4.588212,0 -8.307692,-3.719481 -8.307692,-8.3076927 C 39.692308,3.7194805 43.411788,0 48,0 Z" />
          <path
             style="fill:#f2c724"
             id="Rectangle"
             d="M 18.923077,65.538461 H 48 v 0 V 72 H 18.923077 c -1.784305,0 -3.230769,-1.446465 -3.230769,-3.230769 0,-1.784305 1.446464,-3.23077 3.230769,-3.23077 z" />
          <path
             style="fill:#e8b005"
             transform="matrix(-1,0,0,1,128.30769,0)"
             id="path1586"
             d="m 51.230769,65.538461 h 29.076923 v 0 V 72 H 51.230769 C 49.446465,72 48,70.553535 48,68.769231 c 0,-1.784305 1.446465,-3.23077 3.230769,-3.23077 z" />
        </g>
      </g>
    </g>
  </g>
</svg>
