<?xml version="1.0" encoding="UTF-8"?>
<svg width="32px" height="32px" viewBox="0 0 32 32" version="1.1" xmlns="http://www.w3.org/2000/svg" xmlns:xlink="http://www.w3.org/1999/xlink">
    <title>467320A5-589A-4DF8-BE91-C7A61FFDD6BE</title>
    <g id="Cover" stroke="none" stroke-width="1" fill="none" fill-rule="evenodd">
        <g id="Icons-and-illustrations" transform="translate(-984.000000, -334.000000)" fill="#006330">
            <g id="Lightning" transform="translate(984.000000, 334.000000)">
                <path d="M10.096625,5.6244875 L10.096625,9.6256125 L15.49975,6.1396125 C15.802,5.9456125 16.178375,5.9613625 16.458625,6.1496125 L16.606875,6.2452375 L16.463625,7.1956125 L16.3215,8.1394875 L15.971375,7.9137375 L5.346375,14.7684875 L5.346375,30.5006125 L11.596375,30.5006125 L11.596375,17.8751125 L20.34275,17.8751125 L18.932375,28.9542375 C18.846125,29.6304875 19.268,30.2698625 19.92525,30.4539875 L19.9555,30.4619875 L19.9575,30.4624875 L20.01775,30.4763625 L20.01775,30.4763625 L20.023875,30.4778625 L20.049,30.4827375 L20.056375,30.4839875 L20.08025,30.4878625 L20.089,30.4893625 L20.11475,30.4929875 L20.116375,30.4932375 L20.118625,30.4934875 L20.145,30.4968625 L20.148375,30.4971125 L20.1525,30.4976125 L20.178875,30.5001125 L20.18275,30.5006125 L20.207,30.5022375 L20.220625,30.5029875 L20.241125,30.5042375 L20.26775,30.5049875 L20.28125,30.5052375 L20.31125,30.5052375 L20.31875,30.5049875 L20.348625,30.5042375 L20.356125,30.5039875 L20.36375,30.5034875 L20.378625,30.5027375 L20.385875,30.5022375 L20.3935,30.5018625 L20.400875,30.5013625 L20.408375,30.5006125 L26.596625,30.5006125 L26.596625,16.8621125 L27.90475,13.5341125 L31.94325,16.1397375 L31,17.6094875 L28.096625,15.7364875 L28.096625,31.2508625 C28.096625,31.6648625 27.760625,32.0008625 27.346625,32.0008625 L4.596375,32.0008625 C4.182375,32.0008625 3.846375,31.6648625 3.846375,31.2508625 L3.846375,15.7364875 L0.94325,17.6094875 L1.77635684e-14,16.1397375 L6.721625,11.8029875 L6.721625,5.6244875 L10.096625,5.6244875 Z M23.1436875,2.25 L21.9664375,10.253125 L28.1249375,9.557375 L20.4115625,29.179 C20.3883125,29.237875 20.3234375,29.2675 20.2626875,29.25025 C20.2015625,29.23325 20.1644375,29.173875 20.1723125,29.111875 L20.1723125,29.111875 L21.9456875,15.183 L16.4576875,15.625875 L18.4728125,2.25 L23.1436875,2.25 Z" id="ðŸŽ-Culoare"></path>
            </g>
        </g>
    </g>
</svg>