<?xml version="1.0" encoding="UTF-8"?>
<svg width="255px" height="200px" viewBox="0 0 255 200" version="1.1" xmlns="http://www.w3.org/2000/svg" xmlns:xlink="http://www.w3.org/1999/xlink">
    <title>9FAC4A2F-BECA-4304-8B57-62553D666D89</title>
    <defs>
        <linearGradient x1="0%" y1="0%" x2="78.3317688%" y2="0%" id="linearGradient-1">
            <stop stop-color="#D8F6FC" stop-opacity="0" offset="0%"></stop>
            <stop stop-color="#D8F6FC" stop-opacity="0.9" offset="100%"></stop>
        </linearGradient>
        <path d="M101,-8.51613881e-05 C105.418278,-8.51613881e-05 109,3.58163684 109,7.99991484 L109,183.999915 C109,188.418193 105.418278,191.999915 101,191.999915 L8,191.999915 C3.581722,191.999915 5.41083001e-16,188.418193 0,183.999915 L0,7.99991484 C-5.41083001e-16,3.58163684 3.581722,-8.51613881e-05 8,-8.51613881e-05 L49.0274738,-0.000170322776 C49.0093199,0.16402407 49,0.330881067 49,0.499914839 C49,2.98519621 51.0147186,4.99991484 53.5,4.99991484 L53.5,4.99991484 L55.5,4.99991484 C57.9852814,4.99991484 60,2.98519621 60,0.499914839 C60,0.330881067 59.9906801,0.16402407 59.9725262,-0.000170322776 L101,-8.51613881e-05 Z" id="path-2"></path>
    </defs>
    <g id="Cover" stroke="none" stroke-width="1" fill="none" fill-rule="evenodd">
        <g id="Icons-and-illustrations" transform="translate(-772.000000, -1679.000000)">
            <g id="Group-8" transform="translate(772.000000, 1679.000000)">
                <g id="Group-26" transform="translate(0.000000, 23.000000)">
                    <path d="M211.430222,156 L8.56977821,156 C3.83724272,156 0,152.156038 0,147.415215 L0,8.58478496 C0,3.84396221 3.83724272,0 8.56977821,0 L211.430222,0 C216.162757,0 220,3.84396221 220,8.58478496 L220,147.415215 C220,152.156038 216.162757,156 211.430222,156" id="Fill-1" fill="#D8F6FC"></path>
                    <path d="M170.469149,102.971285 L145.000636,114 L119.531487,102.971285 C116.173016,101.516733 114,98.2143347 114,94.5636816 L114,28 L176,28 L176,94.5636816 C176,98.2143347 173.82762,101.516733 170.469149,102.971285" id="Fill-4" fill="#C5E9F7"></path>
                    <path d="M163.555971,40.9008174 C159.14513,40.9811652 155.694,44.7658029 155.694,49.1766435 L155.694,50.1982087 C155.694,51.573687 154.579333,52.6883536 153.203855,52.6883536 C151.827739,52.6883536 150.712435,51.573687 150.712435,50.1982087 L150.712435,43.8054551 C150.712435,40.5673101 150.297942,38.0765275 148.636783,36.8317739 C146.976899,35.5863826 144.569652,36.0008754 139.421652,36.3331072 C134.27429,36.6653391 135.353884,40.899542 135.353884,40.899542 L138.423681,40.899542 C139.750696,40.899542 140.779913,42.0569333 140.625594,43.3750203 L139.905014,50.4500928 C139.775565,51.721629 138.704899,52.6883536 137.426986,52.6883536 L136.931507,52.6883536 C135.556029,52.6883536 134.440725,51.573687 134.440725,50.1982087 L134.440725,48.9113681 C134.440725,44.4864986 130.853768,40.899542 126.428899,40.899542 C122.004667,40.899542 118.41771,44.4864986 118.41771,48.9113681 L118.41771,94.4481797 C118.41771,94.4481797 125.13313,90.9447594 127.301246,89.7994841 C129.139043,88.827658 134.440725,85.0672522 134.440725,85.0672522 L134.440725,81.8845855 L141.530464,84.1183826 C139.678,94.3123536 133.81771,97.1914841 133.81771,97.1914841 L144.963101,107.901977 L144.97458,108.091368 L145.067681,108.002093 L145.160145,108.091368 L145.170348,107.903252 L156.317014,97.1914841 C156.317014,97.1914841 150.453536,94.3104406 148.602986,84.1100928 L155.694,81.8584406 L155.694,85.0672522 C155.694,85.0672522 160.995681,88.827658 162.834116,89.7994841 C165.001594,90.9447594 171.717652,94.4481797 171.717652,94.4481797 L171.717652,48.9113681 C171.717652,44.4361217 168.049072,40.8185565 163.555971,40.9008174" id="Fill-6" fill="#EDD771"></path>
                    <polygon id="Fill-8" fill="#93C9D3" points="131.420986 68.474087 145.044406 68.474087 145.044406 55.0011594 131.420986 55.0011594"></polygon>
                    <path d="M133.499635,81.2509217 L145.044214,85.4889507 L145.044214,68.4737043 L131.420794,68.4737043 L131.420794,78.2729507 C131.420794,79.6037913 132.251055,80.792429 133.499635,81.2509217" id="Fill-10" fill="#F1BB97"></path>
                    <polygon id="Fill-11" fill="#F1BB97" points="145.044406 68.474087 158.667826 68.474087 158.667826 55.0011594 145.044406 55.0011594"></polygon>
                    <path d="M156.588794,81.2509217 L145.044214,85.4889507 L145.044214,68.4737043 L158.668272,68.4737043 L158.668272,78.2735884 C158.668272,79.6037913 157.838012,80.792429 156.588794,81.2509217" id="Fill-12" fill="#93C9D3"></path>
                    <polygon id="Fill-13" fill="#EDFCFF" points="9 144 211 144 211 120 9 120"></polygon>
                    <polygon id="Fill-14" fill="#415FA3" points="67.5750725 19.4293913 97.7348406 19.4293913 97.7348406 5.85762319 67.5750725 5.85762319"></polygon>
                    <polygon id="Fill-15" fill="#F8DF4D" points="97.7405797 19.4293913 127.900348 19.4293913 127.900348 5.85762319 97.7405797 5.85762319"></polygon>
                    <polygon id="Fill-16" fill="#EA4444" points="127.900348 19.4293913 158.060116 19.4293913 158.060116 5.85762319 127.900348 5.85762319"></polygon>
                    <path d="M206.435055,14.0531014 L208.320678,14.0531014 L207.390939,11.1554783 L206.435055,14.0531014 Z M206.536446,9.472 L208.277316,9.472 L210.882881,16.8353043 L209.213432,16.8353043 L208.728157,15.322087 L206.016736,15.322087 L205.517432,16.8353043 L203.907925,16.8353043 L206.536446,9.472 Z M201.46433,16.8353043 L202.992852,16.8353043 L202.992852,9.472 L201.46433,9.472 L201.46433,16.8353043 Z M194.174997,9.472 L195.78833,9.472 L198.711461,14.6066087 L198.711461,9.472 L200.144968,9.472 L200.144968,16.8353043 L198.606881,16.8353043 L195.608504,11.6107826 L195.608504,16.8353043 L194.174997,16.8353043 L194.174997,9.472 Z M188.816562,14.0531014 L190.702186,14.0531014 L189.771809,11.1554783 L188.816562,14.0531014 Z M188.917316,9.472 L190.658823,9.472 L193.263751,16.8353043 L191.595577,16.8353043 L191.109664,15.322087 L188.397606,15.322087 L187.898939,16.8353043 L186.288794,16.8353043 L188.917316,9.472 Z M183.174359,9.472 L185.388388,9.472 L185.388388,16.8353043 L183.954881,16.8353043 L183.954881,11.8550145 C183.954881,11.7121739 183.956157,11.5113043 183.959983,11.2530435 C183.963171,10.9954203 183.965084,10.7958261 183.965084,10.6561739 L182.5692,16.8353043 L181.073838,16.8353043 L179.688794,10.6561739 C179.688794,10.7958261 179.690707,10.9954203 179.693258,11.2530435 C179.697084,11.5113043 179.698359,11.7121739 179.698359,11.8550145 L179.698359,16.8353043 L178.264852,16.8353043 L178.264852,9.472 L180.503751,9.472 L181.844157,15.2621449 L183.174359,9.472 Z M175.040736,15.0625507 C175.397838,14.6123478 175.577026,13.9733913 175.577026,13.1437681 C175.577026,12.317971 175.397838,11.6796522 175.040736,11.2281739 C174.682359,10.7766957 174.198359,10.5509565 173.588736,10.5509565 C172.979751,10.5509565 172.4932,10.776058 172.130359,11.2256232 C171.767519,11.6751884 171.586417,12.3147826 171.586417,13.1437681 C171.586417,13.9733913 171.767519,14.6123478 172.130359,15.0625507 C172.4932,15.5114783 172.979751,15.7365797 173.588736,15.7365797 C174.198359,15.7365797 174.682359,15.5114783 175.040736,15.0625507 L175.040736,15.0625507 Z M176.001722,16.1810435 C175.445664,16.7536812 174.641548,17.0406377 173.588736,17.0406377 C172.536562,17.0406377 171.732446,16.7536812 171.176388,16.1810435 C170.430301,15.4783188 170.057258,14.4656812 170.057258,13.1437681 C170.057258,11.7950725 170.430301,10.7830725 171.176388,10.1064928 C171.732446,9.53385507 172.536562,9.24753623 173.588736,9.24753623 C174.641548,9.24753623 175.445664,9.53385507 176.001722,10.1064928 C176.743983,10.7830725 177.115751,11.7950725 177.115751,13.1437681 C177.115751,14.4656812 176.743983,15.4783188 176.001722,16.1810435 L176.001722,16.1810435 Z M164.482649,10.7511884 L164.482649,12.7292754 L166.138707,12.7292754 C166.467113,12.7292754 166.713896,12.6891014 166.878417,12.6093913 C167.169838,12.4697391 167.314591,12.1929855 167.314591,11.7804058 C167.314591,11.334029 167.174301,11.0343188 166.892446,10.8806377 C166.734301,10.7945507 166.497084,10.7511884 166.180794,10.7511884 L164.482649,10.7511884 Z M167.662128,9.66202899 C167.93378,9.77872464 168.163345,9.95026087 168.351461,10.1766377 C168.507693,10.3628406 168.631403,10.5694493 168.721954,10.7958261 C168.813142,11.0228406 168.858417,11.2804638 168.858417,11.569971 C168.858417,11.920058 168.770417,12.2637681 168.59378,12.6017391 C168.417142,12.9397101 168.125722,13.1788406 167.719519,13.3184928 C168.058765,13.4555942 168.299809,13.6494493 168.441374,13.9006957 C168.582939,14.151942 168.653722,14.5358261 168.653722,15.0517101 L168.653722,15.5465507 C168.653722,15.8832464 168.667113,16.1115362 168.693896,16.2314203 C168.734707,16.4208116 168.829084,16.5611014 168.978301,16.6503768 L168.978301,16.8353043 L167.280157,16.8353043 C167.232968,16.672058 167.200446,16.5406957 167.180041,16.4412174 C167.139867,16.2346087 167.118823,16.0228986 167.114997,15.8067246 L167.104794,15.1218551 C167.098417,14.6525217 167.01807,14.3394203 166.8612,14.1831884 C166.705606,14.0263188 166.413548,13.9478841 165.985026,13.9478841 L164.482649,13.9478841 L164.482649,16.8353043 L162.978997,16.8353043 L162.978997,9.472 L166.50091,9.472 C167.004041,9.4822029 167.391113,9.54533333 167.662128,9.66202899 L167.662128,9.66202899 Z M63.0919826,10.776058 L59.1957507,10.776058 L59.1957507,12.3396522 L62.7718667,12.3396522 L62.7718667,13.6182029 L59.1957507,13.6182029 L59.1957507,15.5114783 L63.2718087,15.5114783 L63.2718087,16.8353043 L57.6920986,16.8353043 L57.6920986,9.472 L63.0919826,9.472 L63.0919826,10.776058 Z M54.6796928,16.8353043 L56.2082145,16.8353043 L56.2082145,9.472 L54.6796928,9.472 L54.6796928,16.8353043 Z M47.3916348,9.472 L49.0043304,9.472 L51.9274609,14.6066087 L51.9274609,9.472 L53.3609681,9.472 L53.3609681,16.8353043 L51.8228812,16.8353043 L48.825142,11.6107826 L48.825142,16.8353043 L47.3916348,16.8353043 L47.3916348,9.472 Z M42.0325623,14.0531014 L43.9181855,14.0531014 L42.9878087,11.1554783 L42.0325623,14.0531014 Z M42.1333159,9.472 L43.8741855,9.472 L46.4797507,16.8353043 L44.8109391,16.8353043 L44.3250261,15.322087 L41.6136058,15.322087 L41.1143014,16.8353043 L39.5047942,16.8353043 L42.1333159,9.472 Z M36.3903594,9.472 L38.6043884,9.472 L38.6043884,16.8353043 L37.1708812,16.8353043 L37.1708812,11.8550145 C37.1708812,11.7121739 37.1721565,11.5113043 37.1753449,11.2530435 C37.179171,10.9954203 37.1804464,10.7958261 37.1804464,10.6561739 L35.7852,16.8353043 L34.2898377,16.8353043 L32.9047942,10.6561739 C32.9047942,10.7958261 32.9060696,10.9954203 32.909258,11.2530435 C32.9130841,11.5113043 32.9143594,11.7121739 32.9143594,11.8550145 L32.9143594,16.8353043 L31.4808522,16.8353043 L31.4808522,9.472 L33.7197507,9.472 L35.0601565,15.2621449 L36.3903594,9.472 Z M24.1175478,9.472 L25.681142,9.472 L25.681142,13.9944348 C25.681142,14.5001159 25.7410841,14.8693333 25.8603304,15.1027246 C26.0465333,15.5153043 26.4508232,15.7212754 27.075113,15.7212754 C27.6955768,15.7212754 28.0985913,15.5153043 28.2841565,15.1027246 C28.4040406,14.8693333 28.4639826,14.5001159 28.4639826,13.9944348 L28.4639826,9.472 L30.0269391,9.472 L30.0269391,13.9982609 C30.0269391,14.7806957 29.9057797,15.3903188 29.6634609,15.8264928 C29.2113449,16.6255072 28.3485623,17.0253333 27.075113,17.0253333 C25.8016638,17.0253333 24.9369681,16.6255072 24.4816638,15.8264928 C24.2387072,15.3903188 24.1175478,14.7806957 24.1175478,13.9982609 L24.1175478,9.472 Z M20.8679246,15.0625507 C21.2256638,14.6123478 21.4048522,13.9733913 21.4048522,13.1437681 C21.4048522,12.317971 21.2256638,11.6796522 20.8679246,11.2281739 C20.5101855,10.7766957 20.0261855,10.5509565 19.4165623,10.5509565 C18.8075768,10.5509565 18.3210261,10.776058 17.9581855,11.2256232 C17.5953449,11.6751884 17.4136058,12.3147826 17.4136058,13.1437681 C17.4136058,13.9733913 17.5953449,14.6123478 17.9581855,15.0625507 C18.3210261,15.5114783 18.8075768,15.7365797 19.4165623,15.7365797 C20.0261855,15.7365797 20.5101855,15.5114783 20.8679246,15.0625507 L20.8679246,15.0625507 Z M21.8295478,16.1810435 C21.2734899,16.7536812 20.4693739,17.0406377 19.4165623,17.0406377 C18.3643884,17.0406377 17.5602725,16.7536812 17.0042145,16.1810435 C16.2581275,15.4783188 15.8850841,14.4656812 15.8850841,13.1437681 C15.8850841,11.7950725 16.2581275,10.7830725 17.0042145,10.1064928 C17.5602725,9.53385507 18.3643884,9.24753623 19.4165623,9.24753623 C20.4693739,9.24753623 21.2734899,9.53385507 21.8295478,10.1064928 C22.5718087,10.7830725 22.9435768,11.7950725 22.9435768,13.1437681 C22.9435768,14.4656812 22.5718087,15.4783188 21.8295478,16.1810435 L21.8295478,16.1810435 Z M10.3098377,10.7511884 L10.3098377,12.7292754 L11.9658957,12.7292754 C12.2949391,12.7292754 12.5417217,12.6891014 12.7062435,12.6093913 C12.9970261,12.4697391 13.1424174,12.1929855 13.1424174,11.7804058 C13.1424174,11.334029 13.0021275,11.0343188 12.7202725,10.8806377 C12.5621275,10.7945507 12.3249101,10.7511884 12.0086203,10.7511884 L10.3098377,10.7511884 Z M13.4899536,9.66202899 C13.7616058,9.77872464 13.991171,9.95026087 14.179287,10.1766377 C14.3355188,10.3628406 14.4585913,10.5694493 14.5497797,10.7958261 C14.6403304,11.0228406 14.6862435,11.2804638 14.6862435,11.569971 C14.6862435,11.920058 14.5982435,12.2637681 14.4216058,12.6017391 C14.2449681,12.9397101 13.9535478,13.1788406 13.5473449,13.3184928 C13.8865913,13.4555942 14.1276348,13.6494493 14.2692,13.9006957 C14.4107652,14.151942 14.4815478,14.5358261 14.4815478,15.0517101 L14.4815478,15.5465507 C14.4815478,15.8832464 14.4949391,16.1115362 14.5217217,16.2314203 C14.5625333,16.4208116 14.6569101,16.5611014 14.8061275,16.6503768 L14.8061275,16.8353043 L13.1079826,16.8353043 C13.0607942,16.672058 13.0276348,16.5406957 13.0078667,16.4412174 C12.9676928,16.2346087 12.9460116,16.0228986 12.9428232,15.8067246 L12.9326203,15.1218551 C12.9262435,14.6525217 12.845258,14.3394203 12.6890261,14.1831884 C12.5334319,14.0263188 12.2413739,13.9478841 11.8128522,13.9478841 L10.3098377,13.9478841 L10.3098377,16.8353043 L8.80682319,16.8353043 L8.80682319,9.472 L12.3280986,9.472 C12.8318667,9.4822029 13.2189391,9.54533333 13.4899536,9.66202899 L13.4899536,9.66202899 Z" id="Fill-17" fill="#7E8E93"></path>
                    <path d="M117,103 C117.552285,103 118,103.447715 118,104 L118,108 C118,108.552285 117.552285,109 117,109 L69,109 C68.4477153,109 68,108.552285 68,108 L68,104 C68,103.447715 68.4477153,103 69,103 L117,103 Z M210,103 C210.552285,103 211,103.447715 211,104 L211,108 C211,108.552285 210.552285,109 210,109 L184,109 C183.447715,109 183,108.552285 183,108 L183,104 C183,103.447715 183.447715,103 184,103 L210,103 Z M120,85 C120.552285,85 121,85.4477153 121,86 L121,90 C121,90.5522847 120.552285,91 120,91 L69,91 C68.4477153,91 68,90.5522847 68,90 L68,86 C68,85.4477153 68.4477153,85 69,85 L120,85 Z M97,67 C97.5522847,67 98,67.4477153 98,68 L98,72 C98,72.5522847 97.5522847,73 97,73 L69,73 C68.4477153,73 68,72.5522847 68,72 L68,68 C68,67.4477153 68.4477153,67 69,67 L97,67 Z M110,49 C110.552285,49 111,49.4477153 111,50 L111,54 C111,54.5522847 110.552285,55 110,55 L69,55 C68.4477153,55 68,54.5522847 68,54 L68,50 C68,49.4477153 68.4477153,49 69,49 L110,49 Z M106,31 C106.552285,31 107,31.4477153 107,32 L107,36 C107,36.5522847 106.552285,37 106,37 L69,37 C68.4477153,37 68,36.5522847 68,36 L68,32 C68,31.4477153 68.4477153,31 69,31 L106,31 Z" id="Combined-Shape" fill="#A5ACE8"></path>
                    <polygon id="Fill-24" fill="#EDFCFF" points="9 109 63 109 63 28 9 28"></polygon>
                    <path d="M30.8473111,85.8244302 L36,85 L36,85 L41.1526889,85.8244302 C52.8508505,87.6961361 61.8211842,97.2118424 63,109 L63,109 L63,109 L9,109 C10.1788158,97.2118424 19.1491495,87.6961361 30.8473111,85.8244302 Z" id="Rectangle" fill="#3C968D"></path>
                    <path d="M36,84 L41.1526889,84.8244302 C42.1619046,84.9859047 43.4947848,85.3300365 45.1513295,85.8568254 C46.252271,86.206937 47,87.2293447 47,88.3846154 L47,88.3846154 L47,88.3846154 C47,91.9154615 42.0751322,96 36,96 C29.9248678,96 25,91.9154615 25,88.3846154 C24.9991394,87.2298877 25.7461702,86.2075635 26.8465755,85.8575565 C28.5040156,85.3303604 29.8375941,84.9859849 30.8473111,84.8244302 L36,84 Z" id="Path" fill="#6EC5AB"></path>
                    <path d="M28,75 L44,75 L44,86.7692308 C44,89.6581048 40.418278,93 36,93 C31.581722,93 28,89.6581048 28,86.7692308 L28,75 Z" id="Rectangle" fill="#FFD8C2"></path>
                    <path d="M28,76 L44,76 L44,83 C44,89 28,89.5 28,85 L28,76 Z" id="Rectangle" fill="#F0BDA1"></path>
                    <path d="M21,54 L51,54 L51,72 C51,79.7319865 44.7319865,86 37,86 L35,86 C27.2680135,86 21,79.7319865 21,72 L21,54 L21,54 Z" id="Rectangle" fill="#FFD8C2"></path>
                    <ellipse id="Oval" fill="#2E485D" cx="36" cy="53" rx="11" ry="5"></ellipse>
                    <path d="M28,44 L28,55.5 C28,56.8807119 26.8807119,58 25.5,58 L25,58 C23.8954305,58 23,58.8954305 23,60 L23,64 C23,65.1045695 22.1045695,66 21,66 L21,66 L21,66 L21,51 C21,47.1340068 24.1340068,44 28,44 L28,44 L28,44 Z" id="Path" fill="#2E485D"></path>
                    <path d="M51,51 L29,51 L29,56 C29,57.1045695 28.1045695,58 27,58 C25.8954305,58 25,58.8954305 25,60 L25,64 C25,65.1045695 24.1045695,66 23,66 L23,66 L23,66 L23,52 C23,44.8202983 28.8202983,39 36,39 C36.6666667,39 37.3333333,39 38,39 C39,39 40,39 41,39 C46.5228475,39 51,43.4771525 51,49 L51,51 L51,51 Z" id="Path" fill="#2E485D" transform="translate(37.000000, 52.500000) scale(-1, 1) translate(-37.000000, -52.500000) "></path>
                    <path d="M204,134 L16,134 C14.9241609,134 14,134.895062 14,136 C14,137.104938 14.9241609,138 16,138 L204,138 C205.075839,138 206,137.104938 206,136 C206,134.895062 205.075839,134 204,134 M204,130 L16,130 C14.9241609,130 14,129.104459 14,128 C14,126.895541 14.9241609,126 16,126 L204,126 C205.075839,126 206,126.895541 206,128 C206,129.104459 205.075839,130 204,130" id="Fill-25" fill="#A5ACE8"></path>
                    <path d="M21,61 L21,70 L20.1400762,70 C18.8245446,70 17.7018301,68.9397609 17.485558,67.493197 L17.0370357,64.493197 C16.7926941,62.858886 17.7830843,61.3132034 19.2491342,61.0408182 C19.3953473,61.0136525 19.5433239,61 19.6915539,61 L21,61 Z M52.3084461,61 C52.4566761,61 52.6046527,61.0136525 52.7508658,61.0408182 C54.1626176,61.303115 55.1332912,62.7461376 54.9850707,64.3120318 L54.9629643,64.493197 L54.514442,67.493197 C54.3071812,68.8794874 53.2674413,69.910976 52.0233094,69.9945267 L51.8599238,70 L51,70 L51,61 L52.3084461,61 Z" id="Shape" fill="#F7CBB2"></path>
                    <path d="M40,78 C40,79.1045695 39.1045695,80 38,80 L34,80 C32.8954305,80 32,79.1045695 32,78 L40,78 Z M38,73 C38,74.1045695 37.1045695,75 36,75 C34.8954305,75 34,74.1045695 34,73 L38,73 Z" id="Combined-Shape" fill="#F0BDA1"></path>
                    <path d="M43,65 C44.1045695,65 45,65.8954305 45,67 C45,68.1045695 44.1045695,69 43,69 C41.8954305,69 41,68.1045695 41,67 C41,65.8954305 41.8954305,65 43,65 Z M29,65 C30.1045695,65 31,65.8954305 31,67 C31,68.1045695 30.1045695,69 29,69 C27.8954305,69 27,68.1045695 27,67 C27,65.8954305 27.8954305,65 29,65 Z" id="Combined-Shape" fill="#2E485D"></path>
                </g>
                <rect id="Rectangle" fill="url(#linearGradient-1)" x="51" y="23" width="91" height="156"></rect>
                <g id="Group-7" transform="translate(137.000000, 0.000000)">
                    <path d="M11.8569783,0 L106.856978,0 C112.932111,-1.11598369e-15 117.856978,4.92486775 117.856978,11 L117.856978,189 C117.856978,195.075132 112.932111,200 106.856978,200 L11.8569783,200 C5.78184601,200 0.856978263,195.075132 0.856978263,189 L0.856978263,11 C0.856978263,4.92486775 5.78184601,1.11598369e-15 11.8569783,0 Z" id="Mask" fill="#2E485D"></path>
                    <g id="Group" transform="translate(4.856978, 4.000000)">
                        <mask id="mask-3" fill="white">
                            <use xlink:href="#path-2"></use>
                        </mask>
                        <use id="Combined-Shape" fill="#FCF9F5" xlink:href="#path-2"></use>
                        <g mask="url(#mask-3)">
                            <g transform="translate(-2.000000, 30.000000)">
                                <path d="M56.5,96 L56.5,96 L56.5,96 C87.128181,100.934583 110.304489,126.344294 112.408366,157.296019 L113,166 L113,166 L0,166 L0.591634325,157.296019 C2.69551115,126.344294 25.871819,100.934583 56.5,96 Z" id="Rectangle" fill="#2C968B"></path>
                                <path d="M56.5890411,94.3150685 L67.3885124,96.0429839 C69.5037126,96.3814159 72.2972747,97.1026755 75.7691988,98.2067627 C78.0766693,98.9405434 79.6438356,101.083409 79.6438356,103.504742 L79.6438356,103.504742 L79.6438356,103.504742 C79.6438356,110.905008 69.3218525,119.465753 56.5890411,119.465753 C43.8562297,119.465753 33.5342466,110.905008 33.5342466,103.504742 C33.5324429,101.084572 35.0981293,98.9419028 37.4044405,98.2083116 C40.8782653,97.1033616 43.6733084,96.3815857 45.7895698,96.0429839 L56.5890411,94.3150685 Z" id="Path" fill="#6EC5AB"></path>
                                <path d="M39.8219178,75.4520548 L73.3561644,75.4520548 L73.3561644,100.119073 C73.3561644,106.173836 65.8492676,113.178082 56.5890411,113.178082 C47.3288146,113.178082 39.8219178,106.173836 39.8219178,100.119073 L39.8219178,75.4520548 Z" id="Rectangle" fill="#FFD8C2"></path>
                                <path d="M39.8219178,77.5479452 L73.3561644,77.5479452 L73.3561644,92.2191781 C73.3561644,104.794521 39.8219178,105.842466 39.8219178,96.4109589 L39.8219178,77.5479452 Z" id="Rectangle" fill="#F0BDA1"></path>
                                <path d="M25,31 L88,31 L88,68.6575342 C88,84.8629306 74.8629306,98 58.6575342,98 L54.3424658,98 C38.1370694,98 25,84.8629306 25,68.6575342 L25,31 L25,31 Z" id="Rectangle" fill="#FFD8C2"></path>
                                <ellipse id="Oval" fill="#2E485D" cx="56.5890411" cy="29.3424658" rx="23.0547945" ry="10.4794521"></ellipse>
                                <path d="M39.8219178,10.4794521 L39.8219178,34.5821918 C39.8219178,37.4760126 37.4760126,39.8219178 34.5821918,39.8219178 L33.5342466,39.8219178 C31.21919,39.8219178 29.3424658,41.698642 29.3424658,44.0136986 L29.3424658,52.3972603 C29.3424658,54.7123169 27.4657416,56.5890411 25.1506849,56.5890411 L25.1506849,56.5890411 L25.1506849,56.5890411 L25.1506849,25.1506849 C25.1506849,17.0479868 31.7192196,10.4794521 39.8219178,10.4794521 L39.8219178,10.4794521 L39.8219178,10.4794521 Z" id="Path" fill="#2E485D"></path>
                                <path d="M88.0273973,25.1506849 L43.9178082,25.1506849 L43.9178082,35.630137 C43.9178082,37.9451936 42.041084,39.8219178 39.7260274,39.8219178 C37.4109708,39.8219178 35.5342466,41.698642 35.5342466,44.0136986 L35.5342466,52.3972603 C35.5342466,54.7123169 33.6575224,56.5890411 31.3424658,56.5890411 L31.3424658,56.5890411 L31.3424658,56.5890411 L31.3424658,27.2465753 C31.3424658,12.1987073 43.541173,3.47386716e-14 58.5890411,3.55271368e-14 C59.9863014,3.55271368e-14 61.3835616,3.55271368e-14 62.7808219,3.55271368e-14 C64.2100457,3.55271368e-14 65.6392694,3.55271368e-14 67.0684932,3.55271368e-14 C78.6437763,3.34007918e-14 88.0273973,9.383621 88.0273973,20.9589041 L88.0273973,25.1506849 L88.0273973,25.1506849 Z" id="Path" fill="#2E485D" transform="translate(59.684932, 28.294521) scale(-1, 1) translate(-59.684932, -28.294521) "></path>
                                <path d="M25.1506849,46.109589 L25.1506849,64.9726027 L23.3483789,64.9726027 C20.5911687,64.9726027 18.2380823,62.7504577 17.7847997,59.7186183 L16.8447461,53.4309471 C16.3326328,50.0056104 18.4083821,46.766029 21.481062,46.1951396 C21.7875088,46.1382032 22.0976515,46.109589 22.4083252,46.109589 L25.1506849,46.109589 Z M90.769757,46.109589 C91.0804307,46.109589 91.3905734,46.1382032 91.6970201,46.1951396 C94.6558971,46.744885 96.6903227,49.7693021 96.3796688,53.0512447 L96.3333361,53.4309471 L95.3932825,59.7186183 C94.9588867,62.6241311 92.7797057,64.7860183 90.1721416,64.9611312 L89.8297033,64.9726027 L88.0273973,64.9726027 L88.0273973,46.109589 L90.769757,46.109589 Z" id="Shape" fill="#F7CBB2"></path>
                                <path d="M65,82 C65,84.209139 63.209139,86 61,86 L52,86 C49.790861,86 48,84.209139 48,82 L65,82 Z M61.2054795,71 C61.2054795,73.209139 59.4146185,75 57.2054795,75 L56.2054795,75 C53.9963405,75 52.2054795,73.209139 52.2054795,71 L61.2054795,71 Z" id="Combined-Shape" fill="#F0BDA1"></path>
                                <path d="M72.1430217,54 C74.3521607,54 76.1430217,55.790861 76.1430217,58 C76.1430217,60.209139 74.3521607,62 72.1430217,62 C69.9338827,62 68.1430217,60.209139 68.1430217,58 C68.1430217,55.790861 69.9338827,54 72.1430217,54 Z M42.1430217,54 C44.3521607,54 46.1430217,55.790861 46.1430217,58 C46.1430217,60.209139 44.3521607,62 42.1430217,62 C39.9338827,62 38.1430217,60.209139 38.1430217,58 C38.1430217,55.790861 39.9338827,54 42.1430217,54 Z" id="Combined-Shape" fill="#2E485D"></path>
                            </g>
                        </g>
                    </g>
                    <g id="Group-2" transform="translate(46.856978, 160.000000)">
                        <circle id="Oval" fill="#EEEEEE" opacity="0.5" cx="12.5" cy="12.5" r="12.5"></circle>
                        <circle id="Oval" fill="#FFFFFF" cx="12.5" cy="12.5" r="8.5"></circle>
                    </g>
                </g>
                <line x1="36" y1="62" x2="180.356789" y2="36.8944714" id="Path-2" stroke="#6EC5AB" stroke-linecap="round"></line>
                <line x1="36" y1="109" x2="185.66212" y2="130.446908" id="Path-2" stroke="#6EC5AB" stroke-linecap="round"></line>
                <line x1="51" y1="88" x2="165" y2="88" id="Path-2" stroke="#6EC5AB" stroke-linecap="round"></line>
                <circle id="Oval" fill="#6EC5AB" cx="197" cy="34" r="2"></circle>
                <circle id="Oval" fill="#6EC5AB" cx="36" cy="62" r="2"></circle>
                <circle id="Oval" fill="#6EC5AB" cx="54" cy="88" r="2"></circle>
                <circle id="Oval" fill="#6EC5AB" cx="162" cy="88" r="2"></circle>
                <circle id="Oval" fill="#6EC5AB" cx="36" cy="109" r="2"></circle>
                <circle id="Oval" fill="#6EC5AB" cx="197" cy="132" r="2"></circle>
                <path d="M36,62 L39,62 C45.627417,62 51,67.372583 51,74 L51,95 C51,102.731986 44.7319865,109 37,109 L36,109 L36,109" id="Rectangle" stroke="#6EC5AB" stroke-width="2" stroke-linecap="round"></path>
                <path d="M197,132 L195,132 C178.431458,132 165,118.568542 165,102 L165,58.0138782 C165,52.6122563 168.406323,47.7977684 173.5,46 L173.5,46 L173.5,46 C175.888761,38.8337165 182.595185,34 190.149111,34 L197,34 L197,34" id="Path-6" stroke="#6EC5AB" stroke-width="2" stroke-linecap="round"></path>
            </g>
        </g>
    </g>
</svg>