<?xml version="1.0" encoding="UTF-8"?>
<svg width="210px" height="112px" viewBox="0 0 210 112" version="1.1" xmlns="http://www.w3.org/2000/svg" xmlns:xlink="http://www.w3.org/1999/xlink">
    <title>09E37091-7007-44B2-B4EE-4B8B526DF193@2x</title>
    <g id="Cover" stroke="none" stroke-width="1" fill="none" fill-rule="evenodd">
        <g id="Icons-and-illustrations" transform="translate(-984.000000, -602.000000)">
            <g id="UI/Misc/Ilustratii/Casa-1" transform="translate(984.000000, 602.000000)">
                <g id="Group" transform="translate(86.000000, 24.000000)">
                    <path d="M48,12 L48,72 L20.8077943,72 C19.9691418,72 19.2358573,71.4347194 19.0224259,70.6236799 L5.53846154,19.3846154 L9.81685245,18.6405964 C9.73460549,19.3386963 9.69230769,20.0490239 9.69230769,20.7692308 C9.69230769,30.7103563 17.7511822,38.7692308 27.6923077,38.7692308 C37.6334332,38.7692308 45.6923077,30.7103563 45.6923077,20.7692308 C45.6923077,17.8801412 45.0116554,15.1500265 43.8019608,12.7304965 L48,12 Z" id="Combined-Shape" fill="#FFD433"></path>
                    <path d="M90.4615385,12 L90.4615385,72 L63.2693327,72 C62.4306802,72 61.6973958,71.4347194 61.4839644,70.6236799 L48,19.3846154 L52.2783909,18.6405964 C52.196144,19.3386963 52.1538462,20.0490239 52.1538462,20.7692308 C52.1538462,30.7103563 60.2127207,38.7692308 70.1538462,38.7692308 C80.0949717,38.7692308 88.1538462,30.7103563 88.1538462,20.7692308 C88.1538462,17.8801412 87.4731939,15.1500265 86.2634992,12.7304965 L90.4615385,12 Z" id="Combined-Shape" fill="#FFC619" transform="translate(69.230769, 42.000000) scale(-1, 1) translate(-69.230769, -42.000000) "></path>
                    <path d="M89.5384615,13.8461538 C93.1070707,13.8461538 96,16.7390832 96,20.3076923 C96,23.8763015 93.1070707,26.7692308 89.5384615,26.7692308 C85.9698524,26.7692308 83.0769231,23.8763015 83.0769231,20.3076923 C83.0769231,16.7390832 85.9698524,13.8461538 89.5384615,13.8461538 Z M6.46153846,13.8461538 C10.0301476,13.8461538 12.9230769,16.7390832 12.9230769,20.3076923 C12.9230769,23.8763015 10.0301476,26.7692308 6.46153846,26.7692308 C2.89292931,26.7692308 0,23.8763015 0,20.3076923 C0,16.7390832 2.89292931,13.8461538 6.46153846,13.8461538 Z M48,0 C52.5882118,0 56.3076923,3.71948054 56.3076923,8.30769231 C56.3076923,12.8959041 52.5882118,16.6153846 48,16.6153846 C43.4117882,16.6153846 39.6923077,12.8959041 39.6923077,8.30769231 C39.6923077,3.71948054 43.4117882,0 48,0 Z" id="Combined-Shape" fill="#FFD226"></path>
                    <path d="M18.9230769,65.5384615 L48,65.5384615 L48,65.5384615 L48,72 L18.9230769,72 C17.1387723,72 15.6923077,70.5535353 15.6923077,68.7692308 C15.6923077,66.9849262 17.1387723,65.5384615 18.9230769,65.5384615 Z" id="Rectangle" fill="#F2C724"></path>
                    <path d="M51.2307692,65.5384615 L80.3076923,65.5384615 L80.3076923,65.5384615 L80.3076923,72 L51.2307692,72 C49.4464647,72 48,70.5535353 48,68.7692308 C48,66.9849262 49.4464647,65.5384615 51.2307692,65.5384615 Z" id="Rectangle" fill="#E8B005" transform="translate(64.153846, 68.769231) scale(-1, 1) translate(-64.153846, -68.769231) "></path>
                </g>
            </g>
        </g>
    </g>
</svg>